/* XPM */
static char *result[] = {
/* columns rows colors chars-per-pixel */
"76 76 176 2 ",
"   c #361B1B",
".  c #3A1D1C",
"X  c #3F241E",
"o  c #6E1A1A",
"O  c #7A1212",
"+  c #7E1917",
"@  c #7F1B18",
"#  c #7F330E",
"$  c #79390B",
"%  c #422424",
"&  c #4D2D2C",
"*  c #5C2B2A",
"=  c #7F2221",
"-  c #5A4129",
";  c #7F6837",
":  c #9B0708",
">  c #971A1A",
",  c #9C1C1C",
"<  c #A10C0C",
"1  c #BF0001",
"2  c #B40903",
"3  c #A21F1F",
"4  c #82201C",
"5  c #9C241E",
"6  c #A3201F",
"7  c #9B2222",
"8  c #8E3736",
"9  c #AC2323",
"0  c #B42726",
"q  c #B63029",
"w  c #A63E3E",
"e  c #C50701",
"r  c #D21701",
"t  c #D61A00",
"y  c #C31415",
"u  c #CA2D0F",
"i  c #D72703",
"p  c #DA3302",
"a  c #E42C00",
"s  c #E93100",
"d  c #E93E06",
"f  c #C62526",
"g  c #C83E27",
"h  c #CA3A3B",
"j  c #83440E",
"k  c #8C4E11",
"l  c #925512",
"z  c #9E6116",
"x  c #AA6E1A",
"c  c #B57A1D",
"v  c #854C23",
"b  c #9A4626",
"n  c #8B552E",
"m  c #A74128",
"M  c #AB4A2C",
"N  c #BE4B32",
"B  c #A3573E",
"V  c #BF5033",
"C  c #94652A",
"Z  c #A07630",
"A  c #A87734",
"S  c #D65A11",
"D  c #DD7716",
"F  c #EC7C12",
"G  c #D54932",
"H  c #E85531",
"J  c #FD593D",
"K  c #C76F3D",
"L  c #C8713E",
"P  c #E46725",
"I  c #EA623E",
"U  c #9D5352",
"Y  c #AB4B4B",
"T  c #BC4443",
"R  c #B15959",
"E  c #9A6D4C",
"W  c #B66767",
"Q  c #AB7070",
"!  c #BD7878",
"~  c #C86F6F",
"^  c #D36969",
"/  c #BE841F",
"(  c #BF8521",
")  c #A18434",
"_  c #B8853B",
"`  c #A29137",
"'  c #A39638",
"]  c #F28000",
"[  c #F08A19",
"{  c #E9A61E",
"}  c #F6A91B",
"|  c #EFC501",
" . c #F9D826",
".. c #FFFC2D",
"X. c #FDF130",
"o. c #BC8B41",
"O. c #A7945A",
"+. c #BCAC4B",
"@. c #BAA07E",
"#. c #BEB67A",
"$. c #CF8846",
"%. c #CF9857",
"&. c #D6A44F",
"*. c #CCAB50",
"=. c #CBA158",
"-. c #D5B852",
";. c #E2A855",
":. c #C79964",
">. c #EB9162",
",. c #FC9364",
"<. c #EB957D",
"1. c #CEA865",
"2. c #D0A26C",
"3. c #D4A970",
"4. c #DCAA73",
"5. c #E8B87B",
"6. c #D1C153",
"7. c #DEC85A",
"8. c #F5DF46",
"9. c #E1CF5C",
"0. c #E2D15D",
"q. c #F2E843",
"w. c #E7D665",
"e. c #ECDC6D",
"r. c #FCD964",
"t. c #EFCF76",
"y. c #F4E17E",
"u. c #76668A",
"i. c #82749C",
"p. c #897DAB",
"a. c #D77F80",
"s. c #B69782",
"d. c #AE9A9A",
"f. c #B696A2",
"g. c #D48686",
"h. c #DA8D8D",
"j. c #C89393",
"k. c #CD9F9F",
"l. c #DB9596",
"z. c #DD9F9F",
"x. c #D8B587",
"c. c #C2AA99",
"v. c #C4AAAB",
"b. c #DFA7A8",
"n. c #C8B3A5",
"m. c #D9B5B5",
"M. c #DDB8B8",
"N. c #ECACA1",
"B. c #EBB4A5",
"V. c #FBC586",
"C. c #E5D18D",
"Z. c #F9EB84",
"A. c #F8EB88",
"S. c #F7EB98",
"D. c #DAC7A8",
"F. c #CDC9B2",
"G. c #F2CEB4",
"H. c #E2D1B8",
"J. c #F4EBAB",
"K. c #998EC5",
"L. c #9E93CC",
"P. c #A299CA",
"I. c #A39BD1",
"U. c #DAC0C0",
"Y. c #DBD2CB",
"T. c #C3C9DB",
"R. c #E3C8C8",
"E. c #F1DFCA",
"W. c #E0D9D4",
"Q. c #E8DAD9",
"!. c #E9E5C6",
"~. c #EFECD2",
"^. c #E7E4D9",
"/. c #EBE4DD",
"(. c #E7E3E1",
"). c #ffECECEC",
/* pixels */
").).).).).).).).).).).).).).).).).).).).).).).).).).).).).).).).).).).).).).).).).).).).).).).).).).).).).).).).).).).).).).).).).).).).).).).).).).).).",
").).).).).).).).).).).).).).).).).).).).).).).).).).).).).).).).).).).).).).).).).).).).).).).).).).).).).).).).).).).).).).).).).).).).).).).).).).).).",
").).).).).).).).).).).).).).).).).).).).).).).).).).).).).).).).).).).).).).).).).).).).).).).).).).).).).).).).).).).).).).).).).).).).).).).).).).).).",
").).).).).).).).).).).).).).).).).).).).).).).).).).).).).).).).).).).).).).).).).).).).).).).).).).).).).).).).).).).).).).).).).).).).).).).).).).).).",
").).).).).).).).).).).).).).).).).).).).).).).).).).).).).).).).).).).).).).).).).).).).).).).).).).).).).).).).).).).).).).).).).).).).).).).).).).).).",
").).).).).).).).).).).).).).).).).).).).).).).).).).).).).).).).).).).).).).).).).).).).).).).).).).).).).).).).).).).).).).).).).).).).).).).).).).).).",
").).).).).).).).).).).).).).).).).).).).).).).).).).).).).).).).).).).).).).).).).).).).).).).).).).).).).).).).).).).).).).).).).).).).).).).).).).).).",
").).).).).).).).).).).).).).).).).).).).).).).).).).).).).).).).).).).).).).).).).).).).).).).).).).).).).).).).).).).).).).).).).).).).).).).).).).).).",
").).).).).).).).).).).).).).).).).).).).).).).).).).).).).).).).).).).).).).).).).).).).).).).).).).).).).).).).).).).).).).).).).).).).).).).).).).).).",
").).).).).).).).).).).).).).).).).).).).).).).).).).).).).).).).).).).).).).).).).).).).).).).).).).).).).).).).).).).).).).).).).).).).).).).).).).).).",
").).).).).).).).).).).).).).).).).).).).).).).).).).).).).).).).).).).).).).).).).).).).).).).).).).).).).).).).).).).).).).).).).).).).).).).).).).).).",
").).).).).).).).).).).).).).).).).).).).).).).).).).).).).).).).).).).).).).).).).).).).).).).).).).).).).).).).).).).).).).).).).).).).).).).).).).).).",
").).).).).).).).).).).).).).).).).).).).).).).).).).).).).).).).).).).).).).).).).).).).).).).).).).).).).).).).).).).).).).).).).).).).).).).).).).).).",
").).).).).).).).).).).).).).).).).).).).).).).).).).).).).).).).).).).).).).).).).).).).).).).).).).).).).).).).).).).).).).).).).).).).).).).).).).).).",
").).).).).).).).).).).).).).).).).).).).).).).).).).).s s s s s ).).).).).).).).).).).).).).).).).).).).).).).).).).).).).).).).).).).).).).).).).).).).",
").).).).).).).).).).).).).).).).).).).B.s ).).).h.s s s 1 e h ).).).).).).).).).).).).).).).).).).).).).).).).).).).).).).).).).).).).).).).).).).).).).",
").).).).).).).).).).).).).).).).).).).).).).).H a a 1 1 1 l.).).).).h ^ ).).).).).).).).).).).).).).).).).).).).).).).).).).).).).).).).).).).).).).).).",
").).).).).).).).).).).).).).).).).).).b.1 ).(.f r a 1 ).).).B.s ).).).).).).).).).).).).).).).).).).).).).).).).).).).).).).).).).).).).).).).).).).).).",
").).).).).).).).).).).).).).).).).).).).).).).f e e s s ).).).).).).).).).).).).).).).).).).).).).).).).).).).).).).).).).).).).).).).).).).).).).).).).",
").).).).).).).).).).).).).).).).).).).).).Q.).).a.u X.d a s I ).).).h ^ ).).).).).).).).).).).).).).).).).).).).).).).).).).).).).).).).).).).).).).).).",
").).).).).).).).).).).).).).).).).).)./.G.H ).).).Q.1  .u i I ).).).).).).).).).).).).).).)./.H.).).).).).).).!.^.).).).).).).).).).).).).).).).).).).).",
").).).).).).).).).).).).).).).).).).).N.s ).).b.z.h.1 s ..S 0 z.).).)./.E.E.E.).).).).).).).D./ ).).).).).).)./ D.).).).).).).).).).).).).).).).).).).).",
").).).).).).).).).).).).).).).).).).).N.t h.g.y e r r s ..{ S 1 a.).E.G.V.V.V.G.~.).).).).).n.z ).).).).).).).z D.).).).).).).).).).).).).).).).).).).).",
").).).).).).).).).).).).).).).).).).).R.h.r e e t d } } ....8.g.1 ).V.t.V.J V.J N.).).).).).c.$ 4.).).).).).3.$ n.).).).).).).).).).).).).).).).).).).).",
").).).).).).).).).).).).).).).).).).).).).1 1 1 e i ......q.-.U b.).x.5.V.,.V.,.G.).).C.).).c.$ k =./.).^.=.k $ n.).).).).).).).).).).).).).).).).).).).",
").).).).).).).).).).).).).).).).).).).).).a 1 i F  .......[ P -.8 8 <.t.V.V.V.3.H.Y.T 9.).)./.Y.$ j n A _ $ $ Y.(.).).).).).).).).).).).).).).).).).).).",
").).).).).).).).).).).).).).).).).).).).).).1 a P ;...V...r.>.1 9.+ @ U 3.V.3.3.B b 7.)./ H.).).).$ | ] p $ ).).).D.( ).).).).).).).).).).).).).).).).).",
").).).).).).).).).).).).).).).).).).).).).).e e D X.V.V.2.G 1 1 ).9.9.o.4 3.3.4 5 N 0.).$ x 1.)./ $ p r 2 $ ( ).1.x $ ).).).).).).).).).).).).).).).).).",
").).).).).).).).).).).).).).).).).).).).).).).f t d 3.;.V.G 1 1 &     ; 7.+ + 0 $.*.  ).$ $ l ( $ $ 2 e 2 $ $ ( l $ $ ).).).).).).).).).).).).).).).).).",
").).).).).).).).).).).).).).).).).).).).).).).f D ....3.;.g < & & & & %           X & & ).E $ $ ).$ c c c $ ).$ $ E ).).).).).).).).).).).).).).).).).).",
").).).).).).).).).).).).).).).).).).).).).).).).h.s 1 1 3.h :         % & & & & & & & 0 ).).).).).$ $ $ $ $ ).).).).).).).).).).).).).).).).).).).).).).",
").).).).).).).).).).).).).).).).).).).).).).).).).~.w.O 3.-.&.> > 0 0 =     & & & %   0 ).).).).).).v $ n ).).).).).).).).).).).).).).).).).).).).).).).",
").).).).).).).).).).).).).).).).).).).).).).).).).^.` O O o.&.0 > > > 3 9 .       - 0.0 ).).).).).).v $ n ).).).).).).).).).).).).).).).).).).).).).).).",
").).).).).).).).).).).).).).).).).).).).).).).).).^.' O ` M 0 0 > > > 3 0 0 0.X o m 0.0 ).).).).).V.V.V.V.V.).).).).).).).).).).).).).).).).).).).).).).",
").).).).).).).).).).).).).).).).).).).).).).).).).W.7 ` , 9 9 > 7 > > > > 0 0.5 9 N 0.0 0 &._ O 1.V.V.5.3.V.).).).).).).).).).).).).).).).).).).).).).).",
").).).).).).).).).).).).).).).).).).).).).).).).).).).w > > , w ).w 7 > > 0 0.q 0 N 0.0 9 =._ O O x.:.:.:.x.).).).).).).).).).).).).).).).).).).).).).).",
").).).).).).).).).).).).).).).).).).).).).).).).).).).).R R @.).).).Y > > 9 0.q 0 V 0.0 4 Z C o O ).v $ n ).).).).).).).).).).).).).).).).).).).).).).).",
").).).).).).).).).).).).).).).).).).).).).).).).).).).).).).).).).).j.Y > > 0.q 0 N 0.0 ! 3.@.Q Q ).v $ n ).).).).).).).).).).).).).).).).).).).).).).).",
").).).).).).).).).).).).).).).).).).).).).).).).).).).).).).).).).).).j.> > L $.V N 0.9 ).).).).).).v $ n ).).).).).).).).).).).).).).).).).).).).).).).",
").).).).).).).).).).).).).).).).).).).).).).).).).).).).).).).).).).).j.> > 0 F.v.v.F.f.).).).).).).v $ n ).).).).).).).).).).).).).).).).).).).).).).).",
").).).).).).).).).).).).).).).).).).).).).).).).).).).).).).).).).).).d.* * * P.p.p.T.u.).).).).).).v $ n ).).).).).).).).).).).).).).).).).).).).).).).",
").).).).).).).).).).).).).).).).).).).).).).).).).).).).).).).).).).S.O.  & & K.L.I.T.T.A.~.).).).).v $ n ).).).).).).).).).).).).).).).).).).).).).).).",
").).).).).).).).).).).).).).).).).).).).).).).).).).).).).).).).).0.9.e.y.    & u.K.i.L.' 6.C.).).).v $ n ).).).).).).).).).).).).).).).).).).).).).).).",
").).).).).).).).).).).).).).).).).).).).).).).).).).).).).).).).0.9.9.e.y.> > . u.p.  i.' ' #.).).).v $ n ).).).).).).).).).).).).).).).).).).).).).).).",
").).).).).).).).).).).).).).).).).).).).).).).).).).).).).).~.Z.0.0.0.e.Z.> >           > Z +.0.).).v $ n ).).).).).).).).).).).).).).).).).).).).).).).",
").).).).).).).).).).).).).).).).).).).).).).).).).).).).).).).).Z.0.0.e.y.> > 7.n     0.> Z *.Z.).).v $ n ).).).).).).).).).).).).).).).).).).).).).).).",
").).).).).).).).).).).).).).).).).).).).).).).).).).).).).).!.0.0.Z.Z.Z.y.> > 7.L 0 0 0.0 A ' ' ).).v $ n ).).).).).).).).).).).).).).).).).).).).).).).",
").).).).).).).).).).).).).).).).).).).).).).).).).).).).).).~.A.0.0.0.e.y.> > 7.L 0 0 0.0 7 b ' w.$ $ $ n ).).).).).).).).).).).).).).).).).).).).).).).",
").).).).).).).).).).).).).).).).).).).).).).).).).).).).).).!.0.Z.Z.w.e.y.> > 7.L 0 0 0.0 6 b ' Z.$ $ s.).).).).).).).).).).).).).).).).).).).).).).).).",
").).).).).).).).).).).).).).).).).).).).).).).).).).).).).J.y.0.0.Z.Z.%.0 > > 7.L 0 0 0.0 6 b ' 0.$ $ s.).).).).).).).).).).).).).).).).).).).).).).).).",
").).).).).).).).).).).).).).).).).).).).).).).).).).).).).).~.S.t.0 0 0 9 > > 7.K 0 0 0.0 0 M ) ).$ $ s.).).).).).).).).).).).).).).).).).).).).).).).).",
").).).).).).).).).).).).).).).).).).).).).).).).).).).).).).Q.m.0 0 0 0 0 > > 7.K 0 0 0.6 0 6 > ).$ $ s.).).).).).).).).).).).).).).).).).).).).).).).).",
").).).).).).).).).).).).).).).).).).).).).).).).).).).).).).M.0 0 0 0 0 0 > > 7.K 0 0 0.> 9 9 > ).$ $ s.).).).).).).).).).).).).).).).).).).).).).).).).",
").).).).).).).).).).).).).).).).).).).).).).).).).).).).).).M.0 0 0 0 0 0 > > 7.K 0 0 0.> 5 7 > ! $ $ s.).).).).).).).).).).).).).).).).).).).).).).).).",
").).).).).).).).).).).).).).).).).).).).).).).).).).).).).).M.0 0 0 0 0 0 > > 7.K 0 0 0.> > > > > $ $ s.).).).).).).).).).).).).).).).).).).).).).).).).",
").).).).).).).).).).).).).).).).).).).).).).).).).).).).).g.T q 6 0 0 0 9 > > 7.K 0 9 G *.q > > # $ $ s.).).).).).).).).).).).).).).).).).).).).).).).).",
").).).).).).).).).).).).).).).).).).).).).).).).).).).).).~ 9 > > , 9 0 0 > > 7.K 0 0 0 0.M > > $ $ $ s.).).).).).).).).).).).).).).).).).).).).).).).).",
").).).).).).).).).).).).).).).).).).).).).).).).).).).).).~ 9 > > > 0 0 0 > > 7.K 0 0 0 w.M > > $ $ $ s.).).).).).).).).).).).).).).).).).).).).).).).).",
").).).).).).).).).).).).).).).).).).).).).).).).).).).).).~ 9 > > > 0 6 > > > 7.K 0 0 0 9.M > > $ $ W.).).).).).).).).).).).).).).).).).).).).).).).).).",
").).).).).).).).).).).).).).).).).).).).).).).).).).).).).W > > > > > > > > > 7.L 0 0 0 9.M > > $ $ W.).).).).).).).).).).).).).).).).).).).).).).).).).",
").).).).).).).).).).).).).).).).).).).).).).).).).).).).).).m.> > > > > > > > 7.L 0 0 0 0.M > > $ $ W.).).).).).).).).).).).).).).).).).).).).).).).).).",
").).).).).).).).).).).).).).).).).).).).).).).).).).).).).).).).> > M.j.> > > 7.L 0 0 0 0.!.k.> $ $ W.).).).).).).).).).).).).).).).).).).).).).).).).).",
").).).).).).).).).).).).).).).).).).).).).).).).).).).).).).).).).).).j.> > ).).).U.0 0 ).).).).$ $ W.).).).).).).).).).).).).).).).).).).).).).).).).).",
").).).).).).).).).).).).).).).).).).).).).).).).).).).).).).).).).).).).).).).).).).).).).).).).$ $ W.).).).).).).).).).).).).).).).).).).).).).).).).).",
").).).).).).).).).).).).).).).).).).).).).).).).).).).).).).).).).).).).).).).).).).).).).).).).).).).).).).).).).).).).).).).).).).).).).).).).).).).).",
").).).).).).).).).).).).).).).).).).).).).).).).).).).).).).).).).).).).).).).).).).).).).).).).).).).).).).).).).).).).).).).).).).).).).).).).).).).).",
").).).).).).).).).).).).).).).).).).).).).).).).).).).).).).).).).).).).).).).).).).).).).).).).).).).).).).).).).).).).).).).).).).).).).).).).).).).).",
").).).).).).).).).).).).).).).).).).).).).).).).).).).).).).).).).).).).).).).).).).).).).).).).).).).).).).).).).).).).).).).).).).).).).).).).).).).).",
").).).).).).).).).).).).).).).).).).).).).).).).).).).).).).).).).).).).).).).).).).).).).).).).).).).).).).).).).).).).).).).).).).).).).).).).).).).).",
").).).).).).).).).).).).).).).).).).).).).).).).).).).).).).).).).).).).).).).).).).).).).).).).).).).).).).).).).).).).).).).).).).).).).).).).).).).).",
").).).).).).).).).).).).).).).).).).).).).).).).).).).).).).).).).).).).).).).).).).).).).).).).).).).).).).).).).).).).).).).).).).).).).).).).).).).).",
").).).).).).).).).).).).).).).).).).).).).).).).).).).).).).).).).).).).).).).).).).).).).).).).).).).).).).).).).).).).).).).).).).).).).).).).).).).).",
").).).).).).).).).).).).).).).).).).).).).).).).).).).).).).).).).).).).).).).).).).).).).).).).).).).).).).).).).).).).).).).).).).).).).).).).).).).).",
").).).).).).).).).).).).).).).).).).).).).).).).).).).).).).).).).).).).).).).).).).).).).).).).).).).).).).).).).).).).).).).).).).).).).).).).).).).).",
").).).).).).).).).).).).).).).).).).).).).).).).).).).).).).).).).).).).).).).).).).).).).).).).).).).).).).).).).).).).).).).).).).).).).).).).).).).).",
").).).).).).).).).).).).).).).).).).).).).).).).).).).).).).).).).).).).).).).).).).).).).).).).).).).).).).).).).).).).).).).).).).).).).).).).).).).)."
};
