/* XPM */
static char *_f900625ab4b4c8596154fcc007ad310nu8bYshBWavURvkZ[] = {
/* columns rows colors chars-per-pixel */
"76 76 181 2 ",
"   c #361B1B",
".  c #3B1B1B",
"X  c #3F241E",
"o  c #3D2123",
"O  c #4B1C1C",
"+  c #531B1B",
"@  c #601B1B",
"#  c #7A1312",
"$  c #7E1917",
"%  c #771C1C",
"&  c #79390B",
"*  c #472828",
"=  c #4C2C2B",
"-  c #533926",
";  c #513234",
":  c #6E2020",
">  c #623425",
",  c #7D4014",
"<  c #5F4731",
"1  c #674F2E",
"2  c #6F5554",
"3  c #624E71",
"4  c #971A1A",
"5  c #9D1D1D",
"6  c #BF0102",
"7  c #A21F1E",
"8  c #81310E",
"9  c #85380A",
"0  c #9B231D",
"q  c #863D1D",
"w  c #A3201F",
"e  c #8A2C27",
"r  c #A72121",
"t  c #AE2423",
"y  c #B42726",
"u  c #B52F2F",
"i  c #A13333",
"p  c #B93837",
"a  c #CA1103",
"s  c #FF0907",
"d  c #C82407",
"f  c #E93100",
"g  c #E63308",
"h  c #E93809",
"j  c #CB2720",
"k  c #FE3122",
"l  c #81420D",
"z  c #8B4D10",
"x  c #965913",
"c  c #9D6116",
"v  c #AC701A",
"b  c #994425",
"n  c #904C2B",
"m  c #935928",
"M  c #A8562F",
"N  c #AC4630",
"B  c #A06330",
"V  c #B76736",
"C  c #BA6837",
"Z  c #AB7136",
"A  c #EB4605",
"S  c #EA5112",
"D  c #DD7616",
"F  c #F0740F",
"G  c #F05835",
"H  c #C76F3D",
"J  c #EA623E",
"K  c #AB4B4B",
"L  c #B05551",
"P  c #986A48",
"I  c #AA7649",
"U  c #B77559",
"Y  c #B76767",
"T  c #B06A6A",
"R  c #A57E61",
"E  c #CB4142",
"W  c #CD4B4B",
"Q  c #C05150",
"!  c #C25857",
"~  c #EA6D4C",
"^  c #EA7657",
"/  c #C86F6F",
"(  c #C97272",
")  c #EA7D60",
"_  c #BE841F",
"`  c #A18434",
"'  c #A39638",
"]  c #F39115",
"[  c #F6A91B",
"{  c #C4923A",
"}  c #E4963B",
"|  c #FFD800",
" . c #F9D926",
".. c #FDE929",
"X. c #FFFC2D",
"o. c #FAEE34",
"O. c #9A8441",
"+. c #BF9E46",
"@. c #B2A64C",
"#. c #BFA270",
"$. c #CF8946",
"%. c #CC9251",
"&. c #D4965C",
"*. c #EF9245",
"=. c #C6A24D",
"-. c #D2AA4F",
";. c #CBA158",
":. c #D8AD51",
">. c #DBB85C",
",. c #E2A659",
"<. c #CD9571",
"1. c #EA876D",
"2. c #CFAA6A",
"3. c #D5A569",
"4. c #D4A870",
"5. c #E7B67B",
"6. c #D6C75B",
"7. c #DDC85A",
"8. c #EBD44D",
"9. c #E0C85A",
"0. c #E2D15D",
"q. c #FDE257",
"w. c #DBCD69",
"e. c #E7C669",
"r. c #E6D665",
"t. c #EADA6B",
"y. c #FCCD7B",
"u. c #E9DB77",
"i. c #F4E57B",
"p. c #7F7195",
"a. c #857591",
"s. c #9F9494",
"d. c #B79984",
"f. c #8F85B0",
"g. c #A196B1",
"h. c #CA9E9E",
"j. c #D49796",
"k. c #EB9680",
"l. c #D7B283",
"z. c #C2AA9A",
"x. c #FBBC80",
"c. c #EBA795",
"v. c #EBA896",
"b. c #D2ADAD",
"n. c #C8B3A5",
"m. c #D7BDAC",
"M. c #D6B5B5",
"N. c #EBB5A6",
"B. c #E3BBBB",
"V. c #D5CC8C",
"C. c #F5C283",
"Z. c #FBC686",
"A. c #F9CC96",
"S. c #E6DC96",
"D. c #F9EB84",
"F. c #DBCFAD",
"G. c #DCCAB6",
"H. c #D5C4BB",
"J. c #ECD7AD",
"K. c #EBC7BD",
"L. c #E6D2B8",
"P. c #E8E1B0",
"I. c #EFE7B1",
"U. c #A096D1",
"Y. c #BFC5D7",
"T. c #DDC8C8",
"R. c #DAD1CA",
"E. c #C4CBDC",
"W. c #CED2D4",
"Q. c #EBCFC7",
"!. c #E3CBCB",
"~. c #E7D6C8",
"^. c #E5D6D6",
"/. c #E0D9D4",
"(. c #E9DCD9",
"). c #E9E5C6",
"_. c #F0E8C8",
"`. c #EAE4D6",
"'. c #E9E6E3",
"]. c #E9E4E4",
"[. c #ffECECEC",
/* pixels */
"[.[.[.[.[.[.[.[.[.[.[.[.[.[.[.[.[.[.[.[.[.[.[.[.[.[.[.[.[.[.[.[.[.[.[.[.[.[.[.[.[.[.[.[.[.[.[.[.[.[.[.[.[.[.[.[.[.[.[.[.[.[.[.[.[.[.[.[.[.[.[.[.[.[.[.[.",
"[.[.[.[.[.[.[.[.[.[.[.[.[.[.[.[.[.[.[.[.[.[.[.[.[.[.[.[.[.[.[.[.[.[.[.[.[.[.[.[.[.[.[.[.[.[.[.[.[.[.[.[.[.[.[.[.[.[.[.[.[.[.[.[.[.[.[.[.[.[.[.[.[.[.[.[.",
"[.[.[.[.[.[.[.[.[.[.[.[.[.[.[.[.[.[.[.[.[.[.[.[.[.[.[.[.[.[.[.[.[.[.[.[.[.[.[.[.[.[.[.[.[.[.[.[.[.[.[.[.[.[.[.[.[.[.[.[.[.[.[.[.[.[.[.[.[.[.[.[.[.[.[.[.",
"[.[.[.[.[.[.[.[.[.[.[.[.[.[.[.[.[.[.[.[.[.[.[.[.[.[.[.[.[.[.[.[.[.[.[.[.[.[.[.[.[.[.[.[.[.[.[.[.[.[.[.[.[.[.[.[.[.[.[.[.[.[.[.[.[.[.[.[.[.[.[.[.[.[.[.[.",
"[.[.[.[.[.[.[.[.[.[.[.[.[.[.[.[.[.[.[.[.[.[.[.[.[.[.[.[.[.[.[.[.[.[.[.[.[.[.[.[.[.[.[.[.[.[.[.[.[.[.[.[.[.[.[.[.[.[.[.[.[.[.[.[.[.[.[.[.[.[.[.[.[.[.[.[.",
"[.[.[.[.[.[.[.[.[.[.[.[.[.[.[.[.[.[.[.[.[.[.[.[.[.[.[.[.[.[.[.[.[.[.[.[.[.[.[.[.[.[.[.[.[.[.[.[.[.[.[.[.[.[.[.[.[.[.[.[.[.[.[.[.[.[.[.[.[.[.[.[.[.[.[.[.",
"[.[.[.[.[.[.[.[.[.[.[.[.[.[.[.[.[.[.[.[.[.[.[.[.[.[.[.[.[.[.[.[.[.[.[.[.[.[.[.[.[.[.[.[.[.[.[.[.[.[.[.[.[.[.[.[.[.[.[.[.[.[.[.[.[.[.[.[.[.[.[.[.[.[.[.[.",
"[.[.[.[.[.[.[.[.[.[.[.[.[.[.[.[.[.[.[.[.[.[.[.[.[.[.[.[.[.[.[.[.[.[.[.[.[.[.[.[.[.[.[.[.[.[.[.[.[.[.[.[.[.[.[.[.[.[.[.[.[.[.[.[.[.[.[.[.[.[.[.[.[.[.[.[.",
"[.[.[.[.[.[.[.[.[.[.[.[.[.[.[.[.[.[.[.[.[.[.[.[.[.[.[.[.[.[.[.[.[.[.[.[.[.[.[.[.[.[.[.[.[.[.[.[.[.[.[.[.[.[.[.[.[.[.[.[.[.[.[.[.[.[.[.[.[.[.[.[.[.[.[.[.",
"[.[.[.[.[.[.[.[.[.[.[.[.[.[.[.[.[.[.[.[.[.[.[.[.[.[.[.[.[.[.[.[.[.[.[.[.[.[.[.[.[.[.[.[.[.[.[.[.[.[.[.[.[.[.[.[.[.[.[.[.[.[.[.[.[.[.[.[.[.[.[.[.[.[.[.[.",
"[.[.[.[.[.[.[.[.[.[.[.[.[.[.[.[.[.[.[.[.[.[.[.[.[.[.[.[.[.[.[.[.[.[.[.[.[.[.[.[.[.[.[.[.[.[.[.[.[.[.[.[.[.[.[.[.[.[.[.[.[.[.[.[.[.[.[.[.[.[.[.[.[.[.[.[.",
"[.[.[.[.[.[.[.[.[.[.[.[.[.[.[.[.[.[.[.[.[.[.[.[.[.[.[.[.[.[.[.[.[.[.[.[.[.[.[.[.[.[.[.[.[.[.[.[.[.[.[.[.[.[.[.[.[.[.[.[.[.[.[.[.[.[.[.[.[.[.[.[.[.[.[.[.",
"[.[.[.[.[.[.[.[.[.[.[.[.[.[.[.[.[.[.[.[.[.[.[.[.[.[.[.[.[.[.[.[.[.[.[.[.[.[.[.[.[.[.[.[.[.[.[.[.[.[.[.[.[.[.[.[.[.[.[.[.[.[.[.[.[.[.[.[.[.[.[.[.[.[.[.[.",
"[.[.[.[.[.[.[.[.[.[.[.[.[.[.[.[.[.[.[.[.[.[.[.[.[.[.[.[.[.[.[.[.[.[.[.[.[.[.[.[.[.[.[.[.[.[.[.[.[.[.[.[.[.[.[.[.[.[.[.[.[.[.[.[.[.[.[.[.[.[.[.[.[.[.[.[.",
"[.[.[.[.[.[.[.[.[.[.[.[.[.[.[.[.[.[.[.[.[.[.[.[.[.[.[.[.[.[.[.[.[.[.[.[.[.[.[.[.[.[.[.[.[.[.[.[.[.[.[.[.[.[.[.[.[.[.[.[.[.[.[.[.[.[.[.[.[.[.[.[.[.[.[.[.",
"[.[.[.[.[.[.[.[.[.[.[.[.[.[.[.[.[.[.[.[.[.[.[.[.[.[.[.[.[.[.[.[.[.[.[.[.[.[.[.[.[.[.[.[.[.[.[.[.[.[.[.[.[.[.[.[.[.[.[.[.[.[.[.[.[.[.[.[.[.[.[.[.[.[.[.[.",
"[.[.[.[.[.[.[.[.[.[.[.[.[.[.[.[.[.[.[.[.[.[.[.[.[.^.f [.[.[.[.[.[.[.[.[.[.[.[.[.[.[.[.[.[.[.[.[.[.[.[.[.[.[.[.[.[.[.[.[.[.[.[.[.[.[.[.[.[.[.[.[.[.[.[.[.",
"[.[.[.[.[.[.[.[.[.[.[.[.[.[.[.[.[.[.[.[.[.f [.[.[.[.[.[.[.^ J [.[.[.[.[.[.[.[.[.[.[.[.[.[.[.[.[.[.[.[.[.[.[.[.[.[.[.[.[.[.[.[.[.[.[.[.[.[.[.[.[.[.[.[.[.",
"[.[.[.[.[.[.[.[.[.[.[.[.[.[.[.[.[.[.[.N.f f f Q.[.[.[.[.[.^ J [.[.[.[.[.[.[.[.[.[.[.[.[.[.[.[.[.[.[.[.[.[.[.[.[.[.[.[.[.[.[.[.[.[.[.[.[.[.[.[.[.[.[.[.[.",
"[.[.[.[.[.[.[.[.[.[.[.[.[.[.[.[.[.[.[.N.h f f f f S `.[.[.[.[.[.[.[.[.[.[.[.[.[.[.[.[.[.[.[.[.[.[.[.[.[.[.[.[.[.[.[.[.[.[.[.[.[.[.[.[.[.[.[.[.[.[.[.[.[.",
"[.[.[.[.[.[.[.[.[.[.[.[.[.[.[.[.[.K.Q.Q.[.G f f A S f K.K.(.[.[.[.[.[.[.[.[.[.[.[.[.[.[.[.[.[.[.[.[.[.[.[.[.[.[.[.[.[.[.[.[.[.[.[.[.[.[.[.[.[.[.[.[.[.[.",
"[.[.[.[.[.[.[.[.[.[.[.[.[.[.[.[.[.~ ~ k.[.[.f f ] ..F f f c.[.[.[.[.[.[.[.[.[.[.[.[.[.[.[.[.[.[.[.[.[.[.[.[.[.[.[.[.[.[.[.[.[.[.[.[.[.[.[.[.[.[.[.[.[.[.",
"[.[.[.[.[.[.[.[.[.[.[.[.[.[.[.[.[.[.[.[.[.[.1.1.*.[ X.f f c.[.[.[.[.[.[.[.[.[.[.[.[.[.[.[.[.[.[.[.[.[.[.[.[.[.[.[.[.[.[.[.[.[.[.[.[.[.[.[.[.[.[.[.[.[.[.",
"[.[.[.[.[.[.[.[.[.[.[.[.[.[.[.[.[.[.[.[.[.[.) ) G A X.[ f c.[.[.[.[.[.[.[.[.[.[.[.[.[.[.[.[.[.[.[.[.[.[.[.[.[.[.[.[.[.[.[.[.[.[.[.[.[.[.[.[.[.[.[.[.[.[.",
"[.[.[.[.[.[.[.[.[.[.[.[.[.[.[.[.[.E B.'.[.[.f f f A X.X.N.(.K.E [.[.[.[.[.[.[.[.[.[.[.[.;.R.[.[.[.[.[.[.(.@.[.[.[.[.[.[.[.[.[.[.[.[.[.[.[.[.[.[.[.[.[.[.",
"[.[.[.[.[.[.[.[.[.[.[.[.[.[.[.[.[.!.].[.[.[.~.j a A X.d [.[.].!.[.A.A.A.A.[.[.[.[.[.[.[._ G.[.[.[.[.[.[./._ [.[.[.[.[.[.[.[.[.[.[.[.[.[.[.[.[.[.[.[.[.[.",
"[.[.[.[.[.[.[.[.[.[.[.[.[.[.[.[.[.[.~ ~ [.6 6 6 D X.X.[.g v.[.[.Z.Z.Z.Z.Z.Z.[.[.[.[.[.[.& H.[.[.[.[.[.[.R.& [.[.[.[.[.[.[.[.[.[.[.[.[.[.[.[.[.[.[.[.[.[.",
"[.[.[.[.[.[.[.[.[.[.[.[.[.[.[.[.[.[.~ ~ [.6 6 f ] ..f 6 [.[.[.[.2.Z.k G x.s [.[.[.[.[.[.& v 2.[.[.[.[.l.v & [.[.[.[.[.[.[.[.[.[.[.[.[.[.[.[.[.[.[.[.[.[.",
"[.[.[.[.[.[.[.[.[.[.[.[.[.[.[.[.[.[.[.[.[.6 6  .X...f 9.$ h.[.[.4.Z.Z.Z.Z.Z.[.[.S.u.[.[.& & x v [.[.{ c & & [.[.[.[.[.[.[.[.[.[.[.[.[.[.[.[.[.[.[.[.[.[.",
"[.[.[.[.[.[.[.[.[.[.[.[.[.[.[.[.[.[.[.[.[.f X.X.X.X.X.f r.B $ $ Z.Z.Z.Z.Z.4.[.p $.u.[.[.[.P 9 & , _ l & n [.[.[.[.[.[.[.[.[.[.[.[.[.[.[.[.[.[.[.[.[.[.[.",
"[.[.[.[.[.[.[.[.[.[.[.[.[.[.[.[.[.[.W W [.f ,.o.q.y.X.Z.f } =.$ $ 4.x.l.4.4.$ 7.P.~._ [.[.[.z.& | f 9 #.[.[.[.D G.[.[.[.[.[.[.[.[.[.[.[.[.[.[.[.[.[.[.[.",
"[.[.[.[.[.[.[.[.[.[.[.[.[.[.[.[.[.[.W W [.6 X.y.Z.C.4.X.f f S 0.0.$ %.4.3.$ y 9.P.H.& _ [.;.c & f a & x +.[._ & n.[.[.[.[.[.[.[.[.[.[.[.[.[.[.[.[.[.[.[.",
"[.[.[.[.[.[.[.[.[.[.[.[.[.[.[.[.[.[.[.[.[.6 f <.3.,.Z.f a % * .   0.i % $ y 0.X s.H.& & { z & & a a & & z _ & & n.[.[.[.[.[.[.[.[.[.[.[.[.[.[.[.[.[.[.[.",
"[.[.[.[.[.[.[.[.[.[.[.[.[.[.[.[.[.[.[.[.[.a f  .8.4.:.X.* = = = =     .       = = 2 [.& & n.z.& v { & <.R.9 & [.[.[.[.[.[.[.[.[.[.[.[.[.[.[.[.[.[.[.[.[.",
"[.[.[.[.[.[.[.[.[.[.[.[.[.[.[.[.[.[.[.[.[.[.h a a a 2.6 . . . . . = = = = = = = e Q [.[.[.[.z.l & & & d.[.[.[.[.[.[.[.[.[.[.[.[.[.[.[.[.[.[.[.[.[.[.[.[.",
"[.[.[.[.[.[.[.[.[.[.[.[.[.[.[.[.[.[.[.[.[.[.[.w.Z $ <.9.5 4 4 y t O . o = * * - e Q [.[.[.[.[.[.& & /.[.[.[.[.[.[.[.[.[.[.[.[.[.[.[.[.[.[.[.[.[.[.[.[.[.",
"[.[.[.[.[.[.[.[.[.[.[.[.[.[.[.[.[.[.[.[.[.[.[.@.m # q -.y w 4 4 4 y : > 1   + 7.H W [.[.[.[.`.(.B B L.'.[.[.[.[.[.[.[.[.[.[.[.[.[.[.[.[.[.[.[.[.[.[.[.[.",
"[.[.[.[.[.[.[.[.[.[.[.[.[.[.[.[.[.[.[.[.[.[.[.I n n m y w 5 4 4 4 w y H 7.@ w 7.H N j.P.j.m.J.Z.Z.l.Z.Q.[.[.[.[.[.[.[.[.[.[.[.[.[.[.[.[.[.[.[.[.[.[.[.[.",
"[.[.[.[.[.[.[.[.[.[.[.[.[.[.[.[.[.[.[.[.[.[.[.h.U b 4 w 4 Y Y 4 4 4 t H 9.r y 7.H y y 0.# e U 5.5.4.5.L.[.[.[.[.[.[.[.[.[.[.[.[.[.[.[.[.[.[.[.[.[.[.[.[.",
"[.[.[.[.[.[.[.[.[.[.[.[.[.[.[.[.[.[.[.[.[.[.[.[.!.h.5 4 b.^.`.b.4 4 t H 9.y y 7.H t 7 @.# # P R.m m G.`.[.[.[.[.[.[.[.[.[.[.[.[.[.[.[.[.[.[.[.[.[.[.[.[.",
"[.[.[.[.[.[.[.[.[.[.[.[.[.[.[.[.[.[.[.[.[.[.[.[.[.[.!.T.[.[.[.[.4 4 0 C 9.y y 9.H y 5 ' # # T [.& & /.[.[.[.[.[.[.[.[.[.[.[.[.[.[.[.[.[.[.[.[.[.[.[.[.[.",
"[.[.[.[.[.[.[.[.[.[.[.[.[.[.[.[.[.[.[.[.[.[.[.[.[.[.[.[.[.[.[.[.'.4 4 V 7.y y 9.H L '.'.'.`.].[.& & /.[.[.[.[.[.[.[.[.[.[.[.[.[.[.[.[.[.[.[.[.[.[.[.[.[.",
"[.[.[.[.[.[.[.[.[.[.[.[.[.[.[.[.[.[.[.[.[.[.[.[.[.[.[.[.[.[.[.[.[.4 4 w u 0.r >.V K [.[.[.[.[.[.& & /.[.[.[.[.[.[.[.[.[.[.[.[.[.[.[.[.[.[.[.[.[.[.[.[.[.",
"[.[.[.[.[.[.[.[.[.[.[.[.[.[.[.[.[.[.[.[.[.[.[.[.[.[.[.[.[.[.[.[.[.4 4 7 u Y.Y.Y.E.W.[.[.[.[.[.[.& & /.[.[.[.[.[.[.[.[.[.[.[.[.[.[.[.[.[.[.[.[.[.[.[.[.[.",
"[.[.[.[.[.[.[.[.[.[.[.[.[.[.[.[.[.[.[.[.[.[.[.[.[.[.[.[.[.[.[.[.[.= = = ; U.p.Y.f.p.[.[.[.[.[.[.& & /.[.[.[.[.[.[.[.[.[.[.[.[.[.[.[.[.[.[.[.[.[.[.[.[.[.",
"[.[.[.[.[.[.[.[.[.[.[.[.[.[.[.[.[.[.[.[.[.[.[.[.[.[.[.[.[.[.[.[.D.. * = ; U.U.E.Y.R.D.'.[.[.[.[.& & /.[.[.[.[.[.[.[.[.[.[.[.[.[.[.[.[.[.[.[.[.[.[.[.[.[.",
"[.[.[.[.[.[.[.[.[.[.[.[.[.[.[.[.[.[.[.[.[.[.[.[.[.[.[.[.[.[._.0.0.D.<   . = U.a.f.g.' 0.[.[.[.[.& & /.[.[.[.[.[.[.[.[.[.[.[.[.[.[.[.[.[.[.[.[.[.[.[.[.[.",
"[.[.[.[.[.[.[.[.[.[.[.[.[.[.[.[.[.[.[.[.[.[.[.[.[.[.[.[.[.S.0.0.0.D.N 4 4   U.o 3 a.' ' [.[.[.[.& & /.[.[.[.[.[.[.[.[.[.[.[.[.[.[.[.[.[.[.[.[.[.[.[.[.[.",
"[.[.[.[.[.[.[.[.[.[.[.[.[.[.[.[.[.[.[.[.[.[.[.[.[.[.[.[.i.t.0.0.0.D.N 4 4         O 4 ' 0.).[.[.& & /.[.[.[.[.[.[.[.[.[.[.[.[.[.[.[.[.[.[.[.[.[.[.[.[.[.",
"[.[.[.[.[.[.[.[.[.[.[.[.[.[.[.[.[.[.[.[.[.[.[.[.[.[.[.[.[.I.i.0.0.i.N 4 0 0.    O.-.4 ' D.`.[.[.& & /.[.[.[.[.[.[.[.[.[.[.[.[.[.[.[.[.[.[.[.[.[.[.[.[.[.",
"[.[.[.[.[.[.[.[.[.[.[.[.[.[.[.[.[.[.[.[.[.[.[.[.[.[.[.[.0.0.t.i.i.D.N 4 0 7.y y $.-.4 ` ' F./.R.& & /.[.[.[.[.[.[.[.[.[.[.[.[.[.[.[.[.[.[.[.[.[.[.[.[.[.",
"[.[.[.[.[.[.[.[.[.[.[.[.[.[.[.[.[.[.[.[.[.[.[.[.[.[.[.[.i.t.t.t.0.D.N 4 0 0.y y $.-.0 0 ' 6.+.& & P /.[.[.[.[.[.[.[.[.[.[.[.[.[.[.[.[.[.[.[.[.[.[.[.[.[.",
"[.[.[.[.[.[.[.[.[.[.[.[.[.[.[.[.[.[.[.[.[.[.[.[.[.[.[._.0.t.i.D.t.&.i 4 0 0.y y $.:.y 4 ' w.=.& & [.[.[.[.[.[.[.[.[.[.[.[.[.[.[.[.[.[.[.[.[.[.[.[.[.[.[.",
"[.[.[.[.[.[.[.[.[.[.[.[.[.[.[.[.[.[.[.[.[.[.[.[.[.[.[.I.t.i.e.$.$.4 4 4 0 7.y y $.:.y 4 ' V.2.& & [.[.[.[.[.[.[.[.[.[.[.[.[.[.[.[.[.[.[.[.[.[.[.[.[.[.[.",
"[.[.[.[.[.[.[.[.[.[.[.[.[.[.[.[.[.[.[.[.[.[.[.[.[.[.[.[._.<.W y 4 w 4 M %.H y y $.:.y 4 b M.z.& & [.[.[.[.[.[.[.[.[.[.[.[.[.[.[.[.[.[.[.[.[.[.[.[.[.[.[.",
"[.[.[.[.[.[.[.[.[.[.[.[.[.[.[.[.[.[.[.[.[.[.[.[.[.[.[.[.[.( y y y y 7 V 7.y y y $.:.y t 4 M.z.& & [.[.[.[.[.[.[.[.[.[.[.[.[.[.[.[.[.[.[.[.[.[.[.[.[.[.[.",
"[.[.[.[.[.[.[.[.[.[.[.[.[.[.[.[.[.[.[.[.[.[.[.[.[.[.[.[.[./ y y y y 5 V 9.y y y $.:.y y 4 M.z.& & [.[.[.[.[.[.[.[.[.[.[.[.[.[.[.[.[.[.[.[.[.[.[.[.[.[.[.",
"[.[.[.[.[.[.[.[.[.[.[.[.[.[.[.[.[.[.[.[.[.[.[.[.[.[.[.[.y y y y y y 5 V 9.y y y $.-.4 y 4 M.z.& & [.[.[.[.[.[.[.[.[.[.[.[.[.[.[.[.[.[.[.[.[.[.[.[.[.[.[.",
"[.[.[.[.[.[.[.[.[.[.[.[.[.[.[.[.[.[.[.[.[.[.[.[.[.[.[.[.y y y y y y 5 V 9.y y y $.-.4 y 4 M.z.& & [.[.[.[.[.[.[.[.[.[.[.[.[.[.[.[.[.[.[.[.[.[.[.[.[.[.[.",
"[.[.[.[.[.[.[.[.[.[.[.[.[.[.[.[.[.[.[.[.[.[.[.[.[.[.[.[.y y y y y y 5 V 9.y y y $.-.4 4 4 8 & & & [.[.[.[.[.[.[.[.[.[.[.[.[.[.[.[.[.[.[.[.[.[.[.[.[.[.[.",
"[.[.[.[.[.[.[.[.[.[.[.[.[.[.[.[.[.[.[.[.[.[.[.[.[.[.[.y y y y y y y 5 V 9.y y y $.-.4 4 4 8 & & & [.[.[.[.[.[.[.[.[.[.[.[.[.[.[.[.[.[.[.[.[.[.[.[.[.[.[.",
"[.[.[.[.[.[.[.[.[.[.[.[.[.[.[.[.[.[.[.[.[.[.[.[.[.[.[.y y 7 7 y y y 5 V 9.y y y $.-.4 4 4 8 & & & [.[.[.[.[.[.[.[.[.[.[.[.[.[.[.[.[.[.[.[.[.[.[.[.[.[.[.",
"[.[.[.[.[.[.[.[.[.[.[.[.[.[.[.[.[.[.[.[.[.[.[.[.[.^.y y 4 4 4 4 y y 5 V 9.y y y $.-.4 4 4 8 & & [.[.[.[.[.[.[.[.[.[.[.[.[.[.[.[.[.[.[.[.[.[.[.[.[.[.[.[.",
"[.[.[.[.[.[.[.[.[.[.[.[.[.[.[.[.[.[.[.[.[.[.[.[.[.^.y y 4 4 4 4 y y 7 V 9.y y y $.-.4 4 5 8 & & [.[.[.[.[.[.[.[.[.[.[.[.[.[.[.[.[.[.[.[.[.[.[.[.[.[.[.[.",
"[.[.[.[.[.[.[.[.[.[.[.[.[.[.[.[.[.[.[.[.[.[.[.[.[.[.[.4 4 4 4 4 4 4 4 V w.y y y $.-.4 4 4 8 & & [.[.[.[.[.[.[.[.[.[.[.[.[.[.[.[.[.[.[.[.[.[.[.[.[.[.[.[.",
"[.[.[.[.[.[.[.[.[.[.[.[.[.[.[.[.[.[.[.[.[.[.[.[.[.[.[.[.i i Y [.4 4 4 V 9.y y y $.-.4 i 4 8 & & [.[.[.[.[.[.[.[.[.[.[.[.[.[.[.[.[.[.[.[.[.[.[.[.[.[.[.[.",
"[.[.[.[.[.[.[.[.[.[.[.[.[.[.[.[.[.[.[.[.[.[.[.[.[.[.[.[.[.[.[.[.L 4 4 V 9.! y 7 { >.! [.K q & & [.[.[.[.[.[.[.[.[.[.[.[.[.[.[.[.[.[.[.[.[.[.[.[.[.[.[.[.",
"[.[.[.[.[.[.[.[.[.[.[.[.[.[.[.[.[.[.[.[.[.[.[.[.[.[.[.[.[.[.[.[.[.Y Y <.S.[.( ( l.J.[.[.[.d.R R [.[.[.[.[.[.[.[.[.[.[.[.[.[.[.[.[.[.[.[.[.[.[.[.[.[.[.[.",
"[.[.[.[.[.[.[.[.[.[.[.[.[.[.[.[.[.[.[.[.[.[.[.[.[.[.[.[.[.[.[.[.[.[.[.[.[.[.[.[.[.[.[.[.[.[.[.[.[.[.[.[.[.[.[.[.[.[.[.[.[.[.[.[.[.[.[.[.[.[.[.[.[.[.[.[.",
"[.[.[.[.[.[.[.[.[.[.[.[.[.[.[.[.[.[.[.[.[.[.[.[.[.[.[.[.[.[.[.[.[.[.[.[.[.[.[.[.[.[.[.[.[.[.[.[.[.[.[.[.[.[.[.[.[.[.[.[.[.[.[.[.[.[.[.[.[.[.[.[.[.[.[.[.",
"[.[.[.[.[.[.[.[.[.[.[.[.[.[.[.[.[.[.[.[.[.[.[.[.[.[.[.[.[.[.[.[.[.[.[.[.[.[.[.[.[.[.[.[.[.[.[.[.[.[.[.[.[.[.[.[.[.[.[.[.[.[.[.[.[.[.[.[.[.[.[.[.[.[.[.[.",
"[.[.[.[.[.[.[.[.[.[.[.[.[.[.[.[.[.[.[.[.[.[.[.[.[.[.[.[.[.[.[.[.[.[.[.[.[.[.[.[.[.[.[.[.[.[.[.[.[.[.[.[.[.[.[.[.[.[.[.[.[.[.[.[.[.[.[.[.[.[.[.[.[.[.[.[.",
"[.[.[.[.[.[.[.[.[.[.[.[.[.[.[.[.[.[.[.[.[.[.[.[.[.[.[.[.[.[.[.[.[.[.[.[.[.[.[.[.[.[.[.[.[.[.[.[.[.[.[.[.[.[.[.[.[.[.[.[.[.[.[.[.[.[.[.[.[.[.[.[.[.[.[.[.",
"[.[.[.[.[.[.[.[.[.[.[.[.[.[.[.[.[.[.[.[.[.[.[.[.[.[.[.[.[.[.[.[.[.[.[.[.[.[.[.[.[.[.[.[.[.[.[.[.[.[.[.[.[.[.[.[.[.[.[.[.[.[.[.[.[.[.[.[.[.[.[.[.[.[.[.[.",
"[.[.[.[.[.[.[.[.[.[.[.[.[.[.[.[.[.[.[.[.[.[.[.[.[.[.[.[.[.[.[.[.[.[.[.[.[.[.[.[.[.[.[.[.[.[.[.[.[.[.[.[.[.[.[.[.[.[.[.[.[.[.[.[.[.[.[.[.[.[.[.[.[.[.[.[.",
"[.[.[.[.[.[.[.[.[.[.[.[.[.[.[.[.[.[.[.[.[.[.[.[.[.[.[.[.[.[.[.[.[.[.[.[.[.[.[.[.[.[.[.[.[.[.[.[.[.[.[.[.[.[.[.[.[.[.[.[.[.[.[.[.[.[.[.[.[.[.[.[.[.[.[.[."
};
