/* XPM */
static char *e4279c71b8b64f64ae1fd35fec6dc004Qf7UvMv6ys7s03MB[] = {
/* columns rows colors chars-per-pixel */
"76 76 177 2 ",
"   c #361B1B",
".  c #3A1B1B",
"X  c #3F241E",
"o  c #3B2124",
"O  c #4E1D1C",
"+  c #7A1212",
"@  c #7E1917",
"#  c #7F1B19",
"$  c #79390B",
"%  c #442625",
"&  c #4D2D2C",
"*  c #502C2B",
"=  c #533234",
"-  c #7F2221",
";  c #7E4014",
":  c #5F4731",
">  c #6F5554",
",  c #614C64",
"<  c #811A18",
"1  c #971A1A",
"2  c #9D1D1D",
"3  c #BF0001",
"4  c #A21F1E",
"5  c #81320E",
"6  c #85380A",
"7  c #83271A",
"8  c #9B241D",
"9  c #863A1A",
"0  c #A4201F",
"q  c #8B3130",
"w  c #AD2423",
"e  c #B42726",
"r  c #B52F2E",
"t  c #A93526",
"y  c #A13333",
"u  c #B83838",
"i  c #C60901",
"p  c #CD1001",
"a  c #D51B01",
"s  c #E42B00",
"d  c #E93100",
"f  c #C72525",
"g  c #CB3E3F",
"h  c #FE3D2A",
"j  c #81420D",
"k  c #8B4D10",
"l  c #955713",
"z  c #9C611B",
"x  c #A56818",
"c  c #905826",
"v  c #AC4630",
"b  c #A35E36",
"n  c #B76736",
"m  c #BC6938",
"M  c #A07530",
"N  c #DE4007",
"B  c #EB4C10",
"V  c #DD7716",
"C  c #EF690C",
"Z  c #D24E36",
"A  c #F45B3A",
"S  c #C66F3D",
"D  c #DF6935",
"F  c #EA603C",
"G  c #BA4D4C",
"H  c #AE5252",
"J  c #B15959",
"K  c #976745",
"L  c #976846",
"P  c #B16E4B",
"I  c #A46262",
"U  c #BC7575",
"Y  c #C05150",
"T  c #D35652",
"R  c #DD6657",
"E  c #EA6C4B",
"W  c #FD7751",
"Q  c #E67E67",
"!  c #BE841F",
"~  c #BD8F30",
"^  c #A29137",
"/  c #A39638",
"(  c #E78817",
")  c #F38F15",
"_  c #F6A91B",
"`  c #F7B51D",
"'  c #D5843B",
"]  c #C5943E",
"[  c #EFBF22",
"{  c #FFD800",
"}  c #F8D726",
"|  c #FBE428",
" . c #FEF02A",
".. c #FFFC2D",
"X. c #FAEE34",
"o. c #998441",
"O. c #BD974C",
"+. c #B98752",
"@. c #AEA354",
"#. c #CF8946",
"$. c #D18E5F",
"%. c #D2AA4F",
"&. c #C9A551",
"*. c #D8AD51",
"=. c #E2A659",
"-. c #D5A46A",
";. c #D4A870",
":. c #DFB076",
">. c #F3B279",
",. c #FBB37A",
"<. c #D1C153",
"1. c #DCC85A",
"2. c #E0C95A",
"3. c #E6D756",
"4. c #E2D15D",
"5. c #FDE257",
"6. c #D3C463",
"7. c #E4D463",
"8. c #E9D869",
"9. c #EFCF76",
"0. c #EBC97E",
"q. c #FCCD7B",
"w. c #E3D676",
"e. c #F2E378",
"r. c #665582",
"t. c #D77F80",
"y. c #9F9494",
"u. c #BB8D8D",
"i. c #B69782",
"p. c #9087B1",
"a. c #A196B1",
"s. c #D98788",
"d. c #C69292",
"f. c #DA9B9B",
"g. c #D8BA8E",
"h. c #C2AA99",
"j. c #DBBC95",
"k. c #EBA08C",
"l. c #F6BF81",
"z. c #D0A6A6",
"x. c #DEA1A2",
"c. c #C8B3A5",
"v. c #C1AFBD",
"b. c #CAB8B5",
"n. c #D6B5B5",
"m. c #EBB5A6",
"M. c #D3C69E",
"N. c #F5C182",
"B. c #FBC686",
"V. c #FBC788",
"C. c #E6DB8E",
"Z. c #F9EB84",
"A. c #F7EB93",
"S. c #DDCAAA",
"D. c #D5C7BA",
"F. c #D9D5BD",
"G. c #F5D5AF",
"H. c #E6D2B3",
"J. c #F3DABD",
"K. c #F5EBA6",
"L. c #E8E1B0",
"P. c #A198D1",
"I. c #C6BAC5",
"U. c #BFC5D7",
"Y. c #C9CBC6",
"T. c #D6CCC7",
"R. c #DCD3CA",
"E. c #C3CADC",
"W. c #EBD0C4",
"Q. c #E4D8C5",
"!. c #E7D6D6",
"~. c #E0D9D4",
"^. c #E8DEDE",
"/. c #E9E5C6",
"(. c #ECE8D6",
"). c #EAE7E4",
"_. c #ffECECEC",
/* pixels */
"_._._._._._._._._._._._._._._._._._._._._._._._._._._._._._._._._._._._._._._._._._._._._._._._._._._._._._._._._._._._._._._._._._._._._._._._._._._._.",
"_._._._._._._._._._._._._._._._._._._._._._._._._._._._._._._._._._._._._._._._._._._._._._._._._._._._._._._._._._._._._._._._._._._._._._._._._._._._.",
"_._._._._._._._._._._._._._._._._._._._._._._._._._._._._._._._._._._._._._._._._._._._._._._._._._._._._._._._._._._._._._._._._._._._._._._._._._._._.",
"_._._._._._._._._._._._._._._._._._._._._._._._._._._._._._._._._._._._._._._._._._._._._._._._._._._._._._._._._._._._._._._._._._._._._._._._._._._._.",
"_._._._._._._._._._._._._._._._._._._._._._._._._._._._._._._._._._._._._._._._._._._._._._._._._._._._._._._._._._._._._._._._._._._._._._._._._._._._.",
"_._._._._._._._._._._._._._._._._._._._._._._._._._._._._._._._._._._._._._._._._._._._._._._._._._._._._._._._._._._._._._._._._._._._._._._._._._._._.",
"_._._._._._._._._._._._._._._._._._._._._._._._._._._._._._._._._._._._._._._._._._._._._._._._._._._._._._._._._._._._._._._._._._._._._._._._._._._._.",
"_._._._._._._._._._._._._._._._._._._._._._._._._._._._._._._._._._._._._._._._._._._._._._._._._._._._._._._._._._._._._._._._._._._._._._._._._._._._.",
"_._._._._._._._._._._._._._._._._._._._._._._._._._._._._._._._._._._._._._._._._._._._._._._._._._._._._._._._._._._._._._._._._._._._._._._._._._._._.",
"_._._._._._._._._._._._._._._._._._._._._._._._._._._._._._._._._._._._._._._._._._._._._._._._._._._._._._._._._._._._._._._._._._._._._._._._._._._._.",
"_._._._._._._._._._._._._._._._._._._._._._._._._._._._._._._._._._._._._._._._._._._._._._._._._._._._._._._._._._._._._._._._._._._._._._._._._._._._.",
"_._._._._._._._._._._._._._._._._._._._._._._._._._._._._._._._._._._._._._._._._._._._._._._._._._._._._._._._._._._._._._._._._._._._._._._._._._._._.",
"_._._._._._._._._._._._._._._._._._._._._._._._._._._._._._._._._._._._._._._._._._._._._._._._._._._._._._._._._._._._._._._._._._._._._._._._._._._._.",
"_._._._._._._._._._._._._._._._._.d m._._._._._._._._._._._._._._._._._._._._._._._._._._._._._._._._._._._._._._._._._._._._._._._._._._._._._._._._._.",
"_._._._._._._._._._._._._._._._._._._._._._._._._._._._._._._._.3 _._._._._._._._._._._._._._._._._._._._._._._._._._._._._._._._._._._._._._._._._._._.",
"_._._._._._._._._._._._._._._._._._._._._._._._._._._._._._._._._._._._._._._._._._._._._._._._._._._._._._._._._._._._._._._._._._._._._._._._._._._._.",
"_._._._._._._._._._._._._._._._._.3 x._._.3 3 s d B _._._._._._._._._._._._._._._._._._._._._._._._._._._._._._._._._._._._._._._._._._._._._._._._._._.",
"_._._._._._._._._._._._._._._._._._._._._._.3 } _ d s d _._._._._._._._._._._._._._._._._._._._._._._._._._._._._._._._._._._._._._._._._._._._._._._._.",
"_._._._._._._._._._._._._._._._._._._._._.3 _.f V | i d _._._._._._._._._._._._._._._._._._._._._._._._._._._._._._._._._._._._._._._._._._._._._._._._.",
"_._._._._._._._._._._._._._._._._._.E E _._.^.f a B  .s _._._._._._._._._._._._._._._._._._._._._._._._._._._._._._._._._._._._._._._._._._._._._._._._.",
"_._._._._._._._._._._._._._._._._.H.A E _._.i s )  .} i _._._._._._._._._._._._._._._._._._._._._._._._._._._._._._._._._._._._._._._._._._._._._._._._.",
"_._._._._._._._._._._._._._._._._.d F Q f.m.d C ` | d p _._._._._._._._._._._._._._._._.S.(._._._._._._.).S._._._._._._._._._._._._._._._._._._._._._._.",
"_._._._._._._._._._._._._._._._._.d R T 3 a ) ( [  .) d t.W._._._.J.J.J.J._._._._._._._.! F._._._._._._.Q.! _._._._._._._._._._._._._._._._._._._._._._.",
"_._._._._._._._._._._._._._._._._.k.Z p 3 3 ..N ( ...._ a g t._.G.B.B.B.B.G._._._._._._.l D._._._._._._.R.l _._._._._._._._._._._._._._._._._._._._._._.",
"_._._._._._._._._._._._._._._._._._.T i 3 3 C ` } ......m.T g _.:.B.A W B.h _._._._._._.$ ~ g._._._._.S.O.$ _._._._._._._._._._._._._._._._._._._._._._.",
"_._._._._._._._._._._._._._._._._._.!.s.3 } i } ......3.q d.Q._.;.B.,.>.B.,._._.L.C._._.$ 9 z ] _._.&.x ; $ _._._._._._._._._._._._._._._._._._._._._._.",
"_._._._._._._._._._._._._._._._._._._.x.3 ..............4.b # < B.B.B.V.l.;._.r #.w._._._.K $ $ $ ! j $ c )._._._._._._._._._._._._._._._._._._._._._._.",
"_._._._._._._._._._._._._._._._._._._.x.i d *.X.5.B...V.3 ' &.< @ ;.l.>.;.;.< 2.L.F.! _.)._.h.$ { s $ i._._._.! S._._._._._._._._._._._._._._._._._._._.",
"_._._._._._._._._._._._._._._._._._._.x.i d  .q.V.N.;.3 3 f./.4.4.# $.;.-.@ e 1.L.D.$ ! _.&.x $ d 3 5 z #._.! $ c._._._._._._._._._._._._._._._._._._._.",
"_._._._._._._._._._._._._._._._._._._._._.d i $.-.=.B.d d 7 %     7.9 # < e 2.o y.D.$ $ ! k $ $ 3 3 6 $ j ! ; $ c._._._._._._._._._._._._._._._._._._._.",
"_._._._._._._._._._._._._._._._._._._._._.d d s D -.=.3 & & & & &         . . & * > _.$ $ b.h.$ ! ! $ i.R.$ $ _._._._._._._._._._._._._._._._._._._._._.",
"_._._._._._._._._._._._._._._._._._._._._._.i s d B ;.3 .         & & & & & & & q Y _._._._.h.$ $ $ $ i._._._._._._._._._._._._._._._._._._._._._._._._.",
"_._._._._._._._._._._._._._._._._._._._._._._.w.n 7 ;.2.1 1 4 e e     X & & &   - G _._._._._._.$ $ !._._._._._._._._._._._._._._._._._._._._._._._._._.",
"_._._._._._._._._._._._._._._._._._._._._._._.@.c + < 2.e 4 1 1 1 e O X       1.' Y _._._._._._.$ $ ~._._._._._._._._._._._._._._._._._._._._._._._._._.",
"_._._._._._._._._._._._._._._._._._._._._._._.@.c - ^ e e 4 2 1 1 e e m 1.  8 1.S G (.).).)./.B.V.V.B.J._._._._._._._._._._._._._._._._._._._._._._._._.",
"_._._._._._._._._._._._._._._._._._._._._._._.J b M 2 4 1 y y 2 1 1 w T 1.8 e 1.Y e e 3.+ P -.0.N.;.>.J._._._._._._._._._._._._._._._._._._._._._._._._.",
"_._._._._._._._._._._._._._._._._._._._._._._._.z.H 1 1 J n.T.J 1 1 w S 1.e e 2.S w w <.+ + b j.+.+.g.Q._._._._._._._._._._._._._._._._._._._._._._._._.",
"_._._._._._._._._._._._._._._._._._._._._._._._._.(.U U _._._._.1 1 8 m 2.e e 2.T w 8 / + + I _.$ $ ~._._._._._._._._._._._._._._._._._._._._._._._._._.",
"_._._._._._._._._._._._._._._._._._._._._._._._._._._._._._._._.d.1 1 n 2.e e 2.S u d.M.u.u.b._.$ $ ~._._._._._._._._._._._._._._._._._._._._._._._._._.",
"_._._._._._._._._._._._._._._._._._._._._._._._._._._._._._._._._.1 1 t Z %.e 2.n H _._._._._._.$ $ ~._._._._._._._._._._._._._._._._._._._._._._._._._.",
"_._._._._._._._._._._._._._._._._._._._._._._._._._._._._._._._._.1 1 0 u Y.v.Y.I.T._._._._._._.$ $ ~._._._._._._._._._._._._._._._._._._._._._._._._._.",
"_._._._._._._._._._._._._._._._._._._._._._._._._._._._._._._._._.* * * = P.r.U.p.r._._._._._._.$ $ ~._._._._._._._._._._._._._._._._._._._._._._._._._.",
"_._._._._._._._._._._._._._._._._._._._._._._._._._._._._._._._.Z.  % * = P.P.E.U.R.Z._._._._._.$ $ ~._._._._._._._._._._._._._._._._._._._._._._._._._.",
"_._._._._._._._._._._._._._._._._._._._._._._._._._._._._._./.4.4.Z.: . X = P.r.p.a./ 7._._._._.$ $ ~._._._._._._._._._._._._._._._._._._._._._._._._._.",
"_._._._._._._._._._._._._._._._._._._._._._._._._._._._._.C.4.4.4.Z.v 1 1   P.o , y./ / _._._._.$ $ ~._._._._._._._._._._._._._._._._._._._._._._._._._.",
"_._._._._._._._._._._._._._._._._._._._._._._._._._._._.Z.8.4.4.4.Z.v 1 1         . 1 / 2./._._.$ $ ~._._._._._._._._._._._._._._._._._._._._._._._._._.",
"_._._._._._._._._._._._._._._._._._._._._._._._._._._._._.K.e.4.4.Z.v 1 8 4.    o.%.1 / Z.(._._.$ $ ~._._._._._._._._._._._._._._._._._._._._._._._._._.",
"_._._._._._._._._._._._._._._._._._._._._._._._._._._._.7.7.8.Z.Z.Z.v 1 8 4.e e #.%.e / / F._._.$ $ ~._._._._._._._._._._._._._._._._._._._._._._._._._.",
"_._._._._._._._._._._._._._._._._._._._._._._._._._._._.Z.8.4.4.4.Z.v 1 8 4.e e #.*.e 1 / <.O.$ $ $ ~.)._._._._._._._._._._._._._._._._._._._._._._._._.",
"_._._._._._._._._._._._._._._._._._._._._._._._._._._._.3.e.Z.Z.4.Z.v 1 8 2.e e #.*.e 1 / w.&.$ $ _._._._._._._._._._._._._._._._._._._._._._._._._._._.",
"_._._._._._._._._._._._._._._._._._._._._._._._._._._.A.4.7.8.9.9.e 2 n 2.e e e #.*.e 1 / 6.O.$ $ _._._._._._._._._._._._._._._._._._._._._._._._._._._.",
"_._._._._._._._._._._._._._._._._._._._._._._._._._._._.K.0.$.e e e 8 n 2.e e e #.*.e e M F.h.$ $ _._._._._._._._._._._._._._._._._._._._._._._._._._._.",
"_._._._._._._._._._._._._._._._._._._._._._._._._._._._.f.G e e e e 2 n 2.e e e #.%.w e 1 n.h.$ $ _._._._._._._._._._._._._._._._._._._._._._._._._._._.",
"_._._._._._._._._._._._._._._._._._._._._._._._._._._._.e e e e e e 2 n 2.e e e #.%.1 e 1 n.h.$ $ _._._._._._._._._._._._._._._._._._._._._._._._._._._.",
"_._._._._._._._._._._._._._._._._._._._._._._._._._._._.e e e e e e 2 n 2.e e e #.%.1 4 1 n.h.$ $ _._._._._._._._._._._._._._._._._._._._._._._._._._._.",
"_._._._._._._._._._._._._._._._._._._._._._._._._._._.Y e e e e e e 2 n 2.e e e #.%.1 1 1 n.h.$ $ _._._._._._._._._._._._._._._._._._._._._._._._._._._.",
"_._._._._._._._._._._._._._._._._._._._._._._._._._._.e e 4 4 e e e 2 n 2.e e e #.%.1 1 1 9 ; $ $ _._._._._._._._._._._._._._._._._._._._._._._._._._._.",
"_._._._._._._._._._._._._._._._._._._._._._._._._.!.e e 1 1 1 1 e e 2 n 2.e e e #.%.1 1 1 5 $ $ $ _._._._._._._._._._._._._._._._._._._._._._._._._._._.",
"_._._._._._._._._._._._._._._._._._._._._._._._._.!.e e 1 1 1 1 e e 4 n 2.e e e #.%.1 1 1 5 $ $ $ _._._._._._._._._._._._._._._._._._._._._._._._._._._.",
"_._._._._._._._._._._._._._._._._._._._._._._._._._._.1 1 1 1 1 1 1 1 n 2.e e e #.%.1 1 1 5 $ $ _._._._._._._._._._._._._._._._._._._._._._._._._._._._.",
"_._._._._._._._._._._._._._._._._._._._._._._._._._._._.1 1 H _.1 1 1 n 2.e e e #.%.1 1 1 5 $ $ _._._._._._._._._._._._._._._._._._._._._._._._._._._._.",
"_._._._._._._._._._._._._._._._._._._._._._._._._._._._._._._._.1 1 1 n 2.e e e #.*.e _.1 5 $ $ _._._._._._._._._._._._._._._._._._._._._._._._._._._._.",
"_._._._._._._._._._._._._._._._._._._._._._._._._._._._._._._._._.1 1 n 7._.e e #.w._._._.L $ $ _._._._._._._._._._._._._._._._._._._._._._._._._._._._.",
"_._._._._._._._._._._._._._._._._._._._._._._._._._._._._._._._._._._._._._._._._._._._._.L $ $ _._._._._._._._._._._._._._._._._._._._._._._._._._._._.",
"_._._._._._._._._._._._._._._._._._._._._._._._._._._._._._._._._._._._._._._._._._._._._.L $ $ _._._._._._._._._._._._._._._._._._._._._._._._._._._._.",
"_._._._._._._._._._._._._._._._._._._._._._._._._._._._._._._._._._._._._._._._._._._._._._._._._._._._._._._._._._._._._._._._._._._._._._._._._._._._.",
"_._._._._._._._._._._._._._._._._._._._._._._._._._._._._._._._._._._._._._._._._._._._._._._._._._._._._._._._._._._._._._._._._._._._._._._._._._._._.",
"_._._._._._._._._._._._._._._._._._._._._._._._._._._._._._._._._._._._._._._._._._._._._._._._._._._._._._._._._._._._._._._._._._._._._._._._._._._._.",
"_._._._._._._._._._._._._._._._._._._._._._._._._._._._._._._._._._._._._._._._._._._._._._._._._._._._._._._._._._._._._._._._._._._._._._._._._._._._.",
"_._._._._._._._._._._._._._._._._._._._._._._._._._._._._._._._._._._._._._._._._._._._._._._._._._._._._._._._._._._._._._._._._._._._._._._._._._._._.",
"_._._._._._._._._._._._._._._._._._._._._._._._._._._._._._._._._._._._._._._._._._._._._._._._._._._._._._._._._._._._._._._._._._._._._._._._._._._._.",
"_._._._._._._._._._._._._._._._._._._._._._._._._._._._._._._._._._._._._._._._._._._._._._._._._._._._._._._._._._._._._._._._._._._._._._._._._._._._.",
"_._._._._._._._._._._._._._._._._._._._._._._._._._._._._._._._._._._._._._._._._._._._._._._._._._._._._._._._._._._._._._._._._._._._._._._._._._._._.",
"_._._._._._._._._._._._._._._._._._._._._._._._._._._._._._._._._._._._._._._._._._._._._._._._._._._._._._._._._._._._._._._._._._._._._._._._._._._._.",
"_._._._._._._._._._._._._._._._._._._._._._._._._._._._._._._._._._._._._._._._._._._._._._._._._._._._._._._._._._._._._._._._._._._._._._._._._._._._.",
"_._._._._._._._._._._._._._._._._._._._._._._._._._._._._._._._._._._._._._._._._._._._._._._._._._._._._._._._._._._._._._._._._._._._._._._._._._._._."
};
