/* XPM */
static char *_3807dbcda7047e683748078eb7c94e5yCqekw4anCJ3BJUv[] = {
/* columns rows colors chars-per-pixel */
"76 76 191 2 ",
"   c #361B1B",
".  c #3B1D1D",
"X  c #5A1B1B",
"o  c #7A1212",
"O  c #7E1917",
"+  c #7F1B19",
"@  c #7C360D",
"#  c #79390B",
"$  c #7D3F12",
"%  c #422523",
"&  c #4D2D2C",
"*  c #502C2B",
"=  c #5F434F",
"-  c #694C52",
";  c #6D5A79",
":  c #841B1A",
">  c #971A1A",
",  c #991B1B",
"<  c #BF0001",
"1  c #A21F1F",
"2  c #873409",
"3  c #84231D",
"4  c #9C251F",
"5  c #86371D",
"6  c #932423",
"7  c #9C2C2C",
"8  c #903831",
"9  c #A62120",
"0  c #AB2322",
"q  c #B42726",
"w  c #B62D2A",
"e  c #A33838",
"r  c #B63F34",
"t  c #C70A01",
"y  c #C81805",
"u  c #D51A00",
"i  c #C41B1C",
"p  c #DC2200",
"a  c #E42B00",
"s  c #E93100",
"d  c #E73808",
"f  c #C62526",
"g  c #C62728",
"h  c #CD342F",
"j  c #FE3D2A",
"k  c #82420E",
"l  c #8F5111",
"z  c #975A16",
"x  c #A86C19",
"c  c #884621",
"v  c #944128",
"b  c #8B552E",
"n  c #A74128",
"m  c #A9532E",
"M  c #9E662C",
"N  c #A56B2F",
"B  c #EB4906",
"V  c #E3501D",
"C  c #F0710E",
"Z  c #DF4C32",
"A  c #C05334",
"S  c #E94E25",
"D  c #F44D2F",
"F  c #C5653A",
"G  c #C6683B",
"H  c #EA623E",
"J  c #AA4848",
"K  c #BA4C4B",
"L  c #AF5656",
"P  c #B25C5C",
"I  c #9D7151",
"U  c #AD6C57",
"Y  c #8A7974",
"T  c #BC6A69",
"R  c #BC7575",
"E  c #D9584A",
"W  c #C25655",
"Q  c #CC6A47",
"!  c #EA6D4C",
"~  c #C86F6E",
"^  c #D46F6F",
"/  c #CC7D7D",
"(  c #D77A7A",
")  c #BE841F",
"_  c #AB8237",
"`  c #BC8430",
"'  c #A29137",
"]  c #A39638",
"[  c #F38F15",
"{  c #F6A81B",
"}  c #C49139",
"|  c #FFD800",
" . c #FCDB26",
".. c #FBEB2A",
"X. c #FFFC2D",
"o. c #B38742",
"O. c #BA8554",
"+. c #BAA64E",
"@. c #AF8E75",
"#. c #B7AE6A",
"$. c #C68E44",
"%. c #CE8B46",
"&. c #D19349",
"*. c #D49E4C",
"=. c #C29057",
"-. c #FC8C5F",
";. c #D6A44F",
":. c #D3AB4F",
">. c #CBA158",
",. c #D8AD51",
"<. c #CFBF52",
"1. c #E1A557",
"2. c #DC837D",
"3. c #EB9078",
"4. c #D6A567",
"5. c #D6AB6B",
"6. c #D4A870",
"7. c #DEA972",
"8. c #FCAB74",
"9. c #EDB473",
"0. c #DCC859",
"q. c #E1CF5C",
"w. c #E6D756",
"e. c #E2D15D",
"r. c #DDCE6C",
"t. c #E6D664",
"y. c #E8D86E",
"u. c #FCD76A",
"i. c #EBCD75",
"p. c #E7D97A",
"a. c #EFE074",
"s. c #F2E47C",
"d. c #7E7499",
"f. c #D77F80",
"g. c #B98A8A",
"h. c #A19699",
"j. c #978CA9",
"k. c #BCB5B5",
"l. c #C68F8F",
"z. c #DA8C8C",
"x. c #C89292",
"c. c #D49998",
"v. c #D6B789",
"b. c #C2AA99",
"n. c #DBBC95",
"m. c #F1BE80",
"M. c #EBA795",
"N. c #DBA8A9",
"B. c #C8B3A5",
"V. c #C1AFBD",
"C. c #C8B9B3",
"Z. c #D5BFBF",
"A. c #E2B0AE",
"S. c #E1B5B5",
"D. c #CCC79E",
"F. c #F4C182",
"G. c #FBC686",
"H. c #FAC98F",
"J. c #E6DB91",
"K. c #E6DD9F",
"L. c #F9EB84",
"P. c #F6EB95",
"I. c #DCC7A4",
"U. c #DDCAAA",
"Y. c #D7D7BC",
"T. c #F5D5AF",
"R. c #EBC6BC",
"E. c #F3D7B4",
"W. c #F3DABD",
"Q. c #F5EBA1",
"!. c #F3F2A6",
"~. c #E8E1B0",
"^. c #988CC3",
"/. c #A096D1",
"(. c #A198D1",
"). c #CBC9C8",
"_. c #DDC9C9",
"`. c #DAD0C9",
"'. c #C4CBDC",
"]. c #EADDCB",
"[. c #F1DEC7",
"{. c #E3DBD3",
"}. c #E7D9D7",
"|. c #ECDFDC",
" X c #E9E5C6",
".X c #F1E6C6",
"XX c #E8E4DC",
"oX c #E7E3E3",
"OX c #E9E3E3",
"+X c #ECEAE5",
"@X c #ffECECEC",
/* pixels */
"@X@X@X@X@X@X@X@X@X@X@X@X@X@X@X@X@X@X@X@X@X@X@X@X@X@X@X@X@X@X@X@X@X@X@X@X@X@X@X@X@X@X@X@X@X@X@X@X@X@X@X@X@X@X@X@X@X@X@X@X@X@X@X@X@X@X@X@X@X@X@X@X@X@X@X@X",
"@X@X@X@X@X@X@X@X@X@X@X@X@X@X@X@X@X@X@X@X@X@X@X@X@X@X@X@X@X@X@X@X@X@X@X@X@X@X@X@X@X@X@X@X@X@X@X@X@X@X@X@X@X@X@X@X@X@X@X@X@X@X@X@X@X@X@X@X@X@X@X@X@X@X@X@X",
"@X@X@X@X@X@X@X@X@X@X@X@X@X@X@X@X@X@X@X@X@X@X@X@X@X@X@X@X@X@X@X@X@X@X@X@X@X@X@X@X@X@X@X@X@X@X@X@X@X@X@X@X@X@X@X@X@X@X@X@X@X@X@X@X@X@X@X@X@X@X@X@X@X@X@X@X",
"@X@X@X@X@X@X@X@X@X@X@X@X@X@X@X@X@X@X@X@X@X@X@X@X@X@X@X@X@X@X@X@X@X@X@X@X@X@X@X@X@X@X@X@X@X@X@X@X@X@X@X@X@X@X@X@X@X@X@X@X@X@X@X@X@X@X@X@X@X@X@X@X@X@X@X@X",
"@X@X@X@X@X@X@X@X@X@X@X@X@X@X@X@X@X@X@X@X@X@X@X@X@X@X@X@X@X@X@X@X@X@X@X@X@X@X@X@X@X@X@X@X@X@X@X@X@X@X@X@X@X@X@X@X@X@X@X@X@X@X@X@X@X@X@X@X@X@X@X@X@X@X@X@X",
"@X@X@X@X@X@X@X@X@X@X@X@X@X@X@X@X@X@X@X@X@X@X@X@X@X@X@X@X@X@X@X@X@X@X@X@X@X@X@X@X@X@X@X@X@X@X@X@X@X@X@X@X@X@X@X@X@X@X@X@X@X@X@X@X@X@X@X@X@X@X@X@X@X@X@X@X",
"@X@X@X@X@X@X@X@X@X@X@X@X@X@X@X@X@X@X@X@X@X@X@X@X@X@X@X@X@X@X@X@X@X@X@X@X@X@X@X@X@X@X@X@X@X@X@X@X@X@X@X@X@X@X@X@X@X@X@X@X@X@X@X@X@X@X@X@X@X@X@X@X@X@X@X@X",
"@X@X@X@X@X@X@X@X@X@X@X@X@X@X@X@X@X@X@X@X@X@X@X@X@X@X@X@X@X@X@X@X@X@X@X@X@X@X@X@X@X@X@X@X@X@X@X@X@X@X@X@X@X@X@X@X@X@X@X@X@X@X@X@X@X@X@X@X@X@X@X@X@X@X@X@X",
"@X@X@X@X@X@X@X@X@X@X@X@X@X@X@X@X@X@X@X@X@X@X@X@X@X@X@X@X@X@X@X@X@X@X@X@X@X@X@X@X@X@X@X@X@X@X@X@X@X@X@X@X@X@X@X@X@X@X@X@X@X@X@X@X@X@X@X@X@X@X@X@X@X@X@X@X",
"@X@X@X@X@X@X@X@X@X@X@X@X@X@X@X@X@X@X@X@X@X@X@X@X@X@X@X@X@X@X@X@X@X@X@X@X@X@X@X@X@X@X@X@X@X@X@X@X@X@X@X@X@X@X@X@X@X@X@X@X@X@X@X@X@X@X@X@X@X@X@X@X@X@X@X@X",
"@X@X@X@X@X@X@X@X@X@X@X@X@X@X@X@X@X@X@X@X@X@X@X@X@X@X@X@X@X@X@X@X@X@X@X@X@X@X@X@X@X@X@X@X@X@X@X@X@X@X@X@X@X@X@X@X@X@X@X@X@X@X@X@X@X@X@X@X@X@X@X@X@X@X@X@X",
"@X@X@X@X@X@X@X@X@X@X@X@X@X@X@X@X@X@X@X@X@X@X@X@X@X@X@X@X@X@X@X@X@X@X@X@X@X@X@X@X@X@X@X@X@X@X@X@X@X@X@X@X@X@X@X@X@X@X@X@X@X@X@X@X@X@X@X@X@X@X@X@X@X@X@X@X",
"@X@X@X@X@X@X@X@X@X@X@X@X@X@X@X@X@X@X@X+X@X@X@X@X@X@X@X@X@X@X@X@X@X@X@X@X@X@X@X@X@X@X@X@X@X@X@X@X@X@X@X@X@X@X@X@X@X@X@X@X@X@X@X@X@X@X@X@X@X@X@X@X@X@X@X@X",
"@X@X@X@X@X@X@X@X@X@X@X@X@X@X@X@X@X@X@XN.t @X@X@X@X@X@Xs s s H @X@X@X@X@X@X@X@X@X@X@X@X@X@X@X@X@X@X@X@X@X@X@X@X@X@X@X@X@X@X@X@X@X@X@X@X@X@X@X@X@X@X@X@X@X",
"@X@X@X@X@X@X@X@X@X@X@X@X@X@X@X@X@X@X@X@X@X@X@X@X@X}.s s s s H @X@X@X@X@X@X@X@X@X@X@X@X@X@X@X@X@X@X@X@X@X@X@X@X@X@X@X@X@X@X@X@X@X@X@X@X@X@X@X@X@X@X@X@X@X",
"@X@X@X@X@X@X@X@X@X@X@X@X@X@X@X@X@X@X@X@X@X@X@XS s s s s s M.@X@X@X@X@X@X@X@X@X@X@X@X@X@X@X@X@X@X@X@X@X@X@X@X@X@X@X@X@X@X@X@X@X@X@X@X@X@X@X@X@X@X@X@X@X@X",
"@X@X@X@X@X@X@X@X@X@X@X@X@X@X@X@X@X@X@X@X@X@X@XS u y X.s @X@X@X@X@X@X@X@X@X@X@X@X@X@X@X@X@X@X@X@X@X@X@X@X@X@X@X@X@X@X@X@X@X@X@X@X@X@X@X@X@X@X@X@X@X@X@X@X",
"@X@X@X@X@X@X@X@X@X@X@X@X@X@X@X@X@X@X! ! @X@X@XS s B X.X.X.!.@X@X@X@X@X@X@X@X@X@X@X@X@X@X@X@X@X@X@X@X@X@X@X@X@X@X@X@X@X@X@X@X@X@X@X@X@X@X@X@X@X@X@X@X@X@X",
"@X@X@X@X@X@X@X@X@X@X@X@X@X@X@X@X@X@X@X@X@X@X@X@X3.B X.X.s s s s @X@X@X@XOXt @X@X@X@X@X@X@X@X@X@X@X@X@X@X@X@X@X@X@X@X@X@X@X@X@X@X@X@X@X@X@X@X@X@X@X@X@X@X",
"@X@X@X@X@X@X@X@X@X@X@X@X@X@X@X@X@X@X@X@X@X@X|.|.( y ..X.d s s s a < A.|.|.|.@X@X@X@X@X@X@X@X@X@X@X@X@X@X@X@X@X@X@X@X@X@X@X@X@X@X@X@X@X@X@X@X@X@X@X@X@X@X",
"@X@X@X@X@X@X@X@X@X@X@X@X@X@X@X@X@X@X@X|.R.@Xs s s a <  .X.C s s s h d a s S @X@X@X@X@X@X@X@X@X@X@X@X@X@X@X@X@X@X@X@X@X@X@X@X@X@X@X@X@X@X@X@X@X@X@X@X@X@X",
"@X@X@X@X@X@X@X@X@X@X@X@X@X@X@X@X@X@X@XR.! @Xp s a u < C X.{ C s s @XZ a d @X@X@X@X@X@X@X@X@X@X@X@XU.+X@X@X@X@X@X@X{.I.@X@X@X@X@X@X@X@X@X@X@X@X@X@X@X@X@X",
"@X@X@X@X@X@X@X@X@X@X@X@X@X@X@X@X@X@X@X@X@X@X< u t t < X.X.X...[ s f.i h 3.@XW.W.W.[.@X@X@X@X@X@X@X) |.@X@X@X@X@X@XU.) @X@X@X@X@X@X@X@X@X@X@X@X@X@X@X@X@X",
"@X@X@X@X@X@X@X@X@X@X@X@X@X@X@X@X@X@X@X@X@X@Xz.z.E u < X.X.X.X.X.{ < ^ S.@XT.G.G.G.H.T.@X@X@X@X@X@Xl {.@X@X@X@X@X@XC.z @X@X@X@X@X@X@X@X@X@X@X@X@X@X@X@X@X",
"@X@X@X@X@X@X@X@X@X@X@X@X@X@X@X@X@X@X@X@X@X@X@X@X2.t p X.X.X.X.X.X.N.}.@X+X7.H.D -.8.j @X@X@X@X@X+X# >.I.@X@X@X@Xv.` # @X@X@X@X@X@X@X@X@X@X@X@X@X@X@X@X@X",
"@X@X@X@X@X@X@X@X@X@X@X@X@X@X@X@X@X@X@X@X@X@X@X@X( y ..B X.X.X.X.w.8 _.@X+X6.m.8.9.G.8.@X@XJ.K.@X@X# k N >.@X@X} z k # @X@X@X@X@X@X@X@X@X@X@X@X@X@X@X@X@X",
"@X@X@X@X@X@X@X@X@X@X@X@X@X@X@X@X@X@X@X@X@X@X@Xg < y X.X.X.X.X.X.X.q.v : 3 G.G.G.G.F.6.@Xw ;.J.@X@X+Xc # $ # ) # $ I @X@X@X@X@X@X@X@X@X@X@X@X@X@X@X@X@X@X",
"@X@X@X@X@X@X@X@X@X@X@X@X@X@X@X@X@X@X@X@X@X@X@Xf < t s 1.X.u.u.X.H.@Xp.o.: : 6.G.7.6.6.O t. XI.) @X@X@X@.l | s # B.@X@X@X) {.@X@X@X@X@X@X@X@X@X@X@X@X@X@X",
"@X@X@X@X@X@X@X@X@X@X@X@X@X@X@X@X@X@X@X@X@X@X@Xf < < < < G.G.F.6.t @X@X~.q.q.O 6.6.=.O q q. Xb.# ) @X` z 2 s < # x >.@X) # `.@X@X@X@X@X@X@X@X@X@X@X@X@X@X",
"@X@X@X@X@X@X@X@X@X@X@X@X@X@X@X@X@X@X@X@X@X@X@Xf < < < < 6.4.1.G.d @X- %     0.: O 3 q t.  k.b.# # ) k k 2 < < # # l ) # # `.@X@X@X@X@X@X@X@X@X@X@X@X@X@X",
"@X@X@X@X@X@X@X@X@X@X@X@X@X@X@X@X@X@X@X@X@X@X@X@X( < < s < Q 5.1.t & & & & &             & & Y @X# # {.@.k ) ) # B.B.# # @X@X@X@X@X@X@X@X@X@X@X@X@X@X@X@X",
"@X@X@X@X@X@X@X@X@X@X@X@X@X@X@X@X@X@X@X@X@X@X@X@X@X@X@X< s s V 6.<           & & & & & & & 6 ~ @X@X@X@X@.# # # # B.@X@X@X@X@X@X@X@X@X@X@X@X@X@X@X@X@X@X@X",
"@X@X@X@X@X@X@X@X@X@X@X@X@X@X@X@X@X@X@X@X@X@X@X@X@X@X@X@Xe.m 8 6.0., , 1 q q     % & & &   4 ~ @X@X@X@X@X`.# # @X@X@X@X@X@X@X@X@X@X@X@X@X@X@X@X@X@X@X@X@X",
"@X@X@X@X@X@X@X@X@X@X@X@X@X@X@X@X@X@X@X@X@X@X@X@X@X@X@X@X] c o o t.q , > , > q .         e.m ~ @X@X@X@X@X`.# # @X@X@X@X@X@X@X@X@X@X@X@X@X@X@X@X@X@X@X@X@X",
"@X@X@X@X@X@X@X@X@X@X@X@X@X@X@X@X@X@X@X@X@X@X@X@X@X@X@X@X' c 5 ' q q , , > > q q %.>.  > e.A ~ +XOXOX+XE.G.G.G.G..X@X@X@X@X@X@X@X@X@X@X@X@X@X@X@X@X@X@X@X",
"@X@X@X@X@X@X@X@X@X@X@X@X@X@X@X@X@X@X@X@X@X@X@X@X@X@X@X@XJ N M > 0 > e 7 > > > q %.:.4 q e.A q q q.o =.7.F.F.6.F.].@X@X@X@X@X@X@X@X@X@X@X@X@X@X@X@X@X@X@X",
"@X@X@X@X@X@X@X@X@X@X@X@X@X@X@X@X@X@X@X@X@X@X@X@X@X@X@X@X@Xl.J , > P `.N.L > > q %.,.q q e.A q 0 <.o o U v.O.O.n.{.@X@X@X@X@X@X@X@X@X@X@X@X@X@X@X@X@X@X@X",
"@X@X@X@X@X@X@X@X@X@X@X@X@X@X@X@X@X@X@X@X@X@X@X@X@X@X@X@X@X@X_.R R @X@X@XOX> > 1 $.,.q q e.A 0 , ] o o g.`.@ # @X@X@X@X@X@X@X@X@X@X@X@X@X@X@X@X@X@X@X@X@X",
"@X@X@X@X@X@X@X@X@X@X@X@X@X@X@X@X@X@X@X@X@X@X@X@X@X@X@X@X@X@X@X@X@X@X@X@X+Xl.> > G ,.q q e.A K x.D.g.g.Z.`.# # @X@X@X@X@X@X@X@X@X@X@X@X@X@X@X@X@X@X@X@X@X",
"@X@X@X@X@X@X@X@X@X@X@X@X@X@X@X@X@X@X@X@X@X@X@X@X@X@X@X@X@X@X@X@X@X@X@X@X@X@X> > r Q *.q e.m T @X@X@X@X@X`.@ # @X@X@X@X@X@X@X@X@X@X@X@X@X@X@X@X@X@X@X@X@X",
"@X@X@X@X@X@X@X@X@X@X@X@X@X@X@X@X@X@X@X@X@X@X@X@X@X@X@X@X@X@X@X@X@X@X@X@X@X@X, , 9 K ).V.).k.).@X@X@X@X@X`.# # @X@X@X@X@X@X@X@X@X@X@X@X@X@X@X@X@X@X@X@X@X",
"@X@X@X@X@X@X@X@X@X@X@X@X@X@X@X@X@X@X@X@X@X@X@X@X@X@X@X@X@X@X@X@X@X@X@X@X@X@X* * * = (.; '.d.j.@X@X@X@X@X`.# # @X@X@X@X@X@X@X@X@X@X@X@X@X@X@X@X@X@X@X@X@X",
"@X@X@X@X@X@X@X@X@X@X@X@X@X@X@X@X@X@X@X@X@X@X@X@X@X@X@X@X@X@X@X@X@X@X@X@X+XL.  * & = /./.'.'.Y.L.@X@X@X@X`.# # @X@X@X@X@X@X@X@X@X@X@X@X@X@X@X@X@X@X@X@X@X",
"@X@X@X@X@X@X@X@X@X@X@X@X@X@X@X@X@X@X@X@X@X@X@X@X@X@X@X@X@X@X@X@X@X@X@X~.e.e.L.%   . & /.d.^.h.] e.@X@X@X`.# # @X@X@X@X@X@X@X@X@X@X@X@X@X@X@X@X@X@X@X@X@X",
"@X@X@X@X@X@X@X@X@X@X@X@X@X@X@X@X@X@X@X@X@X@X@X@X@X@X@X@X@X@X@X@X@X@Xp.e.e.e.L.4 > :   /.  ; Y ] ] @X@X@X`.# # @X@X@X@X@X@X@X@X@X@X@X@X@X@X@X@X@X@X@X@X@X",
"@X@X@X@X@X@X@X@X@X@X@X@X@X@X@X@X@X@X@X@X@X@X@X@X@X@X@X@X@X@X@X@X@XL.t.e.e.e.L.4 > +         X > ] e.XX@X`.# # @X@X@X@X@X@X@X@X@X@X@X@X@X@X@X@X@X@X@X@X@X",
"@X@X@X@X@X@X@X@X@X@X@X@X@X@X@X@X@X@X@X@X@X@X@X@X@X@X@X@X@X@X@X@X@X@XP.a.e.e.L.4 > n e.    +.$.> ] L.+X@X`.# # @X@X@X@X@X@X@X@X@X@X@X@X@X@X@X@X@X@X@X@X@X",
"@X@X@X@X@X@X@X@X@X@X@X@X@X@X@X@X@X@X@X@X@X@X@X@X@X@X@X@X@X@X@X@X@Xe.r.y.L.L.L.6 > n e.q q ;.$.> ] ] XX@X`.# # @X@X@X@X@X@X@X@X@X@X@X@X@X@X@X@X@X@X@X@X@X",
"@X@X@X@X@X@X@X@X@X@X@X@X@X@X@X@X@X@X@X@X@X@X@X@X@X@X@X@X@X@X@X@X@XL.t.e.e.e.L.4 > n e.q q ;.$.> , ] 0._ # # # @X@X@X@X@X@X@X@X@X@X@X@X@X@X@X@X@X@X@X@X@X",
"@X@X@X@X@X@X@X@X@X@X@X@X@X@X@X@X@X@X@X@X@X@X@X@X@X@X@X@X@X@X@X@X@Xe.s.L.L.q.L.4 > n e.q q ;.&.q > ] s._ # # @X@X@X@X@X@X@X@X@X@X@X@X@X@X@X@X@X@X@X@X@X@X",
"@X@X@X@X@X@X@X@X@X@X@X@X@X@X@X@X@X@X@X@X@X@X@X@X@X@X@X@X@X@X@X@XP.t.t.p.P.i., > > n e.q q ;.&.q > ] y._ # # @X@X@X@X@X@X@X@X@X@X@X@X@X@X@X@X@X@X@X@X@X@X",
"@X@X@X@X@X@X@X@X@X@X@X@X@X@X@X@X@X@X@X@X@X@X@X@X@X@X@X@X@X@X@X@X@XQ.P..XXX, q > > n e.q q ;.&.q > #.oX@.# # @X@X@X@X@X@X@X@X@X@X@X@X@X@X@X@X@X@X@X@X@X@X",
"@X@X@X@X@X@X@X@X@X@X@X@X@X@X@X@X@X@X@X@X@X@X@X@X@X@X@X@X@X@X@X@X@X@X@X@X+Xq q > > n e.q q ;.&.q 9 @X@X@.# # @X@X@X@X@X@X@X@X@X@X@X@X@X@X@X@X@X@X@X@X@X@X",
"@X@X@X@X@X@X@X@X@X@X@X@X@X@X@X@X@X@X@X@X@X@X@X@X@X@X@X@X@X@X@X@X@X@X@XR./ q q > > n e.q q ;.&.q q @X@X@.# # @X@X@X@X@X@X@X@X@X@X@X@X@X@X@X@X@X@X@X@X@X@X",
"@X@X@X@X@X@X@X@X@X@X@X@X@X@X@X@X@X@X@X@X@X@X@X@X@X@X@X@X@X@X@X@X@X@X@Xc.q q q , > n e.q q ;.%., q P XX@.# # @X@X@X@X@X@X@X@X@X@X@X@X@X@X@X@X@X@X@X@X@X@X",
"@X@X@X@X@X@X@X@X@X@X@X@X@X@X@X@X@X@X@X@X@X@X@X@X@X@X@X@X@X@X@X@X@X@X@Xc.q q q , > n e.q q ;.$.> q > {.@.# # @X@X@X@X@X@X@X@X@X@X@X@X@X@X@X@X@X@X@X@X@X@X",
"@X@X@X@X@X@X@X@X@X@X@X@X@X@X@X@X@X@X@X@X@X@X@X@X@X@X@X@X@X@X@X@X@X@XW r q q q , > e e.q q w G 0.> > $ $ # # @X@X@X@X@X@X@X@X@X@X@X@X@X@X@X@X@X@X@X@X@X@X",
"@X@X@X@X@X@X@X@X@X@X@X@X@X@X@X@X@X@X@X@X@X@X@X@X@X@X@X@X@X@X@X@X@X@XK q q q q , > > > e.q q F w.> > @ # # # @X@X@X@X@X@X@X@X@X@X@X@X@X@X@X@X@X@X@X@X@X@X",
"@X@X@X@X@X@X@X@X@X@X@X@X@X@X@X@X@X@X@X@X@X@X@X@X@X@X@X@X@X@X@X@X@X@XJ 9 q q q , > > > e.q q G q.> > @ # # # @X@X@X@X@X@X@X@X@X@X@X@X@X@X@X@X@X@X@X@X@X@X",
"@X@X@X@X@X@X@X@X@X@X@X@X@X@X@X@X@X@X@X@X@X@X@X@X@X@X@X@X@X@X@X@X@X> > > , q q , > > > e.q q G q.> > @ # b @X@X@X@X@X@X@X@X@X@X@X@X@X@X@X@X@X@X@X@X@X@X@X",
"@X@X@X@X@X@X@X@X@X@X@X@X@X@X@X@X@X@X@X@X@X@X@X@X@X@X@X@X@X@X@X@Xq > > > , q q > > > > e.q q F e.> > @ @ b @X@X@X@X@X@X@X@X@X@X@X@X@X@X@X@X@X@X@X@X@X@X@X",
"@X@X@X@X@X@X@X@X@X@X@X@X@X@X@X@X@X@X@X@X@X@X@X@X@X@X@X@X@X@X@X@X> > > > > > > > > > > e.q q F e.> > @ # b @X@X@X@X@X@X@X@X@X@X@X@X@X@X@X@X@X@X@X@X@X@X@X",
"@X@X@X@X@X@X@X@X@X@X@X@X@X@X@X@X@X@X@X@X@X@X@X@X@X@X@X@X@X@X@X@X> > > > > > > > > > > e.q q F e.> > @ # b @X@X@X@X@X@X@X@X@X@X@X@X@X@X@X@X@X@X@X@X@X@X@X",
"@X@X@X@X@X@X@X@X@X@X@X@X@X@X@X@X@X@X@X@X@X@X@X@X@X@X@X@X@X@X@X@X@X@X@Xx.> > > > > > > e.q q F t.> > @ # b @X@X@X@X@X@X@X@X@X@X@X@X@X@X@X@X@X@X@X@X@X@X@X",
"@X@X@X@X@X@X@X@X@X@X@X@X@X@X@X@X@X@X@X@X@X@X@X@X@X@X@X@X@X@X@X@X@X@X@Xx.> > > > > , , q.q ;.J.@X@X, @ @ b @X@X@X@X@X@X@X@X@X@X@X@X@X@X@X@X@X@X@X@X@X@X@X",
"@X@X@X@X@X@X@X@X@X@X@X@X@X@X@X@X@X@X@X@X@X@X@X@X@X@X@X@X@X@X@X@X@X@X@X@X@X@X@X@X@XZ.e i.r Z.@X@X@X@X@X@X@X@X@X@X@X@X@X@X@X@X@X@X@X@X@X@X@X@X@X@X@X@X@X@X",
"@X@X@X@X@X@X@X@X@X@X@X@X@X@X@X@X@X@X@X@X@X@X@X@X@X@X@X@X@X@X@X@X@X@X@X@X@X@X@X@X@X@X@X@X@X@X@X@X@X@X@X@X@X@X@X@X@X@X@X@X@X@X@X@X@X@X@X@X@X@X@X@X@X@X@X@X",
"@X@X@X@X@X@X@X@X@X@X@X@X@X@X@X@X@X@X@X@X@X@X@X@X@X@X@X@X@X@X@X@X@X@X@X@X@X@X@X@X@X@X@X@X@X@X@X@X@X@X@X@X@X@X@X@X@X@X@X@X@X@X@X@X@X@X@X@X@X@X@X@X@X@X@X@X",
"@X@X@X@X@X@X@X@X@X@X@X@X@X@X@X@X@X@X@X@X@X@X@X@X@X@X@X@X@X@X@X@X@X@X@X@X@X@X@X@X@X@X@X@X@X@X@X@X@X@X@X@X@X@X@X@X@X@X@X@X@X@X@X@X@X@X@X@X@X@X@X@X@X@X@X@X",
"@X@X@X@X@X@X@X@X@X@X@X@X@X@X@X@X@X@X@X@X@X@X@X@X@X@X@X@X@X@X@X@X@X@X@X@X@X@X@X@X@X@X@X@X@X@X@X@X@X@X@X@X@X@X@X@X@X@X@X@X@X@X@X@X@X@X@X@X@X@X@X@X@X@X@X@X",
"@X@X@X@X@X@X@X@X@X@X@X@X@X@X@X@X@X@X@X@X@X@X@X@X@X@X@X@X@X@X@X@X@X@X@X@X@X@X@X@X@X@X@X@X@X@X@X@X@X@X@X@X@X@X@X@X@X@X@X@X@X@X@X@X@X@X@X@X@X@X@X@X@X@X@X@X",
"@X@X@X@X@X@X@X@X@X@X@X@X@X@X@X@X@X@X@X@X@X@X@X@X@X@X@X@X@X@X@X@X@X@X@X@X@X@X@X@X@X@X@X@X@X@X@X@X@X@X@X@X@X@X@X@X@X@X@X@X@X@X@X@X@X@X@X@X@X@X@X@X@X@X@X@X",
"@X@X@X@X@X@X@X@X@X@X@X@X@X@X@X@X@X@X@X@X@X@X@X@X@X@X@X@X@X@X@X@X@X@X@X@X@X@X@X@X@X@X@X@X@X@X@X@X@X@X@X@X@X@X@X@X@X@X@X@X@X@X@X@X@X@X@X@X@X@X@X@X@X@X@X@X",
"@X@X@X@X@X@X@X@X@X@X@X@X@X@X@X@X@X@X@X@X@X@X@X@X@X@X@X@X@X@X@X@X@X@X@X@X@X@X@X@X@X@X@X@X@X@X@X@X@X@X@X@X@X@X@X@X@X@X@X@X@X@X@X@X@X@X@X@X@X@X@X@X@X@X@X@X",
"@X@X@X@X@X@X@X@X@X@X@X@X@X@X@X@X@X@X@X@X@X@X@X@X@X@X@X@X@X@X@X@X@X@X@X@X@X@X@X@X@X@X@X@X@X@X@X@X@X@X@X@X@X@X@X@X@X@X@X@X@X@X@X@X@X@X@X@X@X@X@X@X@X@X@X@X",
"@X@X@X@X@X@X@X@X@X@X@X@X@X@X@X@X@X@X@X@X@X@X@X@X@X@X@X@X@X@X@X@X@X@X@X@X@X@X@X@X@X@X@X@X@X@X@X@X@X@X@X@X@X@X@X@X@X@X@X@X@X@X@X@X@X@X@X@X@X@X@X@X@X@X@X@X"
};
