/* XPM */
static char *result[] = {
/* columns rows colors chars-per-pixel */
"76 76 180 2 ",
"   c #361B1B",
".  c #3B1D1D",
"X  c #3F241E",
"o  c #6E1A1A",
"O  c #7A1212",
"+  c #79390B",
"@  c #422424",
"#  c #4D2D2C",
"$  c #4F3031",
"%  c #662828",
"&  c #5A4129",
"*  c #7F6837",
"=  c #9B0708",
"-  c #971A1A",
";  c #9B1C1C",
":  c #BF0001",
">  c #B40903",
",  c #A21F1F",
"<  c #83221D",
"1  c #9B231D",
"2  c #8C2D24",
"3  c #9B2222",
"4  c #AC2423",
"5  c #AB2727",
"6  c #B42726",
"7  c #B52927",
"8  c #B63029",
"9  c #B23B2A",
"0  c #A63E3E",
"q  c #B73130",
"w  c #C80A01",
"e  c #CE1201",
"r  c #D21701",
"t  c #D61B00",
"y  c #C31516",
"u  c #D92402",
"i  c #C7370C",
"p  c #D83803",
"a  c #DE391B",
"s  c #E52D00",
"d  c #E93100",
"f  c #C62425",
"g  c #C8372D",
"h  c #CA3A3B",
"j  c #8C4E11",
"k  c #945613",
"l  c #A86C19",
"z  c #AC711C",
"x  c #B57A1D",
"c  c #854C23",
"v  c #9B4725",
"b  c #8B552E",
"n  c #9E533C",
"m  c #AA472B",
"M  c #AE512E",
"N  c #BC4630",
"B  c #BE4B32",
"V  c #B75031",
"C  c #94652A",
"Z  c #A07630",
"A  c #A77933",
"S  c #DE5F0F",
"D  c #EA4709",
"F  c #DD7716",
"G  c #E9730B",
"H  c #C05334",
"J  c #E24625",
"K  c #E94E25",
"L  c #E65C20",
"P  c #C76F3D",
"I  c #C8723E",
"U  c #EC6B2C",
"Y  c #EA623E",
"T  c #9D5453",
"R  c #A94545",
"E  c #B15959",
"W  c #986845",
"Q  c #9E7354",
"!  c #AD674B",
"~  c #B76969",
"^  c #B47473",
"/  c #CD4B4B",
"(  c #C0504F",
")  c #C35E5D",
"_  c #EA6C4B",
"`  c #FD714D",
"'  c #FD7B54",
"]  c #CC6E6D",
"[  c #BE841F",
"{  c #A39638",
"}  c #A6993B",
"|  c #F38F15",
" . c #DFB303",
".. c #F6A91B",
"X. c #C5933D",
"o. c #EFBD22",
"O. c #F2D235",
"+. c #FFFC2D",
"@. c #F4EC3F",
"#. c #FCF536",
"$. c #BB8A41",
"%. c #B38751",
"&. c #BCAC4B",
"*. c #AF9465",
"=. c #BEB67A",
"-. c #CE8745",
";. c #C68E44",
":. c #CF8946",
">. c #C7974A",
",. c #D79553",
"<. c #D6A44F",
"1. c #C8AB50",
"2. c #D8AD51",
"3. c #D8B754",
"4. c #E1A557",
"5. c #EFB255",
"6. c #EB947C",
"7. c #CEA967",
"8. c #D1A46D",
"9. c #D4A96F",
"0. c #D4AA71",
"q. c #DCAC74",
"w. c #E3B479",
"e. c #D8C456",
"r. c #DEC85A",
"t. c #EFDD46",
"y. c #E1CF5C",
"u. c #E2D15D",
"i. c #FDDF5D",
"p. c #DDC264",
"a. c #E5D464",
"s. c #ECDC6D",
"d. c #F2D47A",
"f. c #F4E17E",
"g. c #796789",
"h. c #82739B",
"j. c #8A7CAB",
"k. c #B69782",
"l. c #B29999",
"z. c #9089AE",
"x. c #C89696",
"c. c #DA9E9E",
"v. c #D8BA8C",
"b. c #C3A898",
"n. c #EBA08C",
"m. c #EBAF9F",
"M. c #DFAAAB",
"N. c #CAB7AA",
"B. c #F3BAAA",
"V. c #E3BDBD",
"C. c #CFC59E",
"Z. c #F5C182",
"A. c #FBC686",
"S. c #E6DC96",
"D. c #F9EB84",
"F. c #F7EB96",
"G. c #D8C9A7",
"H. c #DFD0B4",
"J. c #F5D5AE",
"K. c #E4D4BC",
"L. c #F4EBA9",
"P. c #9A8FC8",
"I. c #9E95C9",
"U. c #A198D1",
"Y. c #AEABCC",
"T. c #DAC0C0",
"R. c #DBD2CB",
"E. c #C4CBDC",
"W. c #E2CBCB",
"Q. c #F1DEC7",
"!. c #E4D7D6",
"~. c #E0D9D4",
"^. c #EADEDC",
"/. c #E9E5C6",
"(. c #EEEBD3",
"). c #E6E5DA",
"_. c #ECE5DB",
"`. c #F0E2D2",
"'. c #EBE6E3",
"]. c #ffECECEC",
/* pixels */
"].].].].].].].].].].].].].].].].].].].].].].].].].].].].].].].].].].].].].].].].].].].].].].].].].].].].].].].].].].].].].].].].].].].].].].].].].].].].",
"].].].].].].].].].].].].].].].].].].].].].].].].].].].].].].].].].].].].].].].].].].].].].].].].].].].].].].].].].].].].].].].].].].].].].].].].].].].].",
"].].].].].].].].].].].].].].].].].].].].].].].].].].].].].].].].].].].].].].].].].].].].].].].].].].].].].].].].].].].].].].].].].].].].].].].].].].].].",
"].].].].].].].].].].].].].].].].].].].].].].].].].].].].].].].].].].].].].].].].].].].].].].].].].].].].].].].].].].].].].].].].].].].].].].].].].].].].",
"].].].].].].].].].].].].].].].].].].].].].].].].].].].].].].].].].].].].].].].].].].].].].].].].].].].].].].].].].].].].].].].].].].].].].].].].].].].].",
"].].].].].].].].].].].].].].].].].].].].].].].].].].].].].].].].].].].].].].].].].].].].].].].].].].].].].].].].].].].].].].].].].].].].].].].].].].].].",
"].].].].].].].].].].].].].].].].].].].].].].].].].].].].].].].].].].].].].].].].].].].].].].].].].].].].].].].].].].].].].].].].].].].].].].].].].].].].",
"].].].].].].].].].].].].].].].].].].].].].].].].].].].].].].].].].].].].].].].].].].].].].].].].].].].].].].].].].].].].].].].].].].].].].].].].].].].].",
"].].].].].].].].].].].].].].].].].].].].].].].].].].].].].].].].].].].].].].].].].].].].].].].].].].].].].].].].].].].].].].].].].].].].].].].].].].].].",
"].].].].].].].].].].].].].].].].].].].].].].].].].].].].].].].].].].].].].].].].].].].].].].].].].].].].].].].].].].].].].].].].].].].].].].].].].].].].",
"].].].].].].].].].].].].].].].].].].].].].].].].].].].].].].].].].].].].].].].].].].].].].].].].].].].].].].].].].].].].].].].].].].].].].].].].].].].].",
"].].].].].].].].].].].].].].].].].].].].].].].].].].].].].].].].].].].].].].].].].].].].].].].].].].].].].].].].].].].].].].].].].].].].].].].].].].].].",
"].].].].].].].].].].].].].].].].].].].].].].].].6.d d ].].].].].].].].].].].].].].].].].].].].].].].].].].].].].].].].].].].].].].].].].].].].].].].].].",
"].].].].].].].].].].].].].].].].].].].].].].].].6.s w d ].].].].].].].].].].].].].].].].].].].].].].].].].].].].].].].].].].].].].].].].].].].].].].].].",
"].].].].].].].].].].].].].].].].].]._ _ ].].].].].!.: s s s _ ].].].].].].].].].].].].].].].].].].].].].].].].].].].].].].].].].].].].].].].].].].].].].",
"].].].].].].].].].].].].].].].].].].].].].].].].].].].d w t Y ].].].].].].].].].].].].].].].].].].].].].].].].].].].].].].].].].].].].].].].].].].].].].",
"].].].].].].].].].].].].].].].].].].].].].].].].6.s s s s d d d ].].].].].].].].].].].].].].].].].].].].].].].].].].].].].].].].].].].].].].].].].].].].",
"].].].].].].].].].].].].].].].].].].].].].].].].n.d d w s r h ].].].].].].].].].].].].].].].].].].].].].].].].].].].].].].].].].].].].].].].].].].].].].",
"].].].].].].].].].].].].].].].].].]./ / ].].].K d s : d w : h ].].].].].].].].].].].].].].].].].].].].].].].].].].].].].].].].].].].].].].].].].].].].].",
"].].].].].].].].].].].].].].].].y ].].].].].].K t : : d ^.^.^.].].^.'.].].].].].].].].].].].].).].].].].].].].).].].].].].].].].].].].].].].].].].].].].",
"].].].].].].].].].].].].].].].].].].].].].].].J r : : d s e g V.].g V.].`._._.].].].].].].].G.[ ].].].].].].].[ G.].].].].].].].].].].].].].].].].].].].",
"].].].].].].].].].].].].].].].].].].].].].m.c.y w w : d G S i w c.].`.J.A.A.A.Q._.].].].].].C.l ].].].].].].].l G.].].].].].].].].].].].].].].].].].].].",
"].].].].].].].].].].].].].].].].].].].].].d w : r s r | +.+.t.] r ].m.d.A.` A.` B.].].].].].b.+ v.].].].].].v.+ N.].].].].].].].].].].].].].].].].].].].",
"].].].].].].].].].].].].].].].].].].].].].n.: : w u ..+.+.@.e.^ n.].v.w.A.' A.' B.].].S.].].b.+ k 0.'.].).0.k + N.].].].].].].].].].].].].].].].].].].].",
"].].].].].].].].].].].].].].].].].].].].].].M.a S o.+.+.+.#.O.>.T T q.Z.A.A.A.w.K.W.) a.].].~.N.+ j W %.>.j + N.~.].].].].].].].].].].].].].].].].].].].",
"].].].].].].].].].].].].].].].].].].].].].f ].K U 5.+.d.+.i.5.D 2.< 2 ! q.A.0.0.! n 3.(.X.K.].].R.+  .G p + R.].].H.X.].].].].].].].].].].].].].].].].].",
"].].].].].].].].].].].].].].].].].].].].].: ].f F #.A.A.9.t.O.s '.y.y.$.< 9.0.< 3 B u.].+ z 9.].[ + p r > + [ ].7.l + ].].].].].].].].].].].].].].].].].",
"].].].].].].].].].].].].].].].].].].].].].].].f r D 9.4.A.U t : #     b r.O < 5 :.&.  ].+ + k [ + + > : > + + [ j + + ].].].].].].].].].].].].].].].].].",
"].].].].].].].].].].].].].].].].].].].].].].].f r D +.9.4.L i # # # # @           . # # ].W + + ].+ x [ x + ].+ + Q ].].].].].].].].].].].].].].].].].].",
"].].].].].].].].].].].].].].].].].].].].].].].].6.s : : 9.g =         @ # # # # # # # 6 ].].].].].+ + + + + ].].].].].].].].].].].].].].].].].].].].].].",
"].].].].].].].].].].].].].].].].].].].].].].].].]._.y.O 9.p.<.- - 6 6 <     # # # #   7 ].].].].].].c + b ].].].].].].].].].].].].].].].].].].].].].].].",
"].].].].].].].].].].].].].].].].].].].].].].].].].).{ O O $.<.6 - - - , 5         & u.7 ].].].].].].c + b ].].].].].].].].].].].].].].].].].].].].].].].",
"].].].].].].].].].].].].].].].].].].].].].].].].].).{ O { M 6 6 - - - , 6 6 a.X o 9 y.6 ].].].].].A.A.A.A.A.].].].].].].].].].].].].].].].].].].].].].].",
"].].].].].].].].].].].].].].].].].].].].].].].].].~.- { - 4 4 - - - - - - 7 u.1 4 g y.5 6 <.$.O 0.A.A.w.q.A.].].].].].].].].].].].].].].].].].].].].].].",
"].].].].].].].].].].].].].].].].].].].].].].].].].].].3 - - - 1 ].3 - - - 6 u.8 6 H y.6 6 <.$.O O 0.8.8.0.0.].].].].].].].].].].].].].].].].].].].].].].",
"].].].].].].].].].].].].].].].].].].].].].].].].].].].].0 0 ^ ].].].R - - 6 u.8 6 H u.6 - Z C O O ].c + b ].].].].].].].].].].].].].].].].].].].].].].].",
"].].].].].].].].].].].].].].].].].].].].].].].].].].].].].].].].].].^ 0 - - u.8 6 H y.6 E *.*.T T ].c + b ].].].].].].].].].].].].].].].].].].].].].].].",
"].].].].].].].].].].].].].].].].].].].].].].].].].].].].].].].].].].].x.- - -.I N H y., ].].].].].].c + b ].].].].].].].].].].].].].].].].].].].].].].].",
"].].].].].].].].].].].].].].].].].].].].].].].].].].].].].].].].].].].x.; ; 6 C.x.l.C.k.].].].].].].c + b ].].].].].].].].].].].].].].].].].].].].].].].",
"].].].].].].].].].].].].].].].].].].].].].].].].].].].].].].].].].].].l.% % % U.z.z.E.h.].].].].].].c + b ].].].].].].].].].].].].].].].].].].].].].].].",
"].].].].].].].].].].].].].].].].].].].].].].].].].].].].].].].].].].L.*.. # # P.P.I.E.Y.F.(.].].].].c + b ].].].].].].].].].].].].].].].].].].].].].].].",
"].].].].].].].].].].].].].].].].].].].].].].].].].].].].].].].].].u.u.s.d.    $ g.I.j.U.{ 3.S.].].].c + b ].].].].].].].].].].].].].].].].].].].].].].].",
"].].].].].].].].].].].].].].].].].].].].].].].].].].].].].].].].u.u.u.s.f.- - . g.j.  h.{ { =.].].].c + b ].].].].].].].].].].].].].].].].].].].].].].].",
"].].].].].].].].].].].].].].].].].].].].].].].].].].].].].].(.D.u.u.u.s.f.- -           - { &.u.].].c + b ].].].].].].].].].].].].].].].].].].].].].].].",
"].].].].].].].].].].].].].].].].].].].].].].].].].].].].].].].].D.u.u.s.f.; - r.*     u.- Z 1.f.].].c + b ].].].].].].].].].].].].].].].].].].].].].].].",
"].].].].].].].].].].].].].].].].].].].].].].].].].].].].].]./.u.u.D.D.D.f.- - y.P 6 7 y.7 A { { ].].c + b ].].].].].].].].].].].].].].].].].].].].].].].",
"].].].].].].].].].].].].].].].].].].].].].].].].].].].].].].(.D.u.u.u.s.f.- - r.P 6 6 y.7 , v { u.+ + + b ].].].].].].].].].].].].].].].].].].].].].].].",
"].].].].].].].].].].].].].].].].].].].].].].].].].].].].].]./.u.D.D.a.s.f.- - r.P 6 6 y.6 ; v { D.+ + k.].].].].].].].].].].].].].].].].].].].].].].].].",
"].].].].].].].].].].].].].].].].].].].].].].].].].].].].].L.f.u.u.D.D.,.6 - - r.P 6 6 u.7 , v { u.+ + k.].].].].].].].].].].].].].].].].].].].].].].].].",
"].].].].].].].].].].].].].].].].].].].].].].].].].].].].].].(.D.D.].( 6 6 - - r.P 6 7 y.7 7 M } ].+ + k.].].].].].].].].].].].].].].].].].].].].].].].].",
"].].].].].].].].].].].].].].].].].].].].].].].].].].].].].].].].].7 6 7 4 - - r.P 6 6 6 u.H ) R.].+ + k.].].].].].].].].].].].].].].].].].].].].].].].].",
"].].].].].].].].].].].].].].].].].].].].].].].].].].].].].].].].].7 6 6 6 - - r.P 6 6 7 u.H 4 - ].+ + k.].].].].].].].].].].].].].].].].].].].].].].].].",
"].].].].].].].].].].].].].].].].].].].].].].].].].].].].].].].].c.6 6 6 6 - - r.P 6 6 6 u.V , - ].+ + k.].].].].].].].].].].].].].].].].].].].].].].].].",
"].].].].].].].].].].].].].].].].].].].].].].].].].].].].].].].].6 6 7 6 6 - - r.P 6 6 6 u.m ; - ].+ + k.].].].].].].].].].].].].].].].].].].].].].].].].",
"].].].].].].].].].].].].].].].].].].].].].].].].].].].].].].].]., 7 6 6 5 - - M 9 7 7 6 y.m - - Q + + k.].].].].].].].].].].].].].].].].].].].].].].].].",
"].].].].].].].].].].].].].].].].].].].].].].].].].].].].].].T.R - ; 4 7 6 - - - P :.6 6 H ,.! - + + + k.].].].].].].].].].].].].].].].].].].].].].].].].",
"].].].].].].].].].].].].].].].].].].].].].].].].].].].].].] 8 - - - 4 6 6 - - 6 :.2.7 6 6 <.;.- + + + k.].].].].].].].].].].].].].].].].].].].].].].].].",
"].].].].].].].].].].].].].].].].].].].].].].].].].].].].].~ - - - - - - - - - 6 :.2.6 6 6 <.;.- + + ~.].].].].].].].].].].].].].].].].].].].].].].].].].",
"].].].].].].].].].].].].].].].].].].].].].].].].].].].].].~ - - - - - - - - - 6 :.2.6 6 6 <.:.- + + ~.].].].].].].].].].].].].].].].].].].].].].].].].].",
"].].].].].].].].].].].].].].].].].].].].].].].].].].].].].].].].].- - - - - - 6 :.2.6 6 6 <.;.- + + ~.].].].].].].].].].].].].].].].].].].].].].].].].].",
"].].].].].].].].].].].].].].].].].].].].].].].].].].].].].].].].].- - - - - - 5 :.2.7 6 ].].b.- + + ~.].].].].].].].].].].].].].].].].].].].].].].].].].",
"].].].].].].].].].].].].].].].].].].].].].].].].].].].].].].].].].].].].'.].].q :.2.7 ].].].].].+ + ~.].].].].].].].].].].].].].].].].].].].].].].].].].",
"].].].].].].].].].].].].].].].].].].].].].].].].].].].].].].].].].].].].].].].].].].].].].].].].+ + ~.].].].].].].].].].].].].].].].].].].].].].].].].].",
"].].].].].].].].].].].].].].].].].].].].].].].].].].].].].].].].].].].].].].].].].].].].].].].].].].].].].].].].].].].].].].].].].].].].].].].].].].].].",
"].].].].].].].].].].].].].].].].].].].].].].].].].].].].].].].].].].].].].].].].].].].].].].].].].].].].].].].].].].].].].].].].].].].].].].].].].].].].",
"].].].].].].].].].].].].].].].].].].].].].].].].].].].].].].].].].].].].].].].].].].].].].].].].].].].].].].].].].].].].].].].].].].].].].].].].].].].].",
"].].].].].].].].].].].].].].].].].].].].].].].].].].].].].].].].].].].].].].].].].].].].].].].].].].].].].].].].].].].].].].].].].].].].].].].].].].].].",
"].].].].].].].].].].].].].].].].].].].].].].].].].].].].].].].].].].].].].].].].].].].].].].].].].].].].].].].].].].].].].].].].].].].].].].].].].].].].",
"].].].].].].].].].].].].].].].].].].].].].].].].].].].].].].].].].].].].].].].].].].].].].].].].].].].].].].].].].].].].].].].].].].].].].].].].].].].].",
"].].].].].].].].].].].].].].].].].].].].].].].].].].].].].].].].].].].].].].].].].].].].].].].].].].].].].].].].].].].].].].].].].].].].].].].].].].].].",
"].].].].].].].].].].].].].].].].].].].].].].].].].].].].].].].].].].].].].].].].].].].].].].].].].].].].].].].].].].].].].].].].].].].].].].].].].].].].",
"].].].].].].].].].].].].].].].].].].].].].].].].].].].].].].].].].].].].].].].].].].].].].].].].].].].].].].].].].].].].].].].].].].].].].].].].].].].].",
"].].].].].].].].].].].].].].].].].].].].].].].].].].].].].].].].].].].].].].].].].].].].].].].].].].].].].].].].].].].].].].].].].].].].].].].].].].].].",
"].].].].].].].].].].].].].].].].].].].].].].].].].].].].].].].].].].].].].].].].].].].].].].].].].].].].].].].].].].].].].].].].].].].].].].].].].].].].",
"].].].].].].].].].].].].].].].].].].].].].].].].].].].].].].].].].].].].].].].].].].].].].].].].].].].].].].].].].].].].].].].].].].].].].].].].].].].].",
"].].].].].].].].].].].].].].].].].].].].].].].].].].].].].].].].].].].].].].].].].].].].].].].].].].].].].].].].].].].].].].].].].].].].].].].].].].].]."
};
