/* XPM */
static char *result[] = {
/* columns rows colors chars-per-pixel */
"76 76 60 1 ",
"  c black",
". c #0E0C0C",
"X c #141110",
"o c #161314",
"O c #181516",
"+ c #1B1717",
"@ c #1D1818",
"# c #281917",
"$ c #201E1E",
"% c #281F1C",
"& c #302724",
"* c #323232",
"= c #373334",
"- c #3F3734",
"; c #3B3A3A",
": c #57312A",
"> c #4F4845",
", c #4A4848",
"< c #4C4A4A",
"1 c #4D4B4B",
"2 c #4E4D4D",
"3 c #585757",
"4 c #5A5757",
"5 c #5B5858",
"6 c #5E5C5C",
"7 c #625E5E",
"8 c #646162",
"9 c #656363",
"0 c #6D6969",
"q c #716C6C",
"w c #736F6F",
"e c #7D7877",
"r c #7E7C7C",
"t c #7E7E7E",
"y c #807B7A",
"u c #847F7E",
"i c #828080",
"p c #8D8887",
"a c #8E8C8C",
"s c #919090",
"d c #9F9C9B",
"f c #9F9E9E",
"g c #A1A0A0",
"h c #A3A1A1",
"j c #A9A8A8",
"k c #AEAEAE",
"l c #B2B1B1",
"z c #BCBBBB",
"x c #C0BEBE",
"c c #C3C3C3",
"v c #C6C5C5",
"b c #CBC6C1",
"n c gray82",
"m c LightGray",
"M c #DBDADA",
"N c gray89",
"B c #E4E4E4",
"V c #E5E4E4",
"C c #E6E6E6",
"Z c #ffECECEC",
/* pixels */
"ZZZZZZZZZZZZZZZZZZZZZZZZZZZZZZZZZZZZZZZZZZZZZZZZZZZZZZZZZZZZZZZZZZZZZZZZZZZZ",
"ZZZZZZZZZZZZZZZZZZZZZZZZZZZZZZZZZZZZZZZZZZZZZZZZZZZZZZZZZZZZZZZZZZZZZZZZZZZZ",
"ZZZZZZZZZZZZZZZZZZZZZZZZZZZZZZZZZZZZZZZZZZZZZZZZZZZZZZZZZZZZZZZZZZZZZZZZZZZZ",
"ZZZZZZZZZZZZZZZZZZZZZZZZZZZZZZZ44444444444ZZZZZZZZZZZZZZZZZZZZZZZZZZZZZZZZZZ",
"ZZZZZZZZZZZZZZZZZZZZZZZZZZZZ444444444444444444ZZZZZZZZZZZZZZZZZZZZZZZZZZZZZZ",
"ZZZZZZZZZZZZZZZZZZZZZZZZ4444444444444444444444444ZZZZZZZZZZZZZZZZZZZZZZZZZZZ",
"ZZZZZZZZZZZZZZZZZZZZZZ44444444444444444444444444444CZZZZZZZZZZZZZZZZZZZZZZZZ",
"ZZZZZZZZZZZZZZZZZZZZ4444444444444444444444444444444444ZZZZZZZZZZZZZZZZZZZZZZ",
"ZZZZZZZZZZZZZZZZZZi444444444444444444444444444444444444ZZZZZZZZZZZZZZZZZZZZZ",
"ZZZZZZZZZZZZZZZZZ4444444444444444byyyyyyyyyyy444444444444ZZZZZZZZZZZZZZZZZZZ",
"ZZZZZZZZZZZZZZZZ444444444444rZZZZZZZyyyyyyyyyyyyy444444444ZZZZZZZZZZZZZZZZZZ",
"ZZZZZZZZZZZZZZZ4444444444ZZZZZZZZZZZZZZZZZZyyyyyyyq44444444ZZZZZZZZZZZZZZZZZ",
"ZZZZZZZZZZZZZZ44444444ZZZZZZZZZZZZZZZZZZZZZZZZZZyyy544444444ZZZZZZZZZZZZZZZZ",
"ZZZZZZZZZZZZZ4444444ZZZZZZZZZZZZZZZZZZZZZZZZZZZZZyyy444444444ZZZZZZZZZZZZZZZ",
"ZZZZZZZZZZZZ444444cZZZZZZZZZZZZZZZZZZZZZZZZZZZZZZZyyyy4444444gZZZZZZZZZZZZZZ",
"ZZZZZZZZZZZZ44444ZZZZZZZZZZZZZZZZZZZZZZZZZZZZZZZZZZuyyy444444gZZZZZZZZZZZZZZ",
"ZZZZZZZZZZ444444ZZZZZZZZZZZZZZZZZZZZZZZZZZZZZZZZZZZuyyy44444444ZZZZZZZZZZZZZ",
"ZZZZZZZZZZ44444ZZZZZZZZZZZZZZZZZZZZZZZZZZZZZZZZZZZZZZyyy4444444ZZZZZZZZZZZZZ",
"ZZZZZZZZZ44444ZZZZZZZZZZZZZZZZZZZZZZZZZZZZZZZZZZZZZZZZyyy4444444ZZZZZZZZZZZZ",
"ZZZZZZZZ44444ZZZZZZZZZZZZZZZZZZZZZZZZZZZZZZZZZZZZZZZZZyyyy4444444ZZZZZZZZZZZ",
"ZZZZZZZZ4444ZZZZZZZZZZ....ZZZZZZZZZZZZZZZZZZZZZZZZZZZZZyyyy444444ZZZZZZZZZZZ",
"ZZZZZZZa4444ZZZZZZZZ......ZZZZZZZZZZZZZZZZZZZZZZZZZZZZZZyyyy444444ZZZZZZZZZZ",
"ZZZZZZZa444ZZZZZZZZ.......ZZZZZZZZZZZZZZZZZZZZZZZZZZZZZZZyyy444444ZZZZZZZZZZ",
"ZZZZZZZa44ZZZZZZZZZ........ZZZZZZZZZZZZZZZZZZZZZZZZZZZZZZyyy444444ZZZZZZZZZZ",
"ZZZZZZZV44ZZZZZZZZ3........ZZZZZZZZZZZZZZZZZZZZZZZZZZZZZZNyye444449ZZZZZZZZZ",
"ZZZZZZZZ4nZZZZZZZZ<....:.:.ZZZZZZZZZZZZZZZZZZZZZZZZZZZZZZZyyy444444ZZZZZZZZZ",
"ZZZZZZZj4ZZZZZZZZn$....#.#.2ZZZZZZZZZZZZZZZZZZZZZZZZZZZZZZyyy444444ZZZZZZZZZ",
"ZZZZZZZa4ZZZZZZZZv..........ZZZZZZZZZZZZZZZZZZZZZZZZZZZZZZyyy444444ZZZZZZZZZ",
"ZZZZZZZahZZZZZZZZv..........ZZZZZZZZZZZZZZZZZZZZZZZZZZZZZZyyy444444hZZZZZZZZ",
"ZZZZZZZaZZZZZZZZZv..........ZZZZZZZZZZZZZZZZZZZZZZZZZZZZZZyyy7444444ZZZZZZZZ",
"ZZZZZZZaZZZZZZZZZs..........zZZZZZZZZZZZZZZZZZZZZZZZZZZZZZdyy0444444ZZZZZZZZ",
"ZZZZZZZfZZZZZZZcc...........;BZZZZZZZZZZZZZZZZZZZZZZZZZZZZZyy0444444ZZZZZZZZ",
"ZZZZZZZZZZZZZZM..............lZZZZZZZZZZZZZZZZZZZZZZZZZZZZZyy0444444ZZZZZZZZ",
"ZZZZZZZZZZZZZZ................ZZZZZZZZZZZZZZZZZZZZZZZZZZZZZyy0444444ZZZZZZZZ",
"ZZZZZZZZZZZZZ..................ZZZZZZZZZZZZZZZZZZZZZZZZZZZZyy0444444ZZZZZZZZ",
"ZZZZZZZZZZZZ...................OZZZZZZZZZZZZZZZZZZZZZZZZZZZyy0444444ZZZZZZZZ",
"ZZZZZZZZZZZ...................O=ZZZZZZZZZZZZZZZZZZZZZZZZZZZyy0444444ZZZZZZZZ",
"ZZZZZZZZZZZ..................o===ZZZZZZZZZZZZZZZZZZZZZZZZZZyy0444444ZZZZZZZZ",
"ZZZZZZZZZZZ.................X+ZOOOZZZZZZZZZZZZZZZZZZZZZZZZZyy0444444ZZZZZZZZ",
"ZZZZZZZZZZZ................=%%%Z===ZZZZZZZZZZZZZZZZZZZZZZZZyy0444444ZZZZZZZZ",
"ZZZZZZZZZZZ...............=O8>%%%=OOZZZZZZZZZZZZZZZZZZZZZZyyy0444444ZZZZZZZZ",
"ZZZZZZZZZZZ.............==O=8ZZ%%%=OOZZZZZZZZZZZZZZZZZZZZZyyy444444ZZZZZZZZZ",
"ZZZZZZZZZZZ............=OO=Z1ZZZZ%%==OZZZZZZZZZZZZZZZZZZZZyyy444444ZZZZZZZZZ",
"ZZZZZZZZZZZZ.........ZOO==ZO8ZZZZZZ%%==6ZZZZZZZZZZZZZZZZZyyyy444444ZZZZZZZZZ",
"ZZZZZZZZZZZZ.........OO=OOO=ZZZZZZZZZO=OmZZZZZZZZZZZZZZZZyyyy444444ZZZZZZZZZ",
"ZZZZZZZZZZZZ........O=OOZ==ZZZZZZZZZZZO@%%ZZZZZZZZZZZZZZZyyyy44444ZZZZZZZZZZ",
"ZZZZZZZZZZZZ........ZZOOOZZZZZZZZZZZZZZZ-%%%ZZZZZZZZZZZZyyyy444444ZZZZZZZZZZ",
"ZZZZZZZZZZZZ........Z ZOOZZZZZZZZZZZZZZZZZ%%%%ZZZZZZZZZZyyyy444444ZZZZZZZZZZ",
"ZZZZZZZZZZZZ........ZZOOO ZZZZZZZZZZZZZZZZZZ%%%%ZZZZZZZyyyyy444444ZZZZZZZZZZ",
"ZZZZZZZZZZZZZ......ZZOOOZ ZZZZZZZZZZZZZZZZZZZZ%%%%ZZZZZyyyy444444ZZZZZZZZZZZ",
"ZZZZZZZZZZZZZ.......ZOOOZ ZZZZZZZZZZZZZZZZZZZZZZ%%%BZyyyyyy444444ZZZZZZZZZZZ",
"ZZZZZZZZZZZZZZ......ZZOO ZZZZZZZZZZZZZZZZZZZZZZZZZ%%%yyyyy444444ZZZZZZZZZZZZ",
"ZZZZZZZZZZZZZZ......ZZOZZZZZZZZZZZZZZZZZZZZZZZZZZZZ&%yyyyy44444ZZZZZZZZZZZZZ",
"ZZZZZZZZZZZZZZ......ZZOZZZZZZZZZZZZZZZZZZZZZZZZZZZZZyyyyy444444ZZZZZZZZZZZZZ",
"ZZZZZZZZZZZZZZ......ZZOZZZZZZZZZZZZZZZZZZZZZZZZZZZZuyyyy44444gZZZZZZZZZZZZZZ",
"ZZZZZZZZZZZZZZ......ZZOZZZZZZZZZZZZZZZZZZZZZZZZZZZxyyyyy44444ZZZZZZZZZZZZZZZ",
"ZZZZZZZZZZZZZZZ......ZOZZZZZZZZZZZZZZZZZZZZZZZZZZZyyyyy4444*ZZZZZZZZZZZZZZZZ",
"ZZZZZZZZZZZZZZZ......Z ZZZZZZZZZZZZZZZZZZZZZZZZZyyyyyy44444*ZZZZZZZZZZZZZZZZ",
"ZZZZZZZZZZZZZZZ......Z ZZZZZZZZZZZZZZZZZZZZZZZZyyyyyy44444*ZZZZZZZZZZZZZZZZZ",
"ZZZZZZZZZZZZZZZ.....ZZZZZZZZZZZZZZZZZZZZZZZZZZyyyyy544444*ZZZZZZZZZZZZZZZZZZ",
"ZZZZZZZZZZZZZZZ......ZZZZZZZZZZZZZZZZZZZZZZZyyyyyy44444**ZZZZZZZZZZZZZZZZZZZ",
"ZZZZZZZZZZZZZZ......ZZZZZZZZZZZZZZZZZZZZZZyyyyyy444444*ZZZZZZZZZZZZZZZZZZZZZ",
"ZZZZZZZZZZZZZZ......ZZZZZZZZZZZZZZZZZZZZpyyyy4444444**ZZZZZZZZZZZZZZZZZZZZZZ",
"ZZZZZZZZZZZZZZZ....ZZZZZZZZZZZZZZZZZZZZyyy44444444,*ZZZZZZZZZZZZZZZZZZZZZZZZ",
"ZZZZZZZZZZZZZZZ....ZZZZZZZZZZZZZZZZZyyyw44444444**tZZZZZZZZZZZZZZZZZZZZZZZZZ",
"ZZZZZZZZZZZZZZZ....ZZZZZZZZZZZZZZZZZZ***********ZZZZZZZZZZZZZZZZZZZZZZZZZZZZ",
"ZZZZZZZZZZZZZZZZ...ZZZZZZZZZZZZZZZZZZZZZZZZZZZZZZZZZZZZZZZZZZZZZZZZZZZZZZZZZ",
"ZZZZZZZZZZZZZZZZ..kZZZZZZZZZZZZZZZZZZZZZZZZZZZZZZZZZZZZZZZZZZZZZZZZZZZZZZZZZ",
"ZZZZZZZZZZZZZZZZ..kZZZZZZZZZZZZZZZZZZZZZZZZZZZZZZZZZZZZZZZZZZZZZZZZZZZZZZZZZ",
"ZZZZZZZZZZZZZZZZZ.kZZZZZZZZZZZZZZZZZZZZZZZZZZZZZZZZZZZZZZZZZZZZZZZZZZZZZZZZZ",
"ZZZZZZZZZZZZZZZZZ.kZZZZZZZZZZZZZZZZZZZZZZZZZZZZZZZZZZZZZZZZZZZZZZZZZZZZZZZZZ",
"ZZZZZZZZZZZZZZZZZ.kZZZZZZZZZZZZZZZZZZZZZZZZZZZZZZZZZZZZZZZZZZZZZZZZZZZZZZZZZ",
"ZZZZZZZZZZZZZZZZZvkZZZZZZZZZZZZZZZZZZZZZZZZZZZZZZZZZZZZZZZZZZZZZZZZZZZZZZZZZ",
"ZZZZZZZZZZZZZZZZZvkZZZZZZZZZZZZZZZZZZZZZZZZZZZZZZZZZZZZZZZZZZZZZZZZZZZZZZZZZ",
"ZZZZZZZZZZZZZZZZZvkZZZZZZZZZZZZZZZZZZZZZZZZZZZZZZZZZZZZZZZZZZZZZZZZZZZZZZZZZ",
"ZZZZZZZZZZZZZZZZZZZZZZZZZZZZZZZZZZZZZZZZZZZZZZZZZZZZZZZZZZZZZZZZZZZZZZZZZZZZ"
};
