/* XPM */
static char *d14e0a28894e490ab04fd04d8e75eff2o138OaOGlDecIYJL[] = {
/* columns rows colors chars-per-pixel */
"76 76 211 2 ",
"   c #ff080909",
".  c #16110E",
"X  c #19110D",
"o  c #0F1010",
"O  c #131414",
"+  c #161817",
"@  c #171918",
"#  c #1A1C1B",
"$  c #1E201F",
"%  c #3F291E",
"&  c #1F2120",
"*  c #232523",
"=  c #262927",
"-  c #272A28",
";  c #2B2D2B",
":  c #362A22",
">  c #2E312E",
",  c #30332F",
"<  c #2E3230",
"1  c #313432",
"2  c #363936",
"3  c #383B37",
"4  c #373B39",
"5  c #3A3E3B",
"6  c #442616",
"7  c #482718",
"8  c #4A2818",
"9  c #532C1C",
"0  c #5D321D",
"q  c #63371E",
"w  c #4D3629",
"e  c #4D3D32",
"r  c #523E33",
"t  c #643421",
"y  c #693622",
"u  c #6D3A23",
"i  c #643C28",
"p  c #743D25",
"a  c #783F26",
"s  c #753C28",
"d  c #7A3E29",
"f  c #3E413E",
"g  c #4E4036",
"h  c #42433D",
"j  c #564336",
"k  c #5A4634",
"l  c #5B4935",
"z  c #55473B",
"x  c #5D4C3D",
"c  c #6D4325",
"v  c #68412D",
"b  c #7B4226",
"n  c #7C4926",
"m  c #754429",
"M  c #7D4229",
"N  c #6A4733",
"B  c #624D3C",
"V  c #6A4C3B",
"C  c #734B34",
"Z  c #714B36",
"A  c #7C4D33",
"S  c #6D533F",
"D  c #7B533B",
"F  c #3F4340",
"G  c #424542",
"H  c #464A45",
"J  c #484A45",
"K  c #494B46",
"L  c #4A4E4A",
"P  c #564E47",
"I  c #4D514D",
"U  c #56544A",
"Y  c #5B554A",
"T  c #4F5450",
"R  c #525652",
"E  c #555A54",
"W  c #5A5C55",
"Q  c #5A5E59",
"!  c #695748",
"~  c #615A4D",
"^  c #765B47",
"/  c #7C5C44",
"(  c #645E52",
")  c #6C5F51",
"_  c #5D625C",
"`  c #7A6049",
"'  c #656053",
"]  c #6A6354",
"[  c #62655E",
"{  c #6B655A",
"}  c #66685F",
"|  c #6A695F",
" . c #776553",
".. c #636661",
"X. c #6A6662",
"o. c #656A62",
"O. c #6A6D65",
"+. c #6B6E69",
"@. c #6D7066",
"#. c #6E726A",
"$. c #72756C",
"%. c #77776C",
"&. c #7A756B",
"*. c #75796E",
"=. c #74786F",
"-. c #747571",
";. c #787471",
":. c #767A71",
">. c #797D72",
",. c #7A7D73",
"<. c #7A7E75",
"1. c #7A7B78",
"2. c #804B27",
"3. c #83442C",
"4. c #89472E",
"5. c #844B2B",
"6. c #8B4A2E",
"7. c #904D2F",
"8. c #86512A",
"9. c #8D532D",
"0. c #91522E",
"q. c #935B2F",
"w. c #884B31",
"e. c #8D4B31",
"r. c #934D32",
"t. c #8C5332",
"y. c #845639",
"u. c #8C5C3A",
"i. c #965232",
"p. c #9B5334",
"a. c #955A32",
"s. c #9C5B34",
"d. c #96593B",
"f. c #9C5C39",
"g. c #A15636",
"h. c #A45C36",
"j. c #A55B38",
"k. c #A55C39",
"l. c #AA5D3A",
"z. c #8E603C",
"x. c #9C6336",
"c. c #A36436",
"v. c #AA6337",
"b. c #A46B36",
"n. c #AB6B37",
"m. c #A5633B",
"M. c #AC643B",
"N. c #AC6B3A",
"B. c #B3663D",
"V. c #B36C3D",
"C. c #BA6C3F",
"Z. c #AD733A",
"A. c #B3723B",
"S. c #BB733F",
"D. c #B67B3E",
"F. c #865C43",
"G. c #84684A",
"H. c #866A4C",
"J. c #98674A",
"K. c #8C714D",
"L. c #93704F",
"P. c #8E6F55",
"I. c #927652",
"U. c #957954",
"Y. c #AB6745",
"T. c #B26740",
"R. c #B46C41",
"E. c #BB6D42",
"W. c #A4704F",
"Q. c #B67545",
"!. c #BC7342",
"~. c #BE7B42",
"^. c #A37553",
"/. c #887466",
"(. c #847D78",
"). c #C27543",
"_. c #C47A44",
"`. c #CA7D47",
"'. c #C87749",
"]. c #C67B49",
"[. c #CC7E48",
"{. c #7E8076",
"}. c #7D8279",
"|. c #7E8278",
" X c #AD8359",
".X c #858177",
"XX c #82857B",
"oX c #84887D",
"OX c #90857F",
"+X c #C58443",
"@X c #CB8347",
"#X c #C78946",
"$X c #C98A46",
"%X c #CE8149",
"&X c #CD8B48",
"*X c #D2844B",
"=X c #D8854F",
"-X c #D58A4D",
";X c #DA8C4E",
":X c #D4924C",
">X c #DC914E",
",X c #D88850",
"<X c #DB8C51",
"1X c #DD9251",
"2X c #DF9850",
"3X c #E19354",
"4X c #E39C53",
"5X c #E99F58",
"6X c #E8A057",
"7X c #888984",
"8X c #8F918B",
/* pixels */
"                                                                                                                                                        ",
"                                                                                                                                                        ",
"                                                                                                                                                        ",
"                                                                                                                                                        ",
"                                                              + # # $ @ + @ @ $ $ $ O                                                                   ",
"                                                            + 2 L L L L L L L L L L 4 @                                                                 ",
"                                                          * f E +.+.+.+.+.O.O.o...o.E F - o                                                             ",
"                                                        O f O.>.}.}.oXoX}.}.}.{.:.-.#.O.H @                                                             ",
"                                                        o f o.*.}.}.}.{..X}.<.$.O.#.o.Q F O                                                             ",
"                                                        o 2 _ #.}.{.{.{.>.XX<.#.O.O._ L < O                                                             ",
"                                                        o = f _ {.*.*.*.>.{.<.#.O.o.R 5 & o                                                             ",
"                                                      O $ ; f _ *.{.{.*.>.{.>.*.#.@._ F < & @                                                           ",
"                                  o o o         o o O - 4 4 F _ $.{.{.*.*.>.<.:.:.#...T H 5 - O o           o o O                                       ",
"                              @ f f f $     o & < H _ _ ..E R ..#.#.*.#.#.:.>.>.:.$.O......._ _ K f ; O o o , E 5 # O                                   ",
"                          + $ 5 Q _ o.f & - ; F E o.{.{.:.o._ [ @.#.*.$.$.:.>.>.:.#.+.#.-.:.}.}.#._ H ; ; > E }.[ G = O                                 ",
"                          > Q O.#.{.{.[ T _ o.#.{.#.{.#.#.O.o.[ } *.}.}.}.}.{.<.:.$.-.<.<.-.#.#.*.:.} T _ #.{.oX.X>.L * O                               ",
"                      $ ; L #.{.{.#.{.o.o.[ o.{.}.:.:.$.#.+.o._ } $.>.>.<.1.<.-.$.O.#.1.<.:.$.+.#.>.@._ @.}.oXoXoXXXo.I > O o                           ",
"                      - T o.#.#.#.{.#.{.{._ E o.}.>.:.$.$.O.{ _ ( { @.$.&.&.&.;.X.[ O.%.>.:.%.$.#.#.O._ $.oXoXoXXXXX{.$.K * O                           ",
"                      $ F _ #.{.#.{.#.#.{.o.O.O.+.#.@.[ Y B V V D F.F.F./ J.J.J.F.y.V B ! { @.$.o._ o.>.{.XXXX}.XXXX{.$.G # O                           ",
"                      $ < L [ #.{.#.{.#.o.{.{.o.W )  .^ S C n 5.e.p.f.5.w.j.Y.l.p.s.w.m C ^  .] W E O.}.XX}..X.X{.{.@._ 5 O o                           ",
"                      o O < I _ #.{.@.{.{.{.{.L g N A t.d.s.p.f.m.m.j.t.t.T.E.Y.T.T.m.k.k.f.y.v B ' $..X}..XXXXX<.#.W f *                               ",
"                      O - F o.o.[ o.{.{.{.Q E l v y.a.g.k.m.M.N.T.R.T.a.d.E.'.!.!.E.R.R.T.Y.f.w.C ^ ) | @.*.*.*.#.#.[ E , .                             ",
"                      $ F _ {.@._ [ {.} @.x k N w.k.R.M.M.N.R.R.!.).R.f.x.'.=X`.].'.).!.!.!.R.m.a.5.V P W o.O.o.+.#.*.$.H # O                           ",
"                  o o f o.{.{.@.[ _ E U z B A 8.a.M.Q.!.E.!.)._.[.[.!.c.Y.].,X=X*X*X@X].].].!.T.M.m.u.C B L _ $.>.{.{.{.} H =                           ",
"                  + ; I {.{.{.@.{.E h l v A a.f.m.V._._._._.].%X%X%X].n.N.*X<X,X=X*X&X@X*X[.].!.R.Q.m.d.C j ( $.>.}.XXXX*.} 2 o                         ",
"                  = I } @.{.{.{.{.E g l t.f.M.M.N._.%X%X%X%X%X*X*X,X[.Z.A.-X1X<X-X-X=X*X-X=X%X).).].!.R.s.A ! } $.{.}.XX>.@.h $ O                       ",
"                o > R [ @.$.$.{.$.) c A h.m.V.A.A.].*X*X*X*X*X-X,X,X@XA.Q.,X3X<X-X=X-X*X=X;X*X].].`._.).N.f.F.! | {.*.*.O.[ I f &                       ",
"              . $ 4 E _ } @.@.@.| ` 8.x.N.R.!.!.~.@X;X-X*X*X;X;X;X;X&XA.Z.,X3X<X-X=X*X*X-X-X*X@X%X%X%X].!.R.x.A ` #.#.@.[ W _ E ;                       ",
"              # f E | $.{.*.@.' ! D s.M.R.!._.!.~.%X>X;X&X-X;X;X;X-X@XV.A.-X1X,X*X*X*X*X*X-X&X+X+X-X[.[._.S.M.f.` E [ $.#.@.@.[ 2 O                     ",
"              * T } @.{.{.*.O.] N t.M.R.).].@X]._.-X>X;X-X;X;X=X=X-X*XA.A.&X>X-X*X*X&X%X*X=X@X~.+X-X*X[._.!.V.N.y.P ( $.*.*.$.O.5 + o                   ",
"              * W @.$.$.$.@.@.` 8.s.N.!.[.%X%X]._.1X4X>X;X<X<X;X-X*X@XA.A.&X;X-X*X@X@X*X*X-X&X_.+X*X%X%X_._.!.Q.u.V ] $.%.%.*.@.h +                     ",
"              * _ @.%.$.$.O._ ` a.b.Q.).[.%X*X[.+X:X6X>X-X<X<X;X*X*X`.A.A.*X;X-X*X[.*X*X*X;X&X+X+X&X%X`.`.`.S.A.x.y. .@.@.%.*.@.K = +                   ",
"        O O @ 2 _ $.*.$.{.| ~ / M.V.).`.[.*X*X%X@X>X4X>X=X;X;X-X*X*X`.A.A.&X;X;X*X*X[.*X=X;X-X+X+X*X*X@X%X@X~.Q.m.z. .+.$.$.*.$.R 5 = + O o             ",
"      O * 2 G Q :.}.}.{.{.} z D !._.[.[.*X-X-X*X@X2X6X>X-X;X-X=X*X=X@Xn.n.@X<X;X=X=X;X;X;X;X&X+X$X=X-X-X*X%X]._.Q.m./ Q O.:.$.#.@...R G 5 > @           ",
"      # F R ..@.{.{.{.{.{._ k z._.].[.*X=X-X-X*X@X2X6X3X*X-X-X*X-X-X@XA.V.*X<X1X;X;X;X;X>X>X;X$X&X-X-X=X*X%X%X%X!.n.^ R O.<.:.-.:.>.O.[ E G $           ",
"      = _ -.:.#.O.o.O.@.{.' l q.].%X[.*X-X,X<X*X*X1X6X>X*X-X-X-X*X*X%X!.S.=X3X>X>X>X>X>X>X>X;X@X&X-X-X*X,X-X*X%X_.N.G.R o.>.<.XX(.<.*.@.[ I =           ",
"      ; o.}.:.:.{.:.*.$.$.] l z.`.%X%X-X;X-X=X*X*X2X5X1X*X*X-X*X*X*X`.A.S.%X>X>X>X>X;X;X;X;X;X$X-X-X=X*X-X-X*X*X].A.H.Q O.:.>.<.XX<.>.%...I * o         ",
"      > @.}.>.<.}.}.{.>.$.' l z.@X%X[.-X;X-X-X%X`.>X5X>X=X*X*X*X*X=X`.A.Z.&X;X>X;X;X;X;X=X-X:X&X&X-X-X;X*X=X*X,X@X~.P...+.*.>.<.<.<.<.:.o.I *           ",
"      ; } <.>.>.>.{.{.:.$.] l z.`.*X*X-X;X-X*X%X%X1X5X;X*X*X=X=X*X*X_.A.A.@X>X>X;X>X;X-X=X=X-X$X&X-X*X*X*X*X*X*X%X#XU...#.:.:.>.<.{.1.-.o.I *           ",
"      = _ $.$.$.$.$.*.*.#.' k z._.[.[.=X<X-X*X%X@X>X5X>X*X%X*X*X&X*X`.A.A.&X;X;X;X;X;X-X*X*X:X&X-X=X*X*X*X*X*X*X*X&XU.[ #.*.:.*.*.1.-.+._ L * o         ",
"      * E o.o.O.o.O.O.O.$.' l z._.[.[.*X=X;X*X[.`.>X4X;X*X@X*X[.*X*X`.A.V.@X>X=X*X;X;X=X*X=X*X&X%X*X*X*X[.*X*X*X-X:XU._ O.*.@.O.+.-.+...Q H *           ",
"      $ K E E W E _ _ E _ E l z.`.[.*X*X*X*X*X[.`.>X4X>X@X@X[.[.`.[.).c.c.*X;X;X-X=X-X*X*X*X*X&X&X*X*X[.*X=X[.*X&X$XK.I W _ _ Q Q _ E E L f &           ",
"      + 2 f G L E _ _ _ _ U l z.`.[.%X*X*X*X*X`.`.>X2X-X%X%X`.%X@X[.~.c.c.[.<X=X*X=X*X[.*X*X%X&X@X*X*X[.[.*X[.[.$X$XH.I R _ Q Q R I H 5 4 < @           ",
"        o + @ 4 O.{.7X}.{.' l z.`.%X[.*X-X*X*X_._.>X2X-X%X%X`.%X[.@XS.c.v.[.<X=X[.*X*X[.%X*X@X+X@X@X[.[.[.[.[.`.#X$XK.W #.}.>.-.Q G = O O O             ",
"            o 1 O.}.8XoXXX{ l z.[.[.*X%X=X*X*X`._.;X>X;X*X`.*X`.*X[.).b.b.`.=X[.[.*X*X[.*X*X@X+X+X`.`._.`.`.`.`.$X$XI._ #.}.}.:.Q F &                   ",
"              1 } {.oXoX{.] l z.[.[.*X*X*X%X*X`.`.;X2X>X`.`.*X*X*X[.).c.c.`.<X[.[.[.[.%X`.*X@X@X+X_._._.`.`.`.`.$X XU.o.#.:.:.-.Q F &                   ",
"            o < _ $.{..X>. .l z.[.%X*X%X@X*X%X`.`.>X>X=X*X*X*X`.%X[._.n.n.`.=X[.[.`.[.[.`.%X`.$X#X_.).V.Q.R.S.C.~.$XI...+.-.#.#.W F #                   ",
"              > W @.{.{.%.] l a.`.%X*X@X*X*X%X`.`.>X2X;X*X`.*X*X%X%X_.A.n.[.[.[.[.[.`.[.*X%X%X$X+X`.S.J.J.W.W.W.~.$XU._ o.#.+.O.E f $                   ",
"            o ; _ @.>.*.@.] l z.`.`.`.`.=X`.`.`.`.;X>X;X`.`.%X`.`.*X`.n.B.'.*X*X`.@X%X`.%X%X&X+X+X~.W./.(.OX(.(.^.[.L._ [ O.o._ R f &                   ",
"            o > W o.#.@.O.~ l z.`.`.`.=X*X*X`.`.).;X>X;X=X`.%X*X*X@X_.n.v.`.=X*X%X*X%X%X%X*X$X+X+X).W.] ;.8X(./.^.%XK.E [ O.o._ T f &                   ",
"          o O > E o.o._ ' Y k z.`.*X`.`.`.%X`.`.S.-X2X>X`.*X`.*X`.%X).c.v.`.;X%X%X*X*X*X*X-X$X+X~.A.J.Y X.7X1.X.P.~.G.R _ O.o._ R f =   o o             ",
"      + > 5 f L E _ _ Q _ P k z.`.`.*X*X%X`.`.`.+X>X2X;X%X=X`.%X`.*X`.n.n.@X;X*X%X*X*X*X*X*X&X+XZ.a.F.&.;.X.;.(.P.f.! L I _ Q Q E L H 5 4 < @           ",
"      * G Q _ _ _ _ [ _ _ P l z.`.`.`.`.`.`.`.`._.>X2X>X*X@X%X%X*X=X`.n.n.@X;X@X@X%X*X*X*X=X*X+Xb.n ^ &.o.E X.1. .n B R E _ _ _ _ Q [ [ Q H =           ",
"      = _ $.$.*.$.{.{.%.@.' l z.`.`.`.`.).`.`.`._.-X>X;X%X%X`.*X*X[.).k.c.`.-X@X`.*X*X%X%X=X*X+Xx.c B W W W R I l q B _ ....O.+.+.*.>.:...I *           ",
"      - ..<.:.>.{.{.{.$.%.' l z.`.`.`.`.`.`.'.).S.-X>X;X*X%X*X*X@X%X_.q.a.`.;X`.`.%X%X%X@X%X+X+Xb.n S | -.1.+._ B 0 x o.o.o.O.$.>.}.{.>.o.R *           ",
"      ; ..<.<.<.{.{.$.{.@.' k z.`.`.`.`.`.).'.C.S.@X>X;X*X%X`.%X*X*X_.q.0.).*X`.`.`.%X`.`.`.`.~.b.8.` $.(.8X7X;.! 0 B ..o.+.+.$.{.oX{.:.o.I -           ",
"      ; +.}.>.>.{.{.$.$.@.' l z.'.'.'.'.).).C.C.C.@X>X=X`.*X`.`.`.*X).s.q._.@X`._.`.`.`.`.`.+XD.b.9.m j k z x x C 9.` o.#.:.>.>.{.{.>.$.o.I =           ",
"      < +.}.{.<.{.$.{.$.@.' l z.).'.).).).C.C.B.v.`.;X=X'.'.'.`.`.`.S.q.q._.@X_.)._.)._.).'.S.A.b.s.8.c c i c n q.Z.H.} $.}.{.{.{.{.:.$.[ I -           ",
"      ; ..>.:.<.{.{.@.@.@.' l u.).).).C.E.C.B.l.v.`.=X`.).).).).).).C.0.0.S.`.).S.S.S.S.).).C.A.Z.c.M.V.N.V.V.C.D.D.H._ #.{.*.>.}.}.>.@.[ I *           ",
"      & E O.@.@.@.| } } _ Y k u.E.E.C.C.C.B.B.l.v.S.=X'.E.).).).).).C.0.9.C.`.C.B.C.C.C.C.C.C.n.v.c.v.V.V.M.B.V.Z.D.` R _ @.O.O.#.@...Q R G $           ",
"      # F T E Q Q _ .._ _ Y k y.C.C.B.l.B.v.v.g.g.S.@X).C.C.C.C.C.S.V.0.8.V.S.B.v.B.B.B.B.B.B.c.c.g.h.h.h.s.s.g.c.A./ H R _ .._ _ E I H f 1 O           ",
"      o # & - f _ #.}.<.*.] j A g.l.l.l.l.h.g.p.0.S.@XS.B.B.C.B.C.C.v.8.8.v.C.v.h.l.v.v.M.M.v.c.s.0.i.s.a.6.7.0.c.Z.` I O.}.}.>.[ H > # $ O o           ",
"          o o > _ >.oXXX(.{ j C g.p.g.g.g.g.g.0.0.C.`.C.l.l.B.l.l.B.v.2.2.v.C.v.h.h.l.g.l.l.h.c.a.7.0.0.6.5.5.6.s.n.` _ -.}.oX}._ f $                   ",
"              > _ @.*.:.>.{ r C p.7.p.p.p.p.p.7.7.v.).B.g.l.l.l.l.B.h.2.2.v.v.h.g.g.g.g.g.g.g.s.0.6.4.5.b b 3.2.p.n.G.o.#.:.*.#._ F &                   ",
"            o < _ $.*.*.*.( r N r.e.7.r.r.r.7.4.3.h.E.j.p.p.g.g.g.j.p.n n g.l.p.p.r.r.p.p.r.i.0.5.3.3.b b b b 3.6.s.` o.@.#.*.$._ f &                   ",
"              < [ *.*.$.$.( e v 4.4.4.4.7.4.4.M a i.l.p.r.r.r.r.p.p.r.b b p.g.r.w.w.4.r.4.7.4.3.2.2.a a b b a a 5.9./ _ O.*.-.$._ f &                   ",
"            o < o.*.$.$.#.( e v 3.3.3.3.4.3.M s a 7.g.r.4.4.r.r.r.r.3.p b r.p.e.3.M 4.4.4.3.3.d p a a p p a a a M 5.! Q o.$.:.:._ F &                   ",
"            o < _ #.@.O.O.Y e i d d a a M d s p u 6.p.7.3.3.4.4.6.4.3.p p e.r.4.d d d d M d a p u p p u u p p p b 3.V R o.*.>.:._ f &                   ",
"            o > Q o.o...} U e i s s p s s s u y y 4.r.4.d d 3.3.4.4.d u s 4.r.3.d s s d d s y q y p p q u p u u a 2.V R o.:.>.>._ F $                   ",
"            o & F L L H H h w w t t t t t q 0 0 0 y s p t t y y u y y 0 t s s q t t t t t q t 9 0 0 0 0 0 0 0 0 q y r F H I E E L f $                   ",
"              @ - ; > ; ; ; : % 8 8 8 8 8 6 6 6 6 7 9 8 8 8 8 9 8 8 7 6 6 9 9 8 8 7 7 7 8 7 6 6 6 6 6 6 6 6 7 6 6 6 : ; ; < > 1 1 ; +                   ",
"              o o O O O O O .   X X X X X X X X X X X X X X X X X X X X X X X   . X X X X X X . X X X X X X X X X . O o O O O   O O o                   ",
"                                                                                                                                                        ",
"                                                                                                                                                        ",
"                                                                                                                                                        ",
"                                                                                                                                                        "
};
