/* XPM */
static char *a601955f4b46494f81a0e60c6c04146631IWELS61qYxvhbQ[] = {
/* columns rows colors chars-per-pixel */
"39 46 168 2 ",
"   c #080909",
".  c #0F1010",
"X  c #131515",
"o  c #1A1C1B",
"O  c #3C2616",
"+  c #232524",
"@  c #2A2D2C",
"#  c #2E312E",
"$  c #2E3331",
"%  c #323633",
"&  c #343937",
"*  c #363A38",
"=  c #383D3B",
"-  c #4D2B16",
";  c #422918",
":  c #4E2C1B",
">  c #542D1B",
",  c #582E1B",
"<  c #58381E",
"1  c #63331F",
"2  c #653A1D",
"3  c #403127",
"4  c #47392F",
"5  c #4C3A2F",
"6  c #4B3C32",
"7  c #543D33",
"8  c #663522",
"9  c #633822",
"0  c #6D3B22",
"q  c #743C25",
"w  c #793F26",
"e  c #763D28",
"r  c #7A3E29",
"t  c #3D403D",
"y  c #504030",
"u  c #5A4631",
"i  c #734423",
"p  c #7C4226",
"a  c #774824",
"s  c #7D4B26",
"d  c #774629",
"f  c #7B4A2E",
"g  c #664937",
"h  c #744B33",
"j  c #3F4340",
"k  c #424643",
"l  c #464946",
"z  c #464B48",
"x  c #4A4E4A",
"c  c #5C4E40",
"v  c #4D514E",
"b  c #54514B",
"n  c #4F5451",
"m  c #525652",
"M  c #555A55",
"N  c #5A5C55",
"B  c #575C58",
"V  c #595E59",
"C  c #5D625D",
"Z  c #62655E",
"A  c #6D655C",
"S  c #636660",
"D  c #656A63",
"F  c #696D65",
"G  c #6A6F68",
"H  c #766E69",
"J  c #6E7067",
"K  c #6E7269",
"L  c #72766C",
"P  c #75796E",
"I  c #797B6F",
"U  c #757A71",
"Y  c #7A7D73",
"T  c #7B7C7A",
"R  c #82442C",
"E  c #89462E",
"W  c #844B2B",
"Q  c #8D4B2E",
"!  c #904E2E",
"~  c #845128",
"^  c #8E572E",
"/  c #8D582B",
"(  c #92542D",
")  c #925C2E",
"_  c #854B30",
"`  c #934D32",
"'  c #984B39",
"]  c #8D5330",
"[  c #955234",
"{  c #9B5434",
"}  c #9D5A34",
"|  c #955D38",
" . c #A25736",
".. c #A25D35",
"X. c #A2543B",
"o. c #A35E3A",
"O. c #AA5D3A",
"+. c #9F6333",
"@. c #A46635",
"#. c #AA6437",
"$. c #A56934",
"%. c #AC6A37",
"&. c #A66439",
"*. c #AB643B",
"=. c #AD693E",
"-. c #B1653D",
";. c #B46B3D",
":. c #BA6E3E",
">. c #AD7337",
",. c #B5723D",
"<. c #B0783C",
"1. c #BB7E3E",
"2. c #AF6142",
"3. c #B36B41",
"4. c #BB6D41",
"5. c #BD7342",
"6. c #BE7942",
"7. c #897B73",
"8. c #C06C45",
"9. c #C27443",
"0. c #C97647",
"q. c #C57A45",
"w. c #CA7D46",
"e. c #CD7E49",
"r. c #7D8076",
"t. c #7E827A",
"y. c #BE803E",
"u. c #C0823F",
"i. c #BD8240",
"p. c #808277",
"a. c #82857B",
"s. c #83887E",
"d. c #868A7E",
"f. c #C38643",
"g. c #CD8147",
"h. c #C78846",
"j. c #CB8C46",
"k. c #CD814A",
"l. c #CD8D48",
"z. c #D08347",
"x. c #D0834A",
"c. c #D2844B",
"v. c #D3864B",
"b. c #D5864E",
"n. c #D6894C",
"m. c #D88A4E",
"M. c #DA8C4E",
"N. c #DA8D4E",
"B. c #D2934A",
"V. c #DD914E",
"C. c #D68251",
"Z. c #DB8B51",
"A. c #DE9151",
"S. c #E08E55",
"D. c #E39355",
"F. c #E39B52",
"G. c #E99F58",
"H. c #E6A153",
"J. c #E9A257",
"K. c #EBA259",
"L. c #848582",
"P. c #868B82",
"I. c #898D84",
"U. c #8E8D8D",
"Y. c #8B9087",
"T. c #8C9288",
"R. c #93988F",
"E. c #9C9C9B",
/* pixels */
"                                                                              ",
"                                                                              ",
"                                                                              ",
"                                C B B B C B .                                 ",
"                              D t.t.a.p.U P D                                 ",
"                              C Y r.r.a.S K x                                 ",
"                              $ r.U U t.J D #                                 ",
"                            % & K r.P t.P K z &                               ",
"                M C     j t.t.B G K G Y Y K G t.Y v X X t.@                   ",
"              K r.Y B U t.P G D Z t.t.7.Y G t.L G r.M t.d.d.@                 ",
"            V P U U U m t.Y U G B K P U K C s.U K K C d.d.r.L +               ",
"            j L P U K U S G c 9 f o.d 2.| _ : A K n d.a.r.d.P o               ",
"            X v U P r.U 4 f } } o.2.W 5.2.3.2.&.9 S d.r.a.K t                 ",
"            t a.B U K 6 W ;.*.;.4.5.^ C.e.q.3.3.o.a x K S K L X               ",
"          X a.P D x 4 ] | 5.5.q.k.k.| S.m.k.e.e.3.3.f t Y d.s.Z               ",
"          M L r.r.4 [ %.=.x.k.k.m.b.$.D.m.b.b.Z.5.q.4.f Z r.p.P o             ",
"        o N Z L G W &.5.5.n.v.n.Z.N.$.D.m.c.v.M.k.k.q.,.h I L m C             ",
"        M P a.F g o.5.w.6.A.v.V.n.Z.$.D.v.x.c.b.1.n.q.5.&.x L P L X           ",
"        Z I L J W =.e.x.q.H.n.A.n.b.$.V.b.k.x.m.u.v.g.q.5.g L L I o           ",
"        J P L N #.6.e.x.f.H.n.A.x.v.$.V.x.x.v.N.f.v.w.q.,.| F L I $           ",
"    & C L.s.t.7 9.k.v.m.k.K.n.n.v.b.+.Z.V.b.N.V.i.N.b.k.q.&.M Y K T M j       ",
"    L L F F U u k.e.b.Z.k.K.b.b.b.v.,.Z.N.V.N.A.h.N.b.b.k.;.m Y 7.t.K C       ",
"    d.U a.Y J u k.x.N.n.w.J.n.c.v.v.@.V.N.V.m.m.B.m.v.b.v.6.C P Y p.Y C       ",
"    U r.Y p.L u k.x.N.b.w.J.v.c.v.x.$.V.m.D.v.b.l.C.C.v.v.h.D U Y T Y V       ",
"    D D F F P u w.e.m.n.w.G.x.x.z.z.@.M.c.S.x.b.l.k.x.x.x.B.C P F L D n       ",
"    v v n n n u e.e.b.c.q.G.k.g.k.g.( S.c.b.v.b.l.k.k.k.k.j.l m n n x l       ",
"      X Y R.Y u e.z.b.x.9.F.g.w.e.w.) S.e.z.z.e.f.k.k.k.x.h.V P.t.z           ",
"        P T.I u w.c.n.e.w.F.k.k.x.x.( S.e.e.e.v.h.q.q.w.w.h.S U U z           ",
"        D Y p.u g.v.c.z.w.F.e.z.x.w.$.C.w.w.g.e.j.w.&.2.3.h.Z L K l           ",
"      . D Y L u w.w.x.e.q.F.e.e.x.x.$.C.x.g.w.b.f.q.H U.7.l.V F C l           ",
"      . Z Z V u x.w.z.g.9.F.e.c.e.e./ S.w.x.x.n.1.6.b U.A 1.m F Z l           ",
"    v M C N m u g.g.w.w.q.G.c.e.x.v.@.S.g.x.v.m.f.a L.m U.W z M B m M m       ",
"    P U I r.P u w.k.w.w.9.F.k.z.z.z.~ M.w.z.e.n.u.2 b N k 2 C K J P a.B       ",
"    p.U r.I L u w.w.w.q.:.V.e.z.e.n.~ b.w.e.e.w.u.W 7.E.T > S D J d.Y C       ",
"    P.U r.P K u w.0.9.4.#.F.e.e.w.e.~ m.9.w.w.w.<.( ; O < @.D r.r.Y L C       ",
"    T U r.L F g 8.9.4.-...N.9.8.9.0.p e.:.5.:.9.>.*.5.5.9.1.C r.Y d.L M       ",
"    V Z V V V u 8.-.-.O.{ n.:.:.:.9.i w.#.-.-.-.&.} O.} ..,.k M V C v l       ",
"      . K T.p.7  . . . .! v.-.-.-.;.i :...O.O.O.@.[ } W ( %.M Y.I.l           ",
"        D U Y y { { { { W 0. .O.O.-.i -. . . . .} E R w R #.D L L l           ",
"      . P P L 4 Q E ! E w -.` ` {  .0 O.! ! Q ` a p d p p ( Z L P l           ",
"      . L L H 5 R r R r 0  .R E ` E 2 X.R r R R q q q q q s M U Y x           ",
"      . S Z Z 5 r q r 0 1 ' r r E R 2 ' e e r e 1 q 8 q 0 R n L r.v           ",
"        % * % 3 , , > > - 1 , , , , - 8 , > > > - > - > > > # & = =           ",
"                                                                              ",
"                                                                              ",
"                                                                              "
};
