/* XPM */
static char *fe4de152bc9442ddf2a22fb2b913b11d2vVI2xm0mQKKyqJK[] = {
/* columns rows colors chars-per-pixel */
"76 76 138 2 ",
"   c #000000",
".  c #0A0404",
"X  c #0F0B07",
"o  c #140000",
"O  c #151515",
"+  c #1B1212",
"@  c #261414",
"#  c #261B13",
"$  c #2B240B",
"%  c #2F2415",
"&  c #2F201F",
"*  c #352719",
"=  c #37281A",
"-  c gray16",
";  c #332424",
":  c #362829",
">  c #3E2D2D",
",  c #620000",
"<  c #6E0603",
"1  c #412923",
"2  c #432E2D",
"3  c #493523",
"4  c #523C27",
"5  c #553C2A",
"6  c #4A3330",
"7  c #5C3C33",
"8  c #523D3C",
"9  c #6F2A2A",
"0  c #635418",
"q  c #6B5B1A",
"w  c #5F452D",
"e  c #6B4F33",
"r  c #63433C",
"t  c #6D463E",
"y  c #71493B",
"u  c #7C6037",
"i  c #434343",
"p  c #494242",
"a  c #534B43",
"s  c gray33",
"d  c #674B40",
"f  c #794E42",
"g  c #665342",
"h  c #775741",
"j  c #7C5944",
"k  c #665F5D",
"l  c #716A4C",
"z  c gray40",
"x  c #747164",
"c  c #767676",
"v  c #7D7772",
"b  c #7B7B7B",
"n  c #8D1818",
"m  c #A40000",
"M  c #AB0606",
"N  c #A60B07",
"B  c #B50000",
"V  c #BF2412",
"C  c #D70202",
"Z  c #E70000",
"A  c #EB0000",
"S  c #FF0000",
"D  c #FD0C07",
"F  c #FE0E09",
"G  c #FB2415",
"H  c #F9331E",
"J  c #C94428",
"K  c #CB532A",
"L  c #F14427",
"P  c #FD492A",
"I  c #F65231",
"U  c #835346",
"Y  c #845B46",
"T  c #885748",
"R  c #8B5C49",
"E  c #846242",
"W  c #896341",
"Q  c #8F6C41",
"!  c #93634C",
"~  c #9C6A4F",
"^  c #927142",
"/  c #9E6C50",
"(  c #A57B4D",
")  c #A47152",
"_  c #AB7754",
"`  c #AD7D53",
"'  c #B17E56",
"]  c #847570",
"[  c #897572",
"{  c #8F7D74",
"}  c #857D7D",
"|  c #8A7D78",
" . c #F36E41",
".. c #D7B635",
"X. c #B1884F",
"o. c #B38156",
"O. c #BC8054",
"+. c #B78559",
"@. c #BA8759",
"#. c #BF8B5B",
"$. c #BD9154",
"%. c #9A8378",
"&. c #98887D",
"*. c #C38F5D",
"=. c #C09456",
"-. c #C6925E",
";. c #C9945F",
":. c #E58A54",
">. c #E3965B",
",. c #E19D5F",
"<. c #E5B45B",
"1. c #C99560",
"2. c #CD9860",
"3. c #D29C62",
"4. c #D6A063",
"5. c #DBA465",
"6. c #DFAA67",
"7. c #E1AB67",
"8. c #E3AC68",
"9. c #E7B069",
"0. c #EBB36A",
"q. c #F9B166",
"w. c #F3BB6E",
"e. c #F9C06F",
"r. c #8B8B8B",
"t. c #929292",
"y. c #9A9A9A",
"u. c #A6918A",
"i. c #AA938D",
"p. c #A2A2A2",
"a. c #A9A9A9",
"s. c #B7B7B7",
"d. c #BDBDBD",
"f. c #C9C9C9",
"g. c #D1D1D1",
"h. c #DBDBDB",
"j. c #E3E3E3",
"k. c #ffECECEC",
/* pixels */
"k.k.k.k.k.k.k.k.k.k.k.k.k.k.k.k.k.k.k.k.k.k.k.k.k.k.k.k.k.k.k.k.k.k.k.k.k.k.k.k.k.k.k.k.k.k.k.k.k.k.k.k.k.k.k.k.k.k.k.k.k.k.k.k.k.k.k.k.k.k.k.k.k.k.k.k.",
"k.k.k.k.k.k.k.k.k.k.k.k.k.k.k.k.k.k.k.k.k.k.k.k.k.k.k.k.k.k.k.k.k.k.k.k.k.k.k.k.k.k.k.k.k.k.k.k.k.k.k.k.k.k.k.k.k.k.k.k.k.k.k.k.k.k.k.k.k.k.k.k.k.k.k.k.",
"k.k.k.k.k.k.k.k.k.k.k.k.k.k.k.k.k.k.k.k.k.k.k.k.k.k.k.k.k.k.k.k.k.k.k.k.k.k.k.k.k.k.k.k.k.k.k.k.k.k.k.k.k.k.k.k.k.k.k.k.k.k.k.k.k.k.k.k.k.k.k.k.k.k.k.k.",
"k.k.k.k.k.k.k.k.k.k.k.k.k.k.k.k.k.k.k.k.k.k.k.k.k.k.k.k.k.k.k.k.k.k.k.k.k.k.k.k.k.k.k.k.k.k.k.k.k.k.k.k.k.k.k.k.k.k.k.k.k.k.k.k.k.k.k.k.k.k.k.k.k.k.k.k.",
"k.k.k.k.k.k.k.k.k.k.k.k.k.k.k.k.k.k.k.k.k.k.k.k.k.k.k.k.k.k.k.k.k.k.k.k.k.k.k.k.k.k.k.k.k.k.k.k.k.k.k.k.k.k.k.k.k.k.k.k.k.k.k.k.k.k.k.k.k.k.k.k.k.k.k.k.",
"k.k.k.k.k.k.k.k.k.k.k.k.k.k.k.k.k.k.k.k.k.k.k.k.k.k.k.k.k.k.k.k.k.k.k.k.k.k.k.k.k.k.k.k.k.k.k.k.k.k.k.k.k.k.k.k.k.k.k.k.k.k.k.k.k.k.k.k.k.k.k.k.k.k.k.k.",
"k.k.k.k.k.k.k.k.k.k.k.k.k.k.k.k.k.k.k.k.k.k.k.k.k.k.k.k.k.k.k.k.k.k.k.k.k.k.k.k.k.k.k.k.k.k.k.k.k.k.k.k.k.k.k.k.k.k.k.k.k.k.k.k.k.k.k.k.k.k.k.k.k.k.k.k.",
"k.k.k.k.k.k.k.k.k.k.k.k.k.k.k.k.k.k.k.k.k.k.k.k.k.k.k.k.k.k.k.k.k.k.k.k.k.k.k.k.k.k.k.k.k.k.k.k.k.k.k.k.k.k.k.k.k.k.k.k.k.k.k.k.k.k.k.k.k.k.k.k.k.k.k.k.",
"k.k.k.k.k.k.k.k.k.k.k.k.k.k.k.k.k.k.k.k.k.k.k.k.k.k.k.k.k.k.k.k.k.k.k.k.k.k.k.k.k.k.k.k.k.k.k.k.k.k.k.k.k.k.k.k.k.k.k.k.k.k.k.k.k.k.k.k.k.k.k.k.k.k.k.k.",
"k.k.k.k.k.k.k.k.k.k.k.k.k.k.k.k.k.k.k.k.k.k.k.k.k.k.k.k.k.k.k.k.k.k.k.k.k.k.k.k.k.k.k.k.k.k.k.k.k.k.k.k.k.k.k.k.k.k.k.k.k.k.k.k.k.k.k.k.k.k.k.k.k.k.k.k.",
"k.k.k.k.k.k.k.k.k.k.k.k.k.k.k.k.k.k.k.k.k.k.k.k.k.k.k.k.k.k.k.k.k.k.k.k.k.k.k.k.k.k.k.k.k.k.k.k.k.k.k.k.k.k.k.k.k.k.k.k.k.k.k.k.k.k.k.k.k.k.k.k.k.k.k.k.",
"k.k.k.k.k.k.k.k.k.k.k.k.k.k.k.k.k.k.k.k.k.k.k.k.k.k.k.k.k.k.k.k.k.k.k.k.k.k.k.k.k.k.k.k.k.k.k.k.k.k.k.k.k.k.k.k.k.k.k.k.k.k.k.k.k.k.k.k.k.k.k.k.k.k.k.k.",
"k.k.k.k.k.k.k.k.k.k.k.k.k.k.k.k.k.k.k.k.k.k.k.k.k.k.k.k.k.k.k.k.k.k.k.k.k.k.k.k.k.k.k.k.k.k.k.k.k.k.k.k.k.k.k.k.k.k.k.k.k.k.k.k.k.k.k.k.k.k.k.k.k.k.k.k.",
"k.k.k.k.k.k.k.k.k.k.k.k.k.k.k.k.k.k.k.k.k.k.k.k.k.k.k.k.k.k.k.k.k.k.k.k.k.k.k.k.k.k.k.k.k.k.k.k.k.k.k.k.k.k.k.k.k.k.k.k.k.k.k.k.k.k.k.k.k.k.k.k.k.k.k.k.",
"k.k.k.k.k.k.k.k.k.k.k.k.k.k.k.k.k.k.k.k.k.k.k.k.k.k.k.k.k.k.k.k.k.k.k.k.k.k.k.k.k.k.k.k.k.k.k.k.k.k.k.k.k.k.k.k.k.k.k.k.k.k.k.k.k.k.k.k.k.k.k.k.k.k.k.k.",
"k.k.k.k.k.k.k.k.k.k.k.k.k.k.k.k.k.k.k.k.k.k.k.k.k.k.k.k.k.k.k.k.k.k.k.k.k.k.k.k.k.k.k.k.k.k.k.k.k.k.k.k.k.k.k.k.k.k.k.k.k.k.k.k.k.k.k.k.k.k.k.k.k.k.k.k.",
"k.k.k.k.k.k.k.k.k.k.k.k.k.k.k.k.k.k.k.k.k.k.k.k.k.k.k.k.k.k.k.k.k.k.k.k.k.k.k.k.k.k.k.k.k.k.k.k.k.k.k.k.k.k.k.k.k.k.k.k.k.k.k.k.k.k.k.k.k.k.k.k.k.k.k.k.",
"k.k.k.k.k.k.k.k.k.k.k.k.k.k.k.k.k.k.k.k.k.k.k.k.k.k.k.k.k.k.k.k.k.k.k.k.k.k.k.k.k.k.k.k.k.k.k.k.k.k.k.k.k.k.k.k.k.k.k.k.k.k.k.k.k.k.k.k.k.k.k.k.k.k.k.k.",
"k.k.k.k.k.k.k.k.k.k.k.k.k.k.k.k.k.k.j.c z z z r.k.k.k.k.k.k.k.k.k.k.k.k.k.k.k.k.k.k.k.k.k.k.k.k.k.k.k.k.k.k.k.k.k.k.k.k.k.k.k.k.k.k.k.k.k.k.k.k.k.k.k.k.",
"k.k.k.k.k.k.k.k.k.k.k.k.k.k.k.k.k.k.h.O       i k.k.k.k.k.k.k.k.k.k.k.k.k.k.k.k.k.k.k.k.k.k.k.k.k.k.k.k.k.k.k.k.k.k.k.k.k.k.k.k.k.k.k.k.k.k.k.k.k.k.k.k.",
"k.k.k.k.k.k.k.k.k.k.k.k.k.k.k.k.k.k.h.O       i k.k.k.k.k.k.k.k.k.k.k.k.k.k.k.k.k.k.k.k.k.k.k.k.k.k.k.k.k.k.k.k.k.k.k.k.k.k.k.k.k.k.k.k.k.k.k.k.k.k.k.k.",
"k.k.k.k.k.k.k.k.k.k.k.k.k.k.k.k.k.k.h.O       i k.k.k.k.k.k.k.k.k.k.k.k.k.k.k.k.k.k.k.k.k.k.k.k.k.k.k.k.k.k.k.k.k.k.k.k.k.k.k.k.k.k.k.k.k.k.k.k.k.k.k.k.",
"k.k.k.k.k.k.k.k.k.k.k.k.k.k.j.j.j.j.g.+ . . . p j.j.j.k.j.j.j.j.j.k.k.k.k.k.k.k.k.k.k.k.k.k.k.k.k.k.k.k.k.k.k.k.k.k.k.k.k.k.k.k.k.k.k.k.k.k.k.k.k.k.k.k.",
"k.k.k.k.k.k.k.k.k.k.k.k.k.k.s O O O @ C Z Z Z M O O O O O O O O O s.k.k.k.k.k.k.k.k.k.k.k.k.k.k.k.k.k.k.k.k.k.k.k.k.k.k.k.k.k.k.k.k.k.k.k.k.k.k.k.k.k.k.",
"k.k.k.k.k.k.k.k.k.k.k.k.k.k.i       o Z S S S B                   a.k.k.k.k.k.k.k.k.k.k.k.k.k.k.k.k.k.k.k.k.k.k.k.k.k.k.k.k.k.k.k.k.k.k.k.k.k.k.k.k.k.k.",
"k.k.k.k.k.k.k.k.k.k.k.k.k.k.i       o A S S S B                   a.k.k.k.k.k.k.k.k.k.k.k.k.k.k.k.k.k.k.k.k.k.k.k.k.k.k.k.k.k.k.k.k.k.k.k.k.k.k.k.k.k.k.",
"k.k.k.k.k.k.k.k.k.k.k.k.k.k.i       o A S S S B                   a.k.k.k.k.k.k.k.k.k.k.k.k.k.k.k.k.k.k.k.k.k.k.k.k.k.k.k.k.k.k.k.k.k.k.k.k.k.k.k.k.k.k.",
"k.k.k.k.k.k.k.k.k.f.t.t.t.t.9 , , , < L P P P J 3 3 3 3 3 3 3 3 3 v t.t.t.y.j.k.k.k.k.k.k.k.k.k.k.k.k.k.k.k.k.k.k.k.k.k.k.g.y.y.t.r.f.k.k.k.k.k.k.k.k.k.",
"k.k.k.k.k.k.k.k.k.c         B S S S F q.e.e.e.0.#.#.#.#.#.#.#.#.#.=       O h.k.k.k.k.k.k.k.k.k.k.k.k.k.k.k.k.k.k.k.k.k.k.a.        c k.k.k.k.k.k.k.k.k.",
"k.k.k.k.k.k.k.k.k.c         B S S S F q.e.e.w.0.#.#.#.#.#.#.#.#.#.=       O g.k.k.k.k.k.k.k.k.k.k.k.k.k.k.k.k.k.k.k.k.k.k.a.        c k.k.k.k.k.k.k.k.k.",
"k.k.k.k.k.k.k.k.k.c         B S S S F q.e.e.e.9.#.#.#.#.#.#.#.#.#.=       O h.k.k.k.k.k.k.k.k.k.k.k.k.k.k.k.k.k.k.k.k.k.k.a.        c k.k.k.k.k.k.k.k.k.",
"k.k.k.k.k.k.k.k.k.c         B S S S F q.e.e.e.0.#.#.#.#.#.#.#.#.#.=       O h.k.k.k.k.k.k.k.k.k.k.k.k.k.k.k.k.k.k.k.k.k.k.a.        c k.k.k.k.k.k.k.k.k.",
"k.k.k.k.k.k.k.k.k.c         B S S S F q.e.e.e.=.= = = = Q 0.0.0.0.( W W W E p r i i c k.k.k.k.k.k.k.k.k.c i i i > i i i i a W W W W g i i 8 i s.k.k.k.k.",
"k.k.k.k.k.k.k.k.k.c         B S S S F q.e.e.e.X.        u e.w.e.e.2.#.#.#.' .       i k.k.k.k.k.k.k.k.k.i                 = #.-.#.#.w         a.k.k.k.k.",
"k.k.k.k.k.k.k.k.k.c         B S S S F q.e.e.e.X.        u e.e.e.e.2.*.#.#.o.X       i k.k.k.k.k.k.k.k.k.i                 = #.#.#.#.w         a.k.k.k.k.",
"k.k.k.k.k.k.k.k.k.c         B S S S F q.e.e.e.X.        u e.e.e.e.3.#.#.#.o.X       i k.k.k.k.k.k.k.k.k.i                 = #.#.#.#.w         a.k.k.k.k.",
"k.k.k.k.h.d.d.d.d.x $ $ $ $ V G G G H q.w.w.w.=.% % % % ^ w.w.w.e.4.1.1.1.$.* # # # a d.d.d.d.d.s.d.d.d.a # # # # # # # # 4 #.#.#.#.w         a.k.k.k.k.",
"k.k.k.k.a.        q ........<.0.0.0.0.0.0.0.0.0.0.0.0.0.0.0.0.0.0.e.e.e.e.w.#.#.#.#.W                   E #.#.#.#.#.#.#.#.#.#.#.#.#.w         a.k.k.k.k.",
"k.k.k.k.a.        q ........<.0.0.0.0.0.0.0.0.0.0.0.0.0.0.0.0.0.0.w.e.e.e.w.1.#.#.#.W                   W #.#.#.#.#.#.#.#.#.#.#.#.#.w         a.k.k.k.k.",
"k.k.k.k.a.        q ........<.0.0.0.0.0.0.0.0.0.0.0.0.0.0.0.0.0.0.w.e.e.e.w.#.#.#.*.E                   W #.#.#.#.#.#.#.#.#.#.#.#.#.w         a.k.k.k.k.",
"k.k.k.k.a.        q ........<.0.0.0.0.0.0.0.0.0.0.0.0.0.0.0.0.0.0.e.e.e.e.w.-.#.#.#.E                   ! *.*.*.#.#.#.#.#.#.#.#.#.#.w         a.k.k.k.k.",
"k.k.k.k.f.r.r.b r.l 0 0 0 0 K I I I I I I I I  .0.0.0.0.0.0.0.0.0.0.w.0.w.0.-.*.*.*.` e e e e e e e e e +.3.3.3.4.5.4.4.5.4.#.#.#.#.w         a.k.k.k.k.",
"k.k.k.k.k.k.j.k.k.c         B S S S S S S S S H 0.0.0.0.0.0.0.0.0.9.9.9.9.7.1.;.-.;.-.-.-.-.-.-.1.1.1.-.6.0.0.0.0.w.w.w.w.8.#.#.#.#.w         a.k.k.k.k.",
"k.k.k.k.k.k.k.k.k.c         B S S S S S S S S H 0.0.0.0.0.0.0.0.0.9.9.9.9.9.1.;.;.-.-.-.-.-.-.-.1.1.1.1.6.0.0.0.0.w.w.w.w.8.#.#.#.#.w         a.k.k.k.k.",
"k.k.k.k.k.k.k.k.k.c         B S S S S S S S S H 0.0.0.0.0.0.0.0.0.9.9.9.9.8.1.;.;.-.-.-.-.-.-.-.1.1.-.1.8.9.9.0.9.w.w.0.w.6.#.#.#.#.w         a.k.k.k.k.",
"k.k.k.k.k.k.k.k.k.c         B S S S S S S S S H 0.0.0.0.0.0.0.0.0.9.9.9.9.8.;.;.;.;.;.-.-.-.-.;.*.1.1.-.8.9.0.0.9.w.w.w.w.6.#.#.#.#.w         a.k.k.k.k.",
"k.k.k.k.k.k.k.k.k.c         B S S S D :.>.>.,.,.8.6.7.8.7.8.7.8.6.4.2.2.1.3.0.w.w.w.w.w.w.w.w.w.w.w.w.w.3.-.*.*.1.w.w.w.w.8.#.#.#.#.w         a.k.k.k.k.",
"k.k.k.k.k.k.k.k.k.c         B S S S F ,.6.6.6.6.6.8.5.5.7.8.8.8.6.2.1.;.;.2.e.e.e.e.e.e.w.e.e.e.e.e.w.w.2.#.#.#.*.0.w.w.w.8.#.#.#.#.w         a.k.k.k.k.",
"k.k.k.k.k.k.k.k.k.c         B S S S F ,.6.6.6.6.6.6.6.6.8.8.7.8.8.3.1.1.1.2.w.e.e.e.e.e.e.e.e.e.e.e.e.e.2.*.*.@.*.0.w.w.0.8.*.*.#.#.w         a.k.k.k.k.",
"k.k.k.k.k.k.k.k.k.c         B S S S D ,.6.6.6.6.6.6.6.6.8.8.7.8.8.3.1.1.1.3.e.e.e.e.e.e.e.e.e.e.e.e.e.e.2.*.@.*.;.0.w.w.w.8.*.@.#.#.w         a.k.k.k.k.",
"k.k.k.k.k.k.k.k.k.p.s s s s n m m m N O.#.#.#.#.-.;.1.;.3.8.7.7.7.3.2.1.1.2.e.e.e.e.e.e.e.e.e.e.e.e.e.e.7.3.4.3.3.3.3.3.3.-.) _ _ _ 5         a.k.k.k.k.",
"k.k.k.k.k.k.k.k.k.k.k.k.k.k.i       . f U U U T ~ ~ ~ ~ @.7.7.8.7.3.1.1.1.2.w.e.e.e.e.e.e.e.e.e.e.e.e.e.e.e.e.e.w._ _ _ ) ~ U U U U 1         a.k.k.k.k.",
"k.k.k.k.k.k.k.k.k.k.k.k.k.k.i       . f U U U R ~ ~ ~ ~ #.8.6.8.7.3.-.1.1.2.w.e.e.e.e.e.e.e.e.e.e.e.e.e.e.e.e.e.w._ ) ) ) ~ U U U U 1         a.k.k.k.k.",
"k.k.k.k.k.k.k.k.k.k.k.k.k.k.i       . f U U U T ~ ~ ~ ~ #.8.8.8.7.3.1.1.1.2.w.e.e.e.e.e.e.e.e.e.e.e.e.e.e.e.e.e.w._ ) ) ) ~ U U U U 1         a.k.k.k.k.",
"k.k.k.k.k.k.k.k.k.k.k.k.k.k.i       . f U U U T ~ / / ~ #.8.8.8.8.3.1.1.1.2.w.e.e.e.e.e.e.e.e.e.e.e.e.e.e.w.e.e.w._ ) ) ) / U U U U 1         a.k.k.k.k.",
"k.k.k.k.k.k.k.k.k.y.i a i i : ; & & ; ! ! ! ! ! R Y T R / ` ' ' ' 2.5.5.5.5.5.3.5.3.8.e.e.e.e.e.e.e.e.e.7.3.3.3.1.! R R R y @ @ @ # k a.p.a.a.h.k.k.k.k.",
"k.k.k.k.k.k.k.k.k.b         ; 2 2 2 6 ! / / ~ ! U U U U R ~ ~ ~ ~ 2.7.8.8.7.-.-.-.-.3.e.e.e.e.e.e.e.e.e.2.*.@.*.@.T U U U 7         c k.k.k.k.k.k.k.k.k.",
"k.k.k.k.k.k.k.k.k.c         ; 2 2 2 6 ! / / ~ ! U U U U ! ~ ~ ~ ~ 2.7.8.7.7.-.-.-.-.3.w.e.e.e.e.e.e.e.e.2.@.*.@.@.T U U U 7         c k.k.k.k.k.k.k.k.k.",
"k.k.k.k.k.k.k.k.k.c         & 2 2 2 6 ! / ~ ~ ! U U U U R ~ ~ ~ ~ 2.8.8.8.8.1.-.-.-.3.w.e.w.e.e.e.e.w.e.3.*.*.*.@.T U U U 7         c k.k.k.k.k.k.k.k.k.",
"k.k.k.k.k.k.k.k.k.r.- - - - : ; ; : > U Y R ! Y f f U f R ! ~ ! ~ @.2.2.2.1.@.+.@.@.1.8.0.0.0.9.8.9.8.8.*.' o.+.' y t t y 7 - - - - r.k.k.k.k.k.k.k.k.k.",
"k.k.k.k.k.k.k.k.k.k.k.k.k.k.i       . : : : : > 8 8 8 8 d j j j U d r r r r d t t t f ! ! ! ! Y u h h h f U U U f X       i k.k.k.k.k.k.k.k.k.k.k.k.k.k.",
"k.k.k.k.k.k.k.k.k.k.k.k.k.k.i         : : : : > 8 8 8 8 d j j j j d r r r r t t f 7 f ! ! R ! Y h h h h U U U U f .       i k.k.k.k.k.k.k.k.k.k.k.k.k.k.",
"k.k.k.k.k.k.k.k.k.k.k.k.k.k.i         : : : : > 8 8 8 8 d j j j j d r r r r t t d f f ! ! ! ! Y h h h h j U U U f .       i k.k.k.k.k.k.k.k.k.k.k.k.k.k.",
"k.k.k.k.k.k.k.k.k.k.k.k.k.k.i         : : : : 2 8 8 8 8 d j j j U d r r r r t t d r f ! R ! ! T h h h h U U U U f .       i k.k.k.k.k.k.k.k.k.k.k.k.k.k.",
"k.k.k.k.k.k.k.k.k.k.k.k.k.k.y.b b b b } } r.} } } } } } | { { { { ] ] ] ] ] ] [ [ [ [ %.%.%.%.%.&.&.&.&.u.i.i.i.u.} c b b y.k.k.k.k.k.k.k.k.k.k.k.k.k.k.",
"k.k.k.k.k.k.k.k.k.k.k.k.k.k.k.k.k.k.k.g.f.g.f.f.s.s.s.s.a.p.p.p.p.p.p.p.p.p.p.p.p.p.p.p.p.p.p.a.s.d.s.s.f.g.g.g.g.k.k.k.k.k.k.k.k.k.k.k.k.k.k.k.k.k.k.k.",
"k.k.k.k.k.k.k.k.k.k.k.k.k.k.k.k.k.k.k.g.g.g.g.f.s.s.s.s.a.p.p.p.p.p.p.p.p.p.p.p.p.p.p.p.p.p.p.a.s.s.s.s.f.f.g.g.g.k.k.k.k.k.k.k.k.k.k.k.k.k.k.k.k.k.k.k.",
"k.k.k.k.k.k.k.k.k.k.k.k.k.k.k.k.k.k.k.g.g.g.g.f.s.s.s.s.a.p.p.p.p.p.p.p.p.p.p.p.p.p.p.p.p.p.p.a.s.s.s.s.f.g.g.g.g.k.k.k.k.k.k.k.k.k.k.k.k.k.k.k.k.k.k.k.",
"k.k.k.k.k.k.k.k.k.k.k.k.k.k.k.k.k.k.k.g.g.g.g.f.s.s.s.s.a.p.p.p.p.p.p.p.p.p.p.p.p.p.p.p.p.p.p.a.s.s.s.s.f.g.g.g.g.k.k.k.k.k.k.k.k.k.k.k.k.k.k.k.k.k.k.k.",
"k.k.k.k.k.k.k.k.k.k.k.k.k.k.k.k.k.k.k.j.j.k.j.k.j.j.j.j.k.j.j.j.j.j.h.j.j.j.j.j.j.j.h.j.j.j.j.j.j.j.j.j.k.j.j.k.k.k.k.k.k.k.k.k.k.k.k.k.k.k.k.k.k.k.k.k.",
"k.k.k.k.k.k.k.k.k.k.k.k.k.k.k.k.k.k.k.k.k.k.k.k.k.k.k.k.k.k.k.k.k.k.k.k.k.k.k.k.k.k.k.k.k.k.k.k.k.k.k.k.k.k.k.k.k.k.k.k.k.k.k.k.k.k.k.k.k.k.k.k.k.k.k.k.",
"k.k.k.k.k.k.k.k.k.k.k.k.k.k.k.k.k.k.k.k.k.k.k.k.k.k.k.k.k.k.k.k.k.k.k.k.k.k.k.k.k.k.k.k.k.k.k.k.k.k.k.k.k.k.k.k.k.k.k.k.k.k.k.k.k.k.k.k.k.k.k.k.k.k.k.k.",
"k.k.k.k.k.k.k.k.k.k.k.k.k.k.k.k.k.k.k.k.k.k.k.k.k.k.k.k.k.k.k.k.k.k.k.k.k.k.k.k.k.k.k.k.k.k.k.k.k.k.k.k.k.k.k.k.k.k.k.k.k.k.k.k.k.k.k.k.k.k.k.k.k.k.k.k.",
"k.k.k.k.k.k.k.k.k.k.k.k.k.k.k.k.k.k.k.k.k.k.k.k.k.k.k.k.k.k.k.k.k.k.k.k.k.k.k.k.k.k.k.k.k.k.k.k.k.k.k.k.k.k.k.k.k.k.k.k.k.k.k.k.k.k.k.k.k.k.k.k.k.k.k.k.",
"k.k.k.k.k.k.k.k.k.k.k.k.k.k.k.k.k.k.k.k.k.k.k.k.k.k.k.k.k.k.k.k.k.k.k.k.k.k.k.k.k.k.k.k.k.k.k.k.k.k.k.k.k.k.k.k.k.k.k.k.k.k.k.k.k.k.k.k.k.k.k.k.k.k.k.k.",
"k.k.k.k.k.k.k.k.k.k.k.k.k.k.k.k.k.k.k.k.k.k.k.k.k.k.k.k.k.k.k.k.k.k.k.k.k.k.k.k.k.k.k.k.k.k.k.k.k.k.k.k.k.k.k.k.k.k.k.k.k.k.k.k.k.k.k.k.k.k.k.k.k.k.k.k."
};
