/* XPM */
static char *d2da5df8985c496ad991258167a42dffQ9pNuHfykrRuL2lL[] = {
/* columns rows colors chars-per-pixel */
"76 76 148 2 ",
"   c #000000",
".  c #0A0708",
"X  c #0F0A08",
"o  c #110D0A",
"O  c #180F0D",
"+  c #161616",
"@  c #1A1213",
"#  c #2F0000",
"$  c #390000",
"%  c #211710",
"&  c #241A12",
"*  c #2A1D1C",
"=  c #27210C",
"-  c #3C320F",
";  c #34211C",
":  c gray14",
">  c #2C2122",
",  c #2B2B2B",
"<  c #3C2620",
"1  c #382724",
"2  c #362829",
"3  c #3F2C2C",
"4  c #3B3333",
"5  c gray23",
"6  c #650000",
"7  c #760000",
"8  c #5E3211",
"9  c #412D20",
"0  c #442E2E",
"q  c #4A3623",
"w  c #4F322A",
"e  c #54352D",
"r  c #523F2E",
"t  c #4C3531",
"y  c #543435",
"u  c #593E33",
"i  c #673C3C",
"p  c #524614",
"a  c #714518",
"s  c #52402E",
"d  c #5A4429",
"f  c #50492B",
"g  c #5E542B",
"h  c #5F4638",
"j  c #624C2C",
"k  c #695921",
"l  c #655F29",
"z  c #6C4E34",
"x  c #65483A",
"c  c #6C493D",
"v  c #6C5437",
"b  c #745437",
"n  c #71553B",
"m  c #7A513D",
"M  c #7F5E3C",
"N  c #736729",
"B  c #7D7537",
"V  c #484848",
"C  c #544845",
"Z  c #58524C",
"A  c #545454",
"S  c #5C5C5C",
"D  c #724540",
"F  c #794B42",
"G  c #785341",
"H  c #6E5454",
"J  c #666666",
"K  c #776C69",
"L  c gray45",
"P  c gray50",
"I  c #900000",
"U  c #BB2B19",
"Y  c #8C3122",
"T  c red",
"R  c #FC0D08",
"E  c #F92215",
"W  c #F9321D",
"Q  c #A55B38",
"!  c #826E29",
"~  c #827C35",
"^  c #F54429",
"/  c #FD4C2C",
"(  c #FC6D3F",
")  c #835346",
"_  c #885D44",
"`  c #8C5D49",
"'  c #8E6943",
"]  c #94634C",
"[  c #9C6A4F",
"{  c #977344",
"}  c #9D734A",
"|  c #9D6C50",
" . c #A4794E",
".. c #A06D50",
"X. c #A57252",
"o. c #AA7754",
"O. c #AD7D54",
"+. c #B07D56",
"@. c #856F6F",
"#. c #F36C40",
"$. c #EF7948",
"%. c #F67344",
"&. c #AF952B",
"*. c #D7B635",
"=. c #DBB53F",
"-. c #B48157",
";. c #B88557",
":. c #BB875A",
">. c #BF8B5B",
",. c #84817D",
"<. c #C18D5C",
"1. c #C6925E",
"2. c #C9945F",
"3. c #CB9D5B",
"4. c #D7B644",
"5. c #CC9761",
"6. c #CF9A61",
"7. c #D39D62",
"8. c #D7A163",
"9. c #DDA665",
"0. c #DFAA67",
"q. c #E1AB67",
"w. c #E3AC68",
"e. c #E7B069",
"r. c #EBB36A",
"t. c #F0B76C",
"y. c #F3BA6E",
"u. c #F8BF6F",
"i. c #D0C555",
"p. c #F9C06F",
"a. c #FFF268",
"s. c #848483",
"d. c #8E8E8E",
"f. c #929292",
"g. c #999890",
"h. c #9C9C9C",
"j. c #A9A797",
"k. c #AFAD9A",
"l. c #A3A3A3",
"z. c #ABABAB",
"x. c #B7B7B7",
"c. c #BABABA",
"v. c #C2C2C2",
"b. c #CBCBCB",
"n. c #D0D0D0",
"m. c #DBDBDB",
"M. c #E3E3E3",
"N. c #ffECECEC",
/* pixels */
"N.N.N.N.N.N.N.N.N.N.N.N.N.N.N.N.N.N.N.N.N.N.N.N.N.N.N.N.N.N.N.N.N.N.N.N.N.N.N.N.N.N.N.N.N.N.N.N.N.N.N.N.N.N.N.N.N.N.N.N.N.N.N.N.N.N.N.N.N.N.N.N.N.N.N.N.",
"N.N.N.N.N.N.N.N.N.N.N.N.N.N.N.N.N.N.N.N.N.N.N.N.N.N.N.N.N.N.N.N.N.N.N.N.N.N.N.N.N.N.N.N.N.N.N.N.N.N.N.N.N.N.N.N.N.N.N.N.N.N.N.N.N.N.N.N.N.N.N.N.N.N.N.N.",
"N.N.N.N.N.N.N.N.N.N.N.N.N.N.N.N.N.N.N.N.N.N.N.N.N.N.N.N.N.N.N.N.N.N.N.N.N.N.N.N.N.N.N.N.N.N.N.N.N.N.N.N.N.N.N.N.N.N.N.N.N.N.N.N.N.N.N.N.N.N.N.N.N.N.N.N.",
"N.N.N.N.N.N.N.N.N.N.N.N.N.N.N.N.N.N.N.N.N.N.N.N.N.N.N.N.N.N.N.N.N.N.N.N.N.N.N.N.N.N.N.N.N.N.N.N.N.N.N.N.N.N.N.N.N.N.N.N.N.N.N.N.N.N.N.N.N.N.N.N.N.N.N.N.",
"N.N.N.N.N.N.N.N.N.N.N.N.N.N.N.N.N.N.N.N.N.N.N.N.N.N.N.N.N.N.N.N.N.N.N.N.N.N.N.N.N.N.N.N.N.N.N.N.N.N.N.N.N.N.N.N.N.N.N.N.N.N.N.N.N.N.N.N.N.N.N.N.N.N.N.N.",
"N.N.N.N.N.N.N.N.N.N.N.N.N.N.N.N.N.N.N.N.N.N.N.N.N.N.N.N.N.N.N.N.N.N.N.N.N.N.N.N.N.N.N.N.N.N.N.N.N.N.N.N.N.N.N.N.N.N.N.N.N.N.N.N.N.N.N.N.N.N.N.N.N.N.N.N.",
"N.N.N.N.N.N.N.N.N.N.N.N.N.N.N.N.N.N.N.N.N.N.N.N.N.N.N.N.N.N.N.N.N.N.N.N.N.N.N.N.N.N.N.N.N.N.N.N.N.N.N.N.N.N.N.N.N.N.N.N.N.N.N.N.N.N.N.N.N.N.N.N.N.N.N.N.",
"N.N.N.N.N.N.N.N.N.N.N.N.N.N.N.N.N.N.N.N.N.N.N.N.N.N.N.N.N.N.N.N.N.N.N.N.N.N.N.N.N.N.N.N.N.N.N.N.N.N.N.N.N.N.N.N.N.N.N.N.N.N.N.N.N.N.N.N.N.N.N.N.N.N.N.N.",
"N.N.N.N.N.N.N.N.N.N.N.N.N.N.N.N.N.N.N.N.N.N.N.N.N.N.N.N.N.N.N.N.N.N.N.N.N.N.N.N.N.N.N.N.N.N.N.N.N.N.N.N.N.N.N.N.N.N.N.N.N.N.N.N.N.N.N.N.N.N.N.N.N.N.N.N.",
"N.N.N.N.N.N.N.N.N.N.N.N.N.N.N.N.l.5 5 5 5 z.N.N.N.N.N.N.N.N.N.N.N.N.N.N.N.N.N.N.N.N.N.N.N.N.N.N.N.N.N.N.N.N.N.N.N.N.N.N.N.N.N.N.N.N.N.N.N.N.N.N.N.N.N.N.",
"N.N.N.N.N.N.N.N.N.N.N.N.N.N.N.N.f.        d.N.N.N.N.N.N.N.N.N.N.N.N.N.N.N.N.N.N.N.N.N.N.N.N.N.N.N.N.N.N.N.N.N.N.N.N.N.N.N.N.N.N.N.N.N.N.N.N.N.N.N.N.N.N.",
"N.N.N.N.N.N.N.N.N.N.N.N.N.N.N.N.d.        d.N.N.N.N.N.N.N.N.N.N.N.N.N.N.N.N.N.N.N.N.N.N.N.N.N.N.N.N.N.N.N.N.N.N.N.N.N.N.N.N.N.N.N.N.N.N.N.N.N.N.N.N.N.N.",
"N.N.N.N.N.N.N.N.N.N.N.N.N.N.N.N.d.        f.N.N.N.N.N.N.N.N.N.N.N.N.N.N.N.N.N.N.N.N.N.N.N.N.N.N.N.N.N.N.N.N.N.N.N.N.N.N.N.N.N.N.N.N.N.N.N.N.N.N.N.N.N.N.",
"N.N.N.N.N.N.N.N.N.N.N.M.x.x.x.x.@.$ $ $ $ @.x.x.x.x.x.x.x.x.v.N.N.N.N.N.N.N.N.N.N.N.N.N.N.N.N.N.N.N.N.N.N.N.N.N.N.N.N.N.N.N.N.N.N.N.N.N.N.N.N.N.N.N.N.N.",
"N.N.N.N.N.N.N.N.N.N.N.v.        6 T T T T 6                 , N.N.N.N.N.N.N.N.N.N.N.N.N.N.N.N.N.N.N.N.N.N.N.N.N.N.N.N.N.N.N.N.N.N.N.N.N.N.N.N.N.N.N.N.N.",
"N.N.N.N.N.N.N.N.N.N.N.v.        6 T T T T 6                 , N.N.N.N.N.N.N.N.N.N.N.N.N.N.N.N.N.N.N.N.N.N.N.N.N.N.N.N.N.N.N.N.N.N.N.N.N.N.N.N.N.N.N.N.N.",
"N.N.N.N.N.N.N.N.N.N.N.v.        6 T T T T 6                 , N.N.N.N.N.N.N.N.N.N.N.N.N.N.N.N.N.N.N.N.N.N.N.N.N.N.N.N.N.N.N.N.N.N.N.N.N.N.N.N.N.N.N.N.N.",
"N.N.N.N.N.N.N.N.N.N.N.v.        6 T T T T 6                 , N.N.N.N.N.N.N.N.N.N.N.N.N.N.N.N.N.N.N.N.N.N.N.N.N.N.N.N.N.N.N.N.N.N.N.N.N.N.N.N.N.N.N.N.N.",
"N.N.N.N.N.N.N.s.J J J H I I I I U ( ( ( ( Q z z z z z z z z v J J J J h.N.N.N.N.N.N.N.N.N.N.N.N.N.N.N.N.N.N.x.J J J J x.N.N.N.N.N.N.N.N.N.N.N.N.N.N.N.N.",
"N.N.N.N.N.N.N.,       # T T T T / p.p.p.p.8.>.>.>.>.>.>.>.>.}         S N.N.N.N.N.N.N.N.N.N.N.N.N.N.N.N.N.N.d.        f.N.N.N.N.N.N.N.N.N.N.N.N.N.N.N.N.",
"N.N.N.N.N.N.N.,       # T T T T / p.p.p.p.8.>.>.>.>.>.>.>.>.}         S N.N.N.N.N.N.N.N.N.N.N.N.N.N.N.N.N.N.d.        d.N.N.N.N.N.N.N.N.N.N.N.N.N.N.N.N.",
"N.N.N.N.N.N.N.,       # T T T T / p.p.p.p.8.>.>.>.<.>.>.>.>.}         S N.N.N.N.N.N.N.N.N.N.N.N.N.N.N.N.N.N.d.        d.N.N.N.N.N.N.N.N.N.N.N.N.N.N.N.N.",
"N.N.N.N.N.N.N.,       # T T T T / p.p.p.p.7.;.;.;.;.<.<.>.<.{ . .   . S M.M.M.M.N.N.N.N.N.N.N.N.N.N.M.M.M.M.d.. . . . d.M.M.M.M.N.N.N.N.N.N.N.N.N.N.N.N.",
"N.N.N.N.N.N.N.,       # T T T T / p.p.p.p.z o o o o 3.y.y.y.e.-.-.-.O.n + + + + g.N.N.N.N.N.N.N.N.b.+ + + + r O.O. .O.r + + + + v.N.N.N.N.N.N.N.N.N.N.N.",
"N.N.N.N.N.N.N.,       # T T T T / p.p.p.p.j         3.p.p.p.t.>.;.>.<.b         d.N.N.N.N.N.N.N.N.v.        q >.<.>.>.q         v.N.N.N.N.N.N.N.N.N.N.N.",
"N.N.N.N.N.N.N.,       # T T T T / p.p.p.u.j         3.p.p.p.t.>.>.>.<.b         f.N.N.N.N.N.N.N.N.v.        q >.>.>.>.q         v.N.N.N.N.N.N.N.N.N.N.N.",
"N.N.N.N.N.N.N.,       # T T T T / p.p.p.p.g         3.p.p.p.r.>.>.>.>.b         d.N.N.N.N.N.N.N.N.v.        q >.>.>.>.q         v.N.N.N.N.N.N.N.N.N.N.N.",
"N.N.x.f.f.f.f.g p p p a ^ ^ ^ ^ ( y.y.y.p.{ d d d d 8.y.y.y.t.8.8.7.8.{ q q q q K f.f.f.f.f.f.f.f.@.q q q q M 7.7.7.7.M q q q q ,.f.f.f.l.N.N.N.N.N.N.N.",
"N.N.S         &.*.*.*.=.r.r.r.r.r.r.r.r.r.r.r.r.r.r.r.r.r.r.t.p.p.p.p.q.>.>.>.>.q               . + 1.>.>.>.7.y.y.y.t.7.>.>.>.>.&       , N.N.N.N.N.N.N.",
"N.N.S         &.*.*.*.=.r.r.r.r.r.r.r.r.r.r.r.r.r.r.r.r.r.r.r.p.p.p.p.q.>.>.>.>.q                 & >.>.>.>.7.y.t.y.y.7.>.>.>.>.&       , N.N.N.N.N.N.N.",
"N.N.S         &.*.*.*.=.r.r.r.r.r.r.r.r.r.r.r.r.r.r.r.r.r.r.r.p.p.p.p.q.>.>.>.>.q                 & >.>.>.>.7.y.y.y.y.7.>.>.>.>.&       , N.N.N.N.N.N.N.",
"N.N.S         &.*.*.*.=.r.r.r.r.r.r.r.r.r.r.r.r.r.r.r.r.r.r.t.p.p.p.u.q.>.>.>.>.q                 & >.>.>.>.7.y.y.y.y.7.>.>.>.>.&       , N.N.N.N.N.N.N.",
"N.N.v.z.z.z.z.f - - - 8 W W W W W W W W W $.r.r.r.r.r.r.r.r.r.r.r.r.r.9.5.5.<.<. .~ ] ' ' ' ] ' '  .9.q.q.9.w.t.t.y.y.7.<.<.<.:.&       , N.N.N.N.N.N.N.",
"N.N.N.N.N.N.N.,       # T T T T T T T T T #.r.r.r.r.r.r.r.r.r.r.e.e.e.8.5.<.5.5.1.1.1.1.1.1.2.2.2.6.r.e.r.r.t.t.y.y.y.7.<.:.<.<.&       , N.N.N.N.N.N.N.",
"N.N.N.N.N.N.N.,       # T T T T T T T T T %.r.r.r.r.r.r.r.r.r.w.w.e.w.9.5.<.<.5.1.1.1.1.1.1.2.1.2.6.r.r.r.r.t.t.y.y.y.7.:.<.:.<.&       , N.N.N.N.N.N.N.",
"N.N.N.N.N.N.N.,       # T T T T T T T T T #.r.r.r.r.r.r.r.r.r.w.e.e.e.9.5.5.<.5.1.<.1.1.1.1.2.2.2.2.r.r.r.r.t.t.y.y.y.7.<.<.:.<.&       , N.N.N.N.N.N.N.",
"N.N.N.N.N.N.N.,       # T T T T R E E E E $.r.r.w.r.r.w.r.r.w.q.0.0.q.8.5.7.6.7.7.6.7.7.7.7.7.7.7.7.q.q.q.q.q.e.e.w.e.1.+.+.+.+.%       , N.N.N.N.N.N.N.",
"N.N.N.N.N.N.N.,       # T T T T ^ 0.0.0.0.0.0.0.9.q.w.q.w.q.9.5.2.5.5.9.u.u.u.u.p.p.y.p.y.u.u.p.u.t.<.:.<.<.<.<.<.<.<.[ ) ) ) ) O       , N.N.N.N.N.N.N.",
"N.N.N.N.N.N.N.,       # T T T T ^ 0.0.0.0.0.0.0.w.0.q.w.w.q.9.1.2.2.5.9.p.p.u.p.p.p.p.p.p.p.p.p.u.t.<.<.<.<.:.:.<.<.<.[ ) ) ) ) O       , N.N.N.N.N.N.N.",
"N.N.N.N.N.N.N.,       # T T T T ^ 0.0.0.0.0.0.0.0.9.0.w.q.q.9.5.2.2.5.9.p.p.p.p.p.p.p.p.p.p.p.p.u.t.:.<.:.<.<.<.:.<.<...) ) ) ) O       , N.N.N.N.N.N.N.",
"N.N.N.N.N.N.N.,       # T T T T ^ 0.0.0.0.0.0.0.q.9.q.q.q.q.9.5.2.2.2.q.p.p.p.p.p.p.p.p.p.p.p.p.u.t.<.<.<.<.<.<.<.<.<.[ ) ) ) ) O       , N.N.N.N.N.N.N.",
"N.N.N.N.N.N.N.f.P s.P K 7 7 7 7 Y o.+.+.+.-.:.:.:.:.9.q.w.q.9.5.2.2.2.0.p.p.p.p.p.p.p.p.p.p.p.p.u.t.9.q.9.q.5.+.o.o.+.z < < < < L P P P f.N.N.N.N.N.N.N.",
"N.N.N.N.N.N.N.N.N.N.N.v.        > ) ) ) ) ] | | | [ 7.q.w.w.9.5.2.2.2.9.p.p.p.u.p.p.p.p.p.p.p.p.u.u.u.u.u.u.7.o.X.X.X.9         v.N.N.N.N.N.N.N.N.N.N.N.",
"N.N.N.N.N.N.N.N.N.N.N.c.        > ) ) ) ) ` | | | | 7.q.q.w.9.5.2.2.2.9.p.p.p.u.p.p.p.p.p.p.p.p.u.u.u.u.u.u.7.X.X.X...9         v.N.N.N.N.N.N.N.N.N.N.N.",
"N.N.N.N.N.N.N.N.N.N.N.v.        1 ) ) ) ) ] [ [ | [ 7.q.q.q.8.5.2.2.2.9.u.u.u.u.p.p.p.p.p.p.p.p.p.p.p.p.u.u.7.X.X.X.X.9         v.N.N.N.N.N.N.N.N.N.N.N.",
"N.N.N.N.N.N.N.N.N.N.N.v.    .   ; F ) ) G ] [ [ [ | 7.q.q.q.9.5.2.2.2.9.u.u.u.u.p.p.p.p.p.p.p.p.p.p.u.u.u.u.7.o.X.X.X.9         v.N.N.N.N.N.N.N.N.N.N.N.",
"N.N.N.N.N.N.N.N.N.N.N.N.n.n.n.n.s.X o X . ; t t t t ] X.X.X.| ` ` ` ` X.2.2.6.6.r.p.p.p.p.p.p.p.u.t.2.1.<.1.+.` ) ) ) ;         v.N.N.N.N.N.N.N.N.N.N.N.",
"N.N.N.N.N.N.N.N.N.N.N.N.N.N.N.N.d.        * 0 0 0 0 ` [ [ | [ ) ) ) ) ..2.2.1.1.w.u.p.p.p.p.p.p.u.t.<.<.<.<.X.) ) ) ) ;         v.N.N.N.N.N.N.N.N.N.N.N.",
"N.N.N.N.N.N.N.N.N.N.N.N.N.N.N.N.d.        * 0 0 0 0 ] ] | [ ] ) ) ) ) | <.5.>.5.e.p.u.u.p.p.u.u.u.t.<.<.<.<.X.) ) ) ) ;         v.N.N.N.N.N.N.N.N.N.N.N.",
"N.N.N.N.N.N.N.N.N.N.N.N.N.N.N.N.d.        * 0 0 0 0 ] [ | | ] ) ) ) ) | <.<.5.5.w.u.u.u.p.p.u.u.u.r.<.<.:.<.X.) ) ) ) ;         v.N.N.N.N.N.N.N.N.N.N.N.",
"N.N.N.N.N.N.N.N.N.N.N.N.N.N.N.N.x.A A A A 4 * * * * x m G G G F F F F ` +.+.+.+.7.w.w.w.w.w.w.w.q.9.X.o.o.o._ e e e e C A A A A n.N.N.N.N.N.N.N.N.N.N.N.",
"N.N.N.N.N.N.N.N.N.N.N.N.N.N.N.N.N.N.N.N.N.S         > 2 2 2 3 i i i i D ) G ) ) X.<.<.<.<.<.>.>.<.+.) ) ) ) e         d.N.N.N.N.N.N.N.N.N.N.N.N.N.N.N.N.",
"N.N.N.N.N.N.N.N.N.N.N.N.N.N.N.N.N.N.N.N.N.S         > 2 2 2 3 i i i i D ) ) ) ) X.>.>.>.>.>.>.>.<.+.) ) ) ) w         f.N.N.N.N.N.N.N.N.N.N.N.N.N.N.N.N.",
"N.N.N.N.N.N.N.N.N.N.N.N.N.N.N.N.N.N.N.N.N.S         > 2 2 2 0 i i i i D ) ) ) ) o.<.>.>.>.>.>.>.<.+.) ) ) ) w         d.N.N.N.N.N.N.N.N.N.N.N.N.N.N.N.N.",
"N.N.N.N.N.N.N.N.N.N.N.N.N.N.N.N.N.N.N.N.N.S         > 2 2 2 3 i i i i D ) ) ) ) X.<.>.>.<.<.>.>.<.+.) ) ) ) e .       f.N.N.N.N.N.N.N.N.N.N.N.N.N.N.N.N.",
"N.N.N.N.N.N.N.N.N.N.N.N.N.N.N.N.N.N.N.N.N.v.l.z.l.l., o o o @ 0 0 0 0 t t t w y c G ) ) G x h x j u & & & & Z l.l.l.l.n.N.N.N.N.N.N.N.N.N.N.N.N.N.N.N.N.",
"N.N.N.N.N.N.N.N.N.N.N.N.N.N.N.N.N.N.N.N.N.N.N.N.N.N.,       . 2 2 2 2 2 2 2 2 2 y i i i i 3 2 2 2 >         S N.N.N.N.N.N.N.N.N.N.N.N.N.N.N.N.N.N.N.N.N.",
"N.N.N.N.N.N.N.N.N.N.N.N.N.N.N.N.N.N.N.N.N.N.N.N.N.N.,       . 2 2 2 2 2 2 2 2 2 y i i i i 3 2 2 2 >         S N.N.N.N.N.N.N.N.N.N.N.N.N.N.N.N.N.N.N.N.N.",
"N.N.N.N.N.N.N.N.N.N.N.N.N.N.N.N.N.N.N.N.N.N.N.N.N.N.,       . 2 2 2 2 2 2 2 2 2 y i i i i 3 2 2 2 >         S N.N.N.N.N.N.N.N.N.N.N.N.N.N.N.N.N.N.N.N.N.",
"N.N.N.N.N.N.N.N.N.N.N.N.N.N.N.N.N.M.N.M.M.M.M.M.M.M.,       X s u s s 0 > > > > h m m m m 1 > > > > : : : : L N.N.N.N.N.N.N.N.N.N.N.N.N.N.N.N.N.N.N.N.N.",
"N.N.N.N.N.N.N.N.N.N.N.N.N.N.N.N.M.b.n.n.n.v.x.x.x.x.:       = 4.4.4.4.!         ! 4.4.4.4.=       : n.n.n.n.m.N.N.N.N.N.N.N.N.N.N.N.N.N.N.N.N.N.N.N.N.N.",
"N.N.N.N.N.N.N.N.N.N.N.N.N.N.N.N.M.n.n.n.n.v.x.x.x.x.:       = 4.4.4.4.!         ! 4.4.4.4.=       , n.n.n.n.m.N.N.N.N.N.N.N.N.N.N.N.N.N.N.N.N.N.N.N.N.N.",
"N.N.N.N.N.N.N.N.N.N.N.N.N.N.N.N.m.n.n.n.n.v.x.x.x.x.:       = 4.4.4.4.!         ! 4.4.4.4.=       : n.n.n.n.m.N.N.N.N.N.N.N.N.N.N.N.N.N.N.N.N.N.N.N.N.N.",
"N.N.N.N.N.N.N.N.N.N.N.N.N.N.N.N.M.n.n.n.n.v.x.x.x.x.:       = 4.4.4.4.!         ! 4.4.4.4.=       : n.n.n.n.m.N.N.N.N.N.N.N.N.N.N.N.N.N.N.N.N.N.N.N.N.N.",
"N.N.N.N.N.N.N.N.N.N.N.N.m.M.M.m.n.v.v.v.v.s.S S A S B ~ ~ ~ B k k k k N ~ ~ ~ ~ N k k k k Z A A A J v.v.v.v.n.m.m.M.m.M.N.N.N.N.N.N.N.N.N.N.N.N.N.N.N.N.",
"N.N.N.N.N.N.N.N.N.N.N.M.n.b.n.n.b.x.x.x.x.V         i.a.a.a.i.        l a.a.a.a.l         s.l.l.l.l.x.c.c.x.v.n.n.n.n.M.N.N.N.N.N.N.N.N.N.N.N.N.N.N.N.N.",
"N.N.N.N.N.N.N.N.N.N.N.M.n.n.n.n.b.x.x.x.x.V         i.a.a.a.i.        l a.a.a.a.l         s.l.l.l.l.x.x.x.x.v.n.n.n.n.m.N.N.N.N.N.N.N.N.N.N.N.N.N.N.N.N.",
"N.N.N.N.N.N.N.N.N.N.N.N.n.n.n.n.v.x.x.x.x.V         i.a.a.a.i.        l a.a.a.a.l         s.l.h.l.l.x.x.x.x.v.n.n.n.n.M.N.N.N.N.N.N.N.N.N.N.N.N.N.N.N.N.",
"N.N.N.N.N.N.N.N.N.N.N.M.n.n.n.n.b.x.x.x.x.V         i.a.a.a.i.        l a.a.a.a.l         s.l.l.l.l.x.x.x.x.v.n.n.n.n.m.N.N.N.N.N.N.N.N.N.N.N.N.N.N.N.N.",
"N.N.N.N.N.N.N.N.N.N.N.N.N.M.N.N.m.b.b.b.b.x.h.h.h.h.k.k.k.k.j.d.s.d.d.g.k.k.k.k.g.d.d.d.d.z.x.x.x.c.b.b.b.n.n.N.M.N.N.N.N.N.N.N.N.N.N.N.N.N.N.N.N.N.N.N.",
"N.N.N.N.N.N.N.N.N.N.N.N.N.N.N.N.M.n.n.n.n.v.x.x.x.x.l.l.l.l.l.l.l.l.l.h.l.l.l.l.l.h.l.l.l.z.x.x.x.c.n.n.n.n.m.N.N.N.N.N.N.N.N.N.N.N.N.N.N.N.N.N.N.N.N.N.",
"N.N.N.N.N.N.N.N.N.N.N.N.N.N.N.N.M.b.n.n.n.v.x.x.x.x.l.l.l.h.l.l.l.l.l.l.l.l.l.l.l.l.l.l.l.x.x.x.x.c.n.n.n.n.m.N.N.N.N.N.N.N.N.N.N.N.N.N.N.N.N.N.N.N.N.N.",
"N.N.N.N.N.N.N.N.N.N.N.N.N.N.N.N.M.b.n.b.n.v.x.x.x.x.l.l.l.l.l.l.l.l.l.l.l.l.l.l.l.l.l.l.h.x.x.x.x.c.n.n.b.n.m.N.N.N.N.N.N.N.N.N.N.N.N.N.N.N.N.N.N.N.N.N.",
"N.N.N.N.N.N.N.N.N.N.N.N.N.N.N.N.M.m.m.m.m.b.b.b.b.b.v.x.x.c.c.c.c.c.c.x.c.c.c.c.x.c.c.c.x.b.v.b.b.b.m.m.m.m.M.N.N.N.N.N.N.N.N.N.N.N.N.N.N.N.N.N.N.N.N.N.",
"N.N.N.N.N.N.N.N.N.N.N.N.N.N.N.N.N.N.N.N.N.N.N.N.N.N.N.N.N.N.N.N.N.N.N.N.N.N.N.N.N.N.N.N.N.N.N.N.N.N.N.N.N.N.N.N.N.N.N.N.N.N.N.N.N.N.N.N.N.N.N.N.N.N.N.N.",
"N.N.N.N.N.N.N.N.N.N.N.N.N.N.N.N.N.N.N.N.N.N.N.N.N.N.N.N.N.N.N.N.N.N.N.N.N.N.N.N.N.N.N.N.N.N.N.N.N.N.N.N.N.N.N.N.N.N.N.N.N.N.N.N.N.N.N.N.N.N.N.N.N.N.N.N."
};
