/* XPM */
static char *result[] = {
/* columns rows colors chars-per-pixel */
"76 76 89 1 ",
"  c black",
". c #0E0C0C",
"X c #130E0E",
"o c #171516",
"O c #1A1514",
"+ c #191717",
"@ c #251816",
"# c #252424",
"$ c #312927",
"% c #342D2A",
"& c #312F2F",
"* c #373334",
"= c #433F40",
"- c #534D4A",
"; c #5F5C5D",
": c #5E5D5D",
"> c gray37",
", c #65605E",
"< c #686260",
"1 c #6C6A6A",
"2 c #717070",
"3 c #747373",
"4 c #787676",
"5 c #7A7979",
"6 c #7F7E7E",
"7 c #817F7F",
"8 c #84807E",
"9 c #828080",
"0 c #898788",
"q c #888888",
"w c #8A8989",
"e c #8C8A8B",
"r c #8E8D8D",
"t c #94908F",
"y c #939191",
"u c #979392",
"i c #979696",
"p c #9A9695",
"a c #9A9696",
"s c #9C9997",
"d c #9C9B9B",
"f c #9E9A9A",
"g c #9D9C9C",
"h c #9E9D9D",
"j c #A19F9D",
"k c #A4A1A0",
"l c #A9A9A9",
"z c #AEABAA",
"x c #AEAEAE",
"c c #B1AEAD",
"v c #B0AFAF",
"b c #B2B0AF",
"n c #B6B4B5",
"m c #B7B6B6",
"M c #B9B7B6",
"N c #BBBABA",
"B c gray74",
"V c #C0BFBF",
"C c #C2C0C0",
"Z c #C2C1C0",
"A c #C3C1C1",
"S c #C6C4C3",
"D c gray77",
"F c #CFCECE",
"G c gray81",
"H c gray82",
"J c #D2D1D1",
"K c #D2D2D2",
"L c #D5D5D5",
"P c #D6D5D5",
"I c #D7D6D6",
"U c #D7D7D6",
"Y c #D7D7D7",
"T c gray85",
"R c #DBDADA",
"E c gray86",
"W c gainsboro",
"Q c #DDDDDD",
"! c gray87",
"~ c gray88",
"^ c #E1E1E1",
"/ c #E3E2E2",
"( c gray89",
") c #E5E4E4",
"_ c #E7E7E7",
"` c gray91",
"' c #EAEAEA",
"] c gray92",
"[ c #ECECEC",
/* pixels */
"[[[[[[[[[[[[[[[[[[[[[[[[[[[[[[[[[[[[[[[[[[[[[[[[[[[[[[[[[[[[[[[[[[[[[[[[[[[[",
"[[[[[[[[[[[[[[[[[[[[[[[[[[[[[[[[[[[[[[[[[[[[[[[[[[[[[[[[[[[[[[[[[[[[[[[[[[[[",
"[[[[[[[[[[[[[[[[[[[[[[[[[[[[[[[[[[[[[[[[[[[[[[[[[[[[[[[[[[[[[[[[[[[[[[[[[[[[",
"[[[[[[[[[[[[[[[[[[[[[[[[[[[[[[[[[[[[[[[[[[[[[[[[[[[[[[[[[[[[[[[[[[[[[[[[[[[[",
"[[[[[[[[[[[[[[[[[[[[[[[[[[[[[[[[[[[[[[[[[[[[[[[[[[[[[[[[[[[[[[[[[[[[[[[[[[[[",
"[[[[[[[[[[[[[[[[[[[[[[[[[[[[[[[[[[[[[[[[[[[[[[[[[[[[[[[[[[[[[[[[[[[[[[[[[[[[",
"[[[[[[[[[[[[[[[[[[[[[[[[[[[[[[[[[[[[[[[[[[[[[[[[[[[[[[[[[[[[[[[[[[[[[[[[[[[[",
"[[[[[[[[[[[[[[[[[[[[[[[[[[[[[[[[[[[[[[[[[[[[[[[[[[[[[[[[[[[[[[[[[[[[[[[[[[[[",
"[[[[[[[[[[[[[[[[[[[[[[[[[[[[[[[[[[[[[[[[[[[[[[[[[[[[[[[[[[[[[[[[[[[[[[[[[[[[",
"[[[[[[[[[[[[[[[[[[[[[[[[[[[[[[[[[[[[[[[[[[[[[[[[[[[[[[[[[[[[[[[[[[[[[[[[[[[[",
"[[[[[[[[[[[[[[[[[[[[[[[[[[[[[[[[[[[[[[[[[[[[[[[[[[[[[[[[[[[[[[[[[[[[[[[[[[[[",
"[[[[[[[[[[[[[[[[[[[[[[[[[[[[[[[[[[[[[[[[[[[[[[[[[[[[[[[[[[[[[[[[[[[[[[[[[[[[",
"[[[[[[[[[[[[[[[[[[[[[[[[[[[[[[[[[[[[[[[[[[[[[[[[[[[[[[[[[[[[[[[[[[[[[[[[[[[[",
"[[[[[[[[[[[[[[[[[[[[[[[[[[[[[[[[[[[[[[[[[[[[[[[[[[[[[[[[[[[[[[[[[[[[[[[[[[[[",
"[[[[[[[[[[[[[[[[[[[[[[[[[[[[[[[[[[[[[[[[[[[[[[[[[[[[[[[[[[[[[[[[[[[[[[[[[[[[",
"[[[[[[[[[[[[[[[[[[[[[[[[[[[[[[[[[[[[[[[[[[[[[[[[[[[[[[[[[[[[[[[[[[[[[[[[[[[[",
"[[[[[[[[[[[[[[[[[[[[[[[[[[[[[[[[[[[[[[[[[[[[[[[[[[[[[[[44_[[[[[[[[[[[[[[[[[[",
"[[[[[[[[[[[[[[[[[[[[[[[[[[[[[[[[[[[[[[[[[[[[[[[[[[[[[[[[[[[[[[[[[[[[[[[[[[[[",
"[[[[[[[[[[[[[[[[[[[[[[[[[[[[[[[[[[[[[[[[[[[[[[[[[[[[[[R[R][[[[[[/LE[[[[[[[[[",
"[[[[[[[[[[[[[[[[[[[[[[[[[[[[[[[[[[[[[[[[[[[[[[[[[[[[[[R[Rt^[[[[[v9EH>[[[[[[[",
"[[[[[[[[[[[[[[[[[[[[[[[[[[[[[[[[[[[[[[[[[[[[[[[[[[[[[[[[[[[[fS[[[[[[[[[[[[[[",
"[[[[[[[[[[[[[[[[[[[[[[[[[BB....[[[[[[[[[[[[[[[[[[[[[[[[[[auR[[[[[[[)ZA[[[[[[",
"[[[[[[[[[[[[[[[[[[[[[[[[#......[[[[[[[[[[[[[[[[[[[[[[[[[[[[[[zC[[b<`IU[[[[[[",
"[[[[[[[[[[[[[[[[[[[[[[[[........Q[[[[[[[[[[[[[[[[[[[[[[[[[[[[[[[s<[[[[[[[[[[",
"[[[[[[[[[[[[[[[[[[[[[[[.....@.@.Q[[[[[[[[[[[[[[[[[[[[[[[[[[[[[pj[[[[[[[[[[[[",
"[[[[[[[[[[[[[[[[[[[[[[[.....X.X.Q[[[[[[[[[[[[[[[[[[[[[[[$$P[[[[[[[[[[[[[[[[[",
"[[[[[[[[[[[[[[[[[[[[[[[.........Q[[[[[[[[[[[[[[[[[[[[[[[[[[[[[[[[[[[[[[[[[[[",
"[[[[[[[[[[[[[[[[[[[[[[[.........Q[[[[[[[[[[[[[[[[[[[[[[,[[[[[[[[[[[[[[[[[[[[",
"[[[[[[[[[[[[[[[[[[[[[.............N[[[[[[[[[[[[[[[[[[[[[[[[[[[[[[[[[[[[[[[[[",
"[[[[[[[[[[[[[[[[[[(................l[[[[[[[[[[[[[[[[[[[[[[[[[[[[[[[[[[[[[[[[",
"[[[[[[[[[[[[[[[[Ww..................i[[[[[[[[k[h[[[[[[[[[[[[[[[[[[[[[[[[[[[[",
"[[[[[[[[[[[[[[[x....................i[[[[[F%[[[[[[[[[[[[[[[[[[[[[[[[[[[[[[[[",
"[[[[[[[[[[[[[[g....................l[[[[[[[[[[[[[[[[[[[[[[[[[[[[[[[[[[[[[[[[",
"[[[[[[[[[[[[[[g..................:G[MS[[[[[[[[[[[[[[[[[[[[[[[[[[[[[[[[[[[[[[",
"[[[[[[[[[[[[[[g.................Q[-c[[[[[[[[[[[[[[[[[[[[[[[[[[[[[[[[[[[[[[[[",
"[[[[[[[[[[[[[[g...............[[%F[[[[[[[[[[[[[[[[[[[[[[[[[[[[[[[[[[[[[[[[[[",
"[[[[[[[[[[[[[[g.............O88[y![[[[[[[I06[[[e[[[[[[[[[[[[[[[[[[[[[[[[[[[[",
"[[[[[[[[[[[[[[[x..........[[[[[[[[[[[[[[[[[[[[[[[[[.[[[[[[[[[[[[[[[[[[[[[[[[",
"[[[[[[[[[[[[[[[x..........o[[[[[[[[[[[[[[[[[[*[[[[[[[[[[[[[[[[[[[[[[[[[[[[[[",
"[[[[[[[[[[[[[[[x.........[[[[[[[y5K[[[Dm[K5y[[ee[[[[[[[[[[[[[[[[[[[[[[[[[[[[",
"[[[[[[[[[[[[[[[x.........[ [[[[[[[[[[[[[[[J=[[[[[[[[[[[[[[[[[[[[[[[[[[[[[[[[",
"[[[[[[[[[[[[[[[x.........[[[[[[[[[[[[[[[[[[[[.[[[[[[[[[[[[[[[[[[[[[[[[[[[[[[",
"[[[[[[[[[[[[[[[x........1[[2[[q[3T[[[[[[[Yd[[r[[[[[[[[[[[[[[[[[[[[[[[[[[[[[[",
"[[[[[[[[[[[[[[[x.........[[oo[[[=J;n[[[[[[[[[[[[[[[[[[[[[[[[[[[[[[[[[[[[[[[[",
"[[[[[[[[[[[[[[[x.........[[o[[**~[[[[[[[[[[[[[[[[[[[[[[[[[[[[[[[[[[[[[[[[[[[",
"[[[[[[[[[[[[[[[[V........[[o[[.[7E[[[[[[[[[[[[[[[[[[[[[[[[[[[[[[[[[[[[[[[[[[",
"[[[[[[[[[[[[[[[[V........[[[[[.[=J[[[[[[[[[[[[[[[[[[[[[[[[[[[[[[[[[[[[[[[[[[",
"[[[[[[[[[[[[[[[[V.........[[[[[[[[[[[[[[[[[[[[[[[[[[[[[[[[[[[[[[[[[[[[[[[[[[",
"[[[[[[[[[[[[[[[[[K........[ [[[[[[[[[[[[[[[[[[[[[[[[[[[[[[[[[[[[[[[[[[[[[[[[",
"[[[[[[[[[[[[[[[[[K.......[[[[[[[[[[[[[[[[[[[[[[[[[[[[[[[[[[[[[[[[[[[[[[[[[[[",
"[[[[[[[[[[[[[[[[[K.......+[[[[[[[[[[[[[[[[[[[[[[[[[[[[[[[[[[[[[[[[[[[[[[[[[[",
"[[[[[[[[[[[[[[[[[K.......[[[[[[[[[[[[[[[[[[[[[[[[[[[[[[[[[[[[[[[[[[[[[[[[[[[",
"[[[[[[[[[[[[[[[[[[(.....[[[[[[[[[[[[[[[[[[[[[[[[[[[[[[[[[[[[[[[[[[[[[[[[[[[[",
"[[[[[[[[[[[[[[[[[[(.....[[[[[[[[[[[[[[[[[[[[[[[[[[[[[[[[[[[[[[[[[[[[[[[[[[[[",
"[[[[[[[[[[[[[[[[[['B....[[[[[[[[[[[[[[[[[[[[[[[[[[[[[[[[[[[[[[[[[[[[[[[[[[[[",
"[[[[[[[[[[[[[[[[[[[[...[[[[[[[[[[[[[[[[[[[[[[[[[[[[[[[[[[[[[[[[[[[[[[[[[[[[[",
"[[[[[[[[[[[[[[[[[[[[&..[[[[[[[[[[[[[[[[[[[[[[[[[[[[[[[[[[[[[[[[[[[[[[[[[[[[[",
"[[[[[[[[[[[[[[[[[[[[[..[[[[[[[[[[[[[[[[[[[[[[[[[[[[[[[[[[[[[[[[[[[[[[[[[[[[[",
"[[[[[[[[[[[[[[[[[[[[[..[[[[[[[[[[[[[[[[[[[[[[[[[[[[[[[[[[[[[[[[[[[[[[[[[[[[[",
"[[[[[[[[[[[[[[[[[[[[[[.[[[[[[[[[[[[[[[[[[[[[[[[[[[[[[[[[[[[[[[[[[[[[[[[[[[[[",
"[[[[[[[[[[[[[[[[[[[[[[.[[[[[[[[[[[[[[[[[[[[[[[[[[[[[[[[[[[[[[[[[[[[[[[[[[[[[",
"[[[[[[[[[[[[[[[[[[[[[[[[[[[[[[[[[[[[[[[[[[[[[[[[[[[[[[[[[[[[[[[[[[[[[[[[[[[[",
"[[[[[[[[[[[[[[[[[[[[[[[[[[[[[[[[[[[[[[[[[[[[[[[[[[[[[[[[[[[[[[[[[[[[[[[[[[[[",
"[[[[[[[[[[[[[[[[[[[[[[[[[[[[[[[[[[[[[[[[[[[[[[[[[[[[[[[[[[[[[[[[[[[[[[[[[[[[",
"[[[[[[[[[[[[[[[[[[[[[[[[[[[[[[[[[[[[[[[[[[[[[[[[[[[[[[[[[[[[[[[[[[[[[[[[[[[[",
"[[[[[[[[[[[[[[[[[[[[[[[[[[[[[[[[[[[[[[[[[[[[[[[[[[[[[[[[[[[[[[[[[[[[[[[[[[[[",
"[[[[[[[[[[[[[[[[[[[[[[[[[[[[[[[[[[[[[[[[[[[[[[[[[[[[[[[[[[[[[[[[[[[[[[[[[[[[",
"[[[[[[[[[[[[[[[[[[[[[[[[[[[[[[[[[[[[[[[[[[[[[[[[[[[[[[[[[[[[[[[[[[[[[[[[[[[[",
"[[[[[[[[[[[[[[[[[[[[[[[[[[[[[[[[[[[[[[[[[[[[[[[[[[[[[[[[[[[[[[[[[[[[[[[[[[[[",
"[[[[[[[[[[[[[[[[[[[[[[[[[[[[[[[[[[[[[[[[[[[[[[[[[[[[[[[[[[[[[[[[[[[[[[[[[[[[",
"[[[[[[[[[[[[[[[[[[[[[[[[[[[[[[[[[[[[[[[[[[[[[[[[[[[[[[[[[[[[[[[[[[[[[[[[[[[[",
"[[[[[[[[[[[[[[[[[[[[[[[[[[[[[[[[[[[[[[[[[[[[[[[[[[[[[[[[[[[[[[[[[[[[[[[[[[[[",
"[[[[[[[[[[[[[[[[[[[[[[[[[[[[[[[[[[[[[[[[[[[[[[[[[[[[[[[[[[[[[[[[[[[[[[[[[[[[",
"[[[[[[[[[[[[[[[[[[[[[[[[[[[[[[[[[[[[[[[[[[[[[[[[[[[[[[[[[[[[[[[[[[[[[[[[[[[[",
"[[[[[[[[[[[[[[[[[[[[[[[[[[[[[[[[[[[[[[[[[[[[[[[[[[[[[[[[[[[[[[[[[[[[[[[[[[[[",
"[[[[[[[[[[[[[[[[[[[[[[[[[[[[[[[[[[[[[[[[[[[[[[[[[[[[[[[[[[[[[[[[[[[[[[[[[[[["
};
