/* XPM */
static char *_a75ca93775a478ecf3847ea4fa8b1f94Ws46blPiNmAfO1v[] = {
/* columns rows colors chars-per-pixel */
"76 76 173 2 ",
"   c #ff010101",
".  c #0A0502",
"X  c #ff070807",
"o  c #ff0E0803",
"O  c #070808",
"+  c #ff080909",
"@  c #120A04",
"#  c #1A0E06",
"$  c #120D0B",
"%  c #1D0F08",
"&  c #ff0E100F",
"*  c #13100E",
"=  c #1B120B",
"-  c #0F1110",
";  c #131413",
":  c #1A1613",
">  c #171918",
",  c #1C1E1D",
"<  c #240A0A",
"1  c #24140A",
"2  c #28150B",
"3  c #241809",
"4  c #2D190C",
"5  c #331C0D",
"6  c #3A1D0F",
"7  c #261C15",
"8  c #2A1911",
"9  c #211E1C",
"0  c #331E12",
"q  c #3A1F12",
"w  c #1D201F",
"e  c #36200E",
"r  c #3A210F",
"t  c #22211E",
"y  c #2E271F",
"u  c #372315",
"i  c #3D2312",
"p  c #34261C",
"a  c #1D2020",
"s  c #232524",
"d  c #2D2723",
"f  c #252926",
"g  c #2B2925",
"h  c #262A28",
"j  c #2B2D2B",
"k  c #322B24",
"l  c #2D312E",
"z  c #35322A",
"x  c #2F3330",
"c  c #313533",
"v  c #353937",
"b  c #363A38",
"n  c #3A3E3B",
"m  c #432514",
"M  c #492615",
"N  c #452914",
"B  c #4C2B16",
"V  c #4C2D18",
"C  c #512F17",
"Z  c #532D1C",
"A  c #592E1E",
"S  c #4E341C",
"D  c #533117",
"F  c #593717",
"G  c #5B3817",
"H  c #54311A",
"J  c #5C351C",
"K  c #5D3819",
"L  c #623B1C",
"P  c #473224",
"I  c #463A2D",
"U  c #4A3C2E",
"Y  c #5D3C26",
"T  c #453B31",
"R  c #4C3F30",
"E  c #653521",
"W  c #6B3724",
"Q  c #613821",
"!  c #733C26",
"~  c #3D413E",
"^  c #5F412D",
"/  c #4C4035",
"(  c #4D473F",
")  c #574A3C",
"_  c #6C4222",
"`  c #754524",
"'  c #794125",
"]  c #764823",
"[  c #7B4A27",
"{  c #744529",
"}  c #7D4329",
"|  c #7E4B29",
" . c #3E4340",
".. c #424643",
"X. c #454946",
"o. c #464C49",
"O. c #494E4A",
"+. c #574D42",
"@. c #4D524E",
"#. c #51514C",
"$. c #4F5451",
"%. c #515652",
"&. c #555A55",
"*. c #5A5D56",
"=. c #575C58",
"-. c #5A5E59",
";. c #735B42",
":. c #5E6057",
">. c #5E625C",
",. c #62655E",
"<. c #66685E",
"1. c #626661",
"2. c #666A63",
"3. c #696D64",
"4. c #6A6F69",
"5. c #6D7067",
"6. c #6E726A",
"7. c #72766C",
"8. c #75796E",
"9. c #797A6E",
"0. c #727770",
"q. c #767A71",
"w. c #7A7D73",
"e. c #884F27",
"r. c #83452B",
"t. c #844C2B",
"y. c #8C4D2D",
"u. c #855125",
"i. c #895327",
"p. c #87512C",
"a. c #8B542A",
"s. c #8D592D",
"d. c #93542D",
"f. c #935A2D",
"g. c #995E2E",
"h. c #8E5D36",
"j. c #985631",
"k. c #955C31",
"l. c #9C5B33",
"z. c #A25F36",
"x. c #9C622F",
"c. c #9B6232",
"v. c #A36136",
"b. c #A66936",
"n. c #A56238",
"m. c #AB6539",
"M. c #AE693B",
"N. c #B0663B",
"B. c #B36C3D",
"V. c #B86E3F",
"C. c #B6703E",
"Z. c #BA713F",
"A. c #B77140",
"S. c #BC7340",
"D. c #C17642",
"F. c #C47E42",
"G. c #7E8176",
"H. c #7E8279",
"J. c #808277",
"K. c #81847B",
"L. c #85897E",
"P. c #C68344",
"I. c #C98244",
"U. c #CC8947",
"Y. c #CE8C48",
"T. c #D18D49",
"R. c #838680",
"E. c #868A82",
"W. c #898E84",
"Q. c #8B9086",
"!. c #8D9289",
"~. c #90958C",
"^. c #959A91",
/* pixels */
"+ + O + + + + + + + + + + + + + O O + + + + + + O + + + + + + + + + + + + + O + + + + + + + + + O + + O + + + + + + + + + + + + + + + + + + + + O + + + ",
"+ + + + + O O + + O O + + O O + O O O + O + + + + + + O + + + + + + O + + + + + X + + + + + + + + + + + + O + O O + O + + O O + + + + O + + + + + + O + ",
"+ + + + + + + + + O + + + + + + O O O O + + + + + O + + + + + + + O + + + + + + + + + + + + + O + + + + + + + + + + O + + O + + + O + O O + + + + O + + ",
"O + + O + + O + + + + + + O + + & O O O + + + O + + + + + + + + + + + + + + + O + + + + X + + + O + + O + + O + + + + + + + + + + + + + + + + O + + + + ",
"+ + O + + + O + + + O + + + + + O O O O O O O O + + + + O + + + + + + + O + + + + + + + + + + + + + + O + + O + + + O + + + + + + O + + + + + + + + + + ",
"+ + + + O + + + O + + + O + + O O O O & O & O O O + + + + + + + b ~ ~ ~  . .~ ~ ~ ~ ~ b + + + + + + + + + + + + O + + + + O O + + + + + + O + + O + + + ",
"O + + + + + + + + + + + + + + + O & O O O O O O + + + + + + - @.Q.!.!.!.Q.Q.Q.!.Q.!.!.H.@.- + + O + + + O + + + & O + + + + + + + + + + + + O + + + + + ",
"+ + O + + + O + + + O + + + O + O O O & O O & O + + O + + O v H.E.H.H.H.H.H.H.G.q.0.0.0.0. .+ + + + + O + + O + O O O + + O + + O + + + + O + + + + + O ",
"+ + + + + + + O O + + + + O + + O & X O O O O O O + + + O O c H.q.G.G.H.H.H.H.H.4.2.4.4.>.v + + + + O + + + O + O O + + + + + + + + + O + + + + + + X + ",
"+ O + + O + + + + + + O + + + + O O O O & O O O + + + O O O c 3.q.G.G.q.0.H.H.0.4.1.2.6.@.- + + + + + + O + + + + O + O O + O + O + + + + + + + + + + + ",
"+ + O + + + + + + + + + + + + O X O O X O O O O + + + + O + & @.8.G.q.9.H.H.J.w.6.2.2.2. .+ + + O + O + & X + + + O + + O + + + + + O + + + + O + + + + ",
"O + + + + + + + + O + + O + + + X & O X O O O & + + + + + O & o.8.8.8.G.H.R.h.q.0.6.0.2. .a + O + + O O O X O + + + + + + + + + + + + + O + + + + + + + ",
"+ + + O + + + O + + + O + + + + X O + & + + + + + O O + h  .~  .5.6.G.G.8.q.J.q.0.0.7.2.O.%. .h & O O O X X O + + + O O + + O + + + O + + X + + + + + + ",
"+ + + + + O + + + + + + + + + O + ~ $.a & O + + ; > c 2.H.H.4. .>.6.0.7.3.6.w.w.w.w.q.>.&.!.W.R.3.$.h ; & X & a >.v - O + + + + + + + + + + + + + X + + ",
"+ + + + + + O + O + + + + O + - ~ 6.H.4.l + O h >.3.H.H.G.0.6.o.@.6.8.6.6.8.0.8.q.w.0.=.2.W.0.0.H.R.q.>.h & x 7.Q.G.o.> + + + + + + + + + + + + + X + + ",
"+ + O + + + + + + + + + O O w >.G.H.H.G.1. .~ G.E.H.0.G.6.4.0.&.o.8.K.G.w.K.H.w.w.w.w.%.q.H.0.6.4.6.H.H.&.O.G.W.L.L.H.%.w + + O X + + + + + + + + + + + ",
"+ + O + + + + O + + + O O w >.H.G.8.7.G.3.6.=.H.H.G.q.H.H.q.0.1.O.q.w.J.J.w.G.w.q.7.6.&.H.q.q.8.6.6.6.3.@.9.Q.L.L.L.J.G.&.w + + + + + + + + + + + + + + ",
"+ O + + + + + + + O O & a >.H.0.G.0.7.7.G.6.2.$.6.K.H.q.0.0.6.2.O.,.3.6.q.7.7.7.6.3.,.&.R.6.8.q.6.G.7.@.,.L.L.L.L.L.G.G.8.:.> + + O + O + + + + O + + + ",
"+ + O + + + + + + + O & h :.G.0.5.7.G.G.G.G.H.1.%.8.q.q.8.+.T k y k g g f s f f f f w w c ~ q.8.6.G.:.>.L.K.L.K.K.K.L.L.G.>.w X + + O + + + + O X + + + ",
"+ + + + + + O + + O O O & w $.6.G.7.7.0.4.6.G.G.-.&.2.+.P u 4 4 4 1 @   .                 X ; j =.>.&.H.L.K.J.H.J.9.K.G.&.s + + + + + + O + + + + + + + ",
"+ + + + + + + + + O + + O + h $.3.G.G.5.G.G.G.G.,.R V i N i r 4 5 2 o .                         X w >.L.K.J.J.K.L.H.0.*.l + + + + + O + + O + + + + + + ",
"+ + + + O + + + + + + + O > :.3.%.2.6.G.2.G.G. .R Q Q H D N r 4 4 2 . . .                           w *.6.7.q.H.H.<.&.5.:.w + + + + + + + + + + + + + + ",
"+ + + + O + O + + + + O ; o.L.H.2.&.5.G.5.3. ./ { t.{ F S m i 5 5 3 X .                               + ~ :.5.6.*.&.G.K.8.X.; + + + + + + + + O + + + + ",
"+ + + + + + + + O + + ; O.H.H.8.H.>.@.,.:.( ^ | k.k.[ K H m i 5 e 2 . .                                 X c o.O.>.L.J.G.J.8.@.; O + + + O + + + + + + X ",
"+ + + + + + + + + + + h 3.G.8.7.G.G.&.~ / _ { n.v.c.| Y H M m 5 5 3 . .                                     s %.L.G.K.L.K.G.5.j + + + + + + + + + O + + ",
"+ + + + + + O + + + - %.G.9.G.G.H.H.3./ { b.p.b.n.n.t.J F M N e 5 2 @ o .                                     f 2.w.G.K.K.G.8.&.; X + + + + + O + + + + ",
"+ + + + + O + O + & ~ o.3.7.7.G.G.8.( ] v.P.s.B.M.n.p.L Y C B e 5 2 @ .                                         s 8.G.G.9.8.5.O.~ & + + + + + + + + + O ",
"+ + + + + + + + + - 2.2.&.>.<.7.G.3.^ c.M.U.x.C.M.n.| K K V N 5 5 2 @ . .                                       & O.7.8.<.>.&.:.&.- + O + + + + + + + + ",
"+ O O + + + + + O x 7.G.7.q.7.2.2.;.h.M.C.U.x.Z.A.l.| L K V N 5 5 2 @ .                                           > :.:.6.0.8.7.<.l X X + O + + O + + + ",
"+ + + + + + + + + 1.9.7.8.8.G.7.( h.C.C.C.Y.b.Z.B.l.| Q J V i 5 5 2 @ .                                           X h 3.G.7.8.7.7.@.& X + + + + + + + O ",
"+ + O + O + + O + >.7.8.7.7.7.5.) c.C.Z.Z.T.b.D.A.v.` J H M i 4 4 < @ .                                             j 5.7.7.7.8.8.>.& + + + O + + + + + ",
"+ + + + + + + + O >.8.7.6.7.7.<.) c.Z.Z.Z.T.x.Z.B.z.{ F C M m 5 4 1 @ .                                             w <.5.7.5.7.q.<.+ + O + + + + O + + ",
"+ + O + O O + + h >.7.8.7.8.3.( P c.S.A.M.U.f.C.C.n.t.J H N m u 5 3 . . .                                           X v 3.8.7.8.0.3.l & O + + + + + O + ",
"O + + + + > , a X.:.&.:.&.&.@.I F c.A.n.m.U.s.B.B.n.p.Q F V N i p d 9 = @                                             s O.%.&.#.$.=.o.a a a > + + + + + ",
"+ + + + a &.3.w.Q.Q.!.~.~.!.7./ G c.M.n.M.P.x.C.C.m.t.L Y B N u y g , = o                                             , 1.W.Q.L.R.~.!.R.G.6.&.w + + + + ",
"+ + O O a >.q.0.G.5.<.3.7.G.:./ L c.A.M.B.Y.c.S.S.n.| L K B i 8 9 g s 9 $                                             , -.q.w.w.H.E.0.0.0.6.@.w + + + O ",
"O + + O a 6.H.0.G.G.0.5.5.7.:./ L b.C.C.Z.Y.x.S.B.v.| L K V i 8 , g g t $                                             a 4.w.w.w.R.R.H.H.9.7.@.a O + + + ",
"+ + + + a 6.R.0.q.H.W.H.8.5.<./ L c.C.C.Z.T.x.S.M.l.[ Q F M i 7 s , ; : @                                             , 6.q.0.q.R.!.H.0.w.6.@.a + + O + ",
"+ + + + a 2.w.q.w.G.G.G.G.7.:./ _ c.C.A.Z.T.v.Z.B.l.` F H N i d 9 ; ; : o                                             , 0.H.q.w.w.h.w.q.q.7.@.a + + + + ",
"+ + + O a >.8.8.w.q.w.w.G.8.:./ L c.S.S.Z.Y.x.B.m.l.` H B M u g , : > $ o                                             a 0.R.w.w.w.w.w.8.8.2.O.a + O + + ",
"O + + + a =.6.2.4.2.2.2.6.0.>./ L c.Z.D.S.Y.x.B.m.f.` D B M 1 s 9 9 : $ @                                             , 4.H.8.4.3.7.7.2.2.>.o.a + + O + ",
"+ + + O a %.1.>.1.1.1.1.2.2.&.I G c.Z.F.S.Y.g.M.m.j.] C B m 2 , a > = < o                                             w -.6.2.2.1.1.>.-.-.%.X.a + + + + ",
"+ + + + w .. . . . .@. . . .o./ L c.C.S.Z.I.a.N.N.v.| C M i 2 : ; = 1 3 @                                             , ..o.o.O.o.o.X. . . .~ a O + + + ",
"+ O + + + + + + c 4.W.^.^.H.2./ G c.C.F.Z.F.i.B.B.v.' B M i 4 = 1 4 8 % .                                             , -.K.!.^.R.2.b + + + + + + + O + ",
"+ + O + + + + + c G.E.Q.L.w.<.U F l.Z.D.D.U.i.B.M.v.` C M i 4 4 0 8 2 # o                                             a 7.E.q.8.6.,.v + + + + O + + + + ",
"O + + + + + O + x 4.H.Q.K.9.2.I F c.V.D.Z.I.i.N.B.n.] M M i e i 0 4 2 % .                                             , q.K.q.q.0.3.v + O + + + O + + O ",
"+ + + + + + + + c 1.H.H.J.h.2.U F c.Z.D.Z.F.i.N.B.v.] D B i r i 5 2 % $ o                                             , q.H.q.q.7.3.b + + + + + + + + + ",
"+ + O + + O + + x 1.4.H.R.E.<.I F c.V.S.S.Y.f.B.B.v.[ H B M r 5 5 2 @ .                                               , 4.q.4.3.6.2.b + + + + O + + O + ",
"+ + + + + + + + x 1.7.G.G.7.:./ G c.V.D.S.Y.x.D.Z.M.u.F H M m 4 4 1 @ .                                               , 2.q.2.1.1.>.b + + + + + + + + + ",
"O + + O O + + + c 3.6.6.5.<.*./ K c.Z.D.D.F.a.Z.B.v.` C B N i 5 4 1 @ .                                               w >.6.6.>.>.>.v + + + + + + O + + ",
"+ + + + + + + + c >.2.2.:.*.@.U K c.Z.D.Z.F.a.B.m.g.` H B M m 5 5 < @ .                                               , =.4.3.>.>.>.v + + + + + + O O + ",
"+ O + + ; h h h b  .X.X.X.~ ~ U F c.Z.S.Z.U.a.B.z.f.` B B M r 5 5 1 @ .                                               , X.o.o.O.o.X.~ h l j l > + + + + ",
"+ + + O a =.G.R.~.~.~.!.W.W.6.I F c.B.Z.Z.Y.g.m.z.d.] C B m m 5 5 1 o .                                               a 1.E.W.W.L.L.G.G.G.4.%.a + + + + ",
"+ O + + a >.G.G.8.8.G.G.G.7.>./ L c.Z.Z.V.I.f.z.d.y.` C M i M 6 5 < o                                                 , 0.q.4.6.5.7.8.G.H.6.@.a + O + O ",
"+ + O + w 1.H.q.G.G.G.G.G.8.:.I L g.V.D.V.F.e.z.d.r.L B M i m 6 4 < .                                                 , 4.0.1.2.7.G.L.H.G.4.@.a + O + + ",
"+ + + + w 2.q.0.G.G.G.9.7.5.:./ G x.B.V.B.I.i.j.y.t.! C M q i 5 4 2 .                                                 a 0.w.3.3.8.H.W.H.G.4.$.a + + + + ",
"+ O + + w 6.L.8.H.J.J.8.7.5.>./ F c.B.m.N.I.i.d.y.r.L M m 6 5 5 4 #                                                   , q.E.8.8.W.R.H.0.H.4.$.a + + O + ",
"+ + + + w 4.K.8.G.G.G.8.5.5.:.I F c.M.g.m.D.` y.r.} L m i 6 5 5 %                                                     w 7.R.J.J.h.J.H.0.0.6.%.a + + + + ",
"+ + O + w 1.K.q.G.G.J.9.5.5.:./ L g.v.d.l.B.L r.W ! L m q 6 5 @                                                       , 4.H.J.w.q.w.R.w.6.4.@.a + O + + ",
"O + + O a :.q.0.9.7.5.2.2.<.$.I G x.g.i.j.B.K } W L A m m 4 @                                                         , -.q.w.w.0.0.w.0.4.=. .a + + + O ",
"+ + + O a @.:.>.>.%.%.&.&.&.@.I F k.k.e.d.z.A ! W E J M 0 .                 X X O . O O   O   O X   X X . O   O   X   , ..@.%.%.&.&.&.$. . .~ a + O + + ",
"+ + + + - a a a n &.4.q.6.5.*.I F g.j.t.r.j.C ! L W A 4 .       . + + + X + + + + + + + + + + O O X O O + O + + + + + s @.3.0.q.0.-.~ a a > > - + + + + ",
"+ + + + O + + + x 2.6.G.G.G.2.I F k.d.} ! d.C ! W E q . O O O + O + + + $ + + + + + + O + + O O O O X X O O X X O + O s 2.H.q.q.0.4.b + + + + + + + + O ",
"+ O + + + + + + c 1.6.8.q.q.<.I G c.y.r.! y.M W E 8 X X + + + $ + + + O O + O + O . O O O O O . X X O     O . X O O + s q.K.q.0.0.1.b + + + + O + + + + ",
"+ + + O + + + O c 3.8.G.6.8.<./ F s.u.` ! r.M A 8 + + $ + + + + O O O O O O O O O O . O O O O O O O O O O O O O + + + s 0.H.q.q.q.2.b + + + + + O + + + ",
"+ O + + + + + + c 6.G.0.6.6.<.I F i.t.! ! r.Z : $ + + + + + O + O O O O O O O O O O O O O O   O O O O O O O O O + + + h 4.q.0.0.q.4.b + + + + + + + + + ",
"+ + O + + + + + x 6.G.0.6.G.>./ F s.| ! r.E * + + + O + + O O O O O O O O O O + + O O   O O O O   O O + + + O O + + - s 2.0.0.q.q.H.n - + + + + + + + + ",
"+ + + + + + O + x 3.0.6.4.2.:.z F s.| W Z * + + + + + + + + O O O O O + O O + O + + + + + O + + O O + + + + + + & + + s >.6.q.w.h.R.b - + + + + + + O + ",
"+ + + O + + + + c 1.4.1.1.>.&.I F s.[ 0 $ + + $ + + + + + $ + O + + + + + + & - & & & $ + & & & & + & & & + & + & - - h -.0.q.w.R.0.b + + + + + + + + + ",
"O + + + + O + + c &.&.:.:.&.X.l 3 8 : $ + $ + & + $ - & & $ & + + + & & ; ; ; > , ; ; ; > > ; ; > ; ; ; ; ; ; ; ; ; ; s o.=.=.=.=.=.v + + + + + + + O + ",
"+ + + + + + O + a h a h a a a a + ; + ; < < + + + & & + + + + & & & & - ; ; - ; ; ; ; ; ; & & & & + & + & $ & $ & + - a s s s h j l h + + + + + + O + + ",
"+ + + + O + + + + O & + + & O + + + + + + + + + + + + + + O + + + + + + + + + + O + O + O O O O + + O O O + O + + + + + + + + + + O + + + + + + + + + O ",
"+ + + + + O + + + + + + + O + + O + + + + + + + + + + + + + + + O + + O + + + O O + + + + + + + + + + + + + + + + O + + + + + + + + O + + + + + + O + + ",
"+ O + + + + + + O + + + + + + + + + + O + + O + + + + + + + + + + + + + + + + + + + + O + + O + + + + + + + O + + + + + + + O + + + + + + + O + + + + + ",
"O + O + + + + + O + O + + + + + + + + + + + + + + + + + + + + + + + + + O + + + + + + + + + + + + + + + + + + + + + + + O + + + + + + + + O + + + + + + ",
"+ + + + O + + + + + + + O + + + + + + + + O O + + + + + + + O + O + + O + + O + + + + + + O O + + + + + + + + + + + + O + + + O + + + O + + + O + + + O "
};
