/* XPM */
static char *_cd779cbc45f4c2af2ae9921c02344514q4TdMNfpJmS1Szc[] = {
/* columns rows colors chars-per-pixel */
"61 66 248 2 ",
"   c #ff743E00",
".  c #743E00",
"X  c #7E3F00",
"o  c #844700",
"O  c #864A01",
"+  c #905301",
"@  c #945000",
"#  c #955100",
"$  c #985C09",
"%  c #995E0A",
"&  c #AA5200",
"*  c #AD5300",
"=  c #AA5400",
"-  c #AA5500",
";  c #AB5500",
":  c #AB5600",
">  c #A85702",
",  c #AF5600",
"<  c #AF5A01",
"1  c #AD5D01",
"2  c #AE5C01",
"3  c #AE5E01",
"4  c #AF5F01",
"5  c #AD5D03",
"6  c #AE5C02",
"7  c #AE5D02",
"8  c #AF5C03",
"9  c #AE5D03",
"0  c #AD5E02",
"q  c #AF5E02",
"w  c #AE5D07",
"e  c #B15A00",
"r  c #B25A00",
"t  c #B45B01",
"y  c #B15C00",
"u  c #B35E01",
"i  c #B15D02",
"p  c #B05C03",
"a  c #B25E03",
"s  c #B75F00",
"d  c #B05F04",
"f  c #B55E06",
"g  c #BC5B00",
"h  c #BD5F00",
"j  c #B06000",
"k  c #B06200",
"l  c #B76001",
"z  c #B96401",
"x  c #BB6902",
"c  c #BE7E07",
"v  c #B37B1C",
"b  c #C16000",
"n  c #C26401",
"m  c #C96701",
"M  c #CF6D05",
"N  c #C96C0A",
"B  c #D26E05",
"V  c #DC6D00",
"C  c #DD6F00",
"Z  c #CB700E",
"A  c #D57505",
"S  c #D57706",
"D  c #D97506",
"F  c #DC7705",
"G  c #D2760D",
"H  c #CB771A",
"J  c #CC7719",
"K  c #D87A13",
"L  c #D07919",
"P  c #D37D1A",
"I  c #D27D1B",
"U  c #E67600",
"Y  c #E67701",
"T  c #E67A02",
"R  c #E27906",
"E  c #E17A07",
"W  c #E67A05",
"Q  c #E77B07",
"!  c #E77D05",
"~  c #E87900",
"^  c #E97A00",
"/  c #E87A01",
"(  c #E97A01",
")  c #E87B01",
"_  c #E97B01",
"`  c #E97A02",
"'  c #E87B02",
"]  c #E97C01",
"[  c #EB7D00",
"{  c #EB7E00",
"}  c #E87C02",
"|  c #E97C03",
" . c #EA7C02",
".. c #EA7C03",
"X. c #EA7E02",
"o. c #E97C04",
"O. c #EA7C04",
"+. c #EA7C05",
"@. c #E97D06",
"#. c #EC7E05",
"$. c #E57C08",
"%. c #E37F13",
"&. c #D6951E",
"*. c #E7800A",
"=. c #EA810B",
"-. c #E9820E",
";. c #EA840F",
":. c #F08A07",
">. c #F49405",
",. c #E48113",
"<. c #EA8410",
"1. c #F69E1D",
"2. c #F59F1E",
"3. c #FFA506",
"4. c #FCA706",
"5. c #FFA607",
"6. c #FDAF05",
"7. c #FEAE05",
"8. c #FDAE06",
"9. c #FDAF07",
"0. c #FBA208",
"q. c #FBA209",
"w. c #FEA608",
"e. c #FFA70B",
"r. c #FDA809",
"t. c #FFA808",
"y. c #FFA809",
"u. c #FFA909",
"i. c #FEAB09",
"p. c #FFAB09",
"a. c #FEA80A",
"s. c #FFA90A",
"d. c #FEA80B",
"f. c #FFA80B",
"g. c #FEA90B",
"h. c #FFA90B",
"j. c #FEAB0A",
"k. c #FFAB0A",
"l. c #FEAC0B",
"z. c #FEAF0A",
"x. c #FFAF0A",
"c. c #FDA90C",
"v. c #FEA90C",
"b. c #FFAA0C",
"n. c #FEAE0E",
"m. c #FEB404",
"M. c #FEB508",
"N. c #FEB50B",
"B. c #FEB70C",
"V. c #FEB70D",
"C. c #FDBA0D",
"Z. c #F0A312",
"A. c #F2AA14",
"S. c #F7AB14",
"D. c #FFA911",
"F. c #FEAD10",
"G. c #FEAD11",
"H. c #FEAD12",
"J. c #FEAD13",
"K. c #FDAE12",
"L. c #FEAE13",
"P. c #FDAE14",
"I. c #FDB410",
"U. c #FEB915",
"Y. c #FEB61A",
"T. c #FEB31C",
"R. c #FEB41C",
"E. c #FEB51C",
"W. c #FEB41D",
"Q. c #FCBE1E",
"!. c #DD8322",
"~. c #DF8422",
"^. c #CB902C",
"/. c #CD932E",
"(. c #D49625",
"). c #F8A827",
"_. c #F8AB26",
"`. c #F9AC28",
"'. c #FCB920",
"]. c #FEBB21",
"[. c #FEBC21",
"{. c #FDB926",
"}. c #FEB827",
"|. c #FDBB26",
" X c #FDBC25",
".X c #FEBC26",
"XX c #FCB52B",
"oX c #FDB62F",
"OX c #FDB829",
"+X c #FEB82B",
"@X c #FEB92B",
"#X c #FDBA2B",
"$X c #FEBD29",
"%X c #FDB82D",
"&X c #FEB92D",
"*X c #FEBE2D",
"=X c #FDB838",
"-X c #FDB938",
";X c #FEC10D",
":X c #FFC00F",
">X c #FEC40D",
",X c #FFC010",
"<X c #FEC711",
"1X c #FEC31C",
"2X c #FCDD12",
"3X c #FEDE15",
"4X c #FFDE15",
"5X c #FEDF15",
"6X c #FDDD16",
"7X c #FEDD16",
"8X c #FFDD17",
"9X c #FDDE16",
"0X c #FCDF16",
"qX c #FEDE16",
"wX c #FEDE17",
"eX c #FFDE17",
"rX c #FEDC18",
"tX c #FFDD18",
"yX c #FCDE18",
"uX c #FEDE18",
"iX c #FFDE18",
"pX c #FEDE19",
"aX c #FCDD1A",
"sX c #FEDE1A",
"dX c #FEDF1A",
"fX c #FFDF1A",
"gX c #FCE016",
"hX c #FDE017",
"jX c #FDE118",
"kX c #FEC122",
"lX c #FBB940",
"zX c #FEBF48",
"xX c #FDC554",
"cX c #FDC853",
"vX c #FECA54",
"bX c #FEE256",
"nX c #FFE059",
"mX c #FDE87B",
"MX c #FFEAA4",
"NX c #FDEAA6",
"BX c #FEEBA6",
"VX c #FEE9A8",
"CX c #FDEBA8",
"ZX c #FEEAA8",
"AX c #FFEAA8",
"SX c #FFEAA9",
"DX c #FFEAAA",
"FX c #FFEBAA",
/* pixels */
"                                                                                                                          ",
"                                                                                                                          ",
"                                                                                                                          ",
"                                                                                                                          ",
"                                                                                                                          ",
"                                                                                                                          ",
"                                                                                                                          ",
"                                                                                                                          ",
"                                                                                                                          ",
"                                                  ) ) ) ) ) ) ) ) ) ) ) U U C C                                           ",
"                                              -.=.| | | | | | | | | ) ` } @.A M ~.~.                                      ",
"                                      ) ) <.;.| | | | | | | | | | | | @.} } < 8 %.,.R R                                   ",
"                                      | | #.#.#.#.#.#.#.#.#.#.#.#.#.#.#.#.a 8 *.Q | } F G                                 ",
"                                  | #.| >.s.s.s.s.s.s.s.s.s.s.s.s.s.s.s.s.8 Q | | | *.8 P P                               ",
"                                  :.| | >.s.s.s.s.s.s.s.s.s.s.s.s.s.s.s.s.W @.| | | 8 8 | K L                             ",
"                              1.1.s.s.s.cXDXDXDXDXeXeXeXeXeXeXeXeXeXeXeXeXs.s.s.s.8 8 | | D H J                           ",
"                              _.e.s.e.s.xXDXBXDXBXeXeXeXeXeXeXeXeXeXeXeXiXc.s.s.s.8 @.} S 8 0 Z N                         ",
"                          `._.lXMXBX2XaXgXgXgXeXgXeXeXeXeXeXeXeXeXeXeXeXiXaXyXyXyXl.s.s.8 8 } } z h                       ",
"                          -X-Xs.DXDX7XeXeXeXeXeXeXeXeXeXeXiXeXeXeXeXeXeXeXeXeXeXeXe.s.s.0 } } 8 r t                       ",
"                          zXs.s.BXDX7XeXeXeXeXeXeXeXeXgX) ) 8 eXeXeXeXeXeXeXeXeXeXt.s.t.} } 8 0 < a                       ",
"                        oXxXBXDXeXeXeXeXeXeXeXeXeXeXeXl.s.e.8 eXeXeXeXeXeXeXeXeXeXeXeXeXs.s.8 8 8 l                       ",
"                      P.H.XXDXDXeXgX2XeXeXeXeX) @.` @.0.s.s.W @.` @.) aXeXeXeXeXeXeXeXiXs.s.8 8 8 n b                     ",
"                      H.s.C.iXiXeXeXNXDXbXeXeXs.s.s.s.s.s.s.s.s.s.s.; iXiXeXeXeXeXeXeXyXs.s.8 0 } m g                     ",
"                      }.s.C.eXeXeXeXDXDXnX| ) s.s.s.s.s.s.s.s.s.s.c.; @.} S eXeXeXeXiXiXs.s.k | @.8 <                     ",
"                    &XvXBXmXeXeXeXeXeXeX:Xs.s.8 eXeXeXM.s.e.9 eXiXeX4.e.s.8 eXeXeXeXeXeXeXeXt.s.0 8 ;                     ",
"                    +XDXDXmXeXeXeXeXeXeX,Xs.t.8 eXeXeXl.s.e.9 iXeXeX4.s.s.a eXeXeXeXeXeXeXeXs.s.0 8 ;                     ",
"                    s.DXDXmXeXeXeXeXeXeX:Xs.t.8 eXeXeXl.s.e.8 eXeXeX4.e.4.eXeXeXeXeXeXeXeXeXs.s.0 0 ;                     ",
"                  &Xs.DXDXmXeXeXeXeXeXeX:Xs.s.8 eXeXeXM.s.s.8 iXeXeXeXeXeXeXeXeXeXeXeXeXeXeXs.s.0 8 ;                     ",
"                  +Xs.DXDXmXeXeXeXeXeXeX,Xs.s.8 eXeXeXM.e.e.9 iXeXeXeXeXeXeXeXeXeXeXeXeXeXeXs.s.0 8 >                     ",
"                  V.s.iXeXeXeXeXeXeXeXeX,Xs.s.8 eXeXeXl.s.e.9 iXeXeXeXeXeXeXeXeXeXeXeXeXeXeXs.s.0 0 ;                     ",
"                    s.iXeXeXeXeXeXeXeXeX,Xs.s.< ` ` @.q.s.e.t ` ` @.@.iXeXeXeXeXeXeXeXeXeXeXs.s.0 8 ;                     ",
"                    s.iXeXeXeXeXeXeXeXeXeXeXeXs.s.s.s.s.s.s.s.s.s.s.> iXeXeXeXeXeXeXeXeXeXeXs.l.0 8 ;                     ",
"                    s.iXeXeXeXeXeXeXeXeXiXiXeXs.s.s.s.e.s.s.s.s.s.s.; jXiXeXeXeXeXeXeXeXeXeXs.s.8 0 ;                     ",
"                    s.iXeXeXeXeXeXeXeXeXiXiX2Xr.r.r.r.e.s.s.s.r.r.s.f T T 8 eXeXeXeXeXeXeXeXs.s.0 8 ;                     ",
"                    s.iXeXeXeXeXeXeXeXeXeXeXeXeXeXeXeXM.s.s.8 eXeXeX4.s.s.8 eXeXeXeXeXeXeXeXs.s.0 8 ;                     ",
"                    s.eXeXeXeXeXeXeXeXeXeXeXeXeXeXeXeXl.s.e.0 eXeXeX4.e.s.0 eXeXeXeXeXeXeXeXs.s.0 a &                     ",
"                    s.iXeXeXeXeXeXeXeXeXeXeXeXeXeXeXeXl.s.e.0 eXeXeX4.s.s.8 eXeXeXeXeXeXeXeXs.s.0 k *                     ",
"                    s.iXeXeXeXeXeXeXeXeXeX0 0 9 eXeXiXM.s.e.8 eXeXeX4.s.s.0 eXeXeXeXeXeXeXeXs.s.8 z l                     ",
"                    m.iXeXeXeXeXeXeXeXeX:Xs.D.8 eXeXeXl.s.s.8 eXeXeX4.s.t.8 eXeXeXeXeXeXeXeXs.s.8 x                       ",
"                    m.iXeXeXeXeXeXeXeXeX,Xs.s.8 2XeXeXl.s.s.8 eX7XeX4.s.s.0 eXeXeXeXeXeXeXeXs.s.0 k                       ",
"                    M.>XiXeXeXeXeXeXeXeX:Xs.s.} ) ) | q.s.s.| } T ) s.e.s.iXiXeXeXeXeXeXeXeXc.c.# #                       ",
"                      M.s.C.eXeXeXeXeXeXeXeXeXs.s.s.s.s.s.s.s.s.s.s.> iXeXeXiXeXeXeXiXiXs.s.. + X                         ",
"                      l.s.C.eXeXeXeXeXeXeXeXeXs.s.s.s.s.s.s.s.s.s.s.> gXeXeXeXeXeXeXeXyXs.s.. O o                         ",
"                      m.8.C.eXeXeXeXeXeXeXeXeXeXeXeXeXl.s.e.8 eXeXeXeXeXeXeXeXBXDXeXiXiXs.s.$ $                           ",
"                        Y.1XeXgXeXeXeXeXeXeXeXeXeXeXeXM.s.s.c eXeXeXeXeXeXeXiXNXBXeXeXiXs.&.v                             ",
"                          *Xs.s.eXeXeXiXeXeXeXeXeXeXeXeXeXeXeXeXeXeXeXeXeXeXiXiXeXe.s.s./.^.                              ",
"                          +X+Xs.eXeXiXiXeXeXeXeXeXeXeXeXeXeXeXeXeXeXeXeXeXiXiXiXeXs.s.Z.(.                                ",
"                            +XkXaXjXiXjXiXeXeXeXeXeXeXeXeXeXeXeXeXeXeXeXeXiXjXiXyXQ.S.A.                                  ",
"                              .X.XU.s.s.<XiXeXeXeXeXeXeXeXeXeXeXeXeXeXeXiXs.s.s.'.'.                                      ",
"                                  E.E.'.[.iXeXeXeXeXeXeXeXeXeXeXeXeXeXeXeXs.E.E.                                          ",
"                                      }..XC.V.s.s.s.s.s.s.s.s.s.s.s.s.s..X$X                                              ",
"                                          8.8.s.s.H.n.H.H.H.H.H.H.n.n.n.                                                  ",
"                                                                                                                          ",
"                                                                                                                          ",
"                                                                                                                          ",
"                                                                                                                          ",
"                                                                                                                          ",
"                                                                                                                          ",
"                                                                                                                          ",
"                                                                                                                          ",
"                                                                                                                          ",
"                                                                                                                          ",
"                                                                                                                          ",
"                                                                                                                          ",
"                                                                                                                          ",
"                                                                                                                          "
};
