/* XPM */
static char *_13888d6b05c4f7fc846e3be46d146ddLS6pkmYYTgMDnJKu[] = {
/* columns rows colors chars-per-pixel */
"76 76 33 1 ",
"  c #170E0E",
". c #1F1717",
"X c #2C1B0D",
"o c #322A0C",
"O c #492D0B",
"+ c #413A3A",
"@ c #57510A",
"# c #684109",
"$ c #6B6666",
"% c #797474",
"& c #C57B02",
"* c #CC7F02",
"= c #827465",
"- c #949006",
"; c #CD8002",
": c #D28302",
"> c #DA8801",
", c #FF9F00",
"< c #FFA207",
"1 c #FFE400",
"2 c #FFFC00",
"3 c yellow",
"4 c #FFFF07",
"5 c #8C8888",
"6 c #949090",
"7 c #9A9797",
"8 c #B1AEAE",
"9 c #C8C7C7",
"0 c #D3D2D2",
"q c #E1E0E0",
"w c #ECECEC",
"e c #FFFCF8",
"r c white",
/* pixels */
"wwwwwwwwwwwwwwwwwwwwwwwwwwwwwwwwwwwwwwwwwwwwwwwwwwwwwwwwwwwwwwwwwwwwwwwwwwww",
"wwwwwwwwwwwwwwwwwwwwwwwwwwwwwwwwwwwwwwwwwwwwwwwwwwwwwwwwwwwwwwwwwwwwwwwwwwww",
"wwwwwwwwwwwwwwwwwwwwwwwwwwwwwwwwwwwwwwwwwwwwwwwwwwwwwwwwwwwwwwwwwwwwwwwwwwww",
"wwwwwwwwwwwwwwwwwwwwwwwwwwwwwwwwwwwwwwwwwwwwwwwwwwwwwwwwwwwwwwwwwwwwwwwwwwww",
"wwwwwwwwwwwwwwwwwwwwwwwwwwwwwwwwwwwwwwwwwwwwwwwwwwwwwwwwwwwwwwwwwwwwwwwwwwww",
"wwwwwwwwwwwwwwwwwwwwwwwwwwwwwwwwwwwwwwwwwwwwwwwwwwwwwwwwwwwwwwwwwwwwwwwwwwww",
"wwwwwwwwwwwwwwwwwwwwwwwwwww777777777777777777777wwwwwwwwwwwwwwwwwwwwwwwwwwww",
"wwwwwwwwwwwwwwwwwwwwwwwwwww                     wwwwwwwwwwwwwwwwwwwwwwwwwwww",
"wwwwwwwwwwwwwwwwwwwwwwwwwww                     wwwwwwwwwwwwwwwwwwwwwwwwwwww",
"wwwwwwwwwwwwwwwwwwwwwwwwwww                     wwwwwwwwwwwwwwwwwwwwwwwwwwww",
"wwwwwwwwwwwwwwwwwwwwww%%%%%66666666666-----66666%%%%%wwwwwwwwwwwwwwwwwwwwwww",
"wwwwwwwwwwwwwwwwwwwwww     rrrrrrrrrrr33333rrrrr     wwwwwwwwwwwwwwwwwwwwwww",
"wwwwwwwwwwwwwwwwwwwwww     rrrrrrrrrrr33333rrrrr     wwwwwwwwwwwwwwwwwwwwwww",
"wwwwwwwwwwwwwwwwwwwwww     rrrrrrrrrrr33333rrrrr     wwwwwwwwwwwwwwwwwwwwwww",
"wwwwwwwwwwwwwwwwwwwwww     rrrrrrrrrrr33333rrrrr     wwwwwwwwwwwwwwwwwwwwwww",
"wwwwwwwwwwwwwwwww     rrrrrrrrrr<,,,,,rrrrr,,,,,*****     5wwwwwwwwwwwwwwwww",
"wwwwwwwwwwwwwwwww     rrrrrrrrrr<,,,,,rrrrr,,,,,*****     5wwwwwwwwwwwwwwwww",
"wwwwwwwwwwwwwwwww     rrrrrrrrrr<,,,,,rrrrr,,,,,*****     5wwwwwwwwwwwwwwwww",
"wwwwwwwwwwwwwwwww     rrrrrrrrrr<,,,,,rrrrr,,,,,*****     5wwwwwwwwwwwwwwwww",
"wwwwwwwwwwwwwwwww     rrrrr,,,,,errrrr,,,,,,,,,,*****     5wwwwwwwwwwwwwwwww",
"wwwwwwwwwwwwwwwww     rrrrr,,,,,errrrr,,,,,,,,,,*****     5wwwwwwwwwwwwwwwww",
"wwwwwwwwwwwwwwwww     rrrrr,,,,,errrrr,,,,,,,,,,*****     5wwwwwwwwwwwwwwwww",
"wwwwwwwwwwwwwwwww     rrrrr,,,,,errrrr,,,,,,,,,,*****     5wwwwwwwwwwwwwwwww",
"wwwwwwwwwwww     rrrrr,,,,,rrrrr43333333333,,,,,,,,,,*****#    $wwwwwwwwwwww",
"wwwwwwwwwwww     rrrrr,,,,,rrrrr43333333333,,,,,,,,,,*****#    $wwwwwwwwwwww",
"wwwwwwwwwwww     rrrrr,,,,,rrrrr43333333333,,,,,,,,,,*****#    $wwwwwwwwwwww",
"wwwwwwwwwwww     rrrrr,,,,,rrrrr43333333333,,,,,,,,,,*****#    $wwwwwwwwwwww",
"wwwwwwwwwwww     33333rrrrr,,,,,333333*****,,,,,,,,,,*****#    $wwwwwwwwwwww",
"wwwwwwwwwwww     33333rrrrr,,,,,333333*****,,,,,,,,,,*****#    $wwwwwwwwwwww",
"wwwwwwwwwwww     33333rrrrr,,,,,233333*****,,,,,,,,,,*****#    $wwwwwwwwwwww",
"wwwwwwwwwwww     33333rrrrr,,,,,233333*****,,,,,,,,,,*****#    $wwwwwwwwwwww",
"wwwwwwwwwwww     rrrrr,,,,,33333333333*****,,,,,,,,,,*****#    $wwwwwwwwwwww",
"wwwwwwwwwwww     rrrrr,,,,,33333333333*****,,,,,,,,,,*****#    $wwwwwwwwwwww",
"wwwwwwwwwwww     rrrrr,,,,,33333333333*****,,,,,,,,,,*****#    $wwwwwwwwwwww",
"wwwwwwwwwwww     rrrrr,,,,,33333333333*****,,,,,,,,,,*****#    $wwwwwwwwwwww",
"wwwwwwwwwwww     33333,,,,,,,,,,233333*****,,,,,,,,,,*****#    $wwwwwwwwwwww",
"wwwwwwwwwwww     33333,,,,,,,,,,233333*****,,,,,,,,,,*****#    $wwwwwwwwwwww",
"wwwwwwwwwwww     33333,,,,,,,,,,233333*****,,,,,,,,,,*****#    $wwwwwwwwwwww",
"wwwwwwwwwwww     33333,,,,,,,,,,233333*****,,,,,,,,,,*****#    $wwwwwwwwwwww",
"wwwwwwwwwwww     33333,,,,,,,,,,233333*****,,,,,,,,,,*****#    $wwwwwwwwwwww",
"wwwwwwwwwwww     33333,,,,,,,,,,233333*****,,,,,,,,,,*****#    $wwwwwwwwwwww",
"wwwwwwwwwwww     33333,,,,,,,,,,233333*****,,,,,,,,,,*****#    $wwwwwwwwwwww",
"wwwwwwwwwwww     33333,,,,,,,,,,233333*****,,,,,,,,,,*****#    $wwwwwwwwwwww",
"wwwwwwwwwwww     33333,,,,,,,,,,233333*****,,,,,,,,,,*****#    $wwwwwwwwwwww",
"wwwwwwwwwwww     33333,,,,,,,,,,233333*****,,,,,,,,,,*****#    $wwwwwwwwwwww",
"wwwwwwwwwwww     33333,,,,,,,,,,233333*****,,,,,,,,,,*****#    $wwwwwwwwwwww",
"wwwwwwwwwwww     33333,,,,,,,,,,233333*****,,,,,,,,,,*****#    $wwwwwwwwwwww",
"wwwwwwwwwwww     33333,,,,,,,,,,233333*****,,,,,,,,,,*****#    $wwwwwwwwwwww",
"wwwwwwwwwwww     33333,,,,,,,,,,233333*****,,,,,,,,,,*****#    $wwwwwwwwwwww",
"wwwwwwwwwwww     33333,,,,,,,,,,233333*****,,,,,,,,,,*****#    $wwwwwwwwwwww",
"wwwwwwwwwwww     33333,,,,,,,,,,233333*****,,,,,,,,,,*****#    $wwwwwwwwwwww",
"wwwwwwwwwwww     33333,,,,,,,,,,***********,,,,,,,,,,*****#    $wwwwwwwwwwww",
"wwwwwwwwwwww     33333,,,,,,,,,,***********,,,,,,,,,,*****#    $wwwwwwwwwwww",
"wwwwwwwwwwww     33333,,,,,,,,,,***********,,,,,,,,,,*****#    $wwwwwwwwwwww",
"wwwwwwwwwwww     33333,,,,,,,,,,***********,,,,,,,,,,*****#    $wwwwwwwwwwww",
"wwwwwwwwwwww     33333,,,,,,,,,,,,,,,,,,,,,,,,,,,,,,,*****#    $wwwwwwwwwwww",
"wwwwwwwwwwww     33333,,,,,,,,,,,,,,,,,,,,,,,,,,,,,,,*****#    $wwwwwwwwwwww",
"wwwwwwwwwwww     33333,,,,,,,,,,,,,,,,,,,,,,,,,,,,,,,*****#    $wwwwwwwwwwww",
"wwwwwwwwwwww     33333,,,,,,,,,,,,,,,,,,,,,,,,,,,,,,,*****#    $wwwwwwwwwwww",
"wwwwwwwwwwww88888@@@@@11111,,,,,,,,,,,,,,,,,,,,,>>>>>OOOOO=88889wwwwwwwwwwww",
"wwwwwwwwwwwwwwwww     33333,,,,,,,,,,,,,,,,,,,,,*****     5wwwwwwwwwwwwwwwww",
"wwwwwwwwwwwwwwwww     33333,,,,,,,,,,,,,,,,,,,,,*****     5wwwwwwwwwwwwwwwww",
"wwwwwwwwwwwwwwwww     33333,,,,,,,,,,,,,,,,,,,,,*****     5wwwwwwwwwwwwwwwww",
"wwwwwwwwwwwwwwwww00000ooooo:::::::::::::::::::::XXXXX00000qwwwwwwwwwwwwwwwww",
"wwwwwwwwwwwwwwwwwwwwww     *********************     wwwwwwwwwwwwwwwwwwwwwww",
"wwwwwwwwwwwwwwwwwwwwww     *********************     wwwwwwwwwwwwwwwwwwwwwww",
"wwwwwwwwwwwwwwwwwwwwww     *********************     wwwwwwwwwwwwwwwwwwwwwww",
"wwwwwwwwwwwwwwwwwwwwww.....&&&&&&&&&&&&&&&&&&&&&.....wwwwwwwwwwwwwwwwwwwwwww",
"wwwwwwwwwwwwwwwwwwwwwwwwwww                     wwwwwwwwwwwwwwwwwwwwwwwwwwww",
"wwwwwwwwwwwwwwwwwwwwwwwwwww                     wwwwwwwwwwwwwwwwwwwwwwwwwwww",
"wwwwwwwwwwwwwwwwwwwwwwwwwww                     wwwwwwwwwwwwwwwwwwwwwwwwwwww",
"wwwwwwwwwwwwwwwwwwwwwwwwwww+++++++++++++++++++++wwwwwwwwwwwwwwwwwwwwwwwwwwww",
"wwwwwwwwwwwwwwwwwwwwwwwwwwwwwwwwwwwwwwwwwwwwwwwwwwwwwwwwwwwwwwwwwwwwwwwwwwww",
"wwwwwwwwwwwwwwwwwwwwwwwwwwwwwwwwwwwwwwwwwwwwwwwwwwwwwwwwwwwwwwwwwwwwwwwwwwww",
"wwwwwwwwwwwwwwwwwwwwwwwwwwwwwwwwwwwwwwwwwwwwwwwwwwwwwwwwwwwwwwwwwwwwwwwwwwww",
"wwwwwwwwwwwwwwwwwwwwwwwwwwwwwwwwwwwwwwwwwwwwwwwwwwwwwwwwwwwwwwwwwwwwwwwwwwww"
};
