/* XPM */
static char *bfd6a4b18b2b4058b3539225a8347fefSCs29LAu0LXjWBjL[] = {
/* columns rows colors chars-per-pixel */
"75 75 190 2 ",
"   c None",
".  c #043F15",
"X  c #093D17",
"o  c #103C1B",
"O  c #1A3921",
"+  c #024314",
"@  c #014B16",
"#  c #084519",
"$  c #064D19",
"%  c #0B4F1B",
"&  c #10471E",
"*  c #124E1F",
"=  c #005217",
"-  c #005518",
";  c #0D501C",
":  c #045B1B",
">  c #0B591D",
",  c #00611B",
"<  c #006A1E",
"1  c #1A4D26",
"2  c #095E20",
"3  c #125322",
"4  c #105C24",
"5  c #185E24",
"6  c #1A5629",
"7  c #1B5D2B",
"8  c #25522C",
"9  c #255D2F",
"0  c #295934",
"q  c #315432",
"w  c #0C6422",
"e  c #076820",
"r  c #0B6D23",
"t  c #126325",
"y  c #146825",
"u  c #166429",
"i  c #1A612C",
"p  c #106C28",
"a  c #1A6B2F",
"s  c #017522",
"d  c #087726",
"f  c #037B24",
"g  c #0B7A27",
"h  c #097E29",
"j  c #10722A",
"k  c #1D762F",
"l  c #137C2E",
"z  c #1A7431",
"x  c #157E31",
"c  c #197A33",
"v  c #216D2C",
"b  c #27712F",
"n  c #21792F",
"m  c #256732",
"M  c #296D3A",
"N  c #286432",
"B  c #3A6C3A",
"V  c #247B32",
"C  c #2E7934",
"Z  c #287737",
"A  c #317037",
"S  c #37713A",
"D  c #3E753D",
"F  c #357B3B",
"G  c #008325",
"H  c #008A27",
"J  c #0D862B",
"K  c #068D2A",
"L  c #0C8A2C",
"P  c #14882E",
"I  c #00952A",
"U  c #0B922D",
"Y  c #029C2D",
"T  c #168532",
"R  c #1C8334",
"E  c #128931",
"W  c #188A31",
"Q  c #1C8438",
"!  c #0E9631",
"~  c #0B9D33",
"^  c #109233",
"/  c #139934",
"(  c #1A9139",
")  c #169E39",
"_  c #1D9C3B",
"`  c #238333",
"'  c #228935",
"]  c #278B39",
"[  c #31853C",
"{  c #378E3D",
"}  c #3B893E",
"|  c #279138",
" . c #2E943C",
".. c #259C3B",
"X. c #219337",
"o. c #00A12D",
"O. c #05A332",
"+. c #0DA133",
"@. c #03AC32",
"#. c #0AAC35",
"$. c #0FA438",
"%. c #10A137",
"&. c #14A937",
"*. c #11A539",
"=. c #10AB3A",
"-. c #02B635",
";. c #01BD36",
":. c #09B238",
">. c #05B938",
",. c #0ABD3B",
"<. c #14B83C",
"1. c #18B83E",
"2. c #26A23D",
"3. c #23AB3F",
"4. c #00C036",
"5. c #06C43A",
"6. c #0CC53C",
"7. c #01CC3A",
"8. c #0BC83D",
"9. c #02D53D",
"0. c #00DE3F",
"q. c #00E03F",
"w. c #1C9F40",
"e. c #3B8C42",
"r. c #359F42",
"t. c #3B9A44",
"y. c #1DB641",
"u. c #13BE42",
"i. c #26AD40",
"p. c #2CA742",
"a. c #37A343",
"s. c #3AA145",
"d. c #37AB46",
"f. c #39AA47",
"g. c #3CA348",
"h. c #26B342",
"j. c #21BB42",
"k. c #2BB748",
"l. c #37B549",
"z. c #37BE4B",
"x. c #3ABA4C",
"c. c #448443",
"v. c #429344",
"b. c #439C46",
"n. c #459C48",
"m. c #499D4A",
"M. c #489448",
"N. c #42A047",
"B. c #43A449",
"V. c #4EA34D",
"C. c #44AE4C",
"Z. c #48AA4D",
"A. c #42B24C",
"S. c #09CD40",
"D. c #14C840",
"F. c #0BD341",
"G. c #06DE41",
"H. c #0CDD43",
"J. c #10D244",
"K. c #14D845",
"L. c #17DF49",
"P. c #25C346",
"I. c #21C946",
"U. c #27C648",
"Y. c #24C848",
"T. c #2EC94B",
"R. c #2BC048",
"E. c #27D04A",
"W. c #21D84A",
"Q. c #03E342",
"!. c #0AE345",
"~. c #02EB43",
"^. c #0BEB47",
"/. c #0DEF49",
"(. c #16E349",
"). c #18E24A",
"_. c #14E849",
"`. c #00F545",
"'. c #00F445",
"]. c #01F646",
"[. c #01F345",
"{. c #01F947",
"}. c #00FA47",
"|. c #07F748",
" X c #07F748",
".X c #0BF249",
"XX c #0BF149",
"oX c #00FF48",
"OX c #02FC48",
"+X c #00FF48",
/* pixels */
"{.~.[.A.A.A./.R.!.{.Q.`.A.A.A..X0.i , *./ @.b ; Y / 7.1 Y a :.G v.: 9.@.: 7.0 I n r /.E.a Y b V.H l } ).T.z.A.A.(.(.P.`.V.A.r r C : < s @ % Y ^.Q.E.A.",
"~.l G ~.,.0.C b @.~.l G ~.6.G.` &.G - o.1 f P @.Y <.I s G H 1 , 1.+.} ! o.I , v Y W./.E.7.j v V.| | | E.T.|.$.Q.R v.I q.W._.E.T.x.[.W.q.;.P.o.F [ E..X",
"].-.= [.R :.; b = `.-.= [.Q :.% m.9.0.-.s { o.l.z T.M.0.Q.H g ` ;.x.T./.a H { b.Y ^.OXOXl.B.m.).).T./.oXoXoX~ ( = v.o.z 7.0././.E.A.w 7.a ~.G f W Z.C.",
"M.> : H @ % < |.G.v.> , H @ % < Y./.7 s v.b.I 6 d.|.A.Q.l = V.] @.u E./.:.& v.b.E ~.7 @.~.Q.`.a.v.G #.a [.o.@ $ @ `.|.7.1 Y a :.G v.= j Y /.A.A.d.~.{.",
"T.Y.=.7.l n.H ( B T.E.&.7.k n.I E./.-.2 v.m.| | .._.A.`.+.@ V.t.| ..x.T.G : { E.E.[.>.> q.x *.= v., & I <.7.e t.J :.r.K s G H 1 , 1.o.o.n U.,.{.G x Q.",
".XE.>.1 b V.G h J /.E.>.1 v V.L Z.C.- @ v././..XU P.V.s.- + C././.L.T./.0.@.J ,.^ l.- @ G = $ + ^.0.0.b.Y.v ; V.J H ] v.0.q.H g ` ;.N.=.A.!.;.{.f h < ",
").T.>.I b C.A.A.b.).T.-.I b C.C.E.`.G.-.f ~ P {.s S _.[.~.H H x #./.E.7.7 s s 6 -.l.A.~.[.f  .J ,.S G.A.[.-.; Z.A.A.W.A.Q.l = V.| @.8 U.C.G.I > t A.A.",
"Z.E.#.I j 9.&.[.I Z.E.#.I l 9._ E.7.l w s w o.o.< t..X-.l @ f h o.+.x.K s . @.4.4.`.A.,.l ; V.J U k U.Z.<.Y e <.&.Q.+XA.`.~ $ V.t.| | h.E.E.[.A.b 6.{.",
"A.~.a -.< 6 #.q.I A.~.a -., 6 &.Z.w = + 7.~.q.a.a.T.A.- @ + ~.~.q.s./.a.0.0.{..XA..XA.0.@.; V.n.b.b.(./.*.>.= y ~ 7.W.V.a.- + C.^./.!.@.a q.2.P #.S Q.",
"A.8.@.O < I I s % A.8.@.o < I @.|.z.M.B.6.7.~.A.* ( /.m.v.v.,.7.{.a.* _ oX*.~ ;.~.C.A.' , ; I.Q.`.;.O.a +XQ.`.E.A.A.Z./.[.~.H G l :.q.j ,.|.Z.P *.F .X",
"Y.2.b b <.+XW._.E.T.} b Y 7.oXoXT..Xl J ~.*.q.` v.v T.I.Y < ..,.9.~.h l oX0.E : ,.n.{.,.9.< h l 7.;.w Y 9.^ g 4.&.Q.P./.-.l @ h g o.I @.=.q.K.E.E.E.E.",
"7.!..X.XY.A.w 7.a OX/./.A.W.z 7.G.OX;.s 0.~ ( = v.b /.>.! : s x ;.~.f H x.` - @ f v.`.-.7 $ f H G = { b.P.7.Y o.>.M h.C.= @ + ~.[.q.v.I.>.1 @.k 7.L v.",
"1 Y a :.G v.= j Y Q.x ;.; E.7.1 o.A.; : H $ $ $ [.T.).@.9.Q.`.W.A.A.T..XA.Z./.Q.-.a.s.; ; r `.`..Xn.J.[.E.i , f - @ ~ [.m.B.V.7.,._.2.+.;.I I -.0 s a.",
"s G H 1 : j.Y o.n P.w d : E.K s G I.A.9.9.< t.J :.a.Y.b <.! l ;.&.0.&.M.oXE./.x , y.U.| | ..h.9.|./ 5 k.6.Z.^.,.s  .| -.B y.A.|.E.C.|.h.C o.@.s < u 7.",
"q.q.H g ` ;.g.=.C.H.s { G h.v.Q.q.+XA.9.7 * V.J H H d.V.E.7.Y o.>.M G v.oXE./.;.d v.V.b.n.f.T./.a H { b.;.A.~.l 7./.~.l.M.Z.)..XW.^.+X^.C.q.^ : n.| -.",
"Q.l = V.| @.8 U.C.F.b V.H 0.A.G.l !.A.8.@.% Z.A.A.B.^.Q.E.5 : f - @ = 0.V.Z.A., - { [.Q.{.I E./.#.% v.n.,.A.!.@.[.7 @.~.Q.`.a.M.G :.a +XA.`.P + V. .J ",
"`.~ @ V.t.| | 3.E.j.b V.| 6.A.`.+.n.E.<.o., 1.&.Q.4.h ^ _.Z.~.,.s  .| -.V.E.Q.*.Y f l ~ `.L x./.G.4.N.V.V.T.E.Y [.-.> q.x *.= v., & I _.Z.P.G @ Z.Y.E.",
"a.- + C././.!.#.a q.b )._.E.V.a.- v.`.Q.oX~.D.M.C.I.Q.l.oXA.[.l + V.| H V.E.7.~ # s f H < > T.oXa 7.^./.T./.>.^ l.= @ H = $ + ^.0.0.v.Z.(.^.q.G U ^ >.",
"[.~.H G l #.~.t o.7.f O.i h./.[.~.A.!.9.a #.G.Q.`.P.V.= H.C.!.@.= V.A.A.A.A.t % ; 9.[.{.C.v.E.oX#.% 0.7 2.).@.j t.A.~.[.f  .L ,.S !.A.Y..X@.l = s l ;.",
"-.l $ f J o.I j | v : t o.2./.>.l P.P.<.7.j Y ^ W G v.$ | T.P.o.< ..,.9.`.#.I.Z.R.W K R...r x.E.f : @.d ' E.b b ^.A.,.l % V.J I k U.Z.x.T.G w . 4.4.;.",
"= @ + ~.q.q.b.P./.9.I ~.~.I.A.= @ : oXT.w = < , # @ 9.0.R./.-.^ , d l ;.~.f ~.A.q.#.; V.b.f./.C.a.0.Q.s ( ~ 1.D Q.A.q.:.* V.n.b.b.(././.^.v.v.v.7.7.`.",
"{.~.`.A.A.A./.P.!.[.~.z.A.T./.a.`.Q.`.j.V.{.~.H W | -.c.D ).@.j + I I I ; ` V.A.' , > D.Q.{.;.~.A.$.~ ; V.J O.A m.A.' : > I.Q.`.4.O.a +X+X~.g n.H 3.q ",
"~.l h ~.,.q.C b @.l ,.=.q.&.n.= ~ x oXoXA.~.x @ V.| I u h.Y.b b b q.[.+XT.E.C.T._.oX..7.&.Q.;.~.A.q.E ; V. .| | m.{.,.9.< h l 7.4.t o.;.*.q.v V.G h ' ",
"`.-.= [.Q :.; b = + @.>.M G v.+ @ = .XZ.(.^.P.G..X^.~.G.C.A.C./.C.`.{.+X7.G..X.XE.A.w 7.a q.= a.V.` : ; T././.,.n.`.-.7 @ f G G = 9.q.~.s.C.m.).H.P.~.",
"_.V.V.A.+XA.+X+X+X/.Z.> @ $ 0.^.~.A.z.].a.v.G #.a $.~ ;.[.[.!.m.; ;.x Q.1 o.a >.~.[.^.A.A.x./.s.[.~.+XA.A.(.L.P.`.Q.#.; r [.`./.m.^.7 @.`.Q.`.a.M.G #.",
"Q.E.E.T.E.` 0.,.~./.E.f  .| -.B y.A.^.$.- v., # I Q.E , >.R @.b ; s : ~.s f H i 5.l I S.0.8.} ; -.l ~.&.q.` v.G P ^ T.V.W.0.@.,.` q.-.> G.x $.- v., # ",
"s =.;.-.C ; :.l [.C.C.; V.| H d w.V.r.$ + ^.0.G.v.` = @ s # = U Q.0.j.C.q.Q.H H q.@.: 9.M @.v ; = $ q./ ( = v.@ # s [.Z.Q.^ : b.| d.- @ G = $ + ^.0.0.",
": 7.0 I n r , > J.[.[., V.A.A.C.U.Q.~. .J ,.B G.A.E..XQ.-.J b.o.t.m T..XQ.x - V.C : < s @ % o./.Q.Y.C.@ = @ [.^.{.V.W.T.[.R ; V.2.d.A.[.`.f  .J ,.B !.",
"o.I , v o.W.=.E.T.l ,.f 2.>.9.~.h l _.V.L I k U.Z.z./.x 2 v.b.I t ..x.T.`.~ @ Z.x./.*.Y W b.o.F [ E..Xe t.J :.B !.A.8.9.q.E.E.E.E.|.A.,.l ; V.J I k U.",
"a H { b.o.9 g.E./.s s @ f l ;.~.f H r V.n.n.b.(./.T./.;.s v.V.n.b.f./..Xa.- + A.E./.~ & M.n.G d W Z.A.; V.J H g f.A.0.7 s &.>.>.C .XA.q.#.% V.n.n.b.(.",
":.w a.f.J L W W.!.`.W.A.A.E..Xa.[.{.oXoXT.V.V.(.oXoXoXoXW.V.V.T.oXx. X+X+X{.H I T.(.@.f v.A.A.A.d.Q.OX* C.A.A.B.!.!.7.@.- 7.0 Y k V.C.' , > I.Q.`.4.O.",
"I 8.9.G.Y.E.E._.^ l ;.#.q.&.m.= ~ ~.~.,.G.T.E.E.W.oXoX*.0.W.Y.E.E.R.&.q.=.~.@.,.x.E.Y f ' 9.,.{.G x ~.e <.=.q.;.l R { U @.I : v Y C.{.,.9.< h l 7.;.4 ",
"q.9.7 s =.>.-.O.7.Y o.>.M G v.+ @ G.[.l = Q.! 7.r oXoX~ ; q.a 7.w v.G u >.+X+XN Y.0.a H f 7 ;.[.f h < = y ~ 7.;.d Y T..Xa H e.b.o.B.+X~.[.9.v.B.x.[.d.",
"v 9.@.: 7.0 Y b 5 , f - @ $ 9.^.~.A.!.@.= G.c Y % V.(.@.s 9.! c = a., , y |.oX,.T.;.I o G I I > t A.A.@ I I H % s.z.T./.#.% v.b.J f.z.*.~ >.~.[.!.m.% ",
"h.<.n o.@.o.v / Z.~.,.s  .| ;.B y.W.m.P Y @.: b d T.Z.V o.;., y , 0.y.~.Z.E.E.K T.` b b 8.0.[.A.V ,.{.` Q.q..X} Q.*.x.T.G : v.E.E.|.7.q.P , ,.R @.b % ",
"(.A.t 7.^ q.b.;.A.[.l + V.| G d ..|.).Y.z ;.n V.I +X.XA.&.-.> N.P #.B /.A.E.V.a.oX.XJ  .U 6.W.^.G.U.A.V.I.[.z.!.+X&.T./.0.@.J >.! `.J ' = @ f # = U Q.",
"@.b ; Y j [.b.,.C.!.@.= Z.A.A.C.I././.Y.7.1 b V.! /.+XA.q.i ; V.W J J g.A.W.oXA.&.~ ; V.L O.%.a @.9.Q.[.P.m.- -.!.#.T.7.7 s s 6 ;.9.J B./.Q.-.J b.o.t.",
"s P #.o.P R.E.x.T.I.o.< ..,.9.~.h n.T.x.K G <.Y.T.V.T.A.~.j.#.T.E.E.h.9.&.oXoXA.q.L ; V. . .6.7.j Y ^ ( G v.@ 2 M.C z.K s X @.;.4.c ` E./.l : v.b.I w ",
"{ o.l.k E.).,.F /.>.^ : f l ;.~.f n.A./.Q.Q.=.>.9.^./.(.A.t 7.^ !.9.;.6 >.W.A.V.` = ; T././.E.w - < : $ @ F.0.0.^.C./.a.v.v.5.7.Q.A.d E./.;.d v.V.b.b.",
"b.I 6 d.T.).6 3./.Q.`.z.A.A.(.(.P.`.Q.Q.7 ;.Q.i , &.~ @.b ; >.^ `.6.,.E H ` A.oX+X{.s U 7 7.W.V.{.~.H W | -.c.*.+XA.q.i ; V.U I I n.V.Z.A.: - { ~.~.+X",
"N.| | ..E.E.;.D.[.l h ~.*.q.R v.f E ! ~.Q.*.j.h.' [.e.9.<.#.~.,.q.E.E.E.E.2.8.9.8.^ @ d I o.9.A.~.l @ V.] Y *._.+XZ.P.h.O.A..X&.0.W.T.E.~.*.Y f l +. X",
".X_..XU ^ Q.7.Q.+X[.G.{.J.B.v.C.~.s.`.&.>.9..X_.(.A.5 7.! Q.[.l - !.^ 7.5 P.`.[.I.M.v.P.~.a.~..X`.-.= V.N.b.!.^ 7./././.A.` Q.>.`.+X/.Y.7.~ # s f H < ",
">.E ^.l W {.    V.+X=.~ ;.~.[.!.n.% 7.Q.i , =.~ @.v ; Y p [.!.@.= 0.c ~ ; W.a #.9.Q.[.P.m.- -.7 Q., @ d.~.[.`.L + Q.x ;.; b F.;.$.~ #.A.5 ; ; 0.`.{.A.",
"Q.K.T.E.E.E.` q.W.+Xq.P , ,.Q @.b ; K &.G - O.1 s P #.Y E j.m.P o.@.G Y @.+X7.j Y ! W G v.@ 2 s ~.,.s h c -.P.G @ -.t d : <.N.` q.P , [.e.2.} J G H D.",
"1 @.k 7.K v.- E !.A.` = @ s # = I Q.9.m.F.G.@.s { o.x.z E.).).E.k -.o.z 7.P.< = e , # @ F.G.0.r.C.n.F.H.P.`.m.j.Q.9.s { G y._.V.` - @ s # = U Q.Q.j.C.",
"I I -.0 s a., , 9.A.Z./.q.-.J b.o.b.N E./.7 s v.N.o.a z.E.)._.E.7.1 o.7.1 k V.`.~.H W | ~.7 @.[.Q.`.a.v.G #..XT.a I b V.H l !.Z.Z..XQ.-.J b.o.t.m Y..X",
"o.-.s , t 7.Y.S.A.+XE./.E 4.P.U.2.D A._.E.9.~ D.m.D.=.0.L.E.T.x.K s P K s Y A.~.x @ V.| ~.-.2 0.l $.= v., & .XY.7.j b V.| | U.A.E..Xl 2 v.b.H p ..x.T.",
"G.! , n.| -.q Y.A.+XE./.9.=.>.9./..X).A.u 7.^ !..X[.>.1 @.k A..Xq.7.] v.q.[.A.`.-.= V.m.C.= @ H = $ + /.q.0.A.Z.w = b )././.C..XT./.;.s M.N.b.b.f././.",
"[.J + V. .L J ..V.V.Z.A.f q.i , $.~ @.b % Y j [.~ ) -.I I -.A.q.i Y o.A.Q.D A.a., = f.~.x.A.~.`.f  .J ,.B !.A.{.Q.0.f O.i q.A./.Z.A., = { [.~.+XG l Q.",
"P.G @ Z.T.E.U.<.W.V.E.Q.*.&.G - o.1 f E O.Y P R.t 2.C o.@.s B.&.G o Y A.`.h./.9.,.s f l ~.A.,.l ; V.J I k U.A.0.E j : w o.o.N.T.E.Q.$.o.f l ~ `.f h Y ",
"/.Q.G .XoXoXC.N.C./.Y.^.G.~.0.q.@.s { Y x.z E.).~.~.A.Q.E , /.P.v.v.N.V.a.V /.;.l + f G ~.A.q.#.; V.n.n.b.(.V.` = . I ~.~.Q.^.).Z.C.s.~.d.Q.`.+X> b.v.",
"7.~.[.^.A.A.z./.a.`.~.{.~ *.oX7 s v.b.Y 6 f.T.).4.Q.A.`.E + V. .J J  ./.[.U.A.% ; % `.`.A.A.W : > P.Q.`.oXQ.`.W.A.A.E./.a.`.Q.oX~.[.`.~.[.!.A.A.x..Xs.",
"I ,.x I S.9.8.} % -.l ~.& 4.+X9.~ I.m.| | 5.x.T.+X).Z.P.f @ Z.E.Y.U.t./.:.E Y | | | G / Z.+X+X+X>.2.F j.oX[ 0.~.+Xq.*.m.= +.l oX>.Q 9.,.l I 8.9.7.e.; ",
"q.W.v.v.U.[.l.~.Q.9.$ Q.J.N.A.Q.! 7././._.A.` -.,.*./.^.1.v.V.W.oXz.^.OX0.$ + ~.~.~.M.j.C.+X=.>.9./.^.(.A.t 7.^ Q.M f v.+ @ = ~.s # s 0.#.< 9.M @.b ; ",
"#.9.Q.[.P.m.- -.7 +XE.C./.E.`.`.E + G.x 4.; b Y 1 9.a #.9.Q.`.P.V.- -.7 OXQ.`.A.A.A./.P.!.[.~.k : &.~ @.b % Y j [.@ $ 0./.~.A.z.5.U A.` : < < @ % Y ^.",
"j Y ! ( G v.@ 2 4.+X_.E.T.x.G..XD.@.{.! d > <.o.U <.7.d o.^ ( G v.@ : d ~.l G ~.5.q.A b @.l ,.I = o.6 s P #.Y P P. .| -.B y.A.|.E.|.oX(.OX$.o.' n.o.F ",
"= < , # + 9.G.G.{.a 7.^._./.z.s.K 7.z ;.{ G j.m .XZ.w - < : # @ F.0.G.a.l.-.= [.R :.% b = + @.q.q.@.s { o.x.z E.).V.| H d ..V.z.Y..XoX+X+X~ # v.b.G f ",
"{.~.H W | -.c.*.oX#.# 0.i >.- v.s 1 ;.T.V.H J } ).Z.V.{.~.H W | -.c.*.A.Q.- : H @ % < ^.!./.Z./.7 s v.n.Y 6 f.T.).V.A.A.C.I.Q./.b @.~ *..X@.s v.A.A.A.",
"~.x Y Y.D.h.D x.E.G : @.f t @ P.o.o.V x.V.] | | E._.W.!.{ V Z.D.3.*.(.W.T.Y.&.7.l V.H ( B /.Y.+X-.> v.B.] | ..E.E...>.9.~.h l /.b f & 4.W.Y G ' 9.,.+X",
"`.-.[.a 7.^././.A.r.q.~.s R g 8.[ !.C.T.)./././.A.A.A.oXT.)..XoXd 7.^ Q.).E.>.1 b V.G G J C.Z.A.: @ v..X_..XU ^ Q.g l 4.~.f G f Q.G.F.B.8.+X`.~.N.n.A.",
"s., Q.#.% 0.7 >.`.A.$.~ ; V.J O.A ).C.>.O.+X~.[.^.A.A.z..Xs.`.~.`.Y j [..XT.-.Y b C.C.A.N.~.~.`.Q.-.f ~ E `.d h 0.I I I % ` A.d.3.q /.Y.;.Q.l @.{.~.[.",
"9.,.K.G : @.d w ~.A.0.E ; V. .| | U.E.&.t +X,.h I S.9.8.} ; -.l ~.Y P R.#.E.#.I l 9.*.~.I G.S.Q.F | ' $.D..X;.;.V q.q.oXm.R H.[.J ' T.x.` `.~ @ ~.R >.",
";.x M.r.q.~.s ` C.V.` - ; T././.,.;.z [.~.oXq.#.: 9.M @.b ; - $ Q.z |..Xq.W.A.C.P.[.g.{.~.Q.^ 7./././.A.` -.>.&..X!.I.9.$.v V.C.t.b./..X  s.- + H $ = ",
"/.j.(.[.~.>.$ V.V.+X~.[.s I 7 7.;.1 ;.9.4.V.C : < s @ ; Y .XQ.Y.C.f.|.a @.9.Q.[.P.m.- ;.7 `.E + oX~.[.^.A.A.z..Xs.`.~.{.: ` (.^. XO.=.&.  C.T./.~.K f.",
"E.<.9.2.r.F #.x.V.|.+.x @ r I o.G ' ] [ /.E.x./.*.o.' b.o.F [ E./..._.7.j o.^ ( f v.@ > d P.G $ 7.,.l I 8.9.7.e.; -.l ~.0.K.T.E.E.E.` q.=.|.Y.E.E.2.8.",
"Q.^ 7./././.A.V v.a.- + : ~.~.G.v.L./.~ >.oXE./.~ & v.b.G f W C.C.U j.e = < : # @ F.q.q.r.m.1.0.~.0.#., 0.M #.b ; = $ q.1 @.k 7.I v.- P ~ Q.^ 7.5 b @.",
"`.E + +X~.~.{.~.[..XA.A.l.;.-.^.b 1 1.Y I .XT.).@.G a.A.Z.V.A.|.oXl [ V.{.~.H W | ;.c.*.Q.`.W.A.C.C : < f ; % ~  XOXE.A.;.o.-.0 s r.: , ; ^.c ~ ; ' : ",
"P.G @ 7.,.x ~.x G ~.,.q.D.h + -.t s > <.Y Z.E.E.U 2.E.W._.Z.E._.{.W.[.A.~.l $ V.| Y u D.! l ;.=.0.x./.*.0.W.E.E.E.P.&.q.=.0.s , y 7.I.S.A.y., b f K.*.",
"V.j.Q.~.Q.-.[.-.- [.Q :.m.j.q.9.s { G P.m A.=.-.9.^.^.(.A.t 7.^ Q.`.q..X+X~.r.V.m.H.G.I.7.Y Y >.Z E./.~ ; q.a 7.< M.f i >.Q., n.| -.q I.A.q.b N.H E c.",
"/.Y.a &.C : v.> : H @ $ _.E.a Y b V.G J e.A.0.N , &.+.@.b ; U j [.Q.` /.7 #.~.Q.[.a.v.b 5 , f - e T.).@.s 7.~ x = g., , r ) + V. .J J ..A.a.b V.J L J ",
"/.E.7.E z._.T.Y.&.7.l m..XE.7.j b V.| | | E.&.G - o.1 s P #.o.P j.T.r./.-.2 0.x $.= v.P Z.~.,.s  .x.C.n Y ;., y , G.y.~.Z.&.@ Z.E.E.I.<.*.q.b T.E.E...",
"C.Z.w s E..X.XE.-.1 b V.A.Z.w = b )._..X! 6.n.9.q.@.s { o.l.z E.L.L.m.A.= @ H = $ + ^.[.A.[.x + V.E.^.A.=.>.> m.L #.B ^.A.[.G U ^ >.~.t ~ ~.g 4.a Q.I ",
"A.{.Q.[.T.).).T.>.I b A.A.+Xq.q.f O.u 0.U i T./.7 s v.b.Y 6 f.T.).K...A.A.~.[.s  .J ,.R.A.!.@.= V.T.OXA.q.u % V.W L J f.A.3.- d l ;.7.g J $ , 1 -.7.G ",
"A.Q.E R x.Y.Z.E.#.I l 9.A.q.P j , 4 o.o.< &.E..X-.w v.n.| | ..E.E.I.1.+XA.,.l ; V.P I C T.I.o.< ..Y.E.Z.*.G * x.T.E.3.9.&.~ + ;.4.;.b 2.E.h.G ;.4./ b ",
"V.` = * Y.0.A.~.a -., 6 V.` = . I q.~.P.v.(.Z.C.= @ v./././.U ^ Q.~.t Q.A.q.:.; V.n.b.m./.>./ , f ^ C./.!.Q.s #.a 9.4.7 -.I.v.7.7.`.v.3 D.^.3.7.9.E.5 "
};
