/* XPM */
static char *ca6efaf16cf24a1df0c10c5f4e7db5552VU5FkGpgec1A4JL[] = {
/* columns rows colors chars-per-pixel */
"77 77 228 2 ",
"   c None",
".  c #093E17",
"X  c #143C1D",
"o  c #1C3B22",
"O  c #233B27",
"+  c #253C28",
"@  c #014313",
"#  c #014B15",
"$  c #0B441A",
"%  c #064C19",
"&  c #0A4C1A",
"*  c #11431E",
"=  c #005217",
"-  c #025519",
";  c #0C521C",
":  c #015C1A",
">  c #0B5C1E",
",  c #12561F",
"<  c #01631C",
"1  c #006B1E",
"2  c #0A601F",
"3  c #00701F",
"4  c #1A4624",
"5  c #1C4B26",
"6  c #174923",
"7  c #0E5821",
"8  c #145B23",
"9  c #1D542A",
"0  c #1C5C2B",
"q  c #185926",
"w  c #234328",
"e  c #224B2A",
"r  c #2B482D",
"t  c #22542C",
"y  c #285831",
"u  c #325935",
"i  c #304D36",
"p  c #0C6422",
"a  c #076A21",
"s  c #0B6B25",
"d  c #136224",
"f  c #1B6226",
"g  c #126B25",
"h  c #15652A",
"j  c #1C642C",
"k  c #156D2B",
"l  c #1B6B2C",
"z  c #196927",
"x  c #027321",
"c  c #0A7325",
"v  c #017C24",
"b  c #0D7D2A",
"n  c #0A7927",
"m  c #14742D",
"M  c #137B2F",
"N  c #197B2D",
"B  c #19732C",
"V  c #1C6D30",
"C  c #1A7431",
"Z  c #167D31",
"A  c #1A7B33",
"S  c #177730",
"D  c #236C2C",
"F  c #21612F",
"G  c #23732E",
"H  c #2C6938",
"J  c #3A6C3A",
"K  c #346438",
"L  c #2A7531",
"P  c #2D7C35",
"I  c #257835",
"U  c #317C36",
"Y  c #3B743C",
"T  c #347E3A",
"R  c #3E7A3F",
"E  c #417E41",
"W  c #018225",
"Q  c #008A27",
"!  c #068428",
"~  c #0B842A",
"^  c #018D28",
"/  c #0B8C2D",
"(  c #12852D",
")  c #138A2F",
"_  c #1A812F",
"`  c #01932A",
"'  c #0A932E",
"]  c #009C2C",
"[  c #099A2F",
"{  c #0F8C31",
"}  c #138331",
"|  c #1A8333",
" . c #148C33",
".. c #1C8C33",
"X. c #1E863A",
"o. c #0D9432",
"O. c #0C9B33",
"+. c #059E30",
"@. c #139335",
"#. c #1C9435",
"$. c #139A36",
"%. c #1A9A36",
"&. c #139E38",
"*. c #1A9939",
"=. c #248334",
"-. c #238E36",
";. c #2D8D3B",
":. c #288438",
">. c #35833A",
",. c #39863D",
"<. c #348C3C",
"1. c #3B893E",
"2. c #318037",
"3. c #229237",
"4. c #269238",
"5. c #2C933B",
"6. c #239B3B",
"7. c #2D9B3E",
"8. c #33953E",
"9. c #00A42E",
"0. c #00A82F",
"q. c #05A431",
"w. c #0AA434",
"e. c #02AC32",
"r. c #0AAB36",
"t. c #0DAC39",
"y. c #0FA638",
"u. c #14A336",
"i. c #11A339",
"p. c #11AB3A",
"a. c #19A83A",
"s. c #02B334",
"d. c #01BC36",
"f. c #0DB43A",
"g. c #06BC39",
"h. c #0CBC3C",
"j. c #08B337",
"k. c #13B23A",
"l. c #14BA3D",
"z. c #1BB63E",
"x. c #24A33C",
"c. c #27A63F",
"v. c #20B33F",
"b. c #00C237",
"n. c #02C539",
"m. c #0AC33D",
"M. c #01CB3A",
"N. c #09CB3F",
"B. c #11C53E",
"V. c #01D43C",
"C. c #09D23F",
"Z. c #00DB3E",
"A. c #00E03F",
"S. c #3E8D40",
"D. c #358442",
"F. c #359C41",
"G. c #3B9A43",
"H. c #3B9442",
"J. c #1CBD41",
"K. c #1FB540",
"L. c #2BAD42",
"P. c #29A840",
"I. c #33A443",
"U. c #35AC45",
"Y. c #39AC47",
"T. c #3CA547",
"R. c #25B342",
"E. c #2BB444",
"W. c #23BD43",
"Q. c #2ABB46",
"!. c #2FBE48",
"~. c #22B748",
"^. c #3DB54C",
"/. c #36BE4B",
"(. c #3ABB4C",
"). c #34B347",
"_. c #1E9A40",
"`. c #438944",
"'. c #439344",
"]. c #439C46",
"[. c #469E49",
"{. c #4A9C49",
"}. c #489647",
"|. c #43A549",
" X c #4DA34D",
".X c #45AD4C",
"XX c #49A94D",
"oX c #40A147",
"OX c #42B24C",
"+X c #09CD40",
"@X c #1BC242",
"#X c #13CA41",
"$X c #1CCC45",
"%X c #17C241",
"&X c #06D540",
"*X c #0AD441",
"=X c #05DC41",
"-X c #0BDC43",
";X c #14D444",
":X c #1AD346",
">X c #13DB46",
",X c #1ED648",
"<X c #1DDC4A",
"1X c #16D848",
"2X c #23C445",
"3X c #21CA46",
"4X c #2DC549",
"5X c #25CD49",
"6X c #2CCB4B",
"7X c #28C447",
"8X c #32C44B",
"9X c #25D34A",
"0X c #21D84A",
"qX c #26D04A",
"wX c #02E441",
"eX c #0CE345",
"rX c #01EC43",
"tX c #0BEA46",
"yX c #0EEE49",
"uX c #16E549",
"iX c #19E14A",
"pX c #11EA49",
"aX c #01F445",
"sX c #00FA47",
"dX c #07F748",
"fX c #0BF249",
"gX c #00FF48",
"hX c #01FD48",
/* pixels */
"sXrXaXOXOXOXpX1X$XsXwXaX8X.XOX,XsXr.$ Z.0 g.< {.< z rXq.* Z.0 g.<  Xx N.s.< M.y 9.z m sX8X@.w., {.( 0.H <X X<XOXOX^.fXY.aX,XXXOX: 2.8 : x : @ & d.dXrX6X.X",
"rXM ! sXh.A.P 1.Q aXM ~ =Xt.wXa.5XW < e.W 8 = 6X` ] 5XQ < e.! 8 - 6X%.>.` ] ^ : D ` 1XsX(.Z.M ,  X8.3.-.Q.6X<XN.Z.C.1., Z.-XpX0X0X(.4XsXuXM.d.z.0.Y ;.6XfX",
"aXj.: sX .i.# 1.= wXd.c M.O.X.1 {.7.M.Z.a M M V.F.+X.X7.M.Z.3 B c V.6X(.dXA ` ;.[.] -XsXyXqXY.S.8XuX XuXfXsXgXn.H 0.G , aX@.V.pXuXuX/.Y.' V.B V.^ s #.XX^.",
"'.@ # W @ @ @ sXsXOX@ # x @ @ @ aX^.$.r.&  X) d.u ,XgX^.$.q.&  X .d.C 8XdXq.* 1.[.! Z.w d.A.sXsX5X X# b.j sXZ.: @ # ] dXsX{ . sXj d.= '.v 9 d.<XXXXX(.sXgX",
"/.6X+XwXc G.! t.J )..XwXwX1 5...aX^.A.m &  X4... .L.hXOXA.M &  X5.-.a.(.0X` 1 S.8X8XpXn.8 s.m y.W 1.@ c n sX) 9. .G.] <.1X` : V.~ m # E.W W l ;XZ.sXW S rX",
"fX6Xt.h f  X! ^ M rX.XC.m @  X..!.XX%.1 & /.<X<X@Xh.8X X%.1 & (.iX<X6X8XiXd.` _ V.O.7Xa : W x * - B.d.d.4.8X@X; }.].^ c  X4.d.V.1 C 1 C.P.=X XJ.j.sXv ! W ",
"fX6XV.s.f  X X{.{.yXOXA.g.@  X X XdXaXaXv ] j M.V.8 {.sXsXaXv ] l n.iX0XM.0 Q 3 e d.U.{.aXaXQ ( -.s.|. ./.sXrX3 '. X X{.fX8XM b.8  X! r.K pXXXV.W # 8 {.{.",
" X(.( 1 z #X*XaXd.].^.6.1 = R.-XXXrX{ $.@ s ' s.s.b {.aX) o.# s ' s.B.6X0./ . ^ 9.] wX XC.} #  X5.9.e Q.^.uX1 : <.rXwXsXdX8XV.0 8  X..) ( U.(.5XsXXX7.eXgX",
"OXrXi.Z.a b ( V.d.].sXh.M.: b M  XW.v $ = b.n.n.L v.XXW.v $ # n.b.n.4.9XP 0.0.rXgX6XfX XrXO.#  XG.5.5.c.9X9Xy.` v S q.aX4XOXo.v 8 /.9X9XR.N.$.=XJ.4.b U rX",
"OXwXj.e = v W W - '.aXg.h @ v W tX1X'.'.G.M.M.gX1.9 eX1X'.'.G.M.M.sX<.8 ~.gXp.j.M.fX8X X8.= @ OXyXyXtXO.Z gXwXrXrX}.|..XXXyXwXA.v r.l V.n.8 j.>X Xv y.Y yX",
".X:.& & ! gXfXpXOX.X'.& - < gXgXgX^.&.O.d.aXaXaX}.F {..X=.: - 7XrXaXZ.] 9 gXZ.j - f.`.gXaXaXW Q ( q.aXs o.A.+X} e.sXrXsXXXrXm r.= 8 q.b.s.=XwXaX4XOXOX9XyX",
"A.>X6X6XqX0XP wXm.aX6X6X9X0XwXN.wX0XZ.( - n.| d.f F ].aXm.Z.< ! S b.Z.p ] 0Xk.^ # e.G.hXr.M # x b q.9.c 3.D rXo.# wX| j. Xl.^ X : d.d.q.D &Xm / Z.p.A.a.{.",
"0 0.@.V.q.1.# r.M aXA V.M  XZ.m < yX .< # Q & < 3 C.XXdXj.=XV.C.E.Y.^.l.Z. X'.h.V.s.8.(.2 & @ Z.Z.Z.1.L.uXuXP.< @ ] ; > uX2X1.1.7.V.V.fX>.Z.b.b d.w.X.v '.",
"0.` N.i ` 2.# @ @ =Xr.A < XXrXd.# pX XpXsXn.n {.` c. XH.@ Z.5 d.rXdXsX4X XgX9XpXw Q b.sX X X Xb.n.aX{.. *.sX X0XsXA.v ].W z.u sX(.6X XOXwXT.@ @ 1 @ @ . A.",
"v ` 1 : 8 d.iX+X6X/.- > > wX1.c W d.9XyXz c <. X^ B M.9X XpXs.7 M.h i.x {.sX9XpXd.7 ,. X .....(.qXN.A.c ].v uX0XM ' %.8Xe.6.`.<X9XpXsX6XrX7XXXrXZ.1 4.-.d.",
"rXy.v 8.8.0.K F.6XfX> ].) n.6X<X..A.6XyXd.a <. X8.8.8.<X,X6Xx : ^ 3 7 = $X8XOX/.3 : >.<X,X<X#.yXqXw.z j  XW uX,Xn.y.m.n.Z.<X0X<X8X-.M.N.h.sXXX&Xm @  X-.` ",
"aX( $  X8.W v )  XXX&  X) Q iX0Xb.u XXXX# # ,.sXdXdX/ r.i.^.|.aXsX3 _ ..d. X9XdXaXb.! n.B A.` yXqXV.e.j  XoX X X7 1 Z.0 - h.O.n.q D s.t Z.sXXXA.b.@  X X{.",
"eXq.:  X^.^.OXE.=XsX& XX(.OX9X6X0.u.9XaXsXV.] l.G >X9.C -XgX.Xh.) @  X-.e. X9XM.q n 1 4 s.M.3  X0X-XaX1X^.^./.aX*XaXN.9.# M.j 9.p ..1 1 O.OX(.7.1 = E.A.rX",
"$X9.x 4.n.m.sX! M rX2 k.p.Z.OX9X0.u.9XM.aXf.Z.9X9X9X6XE.i.sX.XwXo.@  XG.5. X(./ v . ] b.n.@.L OXgXO.M 0.h.=X/.Z.{ | S.[ q.9.< L W :Xa.yX^.OXsXm.m.< b M d.",
"g. .1 v k d.sXv v 1 - s o.b.8XZ.j B.XXp aX( ; hX} M.> S.W ). X-.- @ (.yXyXpXyXI.'.'.l.M.Z.6Xq OXgXM.q.^ m.K  XN - 7 6XpXj ] 2.{.^ A `.pX6X^.sXd.k @ v W ^ ",
"e.b . ` ` ` & f .XOX# ` ^ ` (.M.s.0 aX(.tXs.: rX . .# G.: '.gXrXaX3 ` m s.rX8 &X.XA.k @  X-.~ .XXXq - 1 < @ aX7X XT.9XpXs.6 2. X~ ~ ! .X.XOX|.& & & sXsXsX",
"` ` ` ,X0X0X6X6XfXsX9.pX9X9X6X3.^ ` M.rX{.M ` s.: d : wX%XoXsXq.( . c ! 9.9.b 3X Xl.Q @ .X6X6XaX#XXXsXm.^ -.G.9.R U /.6X^ a >.6X6X6X7.Z.C.sXsX!.5. X0.l.p.",
"rX$.V.iXuXuX/.I.[ V._ dXuXuX/.I M.g.h.  <X6X$.M.g [.! r.J {.).< # @ Z.Z.Z.1.E.OXiX-XM.1 w.$.M.rXb.^.sX( %  XG.^ c ..8XuXM.9.b V.( rX' h N.sXsXb.=. X` _ E ",
"aX( $ aXj b.# 1.W e M.p.[ b.f F s.9 A.  yX6XV.O f  X! W ! wXfX X X XM.A.sXsX9X X X6XsX XsXsXsXA.d.OXsXd.1 {. X X X X6XV.w ^ 1 O b.A.` W 1 9.w d.T  XW W W ",
"aXz.B iXl.a.W L.v v B m.0 ] g @.v c a.8X8XiX7.rXZ.wX+XrX:X/.8X6XiX>.rXC.sXo.M.+XaXuX8Xv z.I :Xv ;.(.!.v g  XpXhXuXr.,XwX` X W 0.9.~ q dXC.A./././.<X$XJ.rX",
"fX X XXXsX8XdXgXgXgXXXp.< P ^ $X .pX/.Z.M.U q b.N C.o.k d.$.&Xr.`.@ q.M aX~ ] w.:.N.h.Z.<X<X<X8X6.g.V.f.uX0X9X8XD Z.f.wXU U h.Z.A.6XD rX( n sXi.=Xl S.W S ",
"M.dXdXfXXXl d.w.p.sX.Xe.,. X` B }.pX9XH s.D 8 # @ d.n.] q.n.u ^ ,.@ @ # rX# < : = A.f # N.o.M.8 L 9.e C._ M.9.U & r.M aX X/.dXsXQ 7.! aXd.: sX@.&.@ S.@ @ ",
": f.@.d.f f 9.q Z.8X^.=.,. X) ( ( (.^.p ; ` yX&XiX.X8 1 W : = ; b.pXwX8XOXaXwX^ @.C.9.@ V.V [ ; 3.< 1 ) d.r ^ :.x 1 > B.sX8X .w.q  X~ '.2 1 ` = ; # aX-XsX",
"= 9.q v c f.9.' c.Z.i.e.1.9X9X9X5.C.N.x.oX] 2.Y iX,XXXrXh.v 5.8.e.J 7.6XdXwXZ %  XS.' 9.9.< L 3 >Xa.sXOX~ < z 0.9Xp.9X4XsXuX$XJ U (.n.6X6Xf.Z.c ].! t.J tX",
"Z.s.x 1.` Q.F pX6XD j.b.~ M.} rXQ h V.^.[.W n ( .XOX XrXS @ {.8.Q c #.XXOXaXs.- XXqXiXF 9.I  XQ } E dX8XW ].8.0.y T.9XpXF M.eXpXyX6XOXyX6Xh.5 f  XW W b Y.",
"9 v 1. X` k ].iX0X] W & c r n.wX` ` 1 T.XX X X XgXgXOXaXM.p  X XXX.X(.gXgXF.: # |.<XiXb.* U  X~ ~ ~ .X.Xd {.G.! ! ) .XpXg.* b.e j.v '.pX6Xn.e.f XX.X.X|.tX",
"d.{ W.4X-...-.9X*X=XwX6X4X6X0X7.=XrXsXsXsX(. X XuXgXgXgXgXqX X X4XgX6XfXgXgXaXv ! 8X6X` 3 U 8X6X6X7.wXN.v  X8X6X8Xx.N.:X^ 1 ] ` 0 < E. X6XO.` g B.p.rXd.~ ",
"v h.g.V.uXiXuX6XN.h v m.g.V.L f d.} gX .V.-XuXuX9XuXhXZ.y.V.uXuXuX/.c.w.V. .aXV.C.(.iXn.0.~ M.} rX] j g.] ( j.r.sXv M ].<.n.V.3 c N n.OXA.@.M.< g O.V.d.s ",
"sXA.0 # h.o.n.1 Z.b.: wXH d.f f @ 1 gXM.O ` l n.] s.hXfXM . wXm n.@ ,.^ w M.sXsXr 8XV.O ] < w b.Z.] v 1 @ W 0 n.aXv W A.XXf.o.@  X-.s.OXsXsXsX<X X X^.gX.X",
"A m.] @ b.j ` 8 U x v W = q Q pXm.pX8Xq.^ W 0.r W U  XC.] = V.m b . x.v v N fXsXn.(.r.] X v 0.9.~ q 8X(.g 9.0.0.g l 8XyXXXrX} @  X8...8XiX .' b.*XrX*X'.7 ",
"E.B.-.s.n.s.P ! /.fX@.9.=. X` =.Y fX/.>.s.d.W < G p.<X{.@.s.n.< G 1 *Xx.aX.X9X6Xv ,X7.U U k.Z.A.9XL  .tXx.V.Z.rX.X_ B.Q. Xa.3 @ OX9X<XsXV.V.( W f.I 9.L & ",
"pXXXf M.O.m. X] 6XyXw.4 1. XW v ! (.gXOXA._ 1 |.8.V.hXiX9XD d.l  XW O.Y fX^.9X XoXgXdX! ..4.d.^.hXrXeX.X X|.sX5XpXaXZ.T.dXaXrXv ` } j.A.4.d # : < @ @ q.rX",
"s.D , 9.d A.XXu.8XiX9.v 1.^.^.^.G.dXfXOXsXo.$  X8.B.yXpX9XM.9 j  X( ) / Y.OX0XsX.Xh.{ @  X..e.l p.$.e.aXrXaX'.F s.j.N.T.sXO.) @ c ~ s.M.#.XXgX=X] ( G.q.H.",
"3 M r.9.' c.qX8X(.6X9.W | A.f.aX^ =.(..X2XW ] 9X9XOX X8X9XwXv.k.5X9X6Xc.Z.p.gXgX.XwX/ @  XF.4.x.Z./ # N.| d.8 D x 5 1.}.3XW ; . b.d.d.L k.(.aXZ - {.G.` g ",
"<.] /.j iXqXV.H 0XZ.k ` x 9 r.rX^ N  X<XeXZ.aXF M.eXpXyX9X^.7 V._ sXZ.s.0 g.<XOX X4.: @ ^.pXyXiX-.: # v & : c wXZ.Z.6X<XuXS.S.S.M.M.sX'.q.^.sXd.p {. XG.G.",
"oX] q |.0X9Xe k.9XrXsX0X.XXX8XfX].sXaXsXj.m rXd.* d.t j.W '.# o.w.sXC.j.! W L .XhXhXsXv ` B j.yXXXpXrXn.n  X` c.r sX9XpXd.4 2. X^ ^ ^  X XXX|.= # ].aXaXsX",
"|.-.-.3.6X6Xs.f.uX} { d.N.rXB.'.# s.Z wXZ.j.@XK.%.m.Z.D.s.W.] =XC.rX6X4X6X0Xc.C.A.C.t.@ c ! 0.b.9XpXm c >. X^ $.8XsX9X6XK.u.v. XrXN.wX4XOXpXwXm.` v ( O.sX",
"iXiXiX) j.N.Z.Z.gXaXm.Z.+XY.F.'.m.;XJ.sXZ V.uXiXiX6X/.m V.} sXC.m 1 C.t.V.D W.A.rX@XH.,.c.Z.7.V.yXsXd.c >. X8.:X| V.-XiXiX0X(.f wXM.rXgX9XpXn.~ & v c ] v ",
"e.S aXv j rX     XfXwXm b.gXgXgXXX1.W aXr.X M.O b.3 {.: M q.gXrXd.@ rXI j., 9Xt b.Z.sXsXuX X& n.M *X@ @ >.hXhXhXM.o ] j b.` >.@ rXwXt b.R. X. @ @ aXsXsXOX",
"rX:X/./.6XuX1.rX:XfXsXO.% sXS j.# 1.x ;X] x 0.] j < ).v v d <X,.c x ^ 1 v ` sXV.0 Q @.&.] P & ! g A.N.d.3 O.M C.9.^ ^ 0.r v 4.v '.j.M.8 ` aX`.G.].] ] s.!.",
"m s.a.Z.f.S.@ j.h.9XQ.x # s.p 2 @ $Xs.|.:.s.b.1 s g V.Q.N.OX0X8XuX .s.d.@.Z.;X! 3 1 W 4 < $.s.e.@.!.R z.b.Y rX4X2.s.d.v 1 B s.4X6X^.! 1 x W 6 < u.j.0.#./.",
"q.` n.u ` T @ # q.OX{.Q.rXrXv ;.v B.T *X.Xf.w.# {...d.u 3XOXsX0XiXs.4 s.g.5 I {.rXrX9.x <.M.j M.Z.dXdX0X.X& n.wX.X-X} < [.8.e.r uX X{.wXaX` v ;.e..XA 6XpX",
"< v < # ; d.yXwX6XfXfX6XZ M.M OX) u.R yX(.eXZ < .X4.aX=XaX/.(.6X0Xe.W r.0.` ] ^.rXm <  X8.M.M.6 ] S t.^ >.@ / t.OXaX/ $  XF.( ~ 0X0X.XwXM :  X8.9.5 ).8XiX",
"aXh.W 4.8.0.Y ;.6XfXfX6XV.hXf.A.9X6X6X9X7Xa.A.&.fX9XdXM ~ wX*.^.6X] Q <.L ] V.OXsXq.;  X].E.^ x ! ` 5 1 a.] ] l.XX2XW # XX9X6XqX.XpXOXdXw.#  X].-.5.7.9X9X",
"aXM $  X8.Q c #.XXOXOXXXn sX .> aXM V.p ].x m y.rX .aXd.x Z.y.6XZ.j 9.j.XX=X<.XXY.: @  XpX8X'.V.Z.Q x =.s.^. .6XiXpXV.Q ) w.r.gX(.9X XI.: # XXyXpXpXO.o.rX",
"rXs.:  X.X.XXX).9X XXXsXaXfXs.1 A.w.} - G.= = % h.{ XX@ = v ; 8XM.d.X s..XaXR.pXsXaX9.v ' f..X-XM -  X8.e.O ).8XfXq.M > v z d.rX(.6XfXsXaX] W  .o.sXs ( A.",
"!.Q < 6XsXsX<X6.$X6X6X>X$.4XQ Q s.- d > wX$XrX X2Xs.4XOX-XZ.x 8X=.f F a.XX$X6.pXd.M : v k Z..XaX[ $  XG.....x..X9X` p @ s.s.s.^ 8XOX9Xx.*.] -.O.Z.sXc ..l ",
"Z.sXZ.hX/.8X XiX8XfXdXyXZ.A sXt.V.2 ].~ j.J >X XaXV.sX^.+Xk & /.6.....8.0X>XE.(.< - . V.V.3X XE.1 # XXiXiXiXpXyXiX>.>.>.gXuXpXgXgXpXuXiXfXsXiXpX8X(.7.iXXX",
"M.p.w.M.hXsXhX XD e.j. .V b.gXZ.w ,  X( W v F. X X  gX^.wXd.&  X X{. X XdXq.&.sX X X Xn.b.E.fXsXsX] W { O.gXN. .b.hXhXgX XU ] n.k sXt n.A.j b.Z.sXsXuX X; ",
"Q -XH d z.t.l.( #.n.5 M.] 8 uXfXN.rX:X(.).qXuX,.rX&X/./.*.d f /.fXhXC.v.dXn.s $ 9.9.9.8 G .XfXdXC.rX/.(.(.uX$X%XrX*XC.d.# U v o d.rX0.y M.V.0 W $.&.9.L & ",
"Z.-X0X0X9X6XG Z.f.rXq.7.fX X0XfX .m b.i.Z.p.'.@ r.b aX&.Z.:X0X0X6X6X..Z.@.aX0.0.6X4X6X0X9X9XhXrX@.x dXt.Z.D ,.Q M O.y.s # #Xe.e.5.#X3 2 7./ x 1 ^ 6 < $.j.",
"6 9.A M.] >.@ w.M aXfX8XsXXXrXrXn.] 9.g.H ^ 1.@ # # aXO.; Z.t M.c  X< M q.-X) M.yXdXyX.X8.` M.l Z.- aX#.y.@ 1.# @ a n.8.v J.L sXOX9XtXaXfXY.wXrX9.v <.9.^.",
"] ^ d.r W ;.1 < s.wXaX1XOXOX6XyXH.aXwXsX# & n.yXwX8XpXe.x M.q.C : OX< < ; eX .@ aXS d.@ ,.W 4 g.s.< ` # & # aXeXsX XXX XW / T pXOXdX.XsXsXsXaXm < {.G.] 9 ",
"] 9.v > l s.9Xj.sX@.M d.h.Z.l.'.% j.Z wX5.5.e.J _.8X XG ] s.: p 2 A.2X-XXX2XW # d.s c @ z.] ] =.uXf.V.c ].W t.J tXOX9X X4.-.4.6X6X9X=.A.N.rXsXq.; {.].4.-.",
"wX$.3 G.8.0.u I.gXM.' ` g.H ] U @ : % wX X8.^ c 6.XXuX^.t.g.> ].) n.K :X.XeXz.V.V.3 :.3 B.;.rXOXdXj.9 j  Xv W b ).XXXX0XpXpXp.M. .6X& j.M wX^.: # {.uXpXpX",
"aX( +XaXsX4XXXXX X, # 1 - @ # s.dXaX6XXX XXXXXXX8XdXdXhX9X XXX6XgX{.sXaXsXXX6Xj 0.D  XW O.Y yXOXdXM.e.j  XXXXX XtXaXn.e.e Z.0.O M.6X> = # N.gXgXs.Q O.} aX",
":X` wXk / Z.h.wX:XXXaXN.Q ..8.0.,.:.6XfX7.aXgXgXpX.X X.XyX6XiXsXgXQ s.m aXpX5XV.f z  X......!.8X8X' W g #Xh.aXs./ ( b.8 9.e.W .._ t.1Xm.9X/.n.wXC.rX8X8X8X",
">Xd.rXb.n d.O.X.A.OXaXM &  X8.' s 4.OX(.v p.gXA V.>XiX<X5X8Xk V.@.gX> : aXpXOXb 1 F 6XiX<Xk.V.@.A. .M.1 s o.V.s.s ` 0.Z.V.l.,.1XiXN.H H.9XpXx &Xm a -Xr.V.",
"j.M Y.@ @ 1 # @ 0.OXaXb.:  X X X X^.sXsXW s.gXd.X d.e n.W '.= { o.gXsX4X X1 sXsXrXv s.+ V.s.aXsXsX^. X X<XsX/.gXsXyXc.n.M.<Xf + 1Xd.v ~  X X|.rXb.@ rXX.j.",
"V.$.I./.gXaXx 3. XOX).3 : G.wXwXhXW M wXrXtXuX9.v 9.0.y 3 c.3 3 d uX:.gX+XaX,X(.(.9XuX1.aXZ.sXl ] rXgXgX6X Xm l.S sXfX6XsXb.<  X(.(.(.c.-XrX  1.a 3 ` = , ",
"6X7.h.Z.h.&.@  X XfXV.f.v W M e.sXc ~ `   ). XP 0.d.1 p k M.7Xl./.9Xx.pXo.m d.i.Z.t.'.@ q.M aXj.p V.aXr.Z.0X9X0X6XQ.$.Z.@.A.0. X6X6XdXb.v.rXhX8X(.6XaXa.5X",
"fXrXaX|.]. X=XiX XpXd.} $ W v Q : 8 [.'..XdXdX XN.O.- ].4.s.i 7X/.hX).sXn.] ] g.H ^ >.@ # # T.= # v sX .; sXS M.2 '.v j j.rXM.yXyXyX^.T.W M.y sXfXfX.XI d.",
"wXm r.gXsXsX^.F.-.OX; ; & aXaXsXXXI.rXgX= Z.sX XrXM @  X5.~ ~ 6.OXOX^ I., : v : # & b.yXrXqX.X/.yXfXtXe.< A. .} # I.: < > k.$ sXh g.- '.3 9 s.m. .b., D ] ",
"aXw.% gXwXN.gXf.A.sX9X6X6Xb.e.V.R.9 } 3X# y.9X Xl.Q ` 6X6X.X XOXfXgX#.~.XXrXN.v ;.5.e.Y 5.N.Z.eX6X6X XN ] d./ D D <XgX<X6X:Xe.n.c g # 2X] ` G l.q W p k.] ",
"U.: # q.=Xm aX{ 7 wXC V.Q.< - v < % = B.V.W.9XuXeXc.^.^.0XyXXXpXdXgXeXrXXXrXS @  X8.^ s t.n.0 v f.g.uX8X@.V.C.pXpXiX(.l V.r.+X=X3 =.c N.5.-X Xh.x 1.Q 2XG ",
"XX6XaXgXwXd.dXd.v Z.r.I U. XsXaXW  .4.s.'.K uXw g.A.aXsX5X X= b.j gXrXwXgXaXsX^.XXXX<XsX).V.d.< Z.H sX8XV.w 3 @.r.e.D 8 s.h rXd.8  X! q.J uXXXg.T  X` m '.",
"fX6X . .S.n |.z W 9.: > C.XX+X( @  X-.9.9 ].uXb.8 s.S u.W S.@ c c gXZ.8.fXm ' rXh.rX6. Xf U ! Q W = 0X(.r.` < s.t W N ' W c z.l 8  X-.....E.8X3.T  X......",
"fX6XV.o.6X<XiX^.h.M.> G.pX XrXq.@  X].8.8.E.6X1 < W x ; ; B.d.d.4.8XL.H.fXd.a Z. .#.<  Xa (.dX .` :.XX6XS.d.b.` 1 P ] 3X} <X6Xx 8 8XiX<Xl.m.| d.2.,XiXiX%.",
" X X8 = <X<XsX(.Z.t &  X X X<.@ @ ^.sXsXrX] Y.{.aXaXQ ( -.s.[. ./.dX<X X X@ @ x @ @ @ sXsX6XfXw.X S.XXhX8XsXj v '.].9.t XX<XiXaXv 9.t V.n.5 d.V.W b.j wX` ",
"OXsX&XaX6X9XpXOXm.9.& .XXXsXwXwXv W M j.aXg N. XN.~ #  X4.0.t Q.^.pX#XP.(.OXwXrXx 5...d.I.(.<X9.3 S.XXfX/.sXy.& '.|.) ) ) (.(.O.= p 9.j.9.~ _ ; 1 5 e.b.v ",
".XA.o.S ^.9X X9Xl.0.2 k.^.sXr.M @ v ~ ] ` g eX XrXO.@  XG.5.5.L.0X9XQ.m.gX^.m.S %  X .] G 8X0X0.Q | 9X9X.X6Xv : '.9X9X9X4.h.Z.* < n.b.g.P Q.9Xu.] n.n.%.L ",
" X=.- $ 8XZ.XXaX .d.= s `..X= @ . rXA.aX'.Q.8X X5.= @ OXfXyXeXw.S gXZ.8 rX^.Z.j.%  X{.[.|.9XV.l ^ 3 F z.0XfXA.0.~ j. .aXv m wX].7.M.M.fXU 9 ;X1Xk.M.Z.6X8 "
};
