/* XPM */
static char *_7f95430be2e4f689c61602d65e71679pNbgljDEEDhOjsAv[] = {
/* columns rows colors chars-per-pixel */
"75 76 256 2 ",
"   c #050300",
".  c #0C0602",
"X  c #060C01",
"o  c #0C0C04",
"O  c #180905",
"+  c #0C1404",
"@  c #0E1805",
"#  c #141708",
"$  c #1B140A",
"%  c #1C1B0B",
"&  c #1A1E12",
"*  c #220D0A",
"=  c #23120D",
"-  c #221A0B",
";  c #281F0F",
":  c #2C0C17",
">  c #241512",
",  c #2A1512",
"<  c #271B17",
"1  c #2C1A14",
"2  c #321D1A",
"3  c #19260A",
"4  c #1D2613",
"5  c #1E3214",
"6  c #25240E",
"7  c #23320F",
"8  c #282717",
"9  c #33251B",
"0  c #332C1B",
"q  c #293719",
"w  c #34361C",
"e  c #2C2621",
"r  c #372925",
"t  c #3B2C23",
"y  c #2A3A23",
"u  c #3C3323",
"i  c #373927",
"p  c #3B3B24",
"a  c #34332A",
"s  c #3D3B32",
"d  c #422C24",
"f  c #443529",
"g  c #443C2B",
"h  c #54392E",
"j  c #453533",
"k  c #463B34",
"l  c #4D3D3B",
"z  c #1F4518",
"x  c #30461D",
"c  c #364627",
"v  c #3C5423",
"b  c #34542E",
"n  c #3B4533",
"m  c #3B4B33",
"M  c #2F6731",
"N  c #376936",
"B  c #44442C",
"V  c #44482A",
"C  c #444A2C",
"Z  c #445529",
"A  c #4B4333",
"S  c #4B4C34",
"D  c #484638",
"F  c #5A4635",
"G  c #51423E",
"H  c #524B3C",
"J  c #4A5738",
"K  c #55533B",
"L  c #55563A",
"P  c #5B5C3D",
"I  c #66473B",
"U  c #61543D",
"Y  c #526B28",
"T  c #4A6936",
"R  c #566639",
"E  c #5C6A3D",
"W  c #467538",
"Q  c #59753A",
"!  c #626F38",
"~  c #637939",
"^  c #503F40",
"/  c #4A4A41",
"(  c #534443",
")  c #544B42",
"_  c #5B4B45",
"`  c #554849",
"'  c #5B4C4C",
"]  c #4E5A43",
"[  c #545244",
"{  c #595544",
"}  c #545C44",
"|  c #595847",
" . c #5D554B",
".. c #5C5C4C",
"X. c #5D4C54",
"o. c #5B5651",
"O. c #614E48",
"+. c #714F44",
"@. c #635C46",
"#. c #6A5846",
"$. c #63534D",
"%. c #645D4B",
"&. c #745C4B",
"*. c #614E57",
"=. c #635354",
"-. c #645B53",
";. c #6B5B55",
":. c #665558",
">. c #6B5B5D",
",. c #7B5D53",
"<. c #496645",
"1. c #5D6344",
"2. c #5C6C45",
"3. c #596848",
"4. c #5B7746",
"5. c #53714B",
"6. c #646B44",
"7. c #66624B",
"8. c #6B634C",
"9. c #676848",
"0. c #646B4C",
"q. c #72684C",
"w. c #627344",
"e. c #687845",
"r. c #63734C",
"t. c #6B734C",
"y. c #647A4B",
"u. c #75734D",
"i. c #75774D",
"p. c #666756",
"a. c #6B6452",
"s. c #6C6B53",
"d. c #6D635A",
"f. c #726C54",
"g. c #7A6C54",
"h. c #74645D",
"j. c #7A675A",
"k. c #746C5B",
"l. c #6B7355",
"z. c #6B7756",
"x. c #747255",
"c. c #7C7256",
"v. c #737B53",
"b. c #7B7D52",
"n. c #73735C",
"m. c #7A735C",
"M. c #747D59",
"N. c #7B7A5B",
"B. c #6E5D60",
"V. c #715F62",
"C. c #6B6961",
"Z. c #746463",
"A. c #796662",
"S. c #746B62",
"D. c #7C6A65",
"F. c #786669",
"G. c #7C6B6A",
"H. c #7D7463",
"J. c #777865",
"K. c #7C7B62",
"L. c #7D736A",
"P. c #7F6C70",
"I. c #825F54",
"U. c #856356",
"Y. c #896A5C",
"T. c #82765C",
"R. c #83795E",
"E. c #866A64",
"W. c #816E6B",
"Q. c #827564",
"!. c #837C63",
"~. c #897D65",
"^. c #83736D",
"/. c #8A756B",
"(. c #847B69",
"). c #8B7D6D",
"_. c #937E6E",
"`. c #816E71",
"'. c #847372",
"]. c #8A7772",
"[. c #847B72",
"{. c #8B7B75",
"}. c #8D7D7B",
"|. c #937E75",
" X c #927F7B",
".X c #5B823C",
"XX c #768B36",
"oX c #738939",
"OX c #518749",
"+X c #698647",
"@X c #748946",
"#X c #6D8452",
"$X c #788559",
"%X c #749554",
"&X c #7D8664",
"*X c #7D9464",
"=X c #7EA267",
"-X c #82963D",
";X c #859945",
":X c #81825B",
">X c #838959",
",X c #859856",
"<X c #90A351",
"1X c #858363",
"2X c #898466",
"3X c #868A66",
"4X c #83816C",
"5X c #8B826C",
"6X c #8C8A6B",
"7X c #91826E",
"8X c #928D6E",
"9X c #8B9567",
"0X c #878674",
"qX c #8D8473",
"wX c #8C8C73",
"eX c #8E8179",
"rX c #948372",
"tX c #988374",
"yX c #948C74",
"uX c #998D76",
"iX c #93837C",
"pX c #9A857B",
"aX c #948A7B",
"sX c #9C8B7D",
"dX c #8E9272",
"fX c #969578",
"gX c #9D937C",
"hX c #A18D7F",
"jX c #A2957D",
"kX c #94A575",
"lX c #958482",
"zX c #968A82",
"xX c #9D8B83",
"cX c #9B8A87",
"vX c #9D9283",
"bX c #9D9786",
"nX c #A38E84",
"mX c #A39484",
"MX c #A3938B",
"NX c #A79689",
"BX c #A49B8C",
"VX c #AA9D8C",
"CX c #A49391",
"ZX c #AB9791",
"AX c #A69B91",
"SX c #AA9C93",
"DX c #B19E95",
"FX c #9FA682",
"GX c #A8A38D",
"HX c #A5BE8A",
"JX c #ABA195",
"KX c #ABAB93",
"LX c #AEA59C",
"PX c #B2A699",
"IX c #B4ACA1",
"UX c #BAB2A4",
/* pixels */
"= _ $.F. .aXA.uX$X5XfXp.n.(.{.lX;.d > 8 k X.X.=.h.`.j 1 p ;.#.w * : k F.G.^.eX'.j ].'.5XpXrXsXr O G.}.'.B.k < ' lX7X_.E.k.* , /.eXIXJXX.< ' G.s.[.=.> ",
"G =.G.k.y p.BXwX(.7XqXdXi K.A.O W.W.sX-.| 0 q 4 a [ > H.s.x.q.#.I * G }.{.eX'.u c.G.n.2XR.yXjXsX- 8.L.G.k. .Z.[ N.vX_.aXL.* O F aXJXJX` -.k.} J.{.=.> ",
"V.D.'.-.J G.MXGX^.BX4XN.4XO O $.L.iX7XtXMXvXvX(...#X4.l.r.H.m.s.L A ' {.{.W.O u.~.8.x.JX9XM.mXmX).0 3.F.' a X.` H.eXMXbXxX(.O 2 aXJXJX_ C._ | p.S $.$.",
"L.{.].i k.vX[.m.BXBXH.wX3Xt.$ 7._  XMXCXMXBXJXKX0XaXq l.2Xl.6.6.l.$.=.|.].i #.gXN.dXKX%.xXFX_.t.rXNXO a.2 G.-.s K.n.CXBX|.uX= , tXBXBXH.K.3.i l.9.>.D.",
"{.}.'.2 F.}.AXzXvXfX0X} &Xz.P B %.' ' cXxXzXvXJXIXIXaXc m m 8 8 O > _ {.;.H yXf.6.mXyXVXNXE GX).mXrX{ . * D.q. .J.1XbXJXMXgXlX1 uXNXxXA.m.E R y.~ f '.",
"{.}.` `.F.D.cXG.aXmXFXx.&Xz.E B $.aX'.^.o.F.F.CXzXo.p.8 p.aXaXzXeXr & 8 _ a.i.jXc.N.uXpXtX|.MXNXpX~.Q.8 '.Z.n.G.G.sXbXAXBX(.L., !.MXBXp.l.y.e.T q k A.",
"}.B.+ V.lXsXiXnX{.n.l.0XK.bX2X( A X.iX'.sXmXC.X.n + a.vXwXaXPX5XaX0XMXk $.@.K.Q.uX6X7XpXpXtXmXrX).pXq.= :.vX(.-.o.p.yXLXIXaX{.=.j.pXMXo.3XR Z w.0 l =.",
"[.p.C.F.zXxXD.BXS.aXGXJXGXaX2X( k u A.[ _ 3.oX;Xe.5X|.pXbXAXUX-.JXPXxX_ { 7.aX5X).2X_.sXhXtXtXa.6X6Xk.%.:.lXxX' *.W.xXAXLXBX{. .'.rX{.=.p.] P { , G $.",
"> a ( / [.hXD.iX{.(.aXLXAXvXz.1XA  .} OXq Y XXoXXX1XmX[.lX/.S.0XzXIX4 =._.#.4XrX~.8XtXpXhXtXrXqXi.$X&XC.:.D.iX{.].X.lXIXIXMXL.d.^ Y. XX.l j =.8 O.$ , ",
"^ < s o.m.2X XzXnXbXMXvX1.#Xz.. 6 > 0.OXkX&XQ 7 M.&XbXl.aXx.r.bX/ 0.< r rX7XpXiX_.pXtX_._.hX_.tXm.c.1Xp.C.D.zX{.' G.0.K &XN.s.>.1 W.Z.*.2 : $ tXAXAX_ ",
"' [ e iX{.^.CXvXMXnX).(.i 5 2.E ..FXfXKXGXt.@Xv P [ ] / D H.S D 8 J a 2 : #.pXrXpXnXuX7X_.mX_._.rXrX&Xs.D *.Z.C.[ l.K.n.m.-.>.A g k B 8 d $ R 0XSXIXIX",
"{.Z.O e 3.sXaXaXo.y a q p.L.dXUXfXUXUX&X4.oX<X<XZ D 8 1.m # 2.Z b 3.J u u A t h.tXhXgXjX6XrXrXtXrXtXS.r.J k.t.p.s.4.d...2.J 0.L ! t.t..Xz.p 6XrXDXD.JX",
"E.MX>.  $ > m 4 $ ;./.PXPXUXUXUXPXPXIXJXPXR e.R t.qX6 c z.P y.R z.R u r p u f % F R.uXjXmXsX_.tXpXrXtX0.y.o.x Z | p 0 V x q J b.6.u.u.i.i.T z.BXJXSXZ.",
"'.zXl X @ q 3 r.E NXNXSXPXPXAXBXgXVXFXAXGXH.%.0XrX5XM.w @XoXY ,Xs.1.f.q.s.H.f.XXXX;X<XqXjXR.2XsXsXtXsXA.y y.p.2.A R J 9 @ K q.u.u.f.9.T.u.E.$ yXaXAXMX",
"MXcX' o.C T n.gXhXhXDXPXCXBXNXVXBXVXbXbX9Xp ) dXg.rX!.0.-XXX-X.X2.E | | %.a.@.u w f.7.l.w R.i.gXsXhXtX1X6 f I I +.q.R P 2.p 0.m.2X~.R.b.c.u.7.k wXNXMX",
"vXMXX.o.y % v.~ gXDXJXMXBXMXmXqXhX|.BX9XT %X| }.SXBXBX5Xe.@X~ Q K %.6.#.7.L A ,  . .6.7X9.y.R +Xt.uXhXM.7.g.Y.U.I.U.g.@.- # k H !.).6X6Xx.:X%.0 rXrX X",
"5XZXX.B.2 ] #X&XkXPXnXCXxXxXpXjX7XtXgXx.s C.k $.nXbXbXaXL.$ j S 3 6.x.t.! -XV D.F.k.H aX*XW .XkXN t.tXm.(.O E.U.Y.Y.&.I F N.i { c.).4X6X6X>X6X%.O sX7X",
"aXZX>.< 3 J bXdXyX:Xm.rXsXsX|.tXyXmXNXl >.X...fXBXBXSXiXrXf.C Z x C p r.9XY R k.s./ L.BX+X+X,X+XQ w 0.-.p : I t Y.Y.U.&.I B O w K.!.%.7XdX6Xf.%.f O E.",
"O * 9 B b y T R z.!.xXsXpXrXtXpXmXjXH.r D.;.Z.[.l.e.LXAX5XL.,Xw.0.7 ,XoXHXoX9.H.'.sXX.wXMXBXy.;X.X.X5.K.:XsXaXj.d h Y.U.F F f 4 $.2X#.a.).2Xu.8.| : : ",
"1 { S S 3 ] w.3.R f.Q.rX_.|.7XhXuXsXt V.;.z.B p.(.JXzXbXaX{.( ..S P +X@X.XW ..d.=.|.S.k.zXbXgXe.Q N / vXpX X{.sXhXq.d I &.k / 3.@  .H.N.P K R.x.=.: , ",
"G.p.z.3. .} [ -.3.~.6X!.7XtX7XpXlXP.( X.lX7Xp.2.w.9XJXLXmX].( l C ..a.s.E OX) V.iXiXlXh.rXNXLXaX5.+XX.'.zXxXbXxXpXH.Q.P R C > 4 $ 9 D qXaX0X2Xt.B h [.",
"{.'.L.G. .D 8 [ y.f.u.iXsXhXtXsX X+ n X.S.aXC. .y.l.KXLXJX^.>.O ^ A ..s.C.2.4.5.*.*.xXDXA.JXPXAXqX^.l d.D.nX[.MXnXnX).wXU G 4.3.r O D D fXFX1Xv.O } '.",
"}.{.].G.= * - p H m.f.;.sXpXzXMXS.+   >.n.9XdXy.{ _ fX$XGXS.>.q.p g  .p.k.k.f.W <./ ' [ {.'.JXLXaXF.$ _ P.S.xXMXbXMXbXeXaXx.4 D j r r : 9 1.t.w.@ 4 {.",
"[.L.;., t ).T.P $ 8._ A.O.E.l J.8 a e o...5.e.+X@X,X+X#XD.X.= @XK > A @.a.s.7.A W XXQ OX>.X.>.LXGX$.e <.=.-.' A.mXCXbXgXwX4 a ( ( a e e < O p 8 q l iX",
"j * * {.~.~.R.T.T., H O.$.A.G.p.{ :.r o / 5.OXv W -X-XE | > {.}.W. .e H K g w g J S fX}.{.h.j J v.<.b 3 b 5.] / |._.|.sXrXK J o.J C k.r 7.u 3X8 > : l ",
"O O Y.5X/.~./.g.T.8.@.f 7. .[ S.f j r e y ~ oXY N OXz J p D.}.'.'.F.a B g g p i OXz.cXlX}.f.b.XX,X+Xm Q OXOXM OX%Xc.K.S t C c D S 0 2 H x.x.4XA.W.: , ",
"- &.~.).~.Y.T.q.F R.7.@.& q 3.q + = z.0.3.P i.~ ~ Q Q @     . | 6.V ~ q.t.K.4XS OX3 }./.}.4XM.9XQ t.h.q.-.s.d.s.T 2.6 2 < J K k C q k.$X4X4XaXsXQ.: : ",
"O.~.).5X/.T.T.q.g.!.g.9.1.y p.m R >Xi.c.c.c.! E z.J R J S V [ w.~ <X~ 6.E dX0X5X2X8XN.x.@.h.N.9.s.t.v.fX8X9X!.8.[ J C c C = $ a i L.yXbXcXzXlXlXZ.: : ",
"0 T.(.[.).!.g.T.c.g.b.c.F J c l.b.,X3X3X2X2X8X6X2X1X6X6X:X2X3Xv.9.Y 3XyX!.tXbXBX:XQ &XdX1.4.C y 0.c.T.8X:X!.:XJ./ D 1X6X&Xt.B u V a.Q.aXcX}.lXxXD.: : ",
"O F q (.).(.T.g.c.#.U.T.F 1.- 3.S R.0.dXwXdX4Xn.u.x.R.6Xs.N.2X6.%.%.MX}.MXbXbXBXPXdX~ Y +Xb M 3.z.8X>X2X@Xi.x.p S s.v.6.8X$Xv.S S.eXiXiX}.CXcXlXF.r : ",
"= o ).5X~.(.g.g.q.U T.i.g 8.6 m L D &X0X0X0Xn.K.2Xm.i.g.R.g.6Xq.%.p.}./.iXBXNX1X8XfXkXKXQ +X.XM J ~.e.7.m <.m N.:X8X9.8X9.b.b.u.P.zXaXcXCXcXCXk./.a ' ",
">.2 K ).~.(.!.T.#.T.T.U.f #.O u m 1.K n.1XK.z.1XK.!.K.2Xx.N.N.9.A A.G.MXd.gXhXfXt.Q 0XkXb.v e.J J B &X#X2.J >X:X>X2X2XR.b.c.! 8.{.vXlXcXCXL.vX(.7.u m.",
"d.V., T.T.R.R.8.&.8.c.c.g a.# G C K 3.Z Z &XM.!.$X!.R.:X2X!.q.8.a B.Z.Z.S.a.nX}.dX9X&XY <X+X+XQ 5.<.4.b 1.$X$X:X6X8X9X2X:X! t.  CXMXlXcXlXC.k.z.H s G.",
"A.O.;.K 9.T.j.!.f.g.c.c.q c e # R Y C J S S r.N.:X:XN.K.N.2X@.8.r -.H.S.sXC.V.t.$XM z %XY oX<Xw.y.R N OXR 6.E 9X9X9X>X>X$X! k.O cXcXlXlX}.^.&X0.s j L.",
"G.lXk ( O +.v u.i.Y.g.Y.{ q kX<.$ S c m V C c !.R.:XR.K.N.K.6.E 6 Q 4.z.=.).;.4.+XQ M OX+X%XQ R Q R t.J i.9X9X9XfXkX:Xb.t.f.8 9 xXlXiXlXlX{.&X=.a k L.",
"S.{.>.h g r 8 L p q V 6.@ q q 8 v c s n J <.P ..R.:X$XN.t.t.8.~ %X@X+X+XrXhX5X4.W b kXN OX4 3.Q v t.! R.fXfXkX$XfX>Xb.b.l.2  XO.|.pXsXlX XG.[.P.s k E.",
"S.{.{.( l f } ; 0 e.w J o r.o 7 2.8 3 m n n 3.} P x.$X!.n.4.2.@X-XXXZ e.L.j./.9Xz.$X5.t.W r.'.0 r.Q t.dXjXr.w.9Xb.b.v.u., {.pX^.lX^.{.G.G.W. X{.n ^ F.",
"D.D.iX' G $.. - 3 p A X l.J 1.N.fXm.n.S 8 8 y n m H s.9.0.7.n E oXT OX;Xl.S.s.f.3.W x S s.2X2.;.B t.e.%X9X9X9X,Xv.t.N.  eX{.W.D.{.zXiXlX].W.lX{./ l A.",
"A.}.D.].l ;.MX[.n.9.H.K L m.fXdX!.NXrXJXnXZ.G.p.a 8 0 > 4 > < l ( 4.T @XR | s.r.l.J ( Q.CXcXmXtXu 3.} 4.#X#X#X$Xt.1.@ o '.k.f.A k.'.].`.`.F.W.'.y k H.",
";.A.F.].;.r {. XcXm.0.L H sXjXPXVX).T.!.NXCXbXZX}.A.Z.S.2.8 G ( o.w.@ * 4 % V 8 z.C h.} iX}.VXMX(.8 D J 1.Q 4.w.R q J 0 ^.).0 p s.Z.].lXlXlX{.h.] r Z.",
"= , $.+.` O  Xh./.].9.r.1.BXPXPXJXPXJXPXJXBXNXCXnXZXxXBXQ.'.l t 0 Y @Xw.+.j.#.h , r k 8.].( lXGXBXh.* B L L S R 6.d.C.x.0   + + H.S.G.V.>.xXpXG.3 e   ",
"O f &.O * f O.* ;.h.* ' eXNXVXDXDXDX^.BXfX).LXxXZXZXvX(.iXD.D.1 9 B 6 f +.Y.Y.I.g.Y.%.S.].MX'.{.JX|.g.O } q e J 4.&X$XyX|.rXo a l.m.G.D.A.S.q.k.J X   ",
"/.tX_.7XzXaXsXyX@.0 * O.}.vXNXmX|.jXmXiXbXMXyXn.eXiXlXlXW.D.S.z.w o U.I.E.I.Y.U.Y.Y.( =.E.tX=.iXBXvXQ.8.o m J &X!.&XN.!.|.hXrXX   = * O = * t H t   > ",
"nXhX|.NXBXBX4XN.1Xn.0 P s.rXmXfX1X#Xw.MXMXzX0XgXvXlX}.lXD.W.|.X 7.! 8.+.I.q.! q.Y.E.2 F.V.G.F.( PXLXsX9.8 1.t.N.M.v.&XmXNXnXhX0 B I.I.Y.U.g.U.g.H 1 CX",
"CXCXMX XbXAXIX1Xi.&X$XQ n.BXL.oXoX=X.X$XsX).qXaXCXcXMXlXD.L.l.@ d I.U &.I u.q.&.&.j.,.l :.*._ X.' SXtXY.1 H.k.wX5XGX!.GXDXZXnX;.F I I ,.Y.Y.Y.I f r *.",
"X.nXnXxX`.G.G.G.mX%X+Xz.R y.s.,X<X<XR 9XuXjXlXiXCXMXNXMXlXtXL.# Q R q.u.g.+.q.E g.U.F : e D.`.< $ : t { W.].ZXDXaXaXbXMXDXDXnXh.G O.h I U.U.I h h 9 ' ",
"*.=.CXpXQ.v.6XwXvX%XT m l.HX$X+X9X5.@XoXiXtX].pXK.BXCXnXpXiXvX  @ w.4.q.I.I.9 8.q.9.9 {.iXiXiXE.&.z.Z.S.G.NXMXxXbXH.n.PXLXAXMXp.. = 1 h I h h h r , l ",
"< r :.k.3X0XdXz.3Xz.M M 4.M OX1.4X@XQ XXfXjXdX6XmXcXlXrX).pX<.3 5.M +Xc d q.I F 6 a., D.iXlXzX Xj.j.l.n.mXNXxXwXz.H.vXZXSXAXvXn.k  .p.%.;.t }.iX].l 2 ",
"= $ 8 3.J 7.H J x 0.T M OXM M 3.|.(.fXjXmXNXh.s.3.S.$.d :   . W +X%XN E V p   H.d.Q.>.9 /.|.iXcXE.;.;.|.mXCXhXMXaX4.0.eXaXs.wX0.n d. ...o._ }.zX{.eXL.",
">.X n m c H % 4.y.R i.0 3.kX*XOXl.l.;.t * 1 j ) 8.%.T.).: 2 ;.|.l.OXN *Xz y 0 o.' vXtXF j.j.,.U.{., `.nXnXSXnXMXiX XrXpXgX&X&Xz.c o..._ | ( }.lXlXeXiX",
"X.  . p.0.f.b.t.c.u.E #.) < f { %.1.8.!.5X).~.!.2XN.T.j.l ( _.|.2X4X2.<X@XK k d.` CXsXnX* E.(.j * _.mXpXNXnX{.mXBXiX_.2Xt.l.L.p.i ..| D f ( _ }.eXlX{.",
"X.o ..N.>X:X3X6X:Xu.g.u./ 4 r f u.+.~.~.~.R.R.!.T.T.R.' X.mXD.tXtX4X~.x V 9 H rX$.bXMXMX_.% = % /._.pX|.MXMXpX_.NX_.T.2XdXaX[.L.i [ ) 0 K G = P.C.[.}.",
"$  .c.v.2X2X8X6X).!.@.c.k [ e B u.g.T.~.).~.~.~.R.R.n.j j xXMXxXBXaXL.w C x.2.yXk.H.nXMXBX^.1 < W.tX|.NXNXMXnXtXrXtX2XpX!.rXD.G.8 a.0 [ g J H & r.S.Z.",
". v.3X3X6X1X6X6X2X8.s.qXD  .9 H g.c.R.6XR.7XT.R.T.2X2 F.' *.CXMXMXsXT.N.p e.w.r.t.3.m.LXDXqXp.8 '.tXbXNXMXMXZX7XtX_.tXsXsX].^.z.w B S H [ 6 H k @ e - ",
"$ 2X6XR.6X#.2X!.(.f.5Xp =.} 9 -.U.~.R.q.~.c.q.T.U +.G F.A.k pXMXbXJX4XK.8 3 J Q 4XdX;.zXPXBXsXt =.ZXnXMXxXrXpX|.7X7X7XpXqXJ.p.J @ J } B 2 l ..2.c y > ",
"o m.8XfX!.:Xc.T.T.k p./ -.o.e A !.T.~.q.v.u.u.8.$.* >.lXxXX.nXpXSXJXgXL.! ~ x 2...0.y.o.JXLXaXG ' { ;.cXBXMXmXsX7XrX_.|.{.l.3.@ x 8 B $ 1 D A H 4 e o ",
"  D dX2X%.a...[  .m.D ....[ % H M.{ g.N.w.u.e.7.3.' >.nX X:.D.A.(.LXJXaXC.S *XT X g r.*.Z.IXGXj %._ _ A.O.h.xXpXhXpXpXnXG.(.# m.[.H.s.$.  . 0 8 H f.E.",
"SX. / k.:Xs.-...x.x.%...[ $.  [ H ..Z ~ @.! e.e.w d.Z.yXnX*.:.h.SXLXJXaXJ.r.z.a j `.B.t 1 X.MX0 4 c {  .E.W.j.h.m.uXnX{.G.G {.lX X}.[.j., O H.BX^.iXrX",
"bXiXo ` m.2XT.8.1Xg.....D g & # - H 2.Z E t.R 2.c l. .Q.D.xXX.:.eXIXLXzX{...} z.G.`.G.^.F.B.V.`./ 3 J & A ) n.f.6.+.%.n.* h.}.lX}.{.eXD.G B.BXH.xX^.sX",
"xXMXt a C...f.!.q.a.} { k k d.d.7.} C c S P J y e 9 p.S.lX X` ^.-.LXBXlXA.( [ >.u.t.VXBXAXlXZXxXnXlXL.F.d.5 y ..1.x.6.k.= A.{.lXlX{.eXY.2 ' iXSX).tXnX",
"bXH.VX  s } s.#. .[ | D r     >.a.P 7 q K J 7.  3 3 ` :.G.' A.L.L.K.L.X.k P w.n.qXiXk.mXT.hXZXDXnXDXDXMX=.xXq M.J w = 3 8.&.Q.,.^.}.{.@.< '.p.VXpXGXaX",
"xXbXaXxX  D | } o.] D O o > 8 6 %.7.6 X . @ o.'.-.o.j G.X.[.D.'.X.L.[.) 8 q.>XQ N.gX~.nXZXnXnXnX XlX{.DXx.x.0 y c 3 p t.7.@.@.i B t.s.S -.=.H.VXGXmXmX",
"aXzXsX>.wXZ ~ Q 4.X vXzXaXbXeXiX$ 9 X < D S.[.{.:.$.# + :.o.j r s - s 3.@ $XUX1XhXpX).>.{.E. X XZXiXZX).tXyX(.k } t t.N.N.s.t.%.. + [ k O.H.).vXN.(.sX",
"MXAXvXk.!.XX.X.XY i.gXgXAXeXNXNXaX- . ` {.}.].].>.l o L < r a 0 o   | 3 3.wXb.k.b.pXzXE.F.pX|.nXNXcXiX!.N.p.] # 2 % 9.p.N.H.f.x.P   # > [.L.pXsXSX{.bX",
"MXxX{.r.>XXX-X<XT yXnXbXLXd.LXLXCX8 B.W.'.^.[.'.l < c 3XbXv._ _ j B o X J.K m.%.6XgX^.G./.pXsX(.bXaXnXpXp.C.J 4 C k 1.u.d.J.m.S.g.g   < ` '.rXtXtXgXSX",
"[.JX7X).6.p Q OX4.3.W.E./.CXJXcXe ' d.=.-.-.>.B.J c uX4.KXGXJXD.(.K z.6 @ | 3.t.v.v.5X>.:Xf.tX6XqX).xXD.D.p.% C L m 3.7.t.s.H.T.x.g.0   $.Z.eXVXVXbXVX",
"{.C.X.*.a   d...M.xXpXsXpX XH D O a _ =.X.[ r   + Z v qX].W.h.A.xXpX_ J Q q 1.E Y XX,X#XwX/.2XuX_.a.P.F.[ 8 s G a H { s.@.a.f.H.m.j.6.$ $ L.[.^.(.L.L.",
"k r * o 8 . ` X.X.*._ ;.` 0 p A a X.B.` _ X.=.-.J p . 3XaX4XUXAXW.sXxXgX` @ b Q @X4..X@Xi.rXyXpXE.G.k.<.i l l A $ | P 7.%.#.a.k.k.K.f.@.- , ' ' >.^.( ",
"P.}.0X0XS.{.o $ p $ p % 8 C wXLXLXLXG.;.L._.f.@X} 0.@ L.mXvXBXBXBXBXCXbX!.J T P %X%XOXQ z.6X2XD.d.0.C.b / ` D 3 p.s.%.s.k.f.@.k.%.m.k.f.6.= , > ( X.=.",
"[.(.p.4X0X}.9 # 6.v.E Q J Z 4XsXAXMXxXzXxXC.[ 6XP 7.n Y 8 0XyXnX7X_.nXMX5X4 4 N #X+XM OX>X>XE J.#X7.n a ( 9 s 5 x 3.s.j.8.s.q.8.f.k.m.f.f.g , ` *.`.G.",
"4X'.G.n.z.{...E ! v.t.t.C V s.~.iXGXVXnXMXZXJ.3.J @ X X X Z 8.AXVXqX_.pXS.8 q <.#X#X+X,XY r.y.Q 2.i o.G.G.L.J.[.L.J.D J n.l.g.f.k.m.K.n.x.t r :.-.'.B.",
">.l.<.<.5.<.R w.-X<X;XoXP y % @ w ' (.|.|.x.6.4.1.@ 7 4.J + q o 0 ;.O.o j j i   <.5.3.2.4.! 3.2.7 3 [ $.S.L.{.eX}. X:.1 # 4 { f.s.j.j.K.f.t > > L.d.Z.",
"L.k.M %XM W N 3 4.XXXXq.L + y.a.I : .   s p.(.8 Q x a...7 5.X < ^.}.k . ( l c X g Z 5.5.Y J 3.@ q 8 . ` $.;.G.].}.=.l 1 cX{.A.* 9 L.9.f.x.2 , l >.{.[.",
"L.L.<.W N b %Xz.0 K u.S - lXaXE N.%.. 8 G k.aXS.2.z.J.p.p T 4.eX}.}.^ #   O K 0.} m i D ..+ 7 $ # X   O , $.$.'.=.j d.* iXlX/.h.* 1 , * * 6 , < G j l ",
">.:.e X # M OX# 5.S H 0 {.lXlXlX{.W.j X.W.A.d.H.(.[.[. .H | n.Z.D.S.G % ) ' %.2.-.H.O e e o y e [.{.'.'.' 1 9 l j t k * ( A.E.2 ].eX, , $.V.t = > t :.",
"  o o.[ t   A.>.tXrXh.O.lXzX{.eX XW.> _ =.$.h.Z.W.'.d.l G 1 ( r 1 , j ' =.A.G.s.a._ W.^.' $ $ . A.{.{.G.=.> > j $.tX5XA.= j u > {.LX>.8 $.A.{.[.].9 , "
};
