/* XPM */
static char *result[] = {
/* columns rows colors chars-per-pixel */
"63 77 105 2 ",
"   c black",
".  c #000100",
"X  c #010101",
"o  c #000300",
"O  c #020102",
"+  c #000500",
"@  c #040104",
"#  c #040404",
"$  c #040504",
"%  c gray2",
"&  c #040704",
"*  c #090308",
"=  c #070D08",
"-  c gray3",
";  c #090A09",
":  c #0A090A",
">  c #0B0B0B",
",  c #0C0B0C",
"<  c gray6",
"1  c #0B110C",
"2  c #0F120F",
"3  c #111211",
"4  c #131213",
"5  c #131313",
"6  c #151515",
"7  c #141714",
"8  c #181818",
"9  c #191919",
"0  c #1A191A",
"q  c gray10",
"w  c #212021",
"e  c #262926",
"r  c #353435",
"t  c #353535",
"y  c #373737",
"u  c #393839",
"i  c #414041",
"p  c #414141",
"a  c gray27",
"s  c #484848",
"d  c #4F4E4F",
"f  c gray38",
"g  c DimGray",
"h  c #6A6D6A",
"j  c #797879",
"k  c #797979",
"l  c #7D807D",
"z  c #808080",
"x  c gray51",
"c  c #868686",
"v  c gray53",
"b  c #8C8D8C",
"n  c #8D8C8D",
"m  c #8F8C8F",
"M  c #8E8E8E",
"N  c gray57",
"B  c #949594",
"V  c #979797",
"C  c gray60",
"Z  c #9B9B9B",
"A  c gray62",
"S  c #A4A3A4",
"D  c #ACABAC",
"F  c #B0AFB0",
"G  c #B5B6B5",
"H  c #B6B6B6",
"J  c #B6B7B6",
"K  c gray72",
"L  c #B8BBB8",
"P  c #BBB8BB",
"I  c #BBBBBB",
"U  c #BDBEBD",
"Y  c #BEBDBE",
"T  c #C2C6C2",
"R  c gray84",
"E  c #DBD6DA",
"W  c #DFD9DE",
"Q  c #DCDDDC",
"!  c gray89",
"~  c #E4E4E4",
"^  c #E6E7E6",
"/  c #EAE4E9",
"(  c #EDE7EC",
")  c #EDEAED",
"_  c #EFEFEF",
"`  c #EEF4EF",
"'  c #F1ECF0",
"]  c #F3F3F3",
"[  c gray97",
"{  c #F7FAF7",
"}  c #F8F8F8",
"|  c #F9F9F9",
" . c #FBF8FB",
".. c gray98",
"X. c #FBFBFB",
"o. c #FBFEFB",
"O. c #FFFAFF",
"+. c gray99",
"@. c #FDFCFD",
"#. c #FDFDFD",
"$. c #FDFEFD",
"%. c #FFFCFF",
"&. c #FEFEFE",
"*. c #FFFEFF",
"=. c white",
/* pixels */
"                                                                                                                              ",
"                                                                                                                              ",
"                                                                                                                              ",
"                                                                                                                              ",
"                                                                                                                              ",
"                                                                                                                              ",
"                                                                                                                              ",
"                                                                                                                              ",
"                                                                                                                              ",
"                                                                                                                              ",
"                                                                                                                              ",
"                                                                                                                              ",
"                                                                                                                              ",
"                                                          . o                                                                 ",
"                                                          n [ [ v                                                             ",
"                                                    o + ~ =.=.=.=.!                                                           ",
"                                                    $ H =.=.=.=.=.=.B $                                                       ",
"                                                    < O.=.=.=.=.=.=.=.2                                                       ",
"                                                    f =.=.=.=.=.=.=.=.f                                                       ",
"                                                    S =.=.=.=.=.=.=.=.S                                                       ",
"                                                    D =.=.=.=.=.=.=.=.D                                                       ",
"                                                    m =.=.=.=.=.=.=.=.b                                                       ",
"                                                    i X.=.=.=.=.=.=.X.p                                                       ",
"                                                    @ [ =.=.=.=.=.=.[ @                                                       ",
"                                                      t =.=.=.=.%.O.y                                                         ",
"                                                    . o C *.=.=.*.Y                                                           ",
"                                                    7 h P %.=.=.=.U k a                                                       ",
"                                                  T o.=.=.=.=.=.=.=.=.%.' >                                                   ",
"                                              # M o.$.=.=.=.=.=.=.=.=.*.%.[ -                                                 ",
"                                              < =.=.=.=.=.=.=.=.=.=.=.=.=.=.j                                                 ",
"                                              Z =.=.=.=.=.=.=.=.=.=.=.=.=.=.} +                                               ",
"                                            o | =.=.=.=.=.=.=.=.=.=.=.=.=.=.=.e                                               ",
"                                            1 =.=.=.=.=.=.=.=.=.=.=.=.=.=.=.=.N                                               ",
"                                            c %.=.=.=.=.=.=.=.=.=.=.=.=.=.=.%.W                                               ",
"                                            E %.=.=.=.=.=.=.=.=.=.=.=.=.=.=.*.)                                               ",
"                                            / %.=.=.=.=.=.=.=.=.=.=.=.=.=.=.=...#                                             ",
"                                          X ] =.=.=.=.=.=.=.=.=.=.=.=.=.=.=.=.#.;                                             ",
"                                          % ..=.=.=.=.=.=.=.=.=.=.=.=.=.=.=.=.=.3                                             ",
"                                          : +.=.=.=.=.=.=.=.=.=.=.=.=.=.=.=.=.=.6                                             ",
"                                          , &.=.=.=.=.=.=.=.=.=.=.=.=.=.=.=.=.=.9                                             ",
"                                          4 =.=.=.=.=.=.=.=.=.=.=.=.=.=.=.=.=.=.0                                             ",
"                                          5 =.=.=.=.=.=.=.=.=.=.=.=.=.=.=.=.=.=.q                                             ",
"                                          < K K K L =.=.=.=.=.=.=.=.=.=.I K K K 5                                             ",
"                                                  o $.=.=.=.=.=.=.=.=.@.s                                                     ",
"                                                    o.=.=.=.=.=.=.=.=. .u                                                     ",
"                                                    [ =.=.=.=.=.=.=.=.=.=                                                     ",
"                                                  @ _ =.=.=.=.=.=.=.=.#.&                                                     ",
"                                                  * ^ =.=.=.=.=.=.=.=.X.                                                      ",
"                                                    R =.=.=.=.=.=.=.=.=.                                                      ",
"                                                    G =.=.=.=.=.=.=.=.| o                                                     ",
"                                                    A =.=.=.=.=.=.=.=.] +                                                     ",
"                                                    x =.=.=.=.=.=.=.=.^ *                                                     ",
"                                                    g =.=.=.=.=.=.=.=.Q @                                                     ",
"                                                    d =.=.=.=.=.=.=.=.J                                                       ",
"                                                    a =.=.=.=.=.=.=.=.F                                                       ",
"                                                    w X.=.=.=.=.=.=.=.V                                                       ",
"                                                    8 [ =.=.=.=.=.=.=.z                                                       ",
"                                                    o l (  .=.=.{ ` K r                                                       ",
"                                                    . o   O @ @ O                                                             ",
"                                                                                                                              ",
"                                                                                                                              ",
"                                                                                                                              ",
"                                                                                                                              ",
"                                                                                                                              ",
"                                                                                                                              ",
"                                                                                                                              ",
"                                                                                                                              ",
"                                                                                                                              ",
"                                                                                                                              ",
"                                                                                                                              ",
"                                                                                                                              ",
"                                                                                                                              ",
"                                                                                                                              ",
"                                                                                                                              ",
"                                                                                                                              ",
"                                                                                                                              ",
"                                                                                                                              "
};
