/* XPM */
static char *d9b1212a94954a81db37a53b918d8f9ee3fqfsrziQwhak0K[] = {
/* columns rows colors chars-per-pixel */
"54 54 35 1 ",
"  c None",
". c #6E4F38",
"X c #7C593F",
"o c #646D2F",
"O c #7F5C42",
"+ c #766050",
"@ c #856044",
"# c #8B6447",
"$ c #886449",
"% c #8B6448",
"& c #9D6B47",
"* c #996E4E",
"= c #996E4F",
"- c #A17656",
"; c #A57959",
": c #867568",
"> c #80756C",
", c #947660",
"< c #8D7E73",
"1 c #4DAE1D",
"2 c #4FB81A",
"3 c #579026",
"4 c #5BA620",
"5 c #5FBD31",
"6 c #71A537",
"7 c #52CE15",
"8 c #50C418",
"9 c #74CD48",
"0 c #76D846",
"q c #81823F",
"w c #828C3D",
"e c #B38665",
"r c #BF916F",
"t c #86DC5C",
"y c #888684",
/* pixels */
"                                                      ",
"                                                      ",
"                                                      ",
"                                                      ",
"                                                      ",
"                                                      ",
"                                                      ",
"                                                      ",
"                                                      ",
"                                                      ",
"                                                      ",
"                                                      ",
"                                                      ",
"                                                      ",
"                                          t           ",
"              7                        7  tt          ",
"             7                        7 7 t t         ",
"            7 1                         7t            ",
"            71                          7t            ",
"            71                          7t            ",
"            81                          89            ",
"111111111111111111111111111111111111111111111111111111",
"1771t72171t77t777t17771t7171t77t777t1771t7171t777t7711",
"t1t7770t7771t71717715t77tt7771t71877t1t77.t7.715t717t7",
"..71777717.7..17t1712711.717.777187171717=.1=.74.71711",
"&=t.7.31...1rr.t1.7....7.1...171777.77..7=1.==16r1.1t.",
"y7.=1=X.&&t.=r&1.&.====1..7&=.7.1o.&17==.7.&&7.X=1&.7&",
"=.1=.7w=&&1=1y=.=&====7.==.&==1y7w=&..1==.7&&.===t==1&",
"==.==.%===.7.====&==q1.===rr==.=1q=&==.===.======.t=.&",
"yy===rrr===.=.======%.rr========.%==r=======rr====.1r=",
"yy==r====rrr=.==rr==;rr====...=..%===rr====yyr====r.r=",
"===yy====ryy=..===r=%.=yy===.==r=X.=======..==y<===yy=",
"===yy=====yy=======.#r==y***===r===..**====.=**,y.==y=",
"=X=+,===XX,,=======.O;==,O<<===re-*$.O*=<=*$O*<:+.==,=",
"=.=.====..=========.X**==.yy===rr;==..==y===.=y+..====",
".=.======.=====rr==.X**==.yy==..========yy====-,======",
"====y====.===r==rr====rr=..===.=========ry=.======yy==",
"=====y,=r===rr=========r=======yyyy=.===rr=.========y=",
"=====y,=r==.r====..====rr==y====y,===.====..==rrrr====",
"====y===rr=...==..=========yy=======.==========;r=====",
"=========r=================y=..=======================",
"***.**===r*=***.****#.****y*==.=.#*****.===========.==",
"*...y=====.====.=y*...y=**=.====.#=y*...y===*.**===.=y",
"*=========...=====*========...======*========....=====",
"*=====X.===.==r==.*=====.===.==r===.======.===.X==r==.",
"*=.=rr;=====rr===.*.X=rr=====rr====.==.=rr=====;rr===.",
"*..==r;======r==r.=.X==r======r==er.=..==r=======r==r.",
"*XX==e-==####r==r.=X@==e==##%%r==er.=XX==e==####%r==r.",
"*========....r==r.========....r==er.========.....r==r.",
"*====.%======y=========.======y==========.===rre=y====",
"*..================.X======rr========..=====rr========",
"                                                      ",
"                                                      ",
"                                                      "
};
