/* XPM */
static char *f3477b0a0413492e9f877d92ee6d2131C7kAyIgW0Qd780C7[] = {
/* columns rows colors chars-per-pixel */
"79 79 76 1 ",
"  c None",
". c #6E4F38",
"X c #6B5E34",
"o c #73533B",
"O c #74523A",
"+ c #79573E",
"@ c #5D7E2A",
"# c #666631",
"$ c #7E7D37",
"% c #7E763D",
"& c #7E5B41",
"* c #7B6A5E",
"= c #7E7167",
"- c #855D3F",
"; c #815D42",
": c #835E43",
"> c #866044",
", c #896246",
"< c #8B6448",
"1 c #8E6649",
"2 c #9D6B47",
"3 c #91684B",
"4 c #946A4C",
"5 c #966C4E",
"6 c #9B6C4B",
"7 c #996E4E",
"8 c #996E4F",
"9 c #977155",
"0 c #9D7152",
"q c #9E7253",
"w c #95745C",
"e c #A27656",
"r c #A27757",
"t c #A77B5B",
"y c #817164",
"u c #937763",
"i c #907A69",
"p c #827871",
"a c #8E7D70",
"s c #4DAE1D",
"d c #59AF1E",
"f c #4EB21C",
"g c #4FBA1A",
"h c #4FBE19",
"j c #55BF19",
"k c #598A27",
"l c #5C9E22",
"z c #608E26",
"x c #779C2E",
"c c #738E36",
"v c #759E32",
"b c #7E9239",
"n c #78A33C",
"m c #62BF35",
"M c #51C617",
"N c #51CA16",
"B c #52CE15",
"V c #58D01E",
"C c #69C53C",
"Z c #72D741",
"A c #78D14C",
"S c #79D94B",
"D c #AC805F",
"F c #8C8077",
"G c #8A837E",
"H c #AB8161",
"J c #A1846E",
"K c #B18463",
"L c #B78865",
"P c #B68867",
"I c #B58968",
"U c #BA8D6B",
"Y c #BF916F",
"T c #A38B79",
"R c #86DC5C",
"E c #888684",
/* pixels */
"                                                                               ",
"                                                                               ",
"                                                                               ",
"                                                                               ",
"                                                                               ",
"                                                                               ",
"                                                                               ",
"                                                                               ",
"                                                                               ",
"                                                                               ",
"                                                                               ",
"                                                                               ",
"                                                                               ",
"                                                                               ",
"                                                                               ",
"                                                                               ",
"                                                                               ",
"                                                                               ",
"                                                                               ",
"                                                                               ",
"                                                                               ",
"                                                              R                ",
"                     B                                   B    RRR              ",
"                     B                                   B    RRR              ",
"                   BB                                  BB BB  R  R             ",
"                 BB  s                                    BBRR                 ",
"                 BB  s                                    BBRR                 ",
"                 BBss                                     BBRR                 ",
"                 BBss                                     BBRR                 ",
"                 BBss                                     BBRR                 ",
"sssssssssssssssssssssssssssssssssssssssssssssssssssssssssssssssssssssssssssssss",
"sssssssssssssssssssssssssssssssssssssssssssssssssssssssssssssssssssssssssssssss",
"ssBBBsRRBgsBBsRRBBBRSBBBBRRsNBBBsRRBssBhsRRBBBRBBBVRssBBBsARBBsBBsRRBBBRRBBBsss",
"RRsRRBBBBZRBBBBBsRRBMsBBsBBBfsRRBBBRRRBBBBBsRRBssBBBRRsRRBBB..RBB.BBsCRBBsBBRBB",
"RRsRRBBBBZRBBBBBsRRBMsBBsBBBfsRRBBBRRRBBBBBsRRBssBBBRRsRRBBB..RBB.BBsmRBBsBBRBB",
"...BBsBBBBBssB..B...#sBBRssBfsBBsss.BBshB..BBBBssBNsBBsBBsMB88.ss8..Bl.BBsBBsss",
"228RR.BB.ks.....sYYYH.RRs..BX....BB.ss.....sBBsBBBj.BBB...dB88s..888snYss.ssR..",
"228RR.BB.ks.....sYYYD.RRs..BX....BB.ss.....sBBsBBBj.BBB...dB88s..888snYss.ssR..",
"EEB..8ss8&.222RR.88YL2ss.22.48888ss...Bx288.BB.ss.O2ssB888+.BB.222BB.&8ss2..B22",
"iik@@8@@v%:222CC:ccTJ7@@:22:5888v@@:::z$288:hh*hh:>2@@zcc8,:zzz222zz:<8CC2&:h22",
"77.ss8..Bb8222ss8ssEF8..82288888B..888.-2888ssEBB882...ss888..B222..888RR888s22",
"778..888.,8888..B..88888822888ss.88888YYY888..8ss882888..88888.88888888..R88.22",
"088..888.,8888..B..88888822888ss.88888YYY888..8ss882888..88888.88888888..R88.22",
"EEE88888YYY88888.88.+888888888..YYY888888888888..888YY88888888888YYY88888.ssY88",
"EEE888YY88888YYYY88.+888YYY888YYY888888:....88...88888YYY888888EEEYY88888Y..Y88",
"EEE888YY88888YYYY88.+888YYY888YYY888888:....88...88888YYY888888EEEYY88888Y..Y88",
"88888EEE88888YEEE88...88885Y07..8EEE88888..888Y88.O88888888888...888Ea8888EEE88",
"88888EEE888888EEE88888888880o.YY888E8888888888Y8884...888888888..8888uE..888E88",
"88888EEE888888EEE88888777888o.YY888E8888888888Y8884...888888888..8888uE..888E88",
"88.88.88888...88888888770588o.888888..EEE88888YYY888...888FE88888.88E=...888888",
"44o44o88888oo.888888880q0888o.888888..EEE88844PUU888ooo888FE99888o88Gyooo888888",
"..8..88888888.88888888YYY888o.888888..EEE888...88888888888FEEE88888888888888888",
"888888EE88888.88888YP888YYY88888YYY8...:8888..888888888888PYEE8..88888888EEE888",
"888888EE88888.88888YP888YYY88888YYY8...:8888..888888888888PYEE8..88888888EEE888",
"88888888Eu8YY8888YYYP888758888888YY88888888888EEEEG8..8888PYYY8..88888888888E88",
"88888888Eu8YY888.YY888880...48888YYY888iE888888EE88888.8888888...888YYYYY888888",
"88888888Eu8YY888.YY888888...48888YYY888iE888888EE88888.8888888...888YYYYY888888",
"888888EE888YYY88....+888...888888888888iEEE888888888..888888888888888tY88888888",
"888888ww888rrY8811114888111888888888888iEww+++888888118888888888888887r08888888",
"8888888888888Y8888885888888888888888888iE88...888888888888888888888888778888888",
"77777.7777778Y87777777..777777..777787Ei7777..7..77777777.1787777777777777..888",
"77777.7777778Y77777777..777777..777777Ei7777..7..77777777.1788777777777777..887",
"77....EE877777..788888..8EE7o...E887777:.778888..89E77....pE887777..778888..8EE",
"77888888888888.....88888888788888888888:....8888888877888888888888.....88888888",
"77888888888888.....88888888888888888888:....8888888888888888888888.....88888888",
"778888888&.88888.888eY888..88888888.88888..888Y8884.8888888888.88888.&888Y888..",
"778..8YYYt8888888YYYP8888..8o.88YYY88888888YYY88884.778..8PYYY8888888tYYY8888..",
"778..8YYYt8888888YYYP8888..8o.88YYY88888888YYY88884.788..8PYYY8888888tYYY8888..",
"88...770Yt888888888YP888Y..7o.778YY888888888YY887YP.77...888YY888888888YY888Y..",
"78&&+777Ke888,,,,,,YP888Y..8:+808KK888,,,,,,YY887YP.77:+&888KK888,,,,,,YY888Y..",
"7788887088888......YP888Y..88888888888......YY887YP.7788888888888......YY888Y..",
"77888888.,888888888EF888888888888..888888888EE88898878888888..8888YYYK8EE888888",
"77888888.,888888888EF888888888888..888888888EE88888888888888..8888YYYK8EE888888",
"77...88888888888888888888888o.888888888DYYY88888888888...88888888YYY88888888888",
"                                                                               ",
"                                                                               ",
"                                                                               ",
"                                                                               ",
"                                                                               "
};
