/* XPM */
static char *_2326e355278405480ff426d0b97d035Avc8CEoy1D8YsPoE[] = {
/* columns rows colors chars-per-pixel */
"76 76 93 2 ",
"   c #3A4466",
".  c #3C4769",
"X  c #3E496A",
"o  c #434E6F",
"O  c #434F70",
"+  c #455172",
"@  c #465172",
"#  c #485474",
"$  c #495576",
"%  c #4A5777",
"&  c #4C5777",
"*  c #4B5878",
"=  c #4E5B7A",
"-  c #4F5C7B",
";  c #4F5C7C",
":  c #515D7D",
">  c #515E7D",
",  c #515F7E",
"<  c #535F7E",
"1  c #536180",
"2  c #546281",
"3  c #576382",
"4  c #566483",
"5  c #576684",
"6  c #596584",
"7  c #5A6986",
"8  c #5A6987",
"9  c #5B6A88",
"0  c #5D6A88",
"q  c #5D6C89",
"w  c #5F6E8B",
"e  c #606F8C",
"r  c #626F8D",
"t  c #61708D",
"y  c #63708E",
"u  c #65728F",
"i  c #667390",
"p  c #667491",
"a  c #6C7A96",
"s  c #6D7B96",
"d  c #6E7D98",
"f  c #72809B",
"g  c #74829D",
"h  c #77859F",
"j  c #7786A1",
"k  c #7E8DA7",
"l  c #7F8EA8",
"z  c #808EA7",
"x  c #8291AB",
"c  c #8691A9",
"v  c #8994AC",
"b  c #8A96AE",
"n  c #8A97AF",
"m  c #8797B0",
"M  c #8898B1",
"N  c #8B98B0",
"B  c #8D9AB1",
"V  c #8E9BB2",
"C  c #8B9BB4",
"Z  c #8C9CB4",
"A  c #8C9CB5",
"S  c #8D9DB6",
"D  c #96A1B7",
"F  c #91A1B9",
"G  c #97A4BA",
"H  c #96A4BC",
"J  c #96A5BD",
"K  c #9BA5BB",
"L  c #9AA9BF",
"P  c #9DA8BD",
"I  c #9BA9C0",
"U  c #9DABC1",
"Y  c #9FABC0",
"T  c #A2ADC2",
"R  c #A2AFC3",
"E  c #A2B0C5",
"W  c #A6B2C7",
"Q  c #A5B3C8",
"!  c #A9B6CA",
"~  c #AEBACD",
"^  c #AFBBCF",
"/  c #B0BCCF",
"(  c #B3BFD2",
")  c #B7C2D5",
"_  c #B7C3D5",
"`  c #B8C3D5",
"'  c #B9C5D7",
"]  c #BAC5D7",
"[  c #BBC6D8",
"{  c #BCC8D9",
"}  c #BEC9DB",
"|  c #BFCADB",
" . c #C0CBDC",
/* pixels */
" . . . . . . . . . . . . . . . . . . . . . . . . . . . . . . . . .h 8 8 8 t ]  . . . . . . . . . . . . . . . . . . . . . . . . . . . . . . . .h 8 8 8 8 ",
" . . . . . . . . . . . . . . . . . . . . . . . . . . . . . . . . .h 8 8 8 t `  . . . . . . . . . . . . . . . . . . . . . . . . . . . . . . . .h 8 8 8 8 ",
" . . . . . . . . . . . . . . . . . . . . . . . . . . . . . . . . .h 8 8 8 t `  . . .| |  . . . . . . . . . . . . . . . . . . . . . . . . . . .h 8 8 8 8 ",
" . . . . . . . . . . . . . . . . . . . . . . . . . . . . . . .|  .h 8 8 8 t `  . .| | }  . . . . . . . . . . . . . . . . . . . . . . .|  . . .h 8 8 8 8 ",
"_ _ _ _ ]  . . . . . . . . . . . . . . . . . . . . . . .] ^ ^ ~ ^ f 8 8 8 t / ` _ _ ' }  . . .|  . . . . . . . . . . . . . . . . . ._ / ~ ~ ^ f 8 8 8 8 ",
"Z Z Z Z I  . . . . . . . . . . . . . . . . . . . . . . .N 8 8 0 8 8 8 8 8 e N V Z Z U }  . . .|  . . . . . . . . . . . . . . . . . .V 8 q 8 8 8 8 8 8 8 ",
"C C C C L  . . . . . . . . . . . . . . . . . . . . . . .N 8 8 8 8 8 8 8 8 q m C Z Z U  . . .| |  . . . . . . . . . . . . . . . .|  .B 8 8 8 8 8 8 8 8 8 ",
"C C C C L  . . . . . . . . . . . . . . . . . . . . . . .V 8 8 8 8 8 8 8 8 w m C Z Z I  . . .} }  . . . . . . . . . . . . . . . .| | B 8 8 8 8 8 8 8 8 8 ",
"C C C C I | | |  . . . . . . . . . . . . . .|  . . . .| B 8 8 8 8 8 8 8 8 q M C C C L | [ } } }  . . . . . . . . . . . . .} | |  . .V 8 8 8 8 8 8 8 8 8 ",
"C C C C J ( ( _ ( ]  . . . . . . . . . . . .| ] W W Q W k 8 8 8 8 8 8 8 8 w M C C C F _ _ _ _ _  . . . . . . . . . . . . .} Q ! E Q k q 8 8 8 8 8 8 8 8 ",
"C C C C C C C C C Q |  . . . . . . . . . . . .E 8 8 8 8 8 8 8 8 8 8 8 8 8 q M C C C Z Z C C C Q  . . . . . . . . . . . .} T q 9 8 8 8 8 8 8 8 8 8 8 8 8 ",
"C C C C C C C C C Q  . . . . . . . . . . . . .T 8 8 8 8 8 8 8 8 8 8 8 8 9 q M C C C C C C C C Q  . . . . . . . . . . . .| E 9 9 8 8 8 8 8 8 8 8 8 8 8 8 ",
"C C C C C C C C C Q  .|  . . . . . . . . . . .E 8 8 8 8 8 8 8 8 8 8 8 8 8 w x C C C C C C C Z Q  . . . .| |  . . . .| | | E 8 8 8 8 8 8 8 8 8 8 8 8 8 8 ",
"C C C C C C C C C Q  .|  . . . . . . . . . . .E 8 8 8 8 8 8 8 8 8 8 8 8 8 q N Z C C C C C C Z Q  . . . .| |  . . . .| | | E 8 q 8 8 8 8 8 8 8 8 8 8 8 8 ",
"C C C C C C C C C U ^ ^ ^ ^ [  . . .| T T P U N 8 8 8 8 8 8 8 8 8 8 8 8 8 q m V C C C C C C C I ^ / / / ] |  . .| E P T L C 8 8 8 8 8 8 8 8 8 8 8 8 8 8 ",
"C C C C C C C C C C C C C C (  . . ._ t 8 9 8 8 8 8 8 8 8 8 8 8 8 8 8 8 8 w m C C C C C C C C C C C C C )  . .| _ t 8 8 8 8 8 8 8 8 8 8 8 8 8 8 8 8 8 8 ",
"C C C C C C C C C C C C C C / |  . ._ t 8 8 8 8 8 8 8 8 8 8 8 8 8 8 8 8 9 w m C C C C C C C C C C C C C ^ | |  .] t 8 8 8 8 8 8 8 8 8 8 8 8 8 8 8 8 8 8 ",
"C C C C C C C C C C C C C C (  . . .] y 9 8 8 8 8 8 8 8 8 8 8 8 8 8 8 8 9 0 m C C C C C C C C C C C C C / | |  .] t 8 8 8 8 8 8 8 8 8 8 8 8 8 8 8 8 8 8 ",
"C C C C C C C C C C C C C C ( |  . .` r 8 8 8 8 8 8 8 8 8 8 8 8 8 8 8 8 8 9 m C C C C C C C C C C C C C ) | | | _ t 8 8 8 8 8 8 8 8 8 8 8 8 8 8 8 8 8 8 ",
"C C C C C C C C C C C C C C b b v v c 0 8 8 8 8 8 8 8 8 8 8 8 8 8 8 8 8 9 w m C C C C C C C C C C C C C b v b N c q 8 8 8 8 8 8 8 8 8 8 8 8 8 8 8 8 8 8 ",
"C C C C C C C C C C C C C C :       . 5 8 8 8 8 8 8 8 8 8 8 8 8 8 8 8 8 9 q n C C C C C C C C C C C C C -       X 5 8 8 8 8 8 8 8 8 8 8 8 8 8 8 8 8 8 8 ",
"C C C C C C C C C C C C C C :       . 5 8 8 8 8 8 8 8 8 8 8 8 8 8 8 8 8 9 0 m C C C C C C C C C C C C C :       . 5 8 8 8 8 8 8 8 8 8 8 8 8 8 8 8 8 8 8 ",
"C C C C C C C C C C C C C C :       . 4 8 8 8 8 8 8 8 8 8 8 8 8 8 8 8 8 9 w m C C C C C C C C C C C C C :       . 4 8 8 8 8 8 8 8 8 8 8 8 8 8 8 8 8 8 8 ",
"C C C C C C C C C C C C C C :       X 5 8 8 8 8 8 8 8 8 8 8 8 8 8 8 8 8 9 w m C C C C C C C C C C C C C :       X 5 8 8 8 8 8 8 8 8 8 8 8 8 8 8 8 8 8 8 ",
"C C C C C C C C C j t t y y @         $ % % % = 9 8 8 8 8 8 8 8 8 8 8 8 8 q M Z C C C C C C C j y t t t @         $ % % % : 8 8 8 8 8 8 8 8 8 8 8 8 8 8 ",
"C C C C C C C C C r                           + 8 8 8 8 8 8 8 8 8 8 8 8 8 q m C C C C C C C C r                           O 8 8 8 8 8 8 8 8 8 8 8 8 8 8 ",
"C C C C C C C C C r                           o 8 8 8 8 8 8 8 8 8 8 8 8 9 w m C C C C C C C C r                           O 8 8 8 8 8 q 8 8 8 8 8 8 8 8 ",
"C C C C C C C C C r                           o 8 8 8 8 8 8 8 8 8 8 8 8 8 q m C C C C C C C C r                           O 8 8 8 8 8 5 8 8 8 8 8 8 8 8 ",
"C C C C C C C C C r                           + 8 8 8 8 8 8 8 8 8 8 8 8 8 w M C C C C C C Z N t                           O 8 8 q 8 8 8 8 8 8 8 8 8 8 8 ",
"C C C C k 0 0 0 0 &                           X # # # # ; 8 8 8 8 8 8 8 8 9 m C C C z 0 0 0 q &                           X # # @ @ > q 8 8 8 8 8 8 8 8 ",
"C C C C g                                               $ 9 8 8 8 8 8 8 9 q m C C C g                                               % 8 8 8 8 8 8 8 8 8 ",
"C C C C g                                               $ 9 8 8 8 8 8 8 9 q m C C C g                                               % 8 8 8 8 8 8 8 8 8 ",
"C C C C h                                               % 8 8 8 8 8 8 8 8 q M Z C C g                                               % 8 8 8 8 8 8 8 8 8 ",
"C C C C f                                               # 8 8 8 8 8 8 8 8 q m Z Z Z g                                               % 8 8 8 q 8 8 8 8 8 ",
"< 5 4 4 -                                               X # @ @ @ 1 9 8 9 6 1 1 2 4 -                                               X @ @ @ @ , 8 8 8 8 ",
"                                                                  ; 9 8 9 5 . .                                                               , 8 8 8 8 ",
"                                                                  : 8 8 9 5 .                                                                 : 8 8 8 8 ",
"                                                                  ; 8 8 9 5 .                                                                 , 8 8 8 8 ",
"                                                                  : 8 8 9 5 .                                                                 : 8 8 8 8 ",
"K K K K K K K K K K K K K K K K K K K K K K K K K K K K K K K K K a 8 8 8 w D K K K K K K K K L K K K K K K K K K K K K K K K K K K K K K K K d 8 8 8 8 ",
" . . . . . . . . . . . . . . . .|  . . . . . . . . . . . . . . .} j 8 8 8 t _ | |  . . . . . . . . . . . . . . . . . . . . . . . . . . . . . .h 8 8 8 8 ",
" . . . . . . . . . . . . . . . . . . . . . . . . . . . . . . . .} j 8 8 q t ] | | |  . . . . . . . . . . . . . . . . . . . . . . . . . . . . .h 8 8 8 8 ",
" . . . . . . . . . . . . . . . . . . . . . . . . . . . . . . . . .h 8 8 8 t _ }  . . . . . . . . . . . . . . . . . . . . . . . . . .| |  . . .h 8 8 8 8 ",
" . . . . . . . . . . . . . . . . . . . . . . . . . . . . . . . . .h 8 8 8 t [ }  . . . . . . . . . . . . . . . . . . . . . . . .| } | |  . . .j 8 8 8 8 ",
"H H H H E  . . . . . . . . . . . . . . . . . . . . . . .G d d s d t 8 8 8 e F J J J E | | |  . . . . . . . . . . . . . . . . . . . .K f f a a w 8 8 8 8 ",
"C C C C L  . . . . . . . . . . . . . . . . . . . . . . .C 8 8 8 8 8 8 8 8 q M Z Z Z I |  .|  . . . . . . . . . . . . . . . . . . . .B 8 8 8 9 8 8 8 8 8 ",
"C C C C L  . . . . . . . . . . . . . . . . . . . . . . .N 8 8 8 8 8 8 8 8 q N Z Z C I |  . . . . . . . . . . . . . . . . . . . .| | C 8 8 8 8 8 8 8 8 8 ",
"C C V V L  . . . . . . . . . . . . . . . . . . . . . .| V 8 8 8 8 8 8 8 8 t x V Z Z I }  . . . . . . . . . . . . . . . . . . . .} | B 8 8 8 8 8 8 8 8 8 ",
"C C C C I { { { { |  . . . . . . . . . . . . . .] [ ] ] N 8 8 8 8 8 8 8 9 q m C C C I { [ } { |  . . . . . . . . . . . . .} [ ` [ ' b 9 8 8 8 8 8 8 8 8 ",
"C C C C V F F F F Q  . . . . . . . . . . . . .Q y u u u t 8 8 8 8 8 8 8 9 q m C C C C F F F F Q  . . . . . . . . . . . . .Q p p i i w 9 8 8 8 8 8 8 8 8 ",
"C C C C C C C C C Q |  . . . . . . .| |  . . .E 8 8 8 8 8 8 8 8 8 8 8 8 9 q m C C C C C Z Z C Q  . . . . . . . . . . . .} T 9 9 8 8 8 8 8 8 8 8 8 8 8 8 ",
"C C C C C C C C C Q |  . . . . . . .| |  . . .E 8 8 8 q 8 8 8 8 8 8 8 9 9 q m C C C C C C C C Q  . . . . . . . . . . . . .T 8 8 8 8 8 8 8 8 8 8 8 8 8 8 ",
"C C C C C C C C Z Q | |  .| | |  . . .| | | | T 8 8 8 8 8 8 8 8 8 8 8 8 9 9 M C C C C C C C C Q  . .}  . . . . .| | | |  .T 8 8 8 8 8 8 8 8 8 8 8 8 8 8 ",
"C C C C C C C C C E { ' { _ |  . . .| _ ) ^ ) H 8 8 8 8 8 8 8 8 8 8 8 8 9 w m C C C C C C C C E ` ] _ [ }  . . .| ) ^ ^ ) H 8 8 8 8 8 8 8 8 8 8 8 8 8 8 ",
"C C C C C C C C C C Z Z Z C ) |  . ._ u 9 q q t 8 8 8 8 8 8 8 8 8 8 8 8 8 9 M C C C C C C C C Z Z Z Z S _ | }  .] p q t q q 8 8 8 8 8 8 8 8 8 8 8 8 8 8 ",
"C C C C C C C C C C Z Z Z M ) | | | _ t 8 8 8 8 8 8 8 8 8 8 8 8 8 8 8 8 9 w M C C C C C C C C C Z C Z Z ^ |  . ._ t 8 9 9 8 8 8 8 8 8 8 8 8 8 8 8 8 8 8 ",
"C C C C C C C C C C C C C C ( } |  .{ t 9 8 8 8 8 8 8 8 8 8 8 8 8 8 8 8 8 q M Z C C C C C C C C C C C Z )  .| | ] t 8 8 8 8 8 8 8 8 8 8 8 8 8 8 8 8 8 8 ",
"C C C C C C C C C C C C C C ) } | | _ t 8 8 8 8 8 8 8 8 8 8 8 8 8 8 8 8 8 q m C C C C C C C C C C C C Z ^  .| | ] t 8 8 8 8 8 8 8 8 8 8 8 8 8 8 8 8 8 8 ",
"C C C C C C C C C C C C C Z J U T T I q 8 8 8 8 8 8 8 8 8 8 8 8 8 8 8 8 9 w m C C C C C C C C C C C Z Z L T T T L q 8 8 8 8 8 8 8 8 8 8 8 8 8 8 8 8 8 8 ",
"C C C C C C C C C C C C C Z ; .     . 5 8 8 8 8 8 8 8 8 8 8 8 8 8 8 8 8 8 q m C C C C C C C C C C C V C -         8 8 8 8 8 8 8 8 8 8 8 8 8 8 8 8 8 8 8 ",
"C C C C C C C C C C C C C C ;       . 4 8 8 8 8 8 8 8 8 8 8 8 8 8 8 8 8 8 w M C C C C C C C C C C C C C :       X 4 8 8 8 8 8 8 8 8 8 8 8 8 8 8 8 8 8 8 ",
"C C C C C C C C C C C C C C :       . 4 8 8 8 8 8 8 8 8 8 8 8 8 8 8 8 8 8 9 m C C C C C C C C C C C C C :       . 8 8 8 8 8 8 8 8 8 8 8 8 8 8 8 8 8 8 8 ",
"C C C C C C C C C C C C C Z :       . 8 8 8 9 8 8 8 8 8 8 8 8 8 8 8 8 8 9 q m C C C C C C C C C C C C C :       . 4 8 8 8 0 8 8 8 8 8 8 8 8 8 8 8 8 8 8 ",
"C C C C C C C C C l g g g g $       . ; ; ; ; 1 8 8 8 8 8 8 8 8 8 8 8 8 9 q m C C C C C C C C l d g g g %       . - - , - , 8 8 8 8 8 8 8 8 8 8 8 8 8 8 ",
"C C C C C C C C C r                           O 9 8 8 8 8 8 8 8 8 8 8 8 8 9 m C C C C C C C C r .                         O 8 8 8 8 8 8 8 8 8 8 8 8 8 8 ",
"C C C C C C C C C r                           O 8 8 8 8 8 8 8 8 8 8 8 8 9 w m C C C C C C C C r                           O 8 8 8 8 8 8 8 8 8 8 8 8 8 8 ",
"C C C C C C C C C r                           O 8 8 8 8 8 8 8 8 8 8 8 8 9 w M C C C C C C C C t                           O 9 8 8 8 8 8 8 8 8 8 8 8 8 8 ",
"C C C C C C C C C r                           O 8 8 8 8 8 8 8 8 8 8 8 8 5 q M C C C C C C C C r                           O 8 8 8 8 8 8 8 8 8 8 8 8 8 8 ",
"C C C C x a a a a 1                           X = = = = 1 9 9 9 8 8 8 8 9 9 n C C C l a a a a =                         . . = = ; = 1 6 8 8 8 8 8 8 8 8 ",
"C C C C g                                               # 9 9 5 8 8 8 8 9 w m C C C g     .                                         * 9 8 8 8 8 8 8 8 8 ",
"C C C C g                                               # 9 9 9 8 8 8 8 9 9 n m C C g                                               $ 9 8 8 8 8 8 8 8 8 ",
"C C C C g                                               # 9 9 5 8 8 8 9 9 w n C C C g .                                             # 8 8 8 8 8 8 8 8 8 ",
"C C C C g                                               $ 9 9 8 8 8 8 8 8 w C C C C g                                               # 9 8 8 8 9 9 8 8 8 ",
"i i i i 5                                               O * * * * 4 8 8 8 8 r i i i 6                                               O * * * * 2 8 8 8 8 ",
"                                                                  : 8 8 8 5 .                                                               . : 8 8 8 8 ",
"                                                                  : 8 9 8 5 .                                                                 ; 8 8 8 8 "
};
