/* XPM */
static char *ffff4a3b8f1344a98b15d8bffebd4de7mSPd4F2KogwyoxZC[] = {
/* columns rows colors chars-per-pixel */
"77 76 40 1 ",
"  c #060605",
". c #090807",
"X c #0C0C0C",
"o c #14110F",
"O c #131313",
"+ c #191616",
"@ c #1F1D16",
"# c #1E1E1E",
"$ c #201D19",
"% c #23201E",
"& c #201F22",
"* c #222222",
"= c gray17",
"- c #373527",
"; c #383527",
": c #37362A",
"> c #383629",
", c #3A392D",
"< c #333333",
"1 c #3A3A33",
"2 c #3D3D3D",
"3 c #414035",
"4 c #45443A",
"5 c #49493F",
"6 c #424242",
"7 c #4A4740",
"8 c #4B4B42",
"9 c #474748",
"0 c #4A4A4A",
"q c #504F48",
"w c #54534C",
"e c #555555",
"r c #595853",
"t c #5A5A5A",
"y c #605C5B",
"u c #61605B",
"i c #636363",
"p c #686665",
"a c #6C6C6C",
"s c #737373",
/* pixels */
"<iittiiiiiiiipietiiiiittaasasssaa8>>->>>:::::::-::::::-,---,-,-->>326tttttttX",
"<iittiiiiiiiiiittiiiiittpaaaassaa8;:,,,,,,,,,,,3,,,,,,,,,,,,,,,,>>124tttttttX",
"<ttiitttetetiiytttttetttttettaaaa8:3aasaaaaaaaaaasaaaaaasaaaaasa,>126ttyiittX",
"<ttiitttttttiiytttteettttttttaaaa8:3aaaaaaaaaaaaaaaaaaaaaaaaaaaa>;122ttiiyttX",
"*999996699999999699999799669900pa8:180assssssssssssssssaasssssap,>1226999969X",
"*222222222222222222222222222222aa8::26asssssssssssssssssssssssaa,:1222222222 ",
"&211212212111121121112122121221tt5::22aassssssssssssssssssssssap,>1321111121 ",
"$;;;;;;;--::>:::;>:---;>;;;;;;;;--::22ttiaassaaassaaaaaaaaasssaa>:>;;;--:::-.",
"@-;---;>;;;;;;;;:>>--->;----::::-:-:22ttiaasssaassaaaaaaaaassspa,>>-;;;;;;;;.",
"<ppppppq>1iiipipupppppupppippuppp5::22etiaaaaaaaasaassssssssssaa,>qppuppiiiiX",
"1aaaaaae>1paaaaaaassaaaaaaaaaaaaa8::22etpaaaaaaaaaaassssssssssap,>qaaaaaaaaaX",
"<aasaaaw>,eeaasssassasasasaaassaa8:122ttiaaaaaaaaaasasssssssssaa,:4etssasssaX",
"1aassaaw;;26assssssssssssssasssaa8::22ttiaaaaaaaaasssaassassssaa,:129sssssssX",
"2aassaaw;;22pssssssssssssssasssaa8:,22etiaaaaaaaaasssssssaasssap,:126assssssX",
"6ssaaaaw;:22etpssssaasssaasssssaa8:<22ttiiiiiaaaaaaasssssssssaaa,:122ttpaaapX",
"2ssaaaae::26etpssssaaassaasssssaa8::22tttiiiipaaaaaassssssssssaa,:122ttpaaaaX",
"2ssssaae::22etiiiaaaaasssssasssaa8:<22ettttiiiiiaappaaaaaaasssaa,>322ttiiaaaX",
"2sssssaw;:22ettiiaaaaassssaaassaa8::22tttttiiiiiaaiuiaaaaaasssaa,>126ttiiiapX",
"2ssssaaw;:24etyiipaaaasssaaaassaa8::22ttitttiiiippiiaaaaassssaai,>126ttyiiaaX",
"2ssssaaw;;22ettttiiaaaaaaaaaasssa8:<22etiiittiiiiiiiaaaaasssssaa>;122ttiiiaaX",
"2ssssaae::22ettttiipaapaaaaasssaa8:122tttiittiiiiiiiiaaaasssssaa,>326ttiiiaaX",
"2aasssaw::22ettttiiiiiiiiipaassaa8:122ttiiiiitttruiiiiiaaaasssaa>:126iiiipaaX",
"1aassaaw-:22ettttiiiiiiiiiaaasssa8::22tttiiiitttttiiiiiaaaassaaa,:126iiiipaaX",
"<aaasaaw--22ettttiiittttiiassssaa8::22tttttttiiiiiiiutiiiaasssaa,>122ttiipiiX",
"2aaaaaaw::22ettttiitttttuiassssaa8::22ettttttuiiiiiitttiiaaassaa,;124ttiiiiyX",
"<appiaae;:22ettttiittttttippassaa8::22ettttttttitiittttiuaasssaa,;126teiyiiiX",
"<iiiiaaw;:22ettttttttttttttttssaa8::22tttttttttttttttttttiiasaaa,:126tttttiiX",
"<iiiiaaw;:22ettttetttttttetttssaa8:122ettetttttetttttttttuiasaaa,:126etetiiiX",
"<iittaaw;:222222222226222224262aa8::22262226622222262622622660aa,:126tttttteX",
"<iittpaw::222222222222222222222aa8::22222222222222222222222229aa::122tttttttX",
"=0009paw;:1111:1<11111,111:11<,781::,,<1,1,,11,1,,,1,,1:,1,,,155::1229999999X",
"&2222iae;:;;:;::::;;--:-::::;;;;::::::::--:-::::::::::::::::::::::1222222222.",
"%1123ru5-:--4444445544444445446644544444444441-,4444444444544444:-,121312121.",
"%;::----,--,uaaaaaaaaaaaaaaaaaasaaaaaaaaaaaaa4-5aaaaaaaaaaaaaaaa,>:>;:::;>>;.",
"@:,:::,,,:::iaaaaaaaaaasaaaaaassaaaaaaaaaaaaa4;4aaaaasasaaaaaaaa,>:,::,:::::.",
"1pippppipu::26tssssssssssssssssssssssssssssaa4;169asssssssssssap,-qippppppppX",
"2aaaaaaaap--22tssssssssssssssssssssssssssssaa4;122asssssssssssap,>waaaaaaaapX",
"2asasssaai,:320ipaassssssasssssssssssaassssaa4;:22iisssssassssaa,:4wwsasssssX",
"2sssssssau:>220tuaaaaassaassssssssssaaaasssaa4;,22ttassssaasssap,:126sssssssX",
"2sssssssap,>220ttaaaasssaasssssssssssasasssaa4:122ttassssaasssaa,:126assssssX",
"2ssaasssap,:220ttiipaaaaaassssssssssssssssssa4-:22etiassssasssaa,:322ttassssX",
"2ssaasssap::320ttiiaaaaaaaasssssssssssssssssa4::22ttpaassassssap,>,26ttsssssX",
"2ssaassaau::220ttttiiiiiaaaasaaassssaaaasssaa4-,22ttpasssssssaaa,>126ttpaaapX",
"2ssaassssu,:220ttttiiiiiaaaaaaaassssaaaasssaa4:,22ttpaasssssssaa,-122ttpaaaaX",
"2sasssssap::220tttiiiiiiiaaaaaaaassssssssssaa4:,26tipaasssssssap,-126tiippaaX",
"1aassssaai,:260ttiiiiiiiiiiaaaaaassssssssssaa4::22iipaaaasssaaaa,:126iiiipaaX",
"<aasssssai::220ttiiiiiiiiiaaaaaaaasssssssssaa4:,26tipaaaassaaaaa,:<26iiiiiaiX",
"1aaaasssai::220ttteiiiiiiiiaaaaaaaaasssasssaa4:,22etiiiaaaasssap1:126etiiiiiX",
"2aaaassaai,;220ttttiiiiiiipaaaaaaaaassaasssaa4::22tttiiaaaasssaa,>324ttiiiiiX",
"<aasssssap,:220tttttttiiiiiiiiiaaaaasasssssaa4:,22tiiiaaasssssaa,>126ttttyiiX",
"2aasssssap::220tttttttiiiiiiiiiaaaaaaasssssaa4:,26iiiiiaasssssaa,>126tttttiiX",
"<aassssaai::220tttttitiiiiiiiiiiapaaaasssssaa4::26ttiiiaaassssai>;122tttttiyX",
"2aaaasssap>:220tttttitttttiiiiiiiiiiaassssssa4:122ttttiaaaasssaa,;126ttttiiiX",
"<aasasssap,>220ttttiiittteiiiiiiiiiiaasssssaa4-:22ettttaaaasssaa,;126ttettiiX",
"<iiiissaap>>220ttetiiiiitttttiiiiiiiaappassaa4::22tttiiaasssaaaa,:122ttiitttX",
"<iiiisssap>;220ttttiiiiptttttiiiiiipaaiiassaa4:126etiiaaassaaaai,;126ttiiittX",
"<itiisssau:>420ttttttttttttttiittittiiiiassas4-:22ttiiiaaaassaaa,>126tttitiyX",
"=ttiissaap:>220ttttttttttttttiitttttttiiassaa4:,22ettiaaaaaassaa,:124tttttiiX",
"<ttitsssap::220ttttttttttttttiitttttettiassaa4:<22etiiiaaaasssaa,:126tttttiyX",
"<tttesssai::220tttttttttttttttttttttttttpssaa4-:22ttiiiiiaassaaa,;126ettttttX",
"=eeteasaap,>228ettetettteetttettttttttetisaaa4:,26ttiiiiiaasssaa>>122ttteteeX",
"*626266eap>:2226222222222622222222222222269aa3:122ttiiiiiaaaaaaa,:1422226262.",
"*222222eai::2222222222222222222222222222226aa4:<22etiiiiiaaaaaaa,,1222222222.",
"#1::,::144:::1,::1:,:1:,,<:1:1::1::1::<1,:144,:<22tttttttaaasaaa,::::1::,<:<.",
"$>>>>>;>;>>>>;;;;;;;;;;;;;;;;;;;;;;>;;;;;;;;>>>,22ettttttaasssai1<:>>>;;,:>; ",
"%444444444444446444477444444444441;>444444444,;,22ttyytttaasssaa::,444444444.",
"2aaaaaaaaaaaaaaaaaaaaaaaaaaaaaaaa8;3saaaaaaaa4><22ttiiiiiaaassaa,:waaaaaaaaaO",
"1aaaaaaaaaasaaaaaaaaaaaaaaaaaaaaa8:2paaaaaaaa4>,22etiiiiiaasssaa,-qaaaaaaaaaX",
"6ssssssssssssssssssssssssssssssaa8>:22passsaa4>,22ettiittiisssaa,;226sssssssX",
"2ssssssssssssssssssssssssssssssaa8::22passsaa4>,22ttiiittiiasaap,-126sssssssX",
"2ssasasssssassasssssssassssssssaa8:122iipsaaa4>,26tttttttiisssaa>:124ppaaasaX",
"2ssaaaasssaaaaaaasssaaaasssssaaaa8:<22eeiaaaa4;,22tttttttiisssaa,:122ttiiiaaX",
"2saaaaaassaaaaaaassaaaaasssssaaaa0>,22eeyipaa4;>22eeeeeeettpaaaa,>322ttiiiapX",
"<iiiiiiiaaaaaaaaaaaaaaaasssssssaa7>,2222226aa4;122222222222220aa,>129ttiiiiiX",
"<iiiiiiiaaaaaaaaaapaaaaaaasssssaa0>>2222226aa4;>22222222222220ap>;122ttuiiiiX",
"O$&&##&##&#&####&&&&&$&&&%&&=%%&&+OXOOOOOO+&&+ooOOOOOOOOOOOOOO&&ooOO++#%#### "
};
