/* XPM */
static char *_48dc3f322d24158ad5585cec5ca330a6l2szlocCTEuwwPr[] = {
/* columns rows colors chars-per-pixel */
"126 66 3 1 ",
"a c #E07B10"
"b c #0C0703"
"e c #BA7239"
"aaeeeeeaaaaaaaaaaeeeeaaaaaeeeeeaaaaaaaaaaeeeeaaaaaeeeeeaaaaaaaaaaaaaaaaeeeeaaaaaeeeeeaaaaaaaaaaeeeeaaaaaeeeeeaaaaaaaaaaeeeeaaa"
"aaeeeeeaaaaaaaaaaeeeeaaaaaeeeeeaaaaaaaaaaeeeeaaaaeeaaaaaeeeeeaaaaaaaaaaeeeeaaaaaeeeeeaaaaaaaaaaeeeeaaaaaeeeeeaaaaaaaaaaeeeeaaa"
"aaeeeeeaaaaaaaaaaeeeeaaaaaeeeeeaaaaaaaaaaeeeeaaaaaeeeeeaaaaeeaaaaaaaaaaeeeeaaaaaeeeeeaaaaaaaaaaeeeeaaaaaeeeeeaaaaaaaaaaeeeeaaa"
"aaeeeeeaaaaaaaaaaeeeeaaaaaeeeeeaaaaaaaaaaeeeeaaaaaeeeeeaaaaaaaaaaeeeeaaaaaeeaaaaeeeeeaaaaaaaaaaeeeeaaaaaeeeeeaaaaaaaaaaeeeeaaa"
"aaeeeeeaaaaaaaaaaeeeeaaaaaeeeeeaaaaaaaaaaeeeeaaaaaeeeeeaaaaaaaaaaeeeeaaaaaeeaaaeaeeeeaaaaaaaaaaeeeeaaaaaeeeeeaaaaaaaaaaeeeeaaa"
"aaaaaaaaaaaaaaabbbbbbbbbbbbbaaaaaaaaaaaaaaaaaaaaaaeeeeeaaaaaaaaaaaaaeeeeaaaaaaaeeeaaaaaaaaaaaaaabbbbbbbbbbbbbbaaaeeeeaaaaaaaae"
"aaaaaaaaaaaaaaabbbbbbbbbbbbbaaaaaaaaaaaaaaaaaaaaaaeeeeeaaaaaaaaaaeeeeaaaaaeeeeeaaaaaaaaaaeeeeaaabbbbbbbbbbbbbbaaaeeeeaaaaaeeee"
"aaaaaaaaaaaaaaabbbbbbbbbbbbbaaaaaaaaaaaaaaaaaaaaaaeeeeeaaaaaaaaaaeeeeaaaaaeeeeeaaaaaaaaaaeeeeaaabbbbbbbbbbbbbbaaaeeeeaaaaaeeee"
"aaaaaaaaaaaaaaabbbbbbbbbbbbbaaaaaaaaaaaaaaaaaaaaaaeeeeeaaaaaaaaaaeeeeaaaaaeeeeeaaaaaaaaaaeeeeaaabbbbbbbbbbbbbbaaaeeeeaaaaaeeee"
"aaaaaaaaaaaaaaabbbbbbbbbbbbbaaaaaaaaaaaaaaaaaaaaaaeeeeeaaaaaaaaaaeeeeaaaaaeeeeeaaaaaaaaaaeeeeaaabbbbbbbbbbbbbbaaaeeeeaaaaaeeee"
"aaeeeeeaaaaaaaaaaeeeeaaaaaeeeeeaaaaaaaaaaeeeeaaaaaeeeeeaaaaaaaaaaeeeeaaaaaeeeeeaaaaaaaaaaeeeeaaaaaeeeeeaaaaaaaaaaeeeeaaaaaeeee"
"aaeeeeeaaaaaaaaaaeeeeaaaaaeeeeeaaaaaaaaaaeeeeaaaaaeeeeeaaaaaaaaaaeeeeaaaaaeeeeeaaaaaaaaaaeeeeaaaaaeeeeeaaaaaaaaaaeeeeaaaaaeeea"
"aaeeeeeaaaaaaaaaaeeeeaaaaaeeeeeaaaaaaaaaaeeeeaaaaaeeeeeaaaaaaaaaaeeeeaaaaaeeeeeaaaaaaaaaaeeeeaaaaaeeeeeaaaaaaaaaaeeeeaaaaaeeee"
"aaeeeeeaaaaaaaaaaeeeeaaaaaeeeeeaaaaaaaaaaeeeeaaaaaeeeeeaaaaaaaaaaeeeeaaaaaeeeeeaaaaaaaaaaeeeeaaaaaeeeeeaaaaaaaaaaeeeeaaaaaeeee"
"aaeeeeeaaaaaaaaaaeeeeaaaaaeeeeeaaaaaaaaaaeeeeaaaaaeeeeeaaaaaaaaaaeeeeaaaaaeeeeeaaaaaaaaaaeeeeaaaaaeeeeeaaaaaaaaaaeeeeaaaaaeeee"
"aaeeeeeaaaaaaaaaaeeeeaaaaaeeeeeaaaaaaaaaaeeeeaaaaaeeeeeaaaaaaaaaaeeeeaaaaaeeeeeaaaaaaaaaaeeeeaaaaaeeeeeaaaaaaaaaaeeeeaaaaaeeee"
"aaeeeeeaaaaaaaaaaeeeeaaaaaeeeeeaaaaaaaaaaeeeeaaaaaeeeeeaaaaaaaaaaeeeeaaaaaeeeeeaaaaaaaaaaeeeeaaaaaeeeeeaaaaaaaaaaeeeeaaaaaeeee"
"aaeeeeeaaaaaaaaaaeeeeaaaaaeeeeeaaaaaaaaaaeeeeaaaaaeeeeeaaaaaaaaaaaaaaaaeeeeaaaaaeeeeeaaaaaaaaaaeeeeaaaaaeeeeeaaaaaaaaaaeeeeaaa"
"aaeeeeeaaaaaaaaaaeeeeaaaaaeeeeeaaaaaaaaaaeeeeaaaaeeaaaaaeeeeeaaaaaaaaaaeeeeaaaaaeeeeeaaaaaaaaaaeeeeaaaaaeeeeeaaaaaaaaaaeeeeaaa"
"aaeeeeeaaaaaaaaaaeeeeaaaaaeeeeeaaaaaaaaaaeeeeaaaaaeeeeeaaaaeeaaaaaaaaaaeeeeaaaaaeeeeeaaaaaaaaaaeeeeaaaaaeeeeeaaaaaaaaaaeeeeaaa"
"aaeeeeeaaaaaaaaaaeeeeaaaaaeeeeeaaaaaaaaaaeeeeaaaaaeeeeeaaaaaaaaaaeeeeaaaaaeeaaaaeeeeeaaaaaaaaaaeeeeaaaaaeeeeeaaaaaaaaaaeeeeaaa"
"aaeeeeeaaaaaaaaaaeeeeaaaaaeeeeeaaaaaaaaaaeeeeaaaaaeeeeeaaaaaaaaaaeeeeaaaaaeeaaaeaeeeeaaaaaaaaaaeeeeaaaaaeeeeeaaaaaaaaaaeeeeaaa"
"aaaaaaaaaaaaaaabbbbbbbbbbbbbaaaaaaaaaaaaaaaaaaaaaaeeeeeaaaaaaaaaaaaaeeeeaaaaaaaeeeaaaaaaaaaaaaaabbbbbbbbbbbbbbaaaeeeeaaaaaaaae"
"aaaaaaaaaaaaaaabbbbbbbbbbbbbaaaaaaaaaaaaaaaaaaaaaaeeeeeaaaaaaaaaaeeeeaaaaaeeeeeaaaaaaaaaaeeeeaaabbbbbbbbbbbbbbaaaeeeeaaaaaeeee"
"aaaaaaaaaaaaaaabbbbbbbbbbbbbaaaaaaaaaaaaaaaaaaaaaaeeeeeaaaaaaaaaaeeeeaaaaaeeeeeaaaaaaaaaaeeeeaaabbbbbbbbbbbbbbaaaeeeeaaaaaeeee"
"aaaaaaaaaaaaaaabbbbbbbbbbbbbaaaaaaaaaaaaaaaaaaaaaaeeeeeaaaaaaaaaaeeeeaaaaaeeeeeaaaaaaaaaaeeeeaaabbbbbbbbbbbbbbaaaeeeeaaaaaeeee"
"aaaaaaaaaaaaaaabbbbbbbbbbbbbaaaaaaaaaaaaaaaaaaaaaaeeeeeaaaaaaaaaaeeeeaaaaaeeeeeaaaaaaaaaaeeeeaaabbbbbbbbbbbbbbaaaeeeeaaaaaeeee"
"aaeeeeeaaaaaaaaaaeeeeaaaaaeeeeeaaaaaaaaaaeeeeaaaaaeeeeeaaaaaaaaaaeeeeaaaaaeeeeeaaaaaaaaaaeeeeaaaaaeeeeeaaaaaaaaaaeeeeaaaaaeeee"
"aaeeeeeaaaaaaaaaaeeeeaaaaaeeeeeaaaaaaaaaaeeeeaaaaaeeeeeaaaaaaaaaaeeeeaaaaaeeeeeaaaaaaaaaaeeeeaaaaaeeeeeaaaaaaaaaaeeeeaaaaaeeea"
"aaeeeeeaaaaaaaaaaeeeeaaaaaeeeeeaaaaaaaaaaeeeeaaaaaeeeeeaaaaaaaaaaeeeeaaaaaeeeeeaaaaaaaaaaeeeeaaaaaeeeeeaaaaaaaaaaeeeeaaaaaeeee"
"aaeeeeeaaaaaaaaaaeeeeaaaaaeeeeeaaaaaaaaaaeeeeaaaaaeeeeeaaaaaaaaaaeeeeaaaaaeeeeeaaaaaaaaaaeeeeaaaaaeeeeeaaaaaaaaaaeeeeaaaaaeeee"
"aaeeeeeaaaaaaaaaaeeeeaaaaaeeeeeaaaaaaaaaaeeeeaaaaaeeeeeaaaaaaaaaaeeeeaaaaaeeeeeaaaaaaaaaaeeeeaaaaaeeeeeaaaaaaaaaaeeeeaaaaaeeee"
"aaeeeeeaaaaaaaaaaeeeeaaaaaeeeeeaaaaaaaaaaeeeeaaaaaeeeeeaaaaaaaaaaeeeeaaaaaeeeeeaaaaaaaaaaeeeeaaaaaeeeeeaaaaaaaaaaeeeeaaaaaeeee"
"aaeeeeeaaaaaaaaaaeeeeaaaaaeeeeeaaaaaaaaaaeeeeaaaaaeeeeeaaaaaaaaaaeeeeaaaaaeeeeeaaaaaaaaaaeeeeaaaaaeeeeeaaaaaaaaaaeeeeaaaaaeeee"
"aaeeeeeaaaaaaaaaaeeeeaaaaaeeeeeaaaaaaaaaaeeeeaaaaaeeeeeaaaaaaaaaaaaaaaaeeeeaaaaaeeeeeaaaaaaaaaaeeeeaaaaaeeeeeaaaaaaaaaaeeeeaaa"
"aaeeeeeaaaaaaaaaaeeeeaaaaaeeeeeaaaaaaaaaaeeeeaaaaeeaaaaaeeeeeaaaaaaaaaaeeeeaaaaaeeeeeaaaaaaaaaaeeeeaaaaaeeeeeaaaaaaaaaaeeeeaaa"
"aaeeeeeaaaaaaaaaaeeeeaaaaaeeeeeaaaaaaaaaaeeeeaaaaaeeeeeaaaaeeaaaaaaaaaaeeeeaaaaaeeeeeaaaaaaaaaaeeeeaaaaaeeeeeaaaaaaaaaaeeeeaaa"
"aaeeeeeaaaaaaaaaaeeeeaaaaaeeeeeaaaaaaaaaaeeeeaaaaaeeeeeaaaaaaaaaaeeeeaaaaaeeaaaaeeeeeaaaaaaaaaaeeeeaaaaaeeeeeaaaaaaaaaaeeeeaaa"
"aaeeeeeaaaaaaaaaaeeeeaaaaaeeeeeaaaaaaaaaaeeeeaaaaaeeeeeaaaaaaaaaaeeeeaaaaaeeaaaeaeeeeaaaaaaaaaaeeeeaaaaaeeeeeaaaaaaaaaaeeeeaaa"
"aaaaaaaaaaaaaaabbbbbbbbbbbbbaaaaaaaaaaaaaaaaaaaaaaeeeeeaaaaaaaaaaaaaeeeeaaaaaaaeeeaaaaaaaaaaaaaabbbbbbbbbbbbbbaaaeeeeaaaaaaaae"
"aaaaaaaaaaaaaaabbbbbbbbbbbbbaaaaaaaaaaaaaaaaaaaaaaeeeeeaaaaaaaaaaeeeeaaaaaeeeeeaaaaaaaaaaeeeeaaabbbbbbbbbbbbbbaaaeeeeaaaaaeeee"
"aaaaaaaaaaaaaaabbbbbbbbbbbbbaaaaaaaaaaaaaaaaaaaaaaeeeeeaaaaaaaaaaeeeeaaaaaeeeeeaaaaaaaaaaeeeeaaabbbbbbbbbbbbbbaaaeeeeaaaaaeeee"
"aaaaaaaaaaaaaaabbbbbbbbbbbbbaaaaaaaaaaaaaaaaaaaaaaeeeeeaaaaaaaaaaeeeeaaaaaeeeeeaaaaaaaaaaeeeeaaabbbbbbbbbbbbbbaaaeeeeaaaaaeeee"
"aaaaaaaaaaaaaaabbbbbbbbbbbbbaaaaaaaaaaaaaaaaaaaaaaeeeeeaaaaaaaaaaeeeeaaaaaeeeeeaaaaaaaaaaeeeeaaabbbbbbbbbbbbbbaaaeeeeaaaaaeeee"
"aaeeeeeaaaaaaaaaaeeeeaaaaaeeeeeaaaaaaaaaaeeeeaaaaaeeeeeaaaaaaaaaaeeeeaaaaaeeeeeaaaaaaaaaaeeeeaaaaaeeeeeaaaaaaaaaaeeeeaaaaaeeee"
"aaeeeeeaaaaaaaaaaeeeeaaaaaeeeeeaaaaaaaaaaeeeeaaaaaeeeeeaaaaaaaaaaeeeeaaaaaeeeeeaaaaaaaaaaeeeeaaaaaeeeeeaaaaaaaaaaeeeeaaaaaeeea"
"aaeeeeeaaaaaaaaaaeeeeaaaaaeeeeeaaaaaaaaaaeeeeaaaaaeeeeeaaaaaaaaaaeeeeaaaaaeeeeeaaaaaaaaaaeeeeaaaaaeeeeeaaaaaaaaaaeeeeaaaaaeeee"
"aaeeeeeaaaaaaaaaaeeeeaaaaaeeeeeaaaaaaaaaaeeeeaaaaaeeeeeaaaaaaaaaaeeeeaaaaaeeeeeaaaaaaaaaaeeeeaaaaaeeeeeaaaaaaaaaaeeeeaaaaaeeee"
"aaeeeeeaaaaaaaaaaeeeeaaaaaeeeeeaaaaaaaaaaeeeeaaaaaeeeeeaaaaaaaaaaeeeeaaaaaeeeeeaaaaaaaaaaeeeeaaaaaeeeeeaaaaaaaaaaeeeeaaaaaeeee"
"aaeeeeeaaaaaaaaaaeeeeaaaaaeeeeeaaaaaaaaaaeeeeaaaaaeeeeeaaaaaaaaaaeeeeaaaaaeeeeeaaaaaaaaaaeeeeaaaaaeeeeeaaaaaaaaaaeeeeaaaaaeeee"
"aaeeeeeaaaaaaaaaaeeeeaaaaaeeeeeaaaaaaaaaaeeeeaaaaaeeeeeaaaaaaaaaaeeeeaaaaaeeeeeaaaaaaaaaaeeeeaaaaaeeeeeaaaaaaaaaaeeeeaaaaaeeee""
"aaeeeeeaaaaaaaaaaeeeeaaaaaeeeeeaaaaaaaaaaeeeeaaaaeeaaaaaeeeeeaaaaaaaaaaeeeeaaaaaeeeeeaaaaaaaaaaeeeeaaaaaeeeeeaaaaaaaaaaeeeeaaa"
"aaeeeeeaaaaaaaaaaeeeeaaaaaeeeeeaaaaaaaaaaeeeeaaaaaeeeeeaaaaeeaaaaaaaaaaeeeeaaaaaeeeeeaaaaaaaaaaeeeeaaaaaeeeeeaaaaaaaaaaeeeeaaa"
"aaeeeeeaaaaaaaaaaeeeeaaaaaeeeeeaaaaaaaaaaeeeeaaaaaeeeeeaaaaaaaaaaeeeeaaaaaeeaaaaeeeeeaaaaaaaaaaeeeeaaaaaeeeeeaaaaaaaaaaeeeeaaa"
"aaeeeeeaaaaaaaaaaeeeeaaaaaeeeeeaaaaaaaaaaeeeeaaaaaeeeeeaaaaaaaaaaeeeeaaaaaeeaaaeaeeeeaaaaaaaaaaeeeeaaaaaeeeeeaaaaaaaaaaeeeeaaa"
"aaaaaaaaaaaaaaabbbbbbbbbbbbbaaaaaaaaaaaaaaaaaaaaaaeeeeeaaaaaaaaaaaaaeeeeaaaaaaaeeeaaaaaaaaaaaaaabbbbbbbbbbbbbbaaaeeeeaaaaaaaae"
"aaaaaaaaaaaaaaabbbbbbbbbbbbbaaaaaaaaaaaaaaaaaaaaaaeeeeeaaaaaaaaaaeeeeaaaaaeeeeeaaaaaaaaaaeeeeaaabbbbbbbbbbbbbbaaaeeeeaaaaaeeee"
"aaaaaaaaaaaaaaabbbbbbbbbbbbbaaaaaaaaaaaaaaaaaaaaaaeeeeeaaaaaaaaaaeeeeaaaaaeeeeeaaaaaaaaaaeeeeaaabbbbbbbbbbbbbbaaaeeeeaaaaaeeee"
"aaaaaaaaaaaaaaabbbbbbbbbbbbbaaaaaaaaaaaaaaaaaaaaaaeeeeeaaaaaaaaaaeeeeaaaaaeeeeeaaaaaaaaaaeeeeaaabbbbbbbbbbbbbbaaaeeeeaaaaaeeee"
"aaaaaaaaaaaaaaabbbbbbbbbbbbbaaaaaaaaaaaaaaaaaaaaaaeeeeeaaaaaaaaaaeeeeaaaaaeeeeeaaaaaaaaaaeeeeaaabbbbbbbbbbbbbbaaaeeeeaaaaaeeee"
"aaeeeeeaaaaaaaaaaeeeeaaaaaeeeeeaaaaaaaaaaeeeeaaaaaeeeeeaaaaaaaaaaeeeeaaaaaeeeeeaaaaaaaaaaeeeeaaaaaeeeeeaaaaaaaaaaeeeeaaaaaeeee"
"aaeeeeeaaaaaaaaaaeeeeaaaaaeeeeeaaaaaaaaaaeeeeaaaaaeeeeeaaaaaaaaaaeeeeaaaaaeeeeeaaaaaaaaaaeeeeaaaaaeeeeeaaaaaaaaaaeeeeaaaaaeeea"
"aaeeeeeaaaaaaaaaaeeeeaaaaaeeeeeaaaaaaaaaaeeeeaaaaaeeeeeaaaaaaaaaaeeeeaaaaaeeeeeaaaaaaaaaaeeeeaaaaaeeeeeaaaaaaaaaaeeeeaaaaaeeee"
"aaeeeeeaaaaaaaaaaeeeeaaaaaeeeeeaaaaaaaaaaeeeeaaaaaeeeeeaaaaaaaaaaeeeeaaaaaeeeeeaaaaaaaaaaeeeeaaaaaeeeeeaaaaaaaaaaeeeeaaaaaeeee"
"aaeeeeeaaaaaaaaaaeeeeaaaaaeeeeeaaaaaaaaaaeeeeaaaaaeeeeeaaaaaaaaaaeeeeaaaaaeeeeeaaaaaaaaaaeeeeaaaaaeeeeeaaaaaaaaaaeeeeaaaaaeeee"
"aaeeeeeaaaaaaaaaaeeeeaaaaaeeeeeaaaaaaaaaaeeeeaaaaaeeeeeaaaaaaaaaaeeeeaaaaaeeeeeaaaaaaaaaaeeeeaaaaaeeeeeaaaaaaaaaaeeeeaaaaaeeee"
"aaeeeeeaaaaaaaaaaeeeeaaaaaeeeeeaaaaaaaaaaeeeeaaaaaeeeeeaaaaaaaaaaeeeeaaaaaeeeeeaaaaaaaaaaeeeeaaaaaeeeeeaaaaaaaaaaeeeeaaaaaeeee"
};
