/* XPM */
static char *_8c2cf922c684463d2c41bbcf3222848ui7Uir5ifMKVOMwZ[] = {
/* columns rows colors chars-per-pixel */
"76 76 191 2 ",
"   c #361B1B",
".  c #3B1F1F",
"X  c #3F241E",
"o  c #511E1D",
"O  c #681111",
"+  c #7A1212",
"@  c #7E1917",
"#  c #7B1C1A",
"$  c #79390B",
"%  c #412423",
"&  c #4D2D2C",
"*  c #5C2B2A",
"=  c #462D36",
"-  c #632C2B",
";  c #7F2221",
":  c #604733",
">  c #7F6837",
",  c #5C4747",
"<  c #795352",
"1  c #634F68",
"2  c #9A1E06",
"3  c #871514",
"4  c #971A1A",
"5  c #9B1C1C",
"6  c #BF0001",
"7  c #A5170D",
"8  c #A11F1E",
"9  c #8C2514",
"0  c #83231E",
"q  c #902C1D",
"w  c #AE3606",
"e  c #9C2A26",
"r  c #91352E",
"t  c #AA2322",
"y  c #AE2C25",
"u  c #B42726",
"i  c #B32D2B",
"p  c #B63029",
"a  c #A43A3A",
"s  c #C70A01",
"d  c #C50A04",
"f  c #D21601",
"g  c #D61A00",
"h  c #DF2500",
"j  c #C0300C",
"k  c #C8381A",
"l  c #E42C00",
"z  c #E93100",
"x  c #EA3802",
"c  c #C62526",
"v  c #CB3E3F",
"b  c #82430E",
"n  c #8C4E11",
"m  c #8F5111",
"M  c #9A5C14",
"N  c #9E6116",
"B  c #A96C19",
"V  c #934225",
"C  c #8B552E",
"Z  c #955236",
"A  c #BE4B32",
"S  c #AB5938",
"D  c #996431",
"F  c #A16929",
"G  c #B86528",
"H  c #A07630",
"J  c #EB4300",
"K  c #ED5308",
"L  c #ED5A09",
"P  c #F0740F",
"I  c #F17A11",
"U  c #CB4E36",
"Y  c #E94E25",
"T  c #FD593D",
"R  c #C76B3C",
"E  c #A94646",
"W  c #B15959",
"Q  c #976846",
"!  c #9D7252",
"~  c #B66767",
"^  c #B86C6C",
"/  c #AB7070",
"(  c #BC7575",
")  c #DB5C46",
"_  c #CE5051",
"`  c #C46148",
"'  c #E7694C",
"]  c #CC7979",
"[  c #BE841F",
"{  c #9F8834",
"}  c #BF8521",
"|  c #BB883D",
" . c #A39638",
".. c #EE9017",
"X. c #EAA91F",
"o. c #F7AF1C",
"O. c #FDD600",
"+. c #F9C421",
"@. c #F5D526",
"#. c #FBDB26",
"$. c #FCEA2A",
"%. c #FFFC2D",
"&. c #FDF635",
"*. c #998441",
"=. c #B68547",
"-. c #A79358",
";. c #BBAC49",
":. c #B68C6D",
">. c #BEB079",
",. c #CF8946",
"<. c #C28F56",
"1. c #C6985C",
"2. c #D09357",
"3. c #E29449",
"4. c #D4AB50",
"5. c #D8AD51",
"6. c #CCB156",
"7. c #E1A557",
"8. c #EA876D",
"9. c #FC9465",
"0. c #CEA764",
"q. c #D3A56D",
"w. c #CFA573",
"e. c #D3A970",
"r. c #D9AC73",
"t. c #E6B57A",
"y. c #FBB077",
"u. c #D4C455",
"i. c #E9CF45",
"p. c #E1CC5B",
"a. c #EADD50",
"s. c #E2D15D",
"d. c #E9DA6A",
"f. c #E3D677",
"g. c #F4E57C",
"h. c #685784",
"j. c #81709A",
"k. c #8778A6",
"l. c #B69782",
"z. c #B79A85",
"x. c #8E80B1",
"c. c #9C99B6",
"v. c #BCADBB",
"b. c #CA8887",
"n. c #D08B8A",
"m. c #C89393",
"M. c #DD9796",
"N. c #D2B98B",
"B. c #C2AA99",
"V. c #EBA08C",
"C. c #EBAD9C",
"Z. c #DFAAAB",
"A. c #C8B3A5",
"S. c #C2B0BD",
"D. c #D6B5B5",
"F. c #DDB7B7",
"G. c #E5B1A9",
"H. c #C9C397",
"J. c #DAC49E",
"K. c #F5C182",
"L. c #FBC686",
"P. c #E5D885",
"I. c #F8CB94",
"U. c #E6DB91",
"Y. c #F9EB84",
"T. c #F8EB88",
"R. c #F7EB93",
"E. c #DACEAF",
"W. c #E4D8AF",
"Q. c #EBC7BD",
"!. c #F3DABD",
"~. c #F4EBAA",
"^. c #F3EBB4",
"/. c #9B90C8",
"(. c #A198D1",
"). c #B3B4D0",
"_. c #C7C6C4",
"`. c #DAC0C0",
"'. c #DBD2CB",
"]. c #C4CBDC",
"[. c #EBCFC7",
"{. c #E6D7C9",
"}. c #F1DFCA",
"|. c #E7D6D5",
" X c #E1DAD4",
".X c #E9E5C6",
"XX c #EBE7D5",
"oX c #F0E2D2",
"OX c #ECE4E3",
"+X c #EBEAE5",
"@X c #ffECECEC",
/* pixels */
"@X@X@X@X@X@X@X@X@X@X@X@X@X@X@X@X@X@X@X@X@X@X@X@X@X@X@X@X@X@X@X@X@X@X@X@X@X@X@X@X@X@X@X@X@X@X@X@X@X@X@X@X@X@X@X@X@X@X@X@X@X@X@X@X@X@X@X@X@X@X@X@X@X@X@X@X",
"@X@X@X@X@X@X@X@X@X@X@X@X@X@X@X@X@X@X@X@X@X@X@X@X@X@X@X@X@X@X@X@X@X@X@X@X@X@X@X@X@X@X@X@X@X@X@X@X@X@X@X@X@X@X@X@X@X@X@X@X@X@X@X@X@X@X@X@X@X@X@X@X@X@X@X@X",
"@X@X@X@X@X@X@X@X@X@X@X@X@X@X@X@X@X@X@X@X@X@X@X@X@X@X@X@X@X@X@X@X@X@X@X@X@X@X@X@X@X@X@X@X@X@X@X@X@X@X@X@X@X@X@X@X@X@X@X@X@X@X@X@X@X@X@X@X@X@X@X@X@X@X@X@X",
"@X@X@X@X@X@X@X@X@X@X@X@X@X@X@X@X@X@X@X@X@X@X@X@X@X@X@X@X@X@X@X@X@X@X@X@X@X@X@X@X@X@X@X@X@X@X@X@X@X@X@X@X@X@X@X@X@X@X@X@X@X@X@X@X@X@X@X@X@X@X@X@X@X@X@X@X",
"@X@X@X@X@X@X@X@X@X@X@X@X@X@X@X@X@X@X@X@X@X@X@X@X@X@X@X@X@X@X@X@X@X@X@X@X@X@X@X@X@X@X@X@X@X@X@X@X@X@X@X@X@X@X@X@X@X@X@X@X@X@X@X@X@X@X@X@X@X@X@X@X@X@X@X@X",
"@X@X@X@X@X@X@X@X@X@X@X@X@X@X@X@X@X@X@X@X@X@X@X@X@X@X@X@X@X@X@X@X@X@X@X@X@X@X@X@X@X@X@X@X@X@X@X@X@X@X@X@X@X@X@X@X@X@X@X@X@X@X@X@X@X@X@X@X@X@X@X@X@X@X@X@X",
"@X@X@X@X@X@X@X@X@X@X@X@X@X@X@X@X@X@X@X@X@X@X@X@X@X@X@X@X@X@X@X@X@X@X@X@X@X@X@X@X@X@X@X@X@X@X@X@X@X@X@X@X@X@X@X@X@X@X@X@X@X@X@X@X@X@X@X@X@X@X@X@X@X@X@X@X",
"@X@X@X@X@X@X@X@X@X@X@X@X@X@X@X@X@X@X@X@X@X@X@X@X@X@X@X@X@X@X@X@X@X@X@X@X@X@X@X@X@X@X@X@X@X@X@X@X@X@X@X@X@X@X@X@X@X@X@X@X@X@X@X@X@X@X@X@X@X@X@X@X@X@X@X@X",
"@X@X@X@X@X@X@X@X@X@X@X@X@X@X@X@X@X@X@X@X@X@X@X@X@X@X@X@X@X@X@X@X@X@X@X@X@X@X@X@X@X@X@X@X@X@X@X@X@X@X@X@X@X@X@X@X@X@X@X@X@X@X@X@X@X@X@X@X@X@X@X@X@X@X@X@X",
"@X@X@X@X@X@X@X@X@X@X@X@X@X@X@X@X@X@X@X@X@X@X@X@X@X@X@X@X@X@X@X@X@X@X@X@X@X@X@X@X@X@X@X@X@X@X@X@X@X@X@X@X@X@X@X@X@X@X@X@X@X@X@X@X@X@X@X@X@X@X@X@X@X@X@X@X",
"@X@X@X@X@X@X@X@X@X@X@X@X@X@X@X@X@X@X@X@X@X@X@X@X@X@X@X@X@X@X@X@X@X@X@X@X@X@X@X@X@X@X@X@X@X@X@X@X@X@X@X@X@X@X@X@X@X@X@X@X@X@X@X@X@X@X@X@X@X@X@X@X@X@X@X@X",
"@X@X@X@X@X@X@X@X@X@X@X@X@X@X@X@X@X@X@X@X@X@X@X@X@X@X@X@X@X@X@X@X@X@X@X@X@X@X@X@X@X@X@X@X@X@X@X@X@X@X@X@X@X@X@X@X@X@X@X@X@X@X@X@X@X@X@X@X@X@X@X@X@X@X@X@X",
"@X@X@X@X@X@X@X@X@X@X@X@X@X@X@X@X@X@X@X@X@X@X@X@X@X@X@X@X@X@X@X@X@X@X@X@X@X@X@X@X@X@X@X@X@X@X@X@X@X@X@X@X@X@X@X@X@X@X@X@X@X@X@X@X@X@X@X@X@X@X@X@X@X@X@X@X",
"@X@X@X@X@X@X@X@X@X@X@X@X@X@X@X@X@X@X@X@X@X@X@X@X@X@X@X@X@X@X@X@X@X@X@X@X@X@X@X@X@X@X@X@X@X@X@X@X@X@X@X@X@X@X@X@X@X@X@X@X@X@X@X@X@X@X@X@X@X@X@X@X@X@X@X@X",
"@X@X@X@X@X@X@X@X@X@X@X@X@X@X@X@X@X@X@X@X@X@Xz [.@X@X@X@X@X@X@X@X@X@X@X@X@X@X@X@X@X@X@X@X@X@X@X@X@X@X@X@X@X@X@X@X@X@X@X@X@X@X@X@X@X@X@X@X@X@X@X@X@X@X@X@X",
"@X@X@X@X@X@X@X@X@X@X@X@X@X@X@X@X6 @X@X@X@X@Xz z z z z l @X@X@X@X@X@X@X@X@X@X@X@X@X@X@X@X@X@X@X@X@X@X@X@X@X@X@X@X@X@X@X@X@X@X@X@X@X@X@X@X@X@X@X@X@X@X@X@X",
"@X@X@X@X@X@X@X@X@X@X@X@X@X@X@X@X@X@X@X@X@X@X@XY z z z z @X@X@X@X@X@X@X@X@X@X@X@X@X@X@X@X@X@X@X@X@X@X@X@X@X@X@X@X@X@X@X@X@X@X@X@X@X@X@X@X@X@X@X@X@X@X@X@X",
"@X@X@X@X@X@X@X@X@X@X@X@X@X@X@X@X@X@X@X@X@X@Xz #...l d OX@X@X@X@X@Xs F.@X@X@X@X@X@X@X@X@X@X@X@X@X@X@X@X@X@X@X@X@X@X@X@X@X@X@X@X@X@X@X@X@X@X@X@X@X@X@X@X@X",
"@X@X@X@X@X@X@X@X@X@X@X@X@X@X@X@X@X@X@XG.z l z #...u @X@X@X_ v @X@X@X@X@X@X@X@X@X@X@X@X@X@X@X@X@X@X@X@X@X@X@X@X@X@X@X@X@X@X@X@X@X@X@X@X@X@X@X@X@X@X@X@X@X",
"@X@X@X@X@X@X@X@X@X@X@X@X@X@X[.J @X@XOXC.z d %.L x z z 6 d d _ @X@X@X@X@X@X@X@X@X@X@X@X@X@X@X@X@X@X@X@X@X@X@X@X@X@X@X@X@X@X@X@X@X@X@X@X@X@X@X@X@X@X@X@X@X",
"@X@X@X@X@X@X@X@X@X@X@X@X@X@X+XQ.@X@X' z z 6 %.%.o.L L s d Z.OXQ.@X@X@X@X@X@X@X@X@X@X@X@X@X.X X@X@X@X@X@X@X@X{.@X@X@X@X@X@X@X@X@X@X@X@X@X@X@X@X@X@X@X@X@X",
"@X@X@X@X@X@X@X@X@X@X@X@X@X@X|.' C.@X' h z d X.$.%.%.%.P z ' 8.z C.@XoX}.}.}.@X@X@X@X@X@X@X1.q.@X@X@X@X@X@X@X} @X@X@X@X@X@X@X@X@X@X@X@X@X@X@X@X@X@X@X@X@X",
"@X@X@X@X@X@X@X@X@X@X@X@X@X@X@X@Xl @XM.) z f 6 @.%.%.%.%...K l g g !.I.L.L.L.!.@X@X@X@X@X@X-.:.@X@X@X@X@X@X@XN @X@X@X@X@X@X@X@X@X@X@X@X@X@X@X@X@X@X@X@X@X",
"@X@X@X@X@X@X@X@X@X@X@X@X@X@X@X@XV.@X+XZ.f z g #.%.%.%.%.%.I h 6 6 t.L.9.T L.T OX@X@X@X@X@XD H e.@X@X@X@XXXw.$ @X@X@X@X@X@X@X@X@X@X@X@X@X@X@X@X@X@X@X@X@X",
"@X@X@X@X@X@X@X@X@X@X@X@X@X@X@X@X@X@X@X|.Z.s +.P o.%.%.%.a.G 7 d Z.e.K.y.9.L.9.+X@XXXP.@X@XQ b m 6.+X@XJ.=.n $ @X@X@X@X@X@X@X@X@X@X@X@X@X@X@X@X@X@X@X@X@X",
"@X@X@X@X@X@X@X@X@X@X@X@X@X@X@X@X@X@X@X@X@X6 %.$.$.%.%.%.&.i.| 3 r K.L.L.L.L.r.+Xn.` s.@X@X Xz.$ q C | F n $ '.@X@X@X@X@X@X@X@X@X@X@X@X@X@X@X@X@X@X@X@X@X",
"@X@X@X@X@X@X@X@X@X@X@X@X@X@X@X@X@X@X@X@X@X6 z 3.i.&.L.%.L.U k s.# # <.t.L.e.w.0 =.f.@X} @X@X@X@X$ O.J w C @X@X@X0.0.@X@X@X@X@X@X@X@X@X@X@X@X@X@X@X@X@X@X",
"@X@X@X@X@X@X@X@X@X@X@X@X@X@X@X@X@X@X@X@X@X6 6 6 ) L.L.e.6 d v @Xs.s.r S w.e.@ u ,.P.@X$ [ W.J.G $ x d 2 b [ @X[ n ! @X@X@X@X@X@X@X@X@X@X@X@X@X@X@X@X@X@X",
"@X@X@X@X@X@X@X@X@X@X@X@X@X@X@X@X@X@X@X@X@X@Xd 6 U r.7.L.z z j &     ;.| 3 @ u u.> , @X$ $ B N $ $ 6 6 2 $ $ [ $ $ ! @X@X@X@X@X@X@X@X@X@X@X@X@X@X@X@X@X@X",
"@X@X@X@X@X@X@X@X@X@X@X@X@X@X@X@X@X@X@X@X@X@Xz z h d e.7.6 # & & & &           . % & & @X$ $ -.@X$ [ [ M C @X$ $ A.@X@X@X@X@X@X@X@X@X@X@X@X@X@X@X@X@X@X@X",
"@X@X@X@X@X@X@X@X@X@X@X@X@X@X@X@X@X@X@X@X@X@X@Xc f z z e.6 O         & & & & & & & - u @X@X@X@X@X$ $ $ $ C @X@X@X@X@X@X@X@X@X@X@X@X@X@X@X@X@X@X@X@X@X@X@X",
"@X@X@X@X@X@X@X@X@X@X@X@X@X@X@X@X@X@X@X@X@X@X@X@XW.u.+ e.s.S 4 4 u u o   . & & & . o u @X@X@X@X@X@X$ $ l.@X@X@X@X@X@X@X@X@X@X@X@X@X@X@X@X@X@X@X@X@X@X@X@X",
"@X@X@X@X@X@X@X@X@X@X@X@X@X@X@X@X@X@X@X@X@X@X@X@XH.{ + + s.R t 4 4 4 u ;   .     *.5.u @X@X@X@X@X@X9 $ :.@X@X@X@X@X@X@X@X@X@X@X@X@X@X@X@X@X@X@X@X@X@X@X@X",
"@X@X@X@X@X@X@X@X@X@X@X@X@X@X@X@X@X@X@X@X@X@X@X@XH.{ +  .u u t 4 4 4 u u i u.  4 | 5.u @X@X@X@X+XC.g.L.L.I.@X@X@X@X@X@X@X@X@X@X@X@X@X@X@X@X@X@X@X@X@X@X@X",
"@X@X@X@X@X@X@X@X@X@X@X@X@X@X@X@X@X@X@X@X@X@X@X@Xm.e  .4 u 8 4 e 4 4 4 8 p u.4 u ,.5.u u s.V Z q.L.L.r.t.I.@X@X@X@X@X@X@X@X@X@X@X@X@X@X@X@X@X@X@X@X@X@X@X",
"@X@X@X@X@X@X@X@X@X@X@X@X@X@X@X@X@X@X@X@X@X@X@X@X@X Xa 4 4 y ^ @Xa 5 4 8 p d.u u ,.5.u u u.V 3 + N.1.1.e.N.@X@X@X@X@X@X@X@X@X@X@X@X@X@X@X@X@X@X@X@X@X@X@X",
"@X@X@X@X@X@X@X@X@X@X@X@X@X@X@X@X@X@X@X@X@X@X@X@X@X@X@XW W D.@X@X@X5 4 8 y s.u u ,.5.y 4  .; + + @X$ $ l.@X@X@X@X@X@X@X@X@X@X@X@X@X@X@X@X@X@X@X@X@X@X@X@X",
"@X@X@X@X@X@X@X@X@X@X@X@X@X@X@X@X@X@X@X@X@X@X@X@X@X@X@X@X@X@X@X@X@X( e 4 e s.u u ,.5.u ( H.:./ / @X$ $ l.@X@X@X@X@X@X@X@X@X@X@X@X@X@X@X@X@X@X@X@X@X@X@X@X",
"@X@X@X@X@X@X@X@X@X@X@X@X@X@X@X@X@X@X@X@X@X@X@X@X@X@X@X@X@X@X@X@X@X@XE 4 5 R ,.u ,.5.y @X+X@X@X@X@X$ $ l.@X@X@X@X@X@X@X@X@X@X@X@X@X@X@X@X@X@X@X@X@X@X@X@X",
"@X@X@X@X@X@X@X@X@X@X@X@X@X@X@X@X@X@X@X@X@X@X@X@X@X@X@X@X@X@X@X@X@X@XE 4 5 u s.p ,.4.5 @X@X@X@X@X@X$ $ l.@X@X@X@X@X@X@X@X@X@X@X@X@X@X@X@X@X@X@X@X@X@X@X@X",
"@X@X@X@X@X@X@X@X@X@X@X@X@X@X@X@X@X@X@X@X@X@X@X@X@X@X@X@X@X@X@X@X@X@X< * * * _.S._._.v.@X@X@X@X@X@X$ $ l.@X@X@X@X@X@X@X@X@X@X@X@X@X@X@X@X@X@X@X@X@X@X@X@X",
"@X@X@X@X@X@X@X@X@X@X@X@X@X@X@X@X@X@X@X@X@X@X@X@X@X@X@X@X@X@X@X@X@XT.: % & & (.h.c.).h.T.@X@X@X@X@X$ $ z.@X@X@X@X@X@X@X@X@X@X@X@X@X@X@X@X@X@X@X@X@X@X@X@X",
"@X@X@X@X@X@X@X@X@X@X@X@X@X@X@X@X@X@X@X@X@X@X@X@X@X@X@X@X@X@X@X@Xs.s.g.-.    (.(.).].]. .d..X@X@X@X$ $ z.@X@X@X@X@X@X@X@X@X@X@X@X@X@X@X@X@X@X@X@X@X@X@X@X",
"@X@X@X@X@X@X@X@X@X@X@X@X@X@X@X@X@X@X@X@X@X@X@X@X@X@X@X@X@X@X.Xs.s.s.g.2.4 4   /.x.k./. . .E.@X@X@X$ $ z.@X@X@X@X@X@X@X@X@X@X@X@X@X@X@X@X@X@X@X@X@X@X@X@X",
"@X@X@X@X@X@X@X@X@X@X@X@X@X@X@X@X@X@X@X@X@X@X@X@X@X@X@X@X@X~.g.s.s.s.g.2.4 4   /.1 = j.4  .u.U.@X@X$ $ l.@X@X@X@X@X@X@X@X@X@X@X@X@X@X@X@X@X@X@X@X@X@X@X@X",
"@X@X@X@X@X@X@X@X@X@X@X@X@X@X@X@X@X@X@X@X@X@X@X@X@X@X@X@X@X@XXXY.s.s.g.2.4 4 s.X   : s.4  .f.~.@X@X$ $ l.@X@X@X@X@X@X@X@X@X@X@X@X@X@X@X@X@X@X@X@X@X@X@X@X",
"@X@X@X@X@X@X@X@X@X@X@X@X@X@X@X@X@X@X@X@X@X@X@X@X@X@X@X@X@XU.s.s.Y.Y.Y.2.4 4 s.p y A s.4  . .>.+X@X$ $ l.@X@X@X@X@X@X@X@X@X@X@X@X@X@X@X@X@X@X@X@X@X@X@X@X",
"@X@X@X@X@X@X@X@X@X@X@X@X@X@X@X@X@X@X@X@X@X@X@X@X@X@X@X@X@X~.g.s.s.s.g.2.4 4 s.p u A s.u 4 H ;.s.$ $ $ l.@X@X@X@X@X@X@X@X@X@X@X@X@X@X@X@X@X@X@X@X@X@X@X@X",
"@X@X@X@X@X@X@X@X@X@X@X@X@X@X@X@X@X@X@X@X@X@X@X@X@X@X@X@X@XU.d.Y.T.s.g.2.4 4 s.p y A s.u 4 H 6.T.$ $  X@X@X@X@X@X@X@X@X@X@X@X@X@X@X@X@X@X@X@X@X@X@X@X@X@X",
"@X@X@X@X@X@X@X@X@X@X@X@X@X@X@X@X@X@X@X@X@X@X@X@X@X@X@X@XT.d.s.s.Y.T.U 8 4 4 s.p u U s.u 4 H ;.p.$ $  X@X@X@X@X@X@X@X@X@X@X@X@X@X@X@X@X@X@X@X@X@X@X@X@X@X",
"@X@X@X@X@X@X@X@X@X@X@X@X@X@X@X@X@X@X@X@X@X@X@X@X@X@X@X@X@X^.R.R.@Xy u t 4 4 s.p u A u.u 4 F >.@X$ $  X@X@X@X@X@X@X@X@X@X@X@X@X@X@X@X@X@X@X@X@X@X@X@X@X@X",
"@X@X@X@X@X@X@X@X@X@X@X@X@X@X@X@X@X@X@X@X@X@X@X@X@X@X@X@X@X@X@X@XF.u u t 4 4 s.p u A d.u u 5 ~ @X$ $  X@X@X@X@X@X@X@X@X@X@X@X@X@X@X@X@X@X@X@X@X@X@X@X@X@X",
"@X@X@X@X@X@X@X@X@X@X@X@X@X@X@X@X@X@X@X@X@X@X@X@X@X@X@X@X@X@X@X@Xu u u 8 4 4 s.p u A s.t u 5 ~ @X$ $  X@X@X@X@X@X@X@X@X@X@X@X@X@X@X@X@X@X@X@X@X@X@X@X@X@X",
"@X@X@X@X@X@X@X@X@X@X@X@X@X@X@X@X@X@X@X@X@X@X@X@X@X@X@X@X@X@X[.b.u u u t 4 4 s.p u A s.4 u 8 ~ @X$ $  X@X@X@X@X@X@X@X@X@X@X@X@X@X@X@X@X@X@X@X@X@X@X@X@X@X",
"@X@X@X@X@X@X@X@X@X@X@X@X@X@X@X@X@X@X@X@X@X@X@X@X@X@X@X@X@X@XF.u u u u t 4 4 s.p u A s.4 5 5 ^ @X$ $  X@X@X@X@X@X@X@X@X@X@X@X@X@X@X@X@X@X@X@X@X@X@X@X@X@X",
"@X@X@X@X@X@X@X@X@X@X@X@X@X@X@X@X@X@X@X@X@X@X@X@X@X@X@X@X@X@XF.u u u u t 4 4 s.p u A s.4 4 4 r Z $ $  X@X@X@X@X@X@X@X@X@X@X@X@X@X@X@X@X@X@X@X@X@X@X@X@X@X",
"@X@X@X@X@X@X@X@X@X@X@X@X@X@X@X@X@X@X@X@X@X@X@X@X@X@X@X@X@X] i 5 u u u 8 4 4 s.p u A s.4 4 4 9 $ $ $  X@X@X@X@X@X@X@X@X@X@X@X@X@X@X@X@X@X@X@X@X@X@X@X@X@X",
"@X@X@X@X@X@X@X@X@X@X@X@X@X@X@X@X@X@X@X@X@X@X@X@X@X@X@X@X@X~ 4 4 4 u u t 4 4 s.p u A s.4 4 4 9 $ $ $  X@X@X@X@X@X@X@X@X@X@X@X@X@X@X@X@X@X@X@X@X@X@X@X@X@X",
"@X@X@X@X@X@X@X@X@X@X@X@X@X@X@X@X@X@X@X@X@X@X@X@X@X@X@X@X@X~ 4 4 4 u u t 4 4 s.p u A s.4 4 4 9 $ $ @X@X@X@X@X@X@X@X@X@X@X@X@X@X@X@X@X@X@X@X@X@X@X@X@X@X@X",
"@X@X@X@X@X@X@X@X@X@X@X@X@X@X@X@X@X@X@X@X@X@X@X@X@X@X@X@X@X@XD.4 4 4 4 4 4 4 s.p u A s.4 4 4 9 $ $ @X@X@X@X@X@X@X@X@X@X@X@X@X@X@X@X@X@X@X@X@X@X@X@X@X@X@X",
"@X@X@X@X@X@X@X@X@X@X@X@X@X@X@X@X@X@X@X@X@X@X@X@X@X@X@X@X@X@XD.4 4 4 4 4 4 4 s.p u A s.4 4 D.B.$ $ @X@X@X@X@X@X@X@X@X@X@X@X@X@X@X@X@X@X@X@X@X@X@X@X@X@X@X",
"@X@X@X@X@X@X@X@X@X@X@X@X@X@X@X@X@X@X@X@X@X@X@X@X@X@X@X@X@X@XD.4 4 4 `.m.4 4 s.p u A s.u 4 D.B.$ $ @X@X@X@X@X@X@X@X@X@X@X@X@X@X@X@X@X@X@X@X@X@X@X@X@X@X@X",
"@X@X@X@X@X@X@X@X@X@X@X@X@X@X@X@X@X@X@X@X@X@X@X@X@X@X@X@X@X@X@X@X@X@X@Xm.4 4 s.+X] A p.4 4 D.B.$ $ @X@X@X@X@X@X@X@X@X@X@X@X@X@X@X@X@X@X@X@X@X@X@X@X@X@X@X",
"@X@X@X@X@X@X@X@X@X@X@X@X@X@X@X@X@X@X@X@X@X@X@X@X@X@X@X@X@X@X@X@X@X@X@Xm.4 4 s.OX@X@X@X4 4 D.B.$ $ @X@X@X@X@X@X@X@X@X@X@X@X@X@X@X@X@X@X@X@X@X@X@X@X@X@X@X",
"@X@X@X@X@X@X@X@X@X@X@X@X@X@X@X@X@X@X@X@X@X@X@X@X@X@X@X@X@X@X@X@X@X@X@X@X@X@X@X@X@X@X@X@X@X@X@X@X@X@X@X@X@X@X@X@X@X@X@X@X@X@X@X@X@X@X@X@X@X@X@X@X@X@X@X@X",
"@X@X@X@X@X@X@X@X@X@X@X@X@X@X@X@X@X@X@X@X@X@X@X@X@X@X@X@X@X@X@X@X@X@X@X@X@X@X@X@X@X@X@X@X@X@X@X@X@X@X@X@X@X@X@X@X@X@X@X@X@X@X@X@X@X@X@X@X@X@X@X@X@X@X@X@X",
"@X@X@X@X@X@X@X@X@X@X@X@X@X@X@X@X@X@X@X@X@X@X@X@X@X@X@X@X@X@X@X@X@X@X@X@X@X@X@X@X@X@X@X@X@X@X@X@X@X@X@X@X@X@X@X@X@X@X@X@X@X@X@X@X@X@X@X@X@X@X@X@X@X@X@X@X",
"@X@X@X@X@X@X@X@X@X@X@X@X@X@X@X@X@X@X@X@X@X@X@X@X@X@X@X@X@X@X@X@X@X@X@X@X@X@X@X@X@X@X@X@X@X@X@X@X@X@X@X@X@X@X@X@X@X@X@X@X@X@X@X@X@X@X@X@X@X@X@X@X@X@X@X@X",
"@X@X@X@X@X@X@X@X@X@X@X@X@X@X@X@X@X@X@X@X@X@X@X@X@X@X@X@X@X@X@X@X@X@X@X@X@X@X@X@X@X@X@X@X@X@X@X@X@X@X@X@X@X@X@X@X@X@X@X@X@X@X@X@X@X@X@X@X@X@X@X@X@X@X@X@X",
"@X@X@X@X@X@X@X@X@X@X@X@X@X@X@X@X@X@X@X@X@X@X@X@X@X@X@X@X@X@X@X@X@X@X@X@X@X@X@X@X@X@X@X@X@X@X@X@X@X@X@X@X@X@X@X@X@X@X@X@X@X@X@X@X@X@X@X@X@X@X@X@X@X@X@X@X",
"@X@X@X@X@X@X@X@X@X@X@X@X@X@X@X@X@X@X@X@X@X@X@X@X@X@X@X@X@X@X@X@X@X@X@X@X@X@X@X@X@X@X@X@X@X@X@X@X@X@X@X@X@X@X@X@X@X@X@X@X@X@X@X@X@X@X@X@X@X@X@X@X@X@X@X@X",
"@X@X@X@X@X@X@X@X@X@X@X@X@X@X@X@X@X@X@X@X@X@X@X@X@X@X@X@X@X@X@X@X@X@X@X@X@X@X@X@X@X@X@X@X@X@X@X@X@X@X@X@X@X@X@X@X@X@X@X@X@X@X@X@X@X@X@X@X@X@X@X@X@X@X@X@X",
"@X@X@X@X@X@X@X@X@X@X@X@X@X@X@X@X@X@X@X@X@X@X@X@X@X@X@X@X@X@X@X@X@X@X@X@X@X@X@X@X@X@X@X@X@X@X@X@X@X@X@X@X@X@X@X@X@X@X@X@X@X@X@X@X@X@X@X@X@X@X@X@X@X@X@X@X",
"@X@X@X@X@X@X@X@X@X@X@X@X@X@X@X@X@X@X@X@X@X@X@X@X@X@X@X@X@X@X@X@X@X@X@X@X@X@X@X@X@X@X@X@X@X@X@X@X@X@X@X@X@X@X@X@X@X@X@X@X@X@X@X@X@X@X@X@X@X@X@X@X@X@X@X@X",
"@X@X@X@X@X@X@X@X@X@X@X@X@X@X@X@X@X@X@X@X@X@X@X@X@X@X@X@X@X@X@X@X@X@X@X@X@X@X@X@X@X@X@X@X@X@X@X@X@X@X@X@X@X@X@X@X@X@X@X@X@X@X@X@X@X@X@X@X@X@X@X@X@X@X@X@X",
"@X@X@X@X@X@X@X@X@X@X@X@X@X@X@X@X@X@X@X@X@X@X@X@X@X@X@X@X@X@X@X@X@X@X@X@X@X@X@X@X@X@X@X@X@X@X@X@X@X@X@X@X@X@X@X@X@X@X@X@X@X@X@X@X@X@X@X@X@X@X@X@X@X@X@X@X"
};
