/* XPM */
static char *result[] = {
/* columns rows colors chars-per-pixel */
"76 76 177 2 ",
"   c #361B1B",
".  c #3B1B1B",
"X  c #3D2223",
"o  c #491B1B",
"O  c #531B1B",
"+  c #621F1F",
"@  c #7A1212",
"#  c #7E1917",
"$  c #771C1C",
"%  c #79390B",
"&  c #4B2925",
"*  c #4D2D2C",
"=  c #503529",
"-  c #5F4731",
";  c #6F5554",
":  c #614C64",
">  c #811A18",
",  c #971A1A",
"<  c #9D1D1D",
"1  c #BF0001",
"2  c #A21F1E",
"3  c #81320E",
"4  c #85380A",
"5  c #82251B",
"6  c #9B231D",
"7  c #A3201F",
"8  c #852826",
"9  c #A62120",
"0  c #AD2423",
"q  c #B42726",
"w  c #B32D2F",
"e  c #A83B2B",
"r  c #B73230",
"t  c #BB3E3D",
"y  c #C20502",
"u  c #C70B02",
"i  c #C1120D",
"p  c #D51A00",
"a  c #FF0B08",
"s  c #E42C00",
"d  c #E93100",
"f  c #C82624",
"g  c #D83A26",
"h  c #FE3323",
"j  c #82430E",
"k  c #8A4718",
"l  c #965913",
"z  c #9D6116",
"x  c #AC711B",
"c  c #8F5120",
"v  c #8B542D",
"b  c #985728",
"n  c #AC4630",
"m  c #BE4B32",
"M  c #A25735",
"N  c #A06937",
"B  c #BA6837",
"V  c #B07539",
"C  c #E94519",
"Z  c #DC6913",
"A  c #FD5A3D",
"S  c #C76F3D",
"D  c #A94646",
"F  c #AC4E4E",
"G  c #BD4746",
"H  c #AB5855",
"J  c #966643",
"K  c #976846",
"L  c #AE6B52",
"P  c #A46262",
"I  c #B66767",
"U  c #BA7070",
"Y  c #C05150",
"T  c #C95555",
"R  c #EA6947",
"E  c #EA7758",
"W  c #C66867",
"Q  c #C86F6F",
"!  c #D36869",
"~  c #CB7877",
"^  c #BE841F",
"/  c #A39638",
"(  c #F39115",
")  c #C4923A",
"_  c #E4963B",
"`  c #FFD800",
"'  c #FACC22",
"]  c #F9D926",
"[  c #FDE628",
"{  c #FFFC2D",
"}  c #FAEE34",
"|  c #998441",
" . c #B59048",
".. c #B6AA4E",
"X. c #AC896F",
"o. c #BEA064",
"O. c #CF8946",
"+. c #C3885C",
"@. c #CA9F55",
"#. c #DA985E",
"$. c #C7A34E",
"%. c #D2AA4F",
"&. c #D8AD51",
"*. c #DBBA55",
"=. c #E2A659",
"-. c #EA856A",
";. c #E68E7D",
":. c #CFAB6C",
">. c #D4A46A",
",. c #D4A970",
"<. c #E6B56A",
"1. c #E8B77B",
"2. c #D4C457",
"3. c #DDC85A",
"4. c #EBD44D",
"5. c #E0C85A",
"6. c #E2D15D",
"7. c #FDE257",
"8. c #D9CD73",
"9. c #E6D664",
"0. c #EBDB6C",
"q. c #FCCD7B",
"w. c #E3D678",
"e. c #F4E67C",
"r. c #7F7195",
"t. c #857591",
"y. c #9F9494",
"u. c #B69782",
"i. c #8F85B0",
"p. c #C38686",
"a. c #C69695",
"s. c #DB9596",
"d. c #DD9F9F",
"f. c #D4B681",
"g. c #C2AA99",
"h. c #FBBD80",
"j. c #EBAB9A",
"k. c #CAAAAA",
"l. c #D6ACAC",
"z. c #C8B3A5",
"x. c #D6B5B5",
"c. c #DCB5B4",
"v. c #EBB8AA",
"b. c #F5C283",
"n. c #FBC686",
"m. c #F9CB95",
"M. c #E6DC95",
"N. c #F9EB84",
"B. c #DCC8AA",
"V. c #D7C6B9",
"C. c #D5C5BC",
"Z. c #D9D5BC",
"A. c #F7D1A3",
"S. c #E6D3B7",
"D. c #EAD4B9",
"F. c #F4EBAD",
"G. c #E8E1B0",
"H. c #F2EBBC",
"J. c #A096D1",
"K. c #B3A8C1",
"L. c #BFC5D7",
"P. c #D9C4C4",
"I. c #DEC9C9",
"U. c #DCD5CA",
"Y. c #C3C5D5",
"T. c #C6CBDA",
"R. c #CCD2DF",
"E. c #E7C9C6",
"W. c #E5CBCB",
"Q. c #E4D9C8",
"!. c #E1D9D4",
"~. c #EBDDDB",
"^. c #E9E5C5",
"/. c #F0ECCC",
"(. c #EDE6D7",
"). c #ECE8E5",
"_. c #ffECECEC",
/* pixels */
"_._._._._._._._._._._._._._._._._._._._._._._._._._._._._._._._._._._._._._._._._._._._._._._._._._._._._._._._._._._._._._._._._._._._._._._._._._._._.",
"_._._._._._._._._._._._._._._._._._._._._._._._._._._._._._._._._._._._._._._._._._._._._._._._._._._._._._._._._._._._._._._._._._._._._._._._._._._._.",
"_._._._._._._._._._._._._._._._._._._._._._._._._._._._._._._._._._._._._._._._._._._._._._._._._._._._._._._._._._._._._._._._._._._._._._._._._._._._.",
"_._._._._._._._._._._._._._._._._._._._._._._._._._._._._._._._._._._._._._._._._._._._._._._._._._._._._._._._._._._._._._._._._._._._._._._._._._._._.",
"_._._._._._._._._._._._._._._._._._._._._._._._._._._._._._._._._._._._._._._._._._._._._._._._._._._._._._._._._._._._._._._._._._._._._._._._._._._._.",
"_._._._._._._._._._._._._._._._._._._._._._._._._._._._._._._._._._._._._._._._._._._._._._._._._._._._._._._._._._._._._._._._._._._._._._._._._._._._.",
"_._._._._._._._._._._._._._._._._._._._._._._._._._._._._._._._._._._._._._._._._._._._._._._._._._._._._._._._._._._._._._._._._._._._._._._._._._._._.",
"_._._._._._._._._._._._._._._._._._._._._._._._._._._._._._._._._._._._._._._._._._._._._._._._._._._._._._._._._._._._._._._._._._._._._._._._._._._._.",
"_._._._._._._._._._._._._._._._._._._._._._._._._._._._._._._._._._._._._._._._._._._._._._._._._._._._._._._._._._._._._._._._._._._._._._._._._._._._.",
"_._._._._._._._._._._._._._._._._._._._._._._._._._._._._._._._._._._._._._._._._._._._._._._._._._._._._._._._._._._._._._._._._._._._._._._._._._._._.",
"_._._._._._._._._._._._._._._._._._._._._._._._._._._._._._._._._._._._._._._._._._._._._._._._._._._._._._._._._._._._._._._._._._._._._._._._._._._._.",
"_._._._._._._._._._._._._._._._._._._._._._._._._._._._._._._._._._._._._._._._._._._._._._._._._._._._._._._._._._._._._._._._._._._._._._._._._._._._.",
"_._._._._._._._._._._._._._._._._._._._._._._._._._._._._._._._._._._._._._._._._._._._._._._._._._._._._._._._._._._._._._._._._._._._._._._._._._._._.",
"_._._._._._._._._._._._._._._._._._._._._._._._._._._._._._._._._._._._._._._._._._._._._._._._._._._._._._._._._._._._._._._._._._._._._._._._._._._._.",
"_._._._._._._._._._._._._._._._._._._._._._._._._._._._._._._._._._._._._._._._._._._._._._._._._._._._._._._._._._._._._._._._._._._._._._._._._._._._.",
"_._._._._._._._._._._._._._._._._._._._._._._._._._._._._._._._._._._._._._._._._._._._._._._._._._._._._._._._._._._._._._._._._._._._._._._._._._._._.",
"_._._._._._._._._._._._._._._._._._._._._._.d W._._._._._._._._._._._._._._._._._._._._._._._._._._._._._._._._._._._._._._._._._._._._._._._._._._._._.",
"_._._._._._._._._._._._._._._._._._._._._._._._._._._._._._._._._._._._._._._._._._._._._._._._._._._._._._._._._._._._._._._._._._._._._._._._._._._._.",
"_._._._._._._._._._._._._._._._._._._.j.d d d d d C _._._._._._._._._._._._._._._._._._._._._._._._._._._._._._._._._._._._._._._._._._._._._._._._._._.",
"_._._._._._._._._._._._._._._._._._._._._._.C u p d d ~.~.)._._._._._._._._._._._._._._._._._._._._._._._._._._._._._._._._._._._._._._._._._._._._._._.",
"_._._._._._._._._._._._._._._._._._.W.W._._._.f y y d d d j._._._._._._._._._._._._._._._._._._._._._._._._._._._._._._._._._._._._._._._._._._._._._._.",
"_._._._._._._._._._._._._._._._.v.d.! ~ _._._.-.g u d d R v.~.l._._._._._._._._._._._._._._._._._._._._._._._._._._._._._._._._._._._._._._._._._._._._.",
"_._._._._._._._._._._._._._._._.-.! E._._.)._._.;.p d p _._.W.! _._._._._._._._._._._._._._._._._._._._._._._._._._._._._._._._._._._._._._._._._._._._.",
"_._._._._._._._._._._._._._._._._._._._._.).! ~.;.d d p _._._._._._._._._._._._._._._._.:.^._._._._._._.(.,._._._._._._._._._._._._._._._._._._._._._._.",
"_._._._._._._._._._._._._._._._._._._._._._.l.T g d d u _._._._._.A.A.A.A._._._._._._._.^ S._._._._._._.!.^ _._._._._._._._._._._._._._._._._._._._._._.",
"_._._._._._._._._._._._._._._._._._._._._.f f 1 Z ' d E._._._._.m.n.n.n.n.m._._._._._._.% V._._._._._._.U.j _._._._._._._._._._._._._._._._._._._._._._.",
"_._._._._._._._._._._._._._.W.1 _._._._._.1 1 s ( [ d y _.E R _.,.n.h A h.a _._._._._._.% x :._._._._.1.x % _._._._._._._._._._._._._._._._._._._._._._.",
"_._._._._._._._._._._._._._._._._._._._._.1 1 ' { [ d 5.# a._._.,.n.n.n.n.n._._.M.w._._.% % l ^ _._.) l % % _._._._._._._._._._._._._._._._._._._._._._.",
"_._._._._._._._._._._._._._._._._._._._._.d { { { { { d 6.N # # n.n.n.n.n.,._.r O.w._.)._.K % % % ^ % % v _._._._._._._._._._._._._._._._._._._._._._._.",
"_._._._._._._._._._._._._._._._._._._._._.d =.} 7.n.{ n.d _ $.# > ,.b.f.,.,.# 3.G.Z.) )._._.g.% ` d 4 u._._._.^ B._._._._._._._._._._._._._._._._._._._.",
"_._._._._._._._._._._._._._._._._._._._._.y { q.n.n.,.{ y s.^.5.9.#  .,.>.# q 3.S.V.% ^ _.@.z % d 1 % z $.).^ % z._._._._._._._._._._._._._._._._._._._.",
"_._._._._._._._._._._._._._._._._._._._._.y d #.>.=.n.d 1 $ &     6.e # # q 6.X y.C.% % ^ l % % 1 y 3 % j ^ % % z._._._._._._._._._._._._._._._._._._._.",
"_._._._._._._._._._._._._._._._._._._._._.1 d ] 4.,.=.d * * * * *   . .       * * ; _.% % C.g.% ^ ^ 4 u.Q.% % _._._._._._._._._._._._._._._._._._._._._.",
"_._._._._._._._._._._._._._._._._._._._._._.d i 1 i ,.1           * * * * * * * 8 Y _._._._.g.% % % % u._._._._._._._._._._._._._._._._._._._._._._._._.",
"_._._._._._._._._._._._._._._._._._._._._._._.8.V 5 >.3., , < q q .   X * * * . 8 G _._._._._._.% % !._._._._._._._._._._._._._._._._._._._._._._._._._.",
"_._._._._._._._._._._._._._._._._._._._._._._. .b @ 5 *.q 2 , , , q + & =   o 3.S Y _._._._._.(.c k Q._._._._._._._._._._._._._._._._._._._._._._._._._.",
"_._._._._._._._._._._._._._._._._._._._._._._. .b k N q 0 < , < , 0 q S 3.O < 3.S m l.^.k.V.S.n.n.b.n.D._._._._._._._._._._._._._._._._._._._._._._._._.",
"_._._._._._._._._._._._._._._._._._._._._._._.p.L b , 9 , F H < , , 0 S 3.9 q 5.S q q 6.@ M +.1.1.,.1.D._._._._._._._._._._._._._._._._._._._._._._._._.",
"_._._._._._._._._._._._._._._._._._._._._._._._.P.p., , a.I.Q.a., , q S 5.q q 5.S q 7 ..@ @ H B.N N B.!._._._._._._._._._._._._._._._._._._._._._._._._.",
"_._._._._._._._._._._._._._._._._._._._._._._._._._.k.l._._._._., , < B 5.q q 5.S q 6 / @ @ P _.% % !._._._._._._._._._._._._._._._._._._._._._._._._._.",
"_._._._._._._._._._._._._._._._._._._._._._._._._._._._._._._._.I., , B 6.w q 3.S G I.U.P.P.!._.% % !._._._._._._._._._._._._._._._._._._._._._._._._._.",
"_._._._._._._._._._._._._._._._._._._._._._._._._._._._._._._._._., , 7 t K.L.Y.Y.R._._._._._._.% % !._._._._._._._._._._._._._._._._._._._._._._._._._.",
"_._._._._._._._._._._._._._._._._._._._._._._._._._._._._._._._._., , 2 w J.r.L.i.t._._._._._._.% % !._._._._._._._._._._._._._._._._._._._._._._._._._.",
"_._._._._._._._._._._._._._._._._._._._._._._._._._._._._._._._._.* * * X J.J.L.T.R._._._._._._.% % !._._._._._._._._._._._._._._._._._._._._._._._._._.",
"_._._._._._._._._._._._._._._._._._._._._._._._._._._._._._._._.N.  & * * * J.r.i.K.N._._._._._.% % !._._._._._._._._._._._._._._._._._._._._._._._._._.",
"_._._._._._._._._._._._._._._._._._._._._._._._._._._._._._.^.6.6.N.-       J.X : t./ 6._._._._.% % !._._._._._._._._._._._._._._._._._._._._._._._._._.",
"_._._._._._._._._._._._._._._._._._._._._._._._._._._._._.M.6.6.6.N.n , ,         = / / _._._._.% % !._._._._._._._._._._._._._._._._._._._._._._._._._.",
"_._._._._._._._._._._._._._._._._._._._._._._._._._._._.N.0.6.6.6.N.n , ,         o , / 6.^._._.% % !._._._._._._._._._._._._._._._._._._._._._._._._._.",
"_._._._._._._._._._._._._._._._._._._._._._._._._._._._._.F.e.6.6.N.n , 6 6.    | %., / N./._._.% % !._._._._._._._._._._._._._._._._._._._._._._._._._.",
"_._._._._._._._._._._._._._._._._._._._._._._._._._._._.6.6.9.N.N.N.n , 6 6.q q O.%., / / Z._._.% % !._._._._._._._._._._._._._._._._._._._._._._._._._.",
"_._._._._._._._._._._._._._._._._._._._._._._._._._._._.e.0.9.9.6.N.n , 6 6.q q O.&.q , / 2. .% % v !._._._._._._._._._._._._._._._._._._._._._._._._._.",
"_._._._._._._._._._._._._._._._._._._._._._._._._._._./.6.0.e.N.0.<.e , 6 6.q q O.&.q , / 9.@.% % _._._._._._._._._._._._._._._._._._._._._._._._._._._.",
"_._._._._._._._._._._._._._._._._._._._._._._._._._._.F.0.0.N.G.#.q < , 6 6.q q O.&.q , / 8.o.% % _._._._._._._._._._._._._._._._._._._._._._._._._._._.",
"_._._._._._._._._._._._._._._._._._._._._._._._._._._._.H.H./._.q q < , 6 3.q q O.&.q 9 b V.g.% % _._._._._._._._._._._._._._._._._._._._._._._._._._._.",
"_._._._._._._._._._._._._._._._._._._._._._._._._._._._._._.W.W q q < , 6 9.q q O.&.q q , x.g.% % _._._._._._._._._._._._._._._._._._._._._._._._._._._.",
"_._._._._._._._._._._._._._._._._._._._._._._._._._._._._._.c.q q q < , 6 6.q q O.%.< q < x.g.% % _._._._._._._._._._._._._._._._._._._._._._._._._._._.",
"_._._._._._._._._._._._._._._._._._._._._._._._._._._._._.~ r q q q < , 6 6.q q O.%., q , x.g.% % _._._._._._._._._._._._._._._._._._._._._._._._._._._.",
"_._._._._._._._._._._._._._._._._._._._._._._._._._._._._.Q q q q q < , 6 6.q q q m 6., , x.g.% % _._._._._._._._._._._._._._._._._._._._._._._._._._._.",
"_._._._._._._._._._._._._._._._._._._._._._._._._._._._._.Q q q q q < , 6 6.q q q m 6., , 3 % % % _._._._._._._._._._._._._._._._._._._._._._._._._._._.",
"_._._._._._._._._._._._._._._._._._._._._._._._._._._._.q 2 2 q q q < , 6 6.q q q m 6., , 3 % % % _._._._._._._._._._._._._._._._._._._._._._._._._._._.",
"_._._._._._._._._._._._._._._._._._._._._._._._._._._._., , , , q q 7 , 6 6.q q q m 6., , 5 % % % _._._._._._._._._._._._._._._._._._._._._._._._._._._.",
"_._._._._._._._._._._._._._._._._._._._._._._._._._._._., , , , q q < , 6 6.q q q m 6., , % % % _._._._._._._._._._._._._._._._._._._._._._._._._._._._.",
"_._._._._._._._._._._._._._._._._._._._._._._._._._._._._.I , , , , , , 6 6.q q q m 6., , 3 % % _._._._._._._._._._._._._._._._._._._._._._._._._._._._.",
"_._._._._._._._._._._._._._._._._._._._._._._._._._._._._.I , , , , , , 6 6.q q q m 6., _.K % % _._._._._._._._._._._._._._._._._._._._._._._._._._._._.",
"_._._._._._._._._._._._._._._._._._._._._._._._._._._._._.I , , , _.D , 6 6.q q q m 6.6 _.K % % _._._._._._._._._._._._._._._._._._._._._._._._._._._._.",
"_._._._._._._._._._._._._._._._._._._._._._._._._._._._._._._._._._.D , 6 *._.G G G 2., _.K % % _._._._._._._._._._._._._._._._._._._._._._._._._._._._.",
"_._._._._._._._._._._._._._._._._._._._._._._._._._._._._._._._._._.U F F T _._._.I.F F _.X.J J _._._._._._._._._._._._._._._._._._._._._._._._._._._._.",
"_._._._._._._._._._._._._._._._._._._._._._._._._._._._._._._._._._._._._._._._._._._.)._._._._._._._._._._._._._._._._._._._._._._._._._._._._._._._._.",
"_._._._._._._._._._._._._._._._._._._._._._._._._._._._._._._._._._._._._._._._._._._._._._._._._._._._._._._._._._._._._._._._._._._._._._._._._._._._.",
"_._._._._._._._._._._._._._._._._._._._._._._._._._._._._._._._._._._._._._._._._._._._._._._._._._._._._._._._._._._._._._._._._._._._._._._._._._._._.",
"_._._._._._._._._._._._._._._._._._._._._._._._._._._._._._._._._._._._._._._._._._._._._._._._._._._._._._._._._._._._._._._._._._._._._._._._._._._._.",
"_._._._._._._._._._._._._._._._._._._._._._._._._._._._._._._._._._._._._._._._._._._._._._._._._._._._._._._._._._._._._._._._._._._._._._._._._._._._.",
"_._._._._._._._._._._._._._._._._._._._._._._._._._._._._._._._._._._._._._._._._._._._._._._._._._._._._._._._._._._._._._._._._._._._._._._._._._._._.",
"_._._._._._._._._._._._._._._._._._._._._._._._._._._._._._._._._._._._._._._._._._._._._._._._._._._._._._._._._._._._._._._._._._._._._._._._._._._._.",
"_._._._._._._._._._._._._._._._._._._._._._._._._._._._._._._._._._._._._._._._._._._._._._._._._._._._._._._._._._._._._._._._._._._._._._._._._._._._.",
"_._._._._._._._._._._._._._._._._._._._._._._._._._._._._._._._._._._._._._._._._._._._._._._._._._._._._._._._._._._._._._._._._._._._._._._._._._._._."
};
