/* XPM */
static char *_3908069f5844935dbccf4728022162eTLzF5F5vXFxERj1f[] = {
/* columns rows colors chars-per-pixel */
"76 76 140 2 ",
"   c #000000",
".  c #0A0000",
"X  c #0F0B0A",
"o  c #1E0000",
"O  c #180F0D",
"+  c #1E150F",
"@  c #161616",
"#  c gray12",
"$  c #2F0000",
"%  c #350604",
"&  c #261B13",
"*  c #291D14",
"=  c #211819",
"-  c #27210A",
";  c #2E2314",
":  c #34211C",
">  c #232323",
",  c #2D2122",
"<  c #2C2C2C",
"1  c #372625",
"2  c #362829",
"3  c #3A2A2A",
"4  c gray24",
"5  c #650000",
"6  c #690D0D",
"7  c #432E2D",
"8  c #433120",
"9  c #4A3624",
"0  c #42312E",
"q  c #4F322A",
"w  c #54352D",
"e  c #483330",
"r  c #533933",
"t  c #5A3738",
"y  c #523D3C",
"u  c #5E3B3A",
"i  c #62382D",
"p  c #673C3C",
"a  c #46412E",
"s  c #564637",
"d  c #58423C",
"f  c #53483C",
"g  c #674C31",
"h  c #6D443B",
"j  c #614A3C",
"k  c #754F3F",
"l  c #745437",
"z  c #755639",
"x  c #414141",
"c  c #4F4841",
"v  c #5E4F42",
"b  c #545454",
"n  c #5D5D5D",
"m  c #6F4C40",
"M  c #744D41",
"N  c #7A4C43",
"B  c #755443",
"V  c #7C5543",
"C  c #7C5944",
"Z  c #6E5454",
"A  c #656565",
"S  c #6B6B6B",
"D  c #756D66",
"F  c #7F6E6E",
"G  c gray44",
"H  c #7A7171",
"J  c #7E7E7E",
"K  c #900000",
"L  c #9B0101",
"P  c #802828",
"I  c #E70000",
"U  c #FF0000",
"Y  c #F53722",
"T  c #EE5C38",
"R  c #EC673E",
"E  c #835346",
"W  c #855D46",
"Q  c #875848",
"!  c #8E5D4A",
"~  c #876340",
"^  c #8A6442",
"/  c #8E6942",
"(  c #95644C",
")  c #98664E",
"_  c #9C6A4F",
"`  c #9C714A",
"'  c #9F6D50",
"]  c #A06E50",
"[  c #A57252",
"{  c #A97654",
"}  c #A77A52",
"|  c #AD7C53",
" . c #B17E56",
".. c #80716F",
"X. c #837370",
"o. c #8A7E7E",
"O. c #FB7443",
"+. c #9B8326",
"@. c #AC922A",
"#. c #BD8335",
"$. c #C6913B",
"%. c #D7B635",
"&. c #AA814D",
"*. c #AF8351",
"=. c #B48257",
"-. c #B68B52",
";. c #B98559",
":. c #BF8B5B",
">. c #C18D5C",
",. c #C5915E",
"<. c #C9945F",
"1. c #F1814D",
"2. c #EF8F55",
"3. c #EF9257",
"4. c #E69F5F",
"5. c #DFB54A",
"6. c #F0A15F",
"7. c #D39D62",
"8. c #D6A064",
"9. c #DAA364",
"0. c #DFAA67",
"q. c #E2AB67",
"w. c #E4AD68",
"e. c #FAAE65",
"r. c #E7B069",
"t. c #EBB36A",
"y. c #F2BA6D",
"u. c #F9C06F",
"i. c #8F8E8E",
"p. c #929292",
"a. c #9A9A9A",
"s. c #A2A2A2",
"d. c #B6B6B6",
"f. c #BCBCBC",
"g. c #C2C2C2",
"h. c #CBCBCB",
"j. c #D0D0D0",
"k. c #DDDDDD",
"l. c #E3E3E3",
"z. c #ffECECEC",
/* pixels */
"z.z.z.z.z.z.z.z.z.z.z.z.z.z.z.z.z.z.z.z.z.z.z.z.z.z.z.z.z.z.z.z.z.z.z.z.z.z.z.z.z.z.z.z.z.z.z.z.z.z.z.z.z.z.z.z.z.z.z.z.z.z.z.z.z.z.z.z.z.z.z.z.z.z.z.z.",
"z.z.z.z.z.z.z.z.z.z.z.z.z.z.z.z.z.z.z.z.z.z.z.z.z.z.z.z.z.z.z.z.z.z.z.z.z.z.z.z.z.z.z.z.z.z.z.z.z.z.z.z.z.z.z.z.z.z.z.z.z.z.z.z.z.z.z.z.z.z.z.z.z.z.z.z.",
"z.z.z.z.z.z.z.z.z.z.z.z.z.z.z.z.z.z.z.z.z.z.z.z.z.z.z.z.z.z.z.z.z.z.z.z.z.z.z.z.z.z.z.z.z.z.z.z.z.z.z.z.z.z.z.z.z.z.z.z.z.z.z.z.z.z.z.z.z.z.z.z.z.z.z.z.",
"z.z.z.z.z.z.z.z.z.z.z.z.z.z.z.z.z.z.z.z.z.z.z.z.z.z.z.z.z.z.z.z.z.z.z.z.z.z.z.z.z.z.z.z.z.z.z.z.z.z.z.z.z.z.z.z.z.z.z.z.z.z.z.z.z.z.z.z.z.z.z.z.z.z.z.z.",
"z.z.z.z.z.z.z.z.z.z.z.z.z.z.z.z.z.z.z.z.z.z.z.z.z.z.z.z.z.z.z.z.z.z.z.z.z.z.z.z.z.z.z.z.z.z.z.z.z.z.z.z.z.z.z.z.z.z.z.z.z.z.z.z.z.z.z.z.z.z.z.z.z.z.z.z.",
"z.z.z.z.z.z.z.z.z.z.z.z.z.z.z.z.z.z.z.z.z.z.z.z.z.z.z.z.z.z.z.z.z.z.z.z.z.z.z.z.z.z.z.z.z.z.z.z.z.z.z.z.z.z.z.z.z.z.z.z.z.z.z.z.z.z.z.z.z.z.z.z.z.z.z.z.",
"z.z.z.z.z.z.z.z.z.z.z.z.z.z.z.z.z.z.z.z.z.z.z.z.z.z.z.z.z.z.z.z.z.z.z.z.z.z.z.z.z.z.z.z.z.z.z.z.z.z.z.z.z.z.z.z.z.z.z.z.z.z.z.z.z.z.z.z.z.z.z.z.z.z.z.z.",
"z.z.z.z.z.z.z.z.z.z.z.z.z.z.z.z.z.z.z.z.z.z.z.z.z.z.z.z.z.z.z.z.z.z.z.z.z.z.z.z.z.z.z.z.z.z.z.z.z.z.z.z.z.z.z.z.z.z.z.z.z.z.z.z.z.z.z.z.z.z.z.z.z.z.z.z.",
"z.z.z.z.z.z.z.z.z.z.z.z.z.z.z.z.z.z.z.z.z.z.z.z.z.z.z.z.z.z.z.z.z.z.z.z.z.z.z.z.z.z.z.z.z.z.z.z.z.z.z.z.z.z.z.z.z.z.z.z.z.z.z.z.z.z.z.z.z.z.z.z.z.z.z.z.",
"z.z.z.z.z.z.z.z.z.z.z.z.z.z.z.z.z.z.z.z.z.z.z.z.z.z.z.z.z.z.z.z.z.z.z.z.z.z.z.z.z.z.z.z.z.z.z.z.z.z.z.z.z.z.z.z.z.z.z.z.z.z.z.z.z.z.z.z.z.z.z.z.z.z.z.z.",
"z.z.z.z.z.z.z.z.z.z.z.z.z.z.z.z.z.z.z.z.z.z.z.z.z.z.z.z.z.z.z.z.z.z.z.z.z.z.z.z.z.z.z.z.z.z.z.z.z.z.z.z.z.z.z.z.z.z.z.z.z.z.z.z.z.z.z.z.z.z.z.z.z.z.z.z.",
"z.z.z.z.z.z.z.z.z.z.z.z.z.z.z.z.z.z.z.z.z.z.z.z.z.z.z.z.z.z.z.z.z.z.z.z.z.z.z.z.z.z.z.z.z.z.z.z.z.z.z.z.z.z.z.z.z.z.z.z.z.z.z.z.z.z.z.z.z.z.z.z.z.z.z.z.",
"z.z.z.z.z.z.z.z.z.z.z.z.z.z.z.z.z.z.z.z.z.z.z.z.z.z.z.z.z.z.z.z.z.z.z.z.z.z.z.z.z.z.z.z.z.z.z.z.z.z.z.z.z.z.z.z.z.z.z.z.z.z.z.z.z.z.z.z.z.z.z.z.z.z.z.z.",
"z.z.z.z.z.z.z.z.z.z.z.z.z.z.z.z.z.z.z.z.z.h.d.d.f.d.l.z.z.z.z.z.z.z.z.z.z.z.z.z.z.z.z.z.z.z.z.z.z.z.z.z.z.z.z.z.z.z.z.z.z.z.z.z.z.z.z.z.z.z.z.z.z.z.z.z.",
"z.z.z.z.z.z.z.z.z.z.z.z.z.z.z.z.z.z.z.z.z.n         g.z.z.z.z.z.z.z.z.z.z.z.z.z.z.z.z.z.z.z.z.z.z.z.z.z.z.z.z.z.z.z.z.z.z.z.z.z.z.z.z.z.z.z.z.z.z.z.z.z.",
"z.z.z.z.z.z.z.z.z.z.z.z.z.z.z.z.z.z.z.z.z.n         g.z.z.z.z.z.z.z.z.z.z.z.z.z.z.z.z.z.z.z.z.z.z.z.z.z.z.z.z.z.z.z.z.z.z.z.z.z.z.z.z.z.z.z.z.z.z.z.z.z.",
"z.z.z.z.z.z.z.z.z.z.z.z.z.z.z.z.z.z.z.z.z.n         g.z.z.z.z.z.z.z.z.z.z.z.z.z.z.z.z.z.z.z.z.z.z.z.z.z.z.z.z.z.z.z.z.z.z.z.z.z.z.z.z.z.z.z.z.z.z.z.z.z.",
"z.z.z.z.z.z.z.z.z.z.z.z.z.z.z.z.z.z.z.z.z.n         g.z.z.z.z.z.z.z.z.z.z.z.z.z.z.z.z.z.z.z.z.z.z.z.z.z.z.z.z.z.z.z.z.z.z.z.z.z.z.z.z.z.z.z.z.z.z.z.z.z.",
"z.z.z.z.z.z.z.z.z.z.z.z.z.z.z.z.d.A A A A P K K K K Z S A A A A A A A a.z.z.z.z.z.z.z.z.z.z.z.z.z.z.z.z.z.z.z.z.z.z.z.z.z.z.z.z.z.z.z.z.z.z.z.z.z.z.z.z.",
"z.z.z.z.z.z.z.z.z.z.z.z.z.z.z.z.p.        L U U U U $                 n z.z.z.z.z.z.z.z.z.z.z.z.z.z.z.z.z.z.z.z.z.z.z.z.z.z.z.z.z.z.z.z.z.z.z.z.z.z.z.z.",
"z.z.z.z.z.z.z.z.z.z.z.z.z.z.z.z.p.        L U U U U $                 n z.z.z.z.z.z.z.z.z.z.z.z.z.z.z.z.z.z.z.z.z.z.z.z.z.z.z.z.z.z.z.z.z.z.z.z.z.z.z.z.",
"z.z.z.z.z.z.z.z.z.z.z.z.z.z.z.z.i.        L U U U U $                 n z.z.z.z.z.z.z.z.z.z.z.z.z.z.z.z.z.z.z.z.z.z.z.z.z.z.z.z.z.z.z.z.z.z.z.z.z.z.z.z.",
"z.z.z.z.z.z.z.z.z.z.z.z.l.l.l.l.i.. . . . L U U U U %   X   . . X   X n l.l.l.l.z.z.z.z.z.z.z.z.z.z.z.z.z.z.z.z.z.z.z.z.z.z.z.z.l.l.l.l.l.z.z.z.z.z.z.z.",
"z.z.z.z.z.z.z.z.z.z.z.g.@ @ @ @ 6 I I I I O.e.e.e.e.:.| *.*.| | | | | l @ @ @ @ p.z.z.z.z.z.z.z.z.z.z.z.z.z.z.z.z.z.z.z.z.z.z.z.4 @ @ @ 4 z.z.z.z.z.z.z.",
"z.z.z.z.z.z.z.z.z.z.z.g.        5 U U U U O.u.u.u.u.<.:.:.:.:.:.:.:.:.l         i.z.z.z.z.z.z.z.z.z.z.z.z.z.z.z.z.z.z.z.z.z.z.z.<       < z.z.z.z.z.z.z.",
"z.z.z.z.z.z.z.z.z.z.z.g.        5 U U U U O.u.u.u.u.<.:.:.:.:.:.:.:.:.l         p.z.z.z.z.z.z.z.z.z.z.z.z.z.z.z.z.z.z.z.z.z.z.z.<       < z.z.z.z.z.z.z.",
"z.z.z.z.z.z.z.z.z.z.z.g.        5 U U U U O.u.u.u.u.<.>.>.>.:.>.:.:.:.l         i.z.z.z.z.z.z.z.z.z.z.z.z.z.z.z.z.z.z.z.z.z.z.z.<       < z.z.z.z.z.z.z.",
"z.z.z.z.z.z.z.z.z.z.z.g.        5 U U U U O.u.u.u.u./ z z z ~ 7.8.8.7.` 9 9 9 9 D p.p.p.p.k.z.z.z.z.z.z.z.z.h.p.a.p.p.p.p.p.p.p.s 9 9 9 s p.p.p.p.d.z.z.",
"z.z.z.z.z.z.z.z.z.z.z.g.        5 U U U U O.u.u.u.u.;       ; u.u.u.u.q.:.:.:.:.9         g.z.z.z.z.z.z.z.z.i.                  ` :.:.:.`         n z.z.",
"z.z.z.z.z.z.z.z.z.z.z.g.        5 U U U U O.u.u.u.u.;       ; u.u.u.u.q.:.:.:.:.9         g.z.z.z.z.z.z.z.z.i.                  ` :.:.:.`         n z.z.",
"z.z.z.z.z.z.z.z.z.z.z.g.        5 U U U U O.u.u.u.u.;       ; u.u.u.u.q.:.:.:.:.9         g.z.z.z.z.z.z.z.z.p.                  ` :.:.:.`         n z.z.",
"z.z.z.z.z.z.z.z.z.z.z.g.        5 U U U U O.u.u.u.u.;       ; u.u.u.u.q.:.:.:.:.9         g.z.z.z.z.z.z.z.z.i.                  ` :.:.:.`         n z.z.",
"z.z.z.z.z.z.z.n x x x f +.+.+.+.#.1.1.1.1.6.t.y.t.y.-.&.&.*.-.t.y.t.y.t.r.r.r.r.=.^ ^ ^ ^ c x x x x x x x x v ^ ^ ^ ^ ^ ^ ^ ^ ^ =.:.:.:.`         n z.z.",
"z.z.z.z.z.z.z.<       - %.%.%.%.5.t.t.t.t.t.t.t.t.t.t.t.r.t.t.t.t.t.t.t.u.u.u.u.7.:.:.:.:.&                 9 :.:.:.:.:.:.:.:.:.:.:.:.:.`         n z.z.",
"z.z.z.z.z.z.z.<       - %.%.%.%.5.t.t.r.t.t.t.t.t.t.t.t.r.t.t.t.t.t.t.y.u.u.u.u.9.:.:.:.:.+                 9 :.:.:.:.:.:.:.:.:.:.:.:.:.`         n z.z.",
"z.z.z.z.z.z.z.<       - %.%.%.%.5.t.t.t.t.t.t.r.t.t.t.t.t.t.t.t.t.t.t.y.u.u.u.u.7.:.:.:.:.&                 9 :.:.:.:.:.:.:.:.:.:.:.:.:.`         n z.z.",
"z.z.z.z.z.z.z.b < < < a @.@.@.@.$.2.2.2.2.2.2.2.2.2.r.t.t.t.t.t.t.t.r.y.u.y.y.u.7.,.>.>.>.8 * * * * * * * * g <.<.,.<.,.<.<.<.<.>.>.>.:.`         n z.z.",
"z.z.z.z.z.z.z.z.z.z.z.h.        5 U U U U U U U U U 2.t.t.t.t.t.t.t.t.r.r.r.r.r.7.<.<.<.,.,.,.,.,.,.<.<.<.,.8.t.t.t.t.y.y.y.y.y.,.:.:.:.`         n z.z.",
"z.z.z.z.z.z.z.z.z.z.z.g.        5 U U U U U U U U U 2.t.t.t.t.t.t.t.t.r.r.w.r.r.7.<.<.<.<.,.>.,.,.,.,.,.,.,.8.t.t.t.t.t.y.y.y.y.<.>.:.:.`         n z.z.",
"z.z.z.z.z.z.z.z.z.z.z.g.        5 U U U U U U U U U 2.t.t.t.t.t.t.t.t.r.r.r.r.w.7.<.,.<.,.,.,.,.,.,.,.<.<.<.8.t.t.t.t.y.y.y.y.y.,.:.:.:.`         n z.z.",
"z.z.z.z.z.z.z.z.z.z.z.g.        5 U U U U U U U U U 3.t.t.t.t.t.r.t.t.r.w.r.r.w.7.<.<.<.<.,.,.,.<.>.<.<.<.<.7.t.t.t.t.y.y.y.y.y.,.:.:.:.`         n z.z.",
"z.z.z.z.z.z.z.z.z.z.z.g.        5 U U U U Y T T T T 4.w.w.w.w.w.r.r.w.q.8.8.9.8.0.q.q.q.w.q.q.0.q.q.w.w.q.q.0.7.7.7.7.7.7.7.9.7.{ ' ' ' W         n z.z.",
"z.z.z.z.z.z.z.z.z.z.z.g.        5 U U U U R 0.0.0.0.0.0.0.0.0.w.q.q.w.9.7.<.<.<.t.u.y.u.u.u.u.u.y.u.u.u.y.u.q.>.:.:.:.:.:.:.>.>.! E E E h         n z.z.",
"z.z.z.z.z.z.z.z.z.z.z.g.        5 U U U U R 0.0.0.0.0.0.0.0.0.w.w.q.q.9.<.<.<.<.w.u.u.u.u.u.u.u.u.u.u.u.u.u.q.>.:.:.:.:.:.:.:.>.! E E E h         n z.z.",
"z.z.z.z.z.z.z.z.z.z.z.g.        5 U U U U R 0.0.0.0.0.0.0.0.0.w.q.q.w.7.<.<.7.<.t.y.u.u.u.u.u.u.u.u.u.u.u.u.w.>.:.:.:.>.:.:.:.:.! E E E h         n z.z.",
"z.z.z.z.z.z.z.z.z.z.z.g.X       5 U U U U R 0.0.0.w.0.0.0.0.0.q.q.q.q.9.<.<.<.<.t.u.u.u.u.u.u.u.u.u.u.u.u.u.w.>.:.>.>.>.:.:.:.:.! V E E h         A z.z.",
"z.z.z.z.z.z.z.z.z.z.z.l.j.j.h.j.o.o o o o i ! ! ! ! ] ] ] ]  .q.q.q.q.9.<.<.<.<.w.u.u.u.u.u.u.u.u.u.u.u.u.u.u.y.y.y.y.<.[ { [ { ; X X X 3 j.j.j.h.k.z.z.",
"z.z.z.z.z.z.z.z.z.z.z.z.z.z.z.z.p.        q E E E E ) ) ' ' { q.w.q.w.9.7.<.<.<.r.u.u.u.u.u.u.u.u.u.u.u.u.u.u.u.y.y.y.,.[ [ [ ] +       < z.z.z.z.z.z.z.",
"z.z.z.z.z.z.z.z.z.z.z.z.z.z.z.z.i.        q E E E E ) _ ) ' { q.q.w.w.9.<.<.<.7.w.u.u.u.u.u.u.u.u.u.u.u.u.u.u.u.u.u.u.,.[ [ [ ] +       < z.z.z.z.z.z.z.",
"z.z.z.z.z.z.z.z.z.z.z.z.z.z.z.z.i.        q E E E E ) _ ' ' { q.q.q.q.9.<.<.<.<.r.u.u.u.u.u.u.u.u.u.u.u.u.u.u.u.u.u.u.>.[ ] [ [ +       < z.z.z.z.z.z.z.",
"z.z.z.z.z.z.z.z.z.z.z.z.z.z.z.z.d.b b b b d w w w w k V V V W ,.<.<.<.>. . . . .7.r.r.r.r.y.u.u.u.u.u.u.u.u.y.q.r.w.w.=.) ) _ ) +       < z.z.z.z.z.z.z.",
"z.z.z.z.z.z.z.z.z.z.z.z.z.z.z.z.z.z.z.z.z.n         1 7 7 7 r ' ) ) ) ( E Q E E | ,.<.<.<.y.u.u.u.u.u.u.u.y.q.:.>.>.>._ E E E E O       < z.z.z.z.z.z.z.",
"z.z.z.z.z.z.z.z.z.z.z.z.z.z.z.z.z.z.z.z.z.n         1 7 7 7 r _ ] ) ] ( E E E E { ,.,.,.<.y.y.u.u.u.u.u.u.u.q.>.>.>.>._ E E E E O       < z.z.z.z.z.z.z.",
"z.z.z.z.z.z.z.z.z.z.z.z.z.z.z.z.z.z.z.z.z.n         1 7 7 7 r ' ) ] ) ( E E E E  .,.,.,.>.y.u.u.u.u.u.u.u.u.q.:.>.>.>.) E E E E O       < z.z.z.z.z.z.z.",
"z.z.z.z.z.z.z.z.z.z.z.z.z.z.z.z.z.z.z.z.z.n         1 7 7 7 r ' _ _ ) ( E E E E { ,.,.<.,.y.u.y.u.y.u.u.u.y.w.>.;.>.>.) E E E E +       < z.z.z.z.z.z.z.",
"z.z.z.z.z.z.z.z.z.z.z.z.z.z.z.z.z.z.z.z.z.n         , 3 3 3 e W Q Q Q E h h h m Q ) ) ) ) ,.7.7.7.7.7.7.7.7.;.) ( ( ) w & & & & i.s.s.s.d.z.z.z.z.z.z.z.",
"z.z.z.z.z.z.z.z.z.z.z.z.z.z.z.z.z.z.z.z.z.n         , 2 2 2 0 C C C C M p p p p M E E E E  .>.>.:.:.:.:.:.:.[ E E E E : .       g.z.z.z.z.z.z.z.z.z.z.z.",
"z.z.z.z.z.z.z.z.z.z.z.z.z.z.z.z.z.z.z.z.z.n         , 2 2 2 0 C C C C M p p p p N E E E E  .;.>.:.:.:.:.:.:.} E E E E :         g.z.z.z.z.z.z.z.z.z.z.z.",
"z.z.z.z.z.z.z.z.z.z.z.z.z.z.z.z.z.z.z.z.z.n         , 2 2 2 0 C C C C B p p p p N E E E E  .>.>.:.:.:.:.:.:.[ E E E E :         f.z.z.z.z.z.z.z.z.z.z.z.",
"z.z.z.z.z.z.z.z.z.z.z.z.z.z.z.z.z.l.z.l.l.G # # # # , , , , 3 B Z B B M h p p p M N N N E [  . . .| } } } } ( h p h h 7 > > > > h.z.z.z.z.z.z.z.z.z.z.z.",
"z.z.z.z.z.z.z.z.z.z.z.z.z.z.z.z.l.j.j.j.j.g.d.d.d.d.>       X y y y y d d j j j u t t t t p p p p u 2 2 2 2 =         J j.j.j.j.l.z.z.z.z.z.z.z.z.z.z.z.",
"z.z.z.z.z.z.z.z.z.z.z.z.z.z.z.z.l.j.j.j.j.g.f.d.d.d.>       X y y y y d j j j j u t t t t p p p p u 2 2 2 2 =         J j.j.j.j.z.z.z.z.z.z.z.z.z.z.z.z.",
"z.z.z.z.z.z.z.z.z.z.z.z.z.z.z.z.k.j.j.j.j.g.d.d.d.d.>       X y y y y d j j j j u t t t t p p p p u 2 2 2 2 =         J j.j.j.j.l.z.z.z.z.z.z.z.z.z.z.z.",
"z.z.z.z.z.z.z.z.z.z.z.z.z.z.z.z.l.j.j.j.j.g.d.d.d.d.>       X y y y d d j j j j u t t t t p p p p u 1 2 2 2 =         i.j.j.j.j.z.z.z.z.z.z.z.z.z.z.z.z.",
"z.z.z.z.z.z.z.z.z.z.z.z.z.z.z.z.z.l.k.k.k.h.g.g.h.g.G n n n A H H H H F X.X.H X.H ........X.X...X.....F H H G S A S S d.k.k.k.k.z.z.z.z.z.z.z.z.z.z.z.z.",
"z.z.z.z.z.z.z.z.z.z.z.z.z.z.z.z.z.z.z.z.z.k.j.j.j.j.f.d.d.d.d.s.s.s.s.s.s.s.s.s.s.s.s.s.s.s.s.s.s.s.d.d.d.d.g.j.j.j.j.l.z.z.z.z.z.z.z.z.z.z.z.z.z.z.z.z.",
"z.z.z.z.z.z.z.z.z.z.z.z.z.z.z.z.z.z.z.z.z.k.j.j.j.j.f.d.d.d.d.s.s.s.s.s.s.s.s.s.s.s.s.s.s.s.s.s.s.s.f.d.d.d.g.j.j.j.h.l.z.z.z.z.z.z.z.z.z.z.z.z.z.z.z.z.",
"z.z.z.z.z.z.z.z.z.z.z.z.z.z.z.z.z.z.z.z.z.k.j.j.j.j.f.d.d.d.d.s.s.s.s.s.s.s.s.s.s.s.s.s.s.s.s.s.s.s.d.d.d.d.g.j.j.j.j.l.z.z.z.z.z.z.z.z.z.z.z.z.z.z.z.z.",
"z.z.z.z.z.z.z.z.z.z.z.z.z.z.z.z.z.z.z.z.z.k.j.j.j.j.f.d.d.d.d.a.s.s.s.s.s.s.s.s.s.s.s.s.s.s.s.s.s.s.f.d.d.d.g.j.h.j.j.k.z.z.z.z.z.z.z.z.z.z.z.z.z.z.z.z.",
"z.z.z.z.z.z.z.z.z.z.z.z.z.z.z.z.z.z.z.z.z.z.z.l.l.z.l.l.l.l.l.l.l.k.l.k.l.l.l.l.k.k.k.l.k.l.l.l.l.l.l.l.l.l.l.z.z.z.z.z.z.z.z.z.z.z.z.z.z.z.z.z.z.z.z.z.",
"z.z.z.z.z.z.z.z.z.z.z.z.z.z.z.z.z.z.z.z.z.z.z.z.z.z.z.z.z.z.z.z.z.z.z.z.z.z.z.z.z.z.z.z.z.z.z.z.z.z.z.z.z.z.z.z.z.z.z.z.z.z.z.z.z.z.z.z.z.z.z.z.z.z.z.z.",
"z.z.z.z.z.z.z.z.z.z.z.z.z.z.z.z.z.z.z.z.z.z.z.z.z.z.z.z.z.z.z.z.z.z.z.z.z.z.z.z.z.z.z.z.z.z.z.z.z.z.z.z.z.z.z.z.z.z.z.z.z.z.z.z.z.z.z.z.z.z.z.z.z.z.z.z.",
"z.z.z.z.z.z.z.z.z.z.z.z.z.z.z.z.z.z.z.z.z.z.z.z.z.z.z.z.z.z.z.z.z.z.z.z.z.z.z.z.z.z.z.z.z.z.z.z.z.z.z.z.z.z.z.z.z.z.z.z.z.z.z.z.z.z.z.z.z.z.z.z.z.z.z.z.",
"z.z.z.z.z.z.z.z.z.z.z.z.z.z.z.z.z.z.z.z.z.z.z.z.z.z.z.z.z.z.z.z.z.z.z.z.z.z.z.z.z.z.z.z.z.z.z.z.z.z.z.z.z.z.z.z.z.z.z.z.z.z.z.z.z.z.z.z.z.z.z.z.z.z.z.z.",
"z.z.z.z.z.z.z.z.z.z.z.z.z.z.z.z.z.z.z.z.z.z.z.z.z.z.z.z.z.z.z.z.z.z.z.z.z.z.z.z.z.z.z.z.z.z.z.z.z.z.z.z.z.z.z.z.z.z.z.z.z.z.z.z.z.z.z.z.z.z.z.z.z.z.z.z.",
"z.z.z.z.z.z.z.z.z.z.z.z.z.z.z.z.z.z.z.z.z.z.z.z.z.z.z.z.z.z.z.z.z.z.z.z.z.z.z.z.z.z.z.z.z.z.z.z.z.z.z.z.z.z.z.z.z.z.z.z.z.z.z.z.z.z.z.z.z.z.z.z.z.z.z.z."
};
