/* XPM */
static char *_f70b2374ac441cabd13186b75c903d6ld29JsgGR3BDSo8Q[] = {
/* columns rows colors chars-per-pixel */
"76 76 164 2 ",
"   c #000000",
".  c #0A0605",
"X  c #0F0B07",
"o  c #0D0909",
"O  c #140000",
"+  c #110C0C",
"@  c #191506",
"#  c #16100B",
"$  c #1C150C",
"%  c #131313",
"&  c #1D1616",
"*  c #241A11",
"=  c #251C1D",
"-  c #32201B",
";  c #37281A",
":  c #392A1B",
">  c #272727",
",  c #2B2B2B",
"<  c #382725",
"1  c #362829",
"2  c #3C2B2A",
"3  c #373333",
"4  c #4D0000",
"5  c #5A0503",
"6  c #422B24",
"7  c #432E2D",
"8  c #4A2F28",
"9  c #443120",
"0  c #4C332D",
"q  c #4E3232",
"w  c #523334",
"e  c #593637",
"r  c #5D3B33",
"t  c #663030",
"y  c #673C3C",
"u  c #693E3D",
"i  c #6B5B1B",
"p  c #74621D",
"a  c #5D442C",
"s  c #60462E",
"d  c #655226",
"f  c #6B5B22",
"g  c #64433A",
"h  c #674538",
"j  c #6F4C3E",
"k  c #764B3F",
"l  c #75503A",
"z  c #7A5A3C",
"x  c #7C6037",
"c  c #77723D",
"v  c #434343",
"b  c #4C4844",
"n  c gray31",
"m  c #555454",
"M  c #5B5B5B",
"N  c #794D40",
"B  c #765442",
"V  c #766B45",
"C  c #656464",
"Z  c #6C6C6C",
"A  c #74726D",
"S  c #767676",
"D  c #797979",
"F  c #961313",
"G  c #B50000",
"H  c #B80000",
"J  c #B90B07",
"K  c #AF110C",
"L  c #C60303",
"P  c #D30000",
"I  c #EB0000",
"U  c red",
"Y  c #FD0B06",
"T  c #FE0E09",
"R  c #FD150C",
"E  c #FC2214",
"W  c #EF351F",
"Q  c #F9341F",
"!  c #C53520",
"~  c #FD3A21",
"^  c #896A3D",
"/  c #807934",
"(  c #CF6131",
")  c #F46039",
"_  c #835346",
"`  c #885748",
"'  c #8B5B49",
"]  c #905E4B",
"[  c #856144",
"{  c #886341",
"}  c #8E6449",
"|  c #936D45",
" . c #94644C",
".. c #9C6A4F",
"X. c #9A7248",
"o. c #9E6C50",
"O. c #A5794E",
"+. c #A47152",
"@. c #AB7754",
"#. c #AE7B55",
"$. c #ED7B4A",
"%. c #D6B635",
"&. c #8B8652",
"*. c #B1884F",
"=. c #B69A40",
"-. c #BE9B42",
";. c #B18154",
":. c #B88A55",
">. c #B78359",
",. c #B98659",
"<. c #BF8B5B",
"1. c #B9A143",
"2. c #86817D",
"3. c #C48656",
"4. c #C28E5C",
"5. c #C6925E",
"6. c #C9945F",
"7. c #E58852",
"8. c #E49259",
"9. c #E19D5F",
"0. c #D7B644",
"q. c #DABB47",
"w. c #C6BC51",
"e. c #CCB953",
"r. c #CAB15B",
"t. c #E5B45B",
"y. c #CA9560",
"u. c #CE9860",
"i. c #D29C62",
"p. c #D7A264",
"a. c #DAA465",
"s. c #DFAA67",
"d. c #D2BE63",
"f. c #E1AA67",
"g. c #E3AC68",
"h. c #E7B069",
"j. c #EBB36A",
"k. c #F9B166",
"l. c #F0B76D",
"z. c #F3BB6E",
"x. c #F8BF6F",
"c. c #D2C45A",
"v. c #E2C74E",
"b. c #F3E15E",
"n. c #DFD16F",
"m. c #F9C06F",
"M. c #E5DA74",
"N. c #E8DE76",
"B. c #FCED65",
"V. c #FFF268",
"C. c #828282",
"Z. c #8D8D8D",
"A. c #939393",
"S. c #9A9A9A",
"D. c #A2A2A2",
"F. c #A9A9A9",
"G. c #B7B7B7",
"H. c #BCBCBC",
"J. c gray78",
"K. c #CCCCCC",
"L. c #D2D2D2",
"P. c #DADADA",
"I. c #E2E2E2",
"U. c #ffECECEC",
/* pixels */
"U.U.U.U.U.U.U.U.U.U.U.U.U.U.U.U.U.U.U.U.U.U.U.U.U.U.U.U.U.U.U.U.U.U.U.U.U.U.U.U.U.U.U.U.U.U.U.U.U.U.U.U.U.U.U.U.U.U.U.U.U.U.U.U.U.U.U.U.U.U.U.U.U.U.U.U.",
"U.U.U.U.U.U.U.U.U.U.U.U.U.U.U.U.U.U.U.U.U.U.U.U.U.U.U.U.U.U.U.U.U.U.U.U.U.U.U.U.U.U.U.U.U.U.U.U.U.U.U.U.U.U.U.U.U.U.U.U.U.U.U.U.U.U.U.U.U.U.U.U.U.U.U.U.",
"U.U.U.U.U.U.U.U.U.U.U.U.U.U.U.U.U.U.U.U.U.U.U.U.U.U.U.U.U.U.U.U.U.U.U.U.U.U.U.U.U.U.U.U.U.U.U.U.U.U.U.U.U.U.U.U.U.U.U.U.U.U.U.U.U.U.U.U.U.U.U.U.U.U.U.U.",
"U.U.U.U.U.U.U.U.U.U.U.U.U.U.U.U.U.U.U.U.U.U.U.U.U.U.U.U.U.U.U.U.U.U.U.U.U.U.U.U.U.U.U.U.U.U.U.U.U.U.U.U.U.U.U.U.U.U.U.U.U.U.U.U.U.U.U.U.U.U.U.U.U.U.U.U.",
"U.U.U.U.U.U.U.U.U.U.U.U.U.U.U.U.U.U.U.U.U.U.U.U.U.U.U.U.U.U.U.U.U.U.U.U.U.U.U.U.U.U.U.U.U.U.U.U.U.U.U.U.U.U.U.U.U.U.U.U.U.U.U.U.U.U.U.U.U.U.U.U.U.U.U.U.",
"U.U.U.U.U.U.U.U.U.U.U.U.U.U.U.U.U.U.U.U.U.U.U.U.U.U.U.U.U.U.U.U.U.U.U.U.U.U.U.U.U.U.U.U.U.U.U.U.U.U.U.U.U.U.U.U.U.U.U.U.U.U.U.U.U.U.U.U.U.U.U.U.U.U.U.U.",
"U.U.U.U.U.U.U.U.U.U.U.U.U.U.U.U.U.U.U.U.U.U.U.U.U.U.U.U.U.U.U.U.U.U.U.U.U.U.U.U.U.U.U.U.U.U.U.U.U.U.U.U.U.U.U.U.U.U.U.U.U.U.U.U.U.U.U.U.U.U.U.U.U.U.U.U.",
"U.U.U.U.U.U.U.U.U.U.U.U.U.U.U.U.U.U.U.U.U.U.U.U.U.U.U.U.U.U.U.U.U.U.U.U.U.U.U.U.U.U.U.U.U.U.U.U.U.U.U.U.U.U.U.U.U.U.U.U.U.U.U.U.U.U.U.U.U.U.U.U.U.U.U.U.",
"U.U.U.U.U.U.U.U.U.U.U.U.U.U.U.U.U.U.U.U.U.U.U.U.U.U.U.U.U.U.U.U.U.U.U.U.U.U.U.U.U.U.U.U.U.U.U.U.U.U.U.U.U.U.U.U.U.U.U.U.U.U.U.U.U.U.U.U.U.U.U.U.U.U.U.U.",
"U.U.U.U.U.U.U.U.U.U.U.U.U.U.U.U.U.U.U.U.U.U.U.U.U.U.U.U.U.U.U.U.U.U.U.U.U.U.U.U.U.U.U.U.U.U.U.U.U.U.U.U.U.U.U.U.U.U.U.U.U.U.U.U.U.U.U.U.U.U.U.U.U.U.U.U.",
"U.U.U.U.U.U.U.U.U.U.U.U.U.U.U.U.U.U.U.U.U.U.U.U.U.U.U.U.U.U.U.U.U.U.U.U.U.U.U.U.U.U.U.U.U.U.U.U.U.U.U.U.U.U.U.U.U.U.U.U.U.U.U.U.U.U.U.U.U.U.U.U.U.U.U.U.",
"U.U.U.U.U.U.U.U.U.U.U.U.U.U.U.U.U.U.I.D D D D S.U.U.U.U.U.U.U.U.U.U.U.U.U.U.U.U.U.U.U.U.U.U.U.U.U.U.U.U.U.U.U.U.U.U.U.U.U.U.U.U.U.U.U.U.U.U.U.U.U.U.U.U.",
"U.U.U.U.U.U.U.U.U.U.U.U.U.U.U.U.U.U.P.%       v U.U.U.U.U.U.U.U.U.U.U.U.U.U.U.U.U.U.U.U.U.U.U.U.U.U.U.U.U.U.U.U.U.U.U.U.U.U.U.U.U.U.U.U.U.U.U.U.U.U.U.U.",
"U.U.U.U.U.U.U.U.U.U.U.U.U.U.U.U.U.U.P.%       v U.U.U.U.U.U.U.U.U.U.U.U.U.U.U.U.U.U.U.U.U.U.U.U.U.U.U.U.U.U.U.U.U.U.U.U.U.U.U.U.U.U.U.U.U.U.U.U.U.U.U.U.",
"U.U.U.U.U.U.U.U.U.U.U.U.U.U.U.U.U.U.P.%       v U.U.U.U.U.U.U.U.U.U.U.U.U.U.U.U.U.U.U.U.U.U.U.U.U.U.U.U.U.U.U.U.U.U.U.U.U.U.U.U.U.U.U.U.U.U.U.U.U.U.U.U.",
"U.U.U.U.U.U.U.U.U.U.U.U.U.U.U.U.U.U.P.%       v U.U.U.U.U.U.U.U.U.U.U.U.U.U.U.U.U.U.U.U.U.U.U.U.U.U.U.U.U.U.U.U.U.U.U.U.U.U.U.U.U.U.U.U.U.U.U.U.U.U.U.U.",
"U.U.U.U.U.U.U.U.U.U.U.U.U.U.C , , > < L P P P K , , > , , > , , , G.U.U.U.U.U.U.U.U.U.U.U.U.U.U.U.U.U.U.U.U.U.U.U.U.U.U.U.U.U.U.U.U.U.U.U.U.U.U.U.U.U.U.",
"U.U.U.U.U.U.U.U.U.U.U.U.U.U.v       O I U U U G                   D.U.U.U.U.U.U.U.U.U.U.U.U.U.U.U.U.U.U.U.U.U.U.U.U.U.U.U.U.U.U.U.U.U.U.U.U.U.U.U.U.U.U.",
"U.U.U.U.U.U.U.U.U.U.U.U.U.U.v       O I U U U G                   F.U.U.U.U.U.U.U.U.U.U.U.U.U.U.U.U.U.U.U.U.U.U.U.U.U.U.U.U.U.U.U.U.U.U.U.U.U.U.U.U.U.U.",
"U.U.U.U.U.U.U.U.U.U.U.U.U.U.v       O I U U U G                   D.U.U.U.U.U.U.U.U.U.U.U.U.U.U.U.U.U.U.U.U.U.U.U.U.U.U.U.U.U.U.U.U.U.U.U.U.U.U.U.U.U.U.",
"U.U.U.U.U.U.U.U.U.J.F.D.D.F.t 4 4 4 5 W ~ ~ ~ ! : : : : : : : : : 2.D.D.D.F.U.U.U.U.U.U.U.U.U.U.U.U.U.U.U.U.U.U.U.F.D.F.F.H.U.U.U.U.U.U.U.U.U.U.U.U.U.U.",
"U.U.U.U.U.U.U.U.U.S         G U U U R k.m.m.m.h.<.<.<.<.<.<.<.<.4.;       % P.U.U.U.U.U.U.U.U.U.U.U.U.U.U.U.U.U.P.%       v U.U.U.U.U.U.U.U.U.U.U.U.U.U.",
"U.U.U.U.U.U.U.U.U.S         G U U U Y k.m.m.m.h.<.<.<.<.<.5.<.<.<.:       % P.U.U.U.U.U.U.U.U.U.U.U.U.U.U.U.U.U.P.%       v U.U.U.U.U.U.U.U.U.U.U.U.U.U.",
"U.U.U.U.U.U.U.U.U.S         G U U U R k.m.m.m.h.<.<.<.<.<.<.<.<.<.:       % P.U.U.U.U.U.U.U.U.U.U.U.U.U.U.U.U.U.P.%       v U.U.U.U.U.U.U.U.U.U.U.U.U.U.",
"U.U.U.U.U.U.U.U.U.D         G U U U T k.m.m.m.h.4.<.3.<.<.<.<.<.<.:       % P.U.U.U.U.U.U.U.U.U.U.U.U.U.U.U.U.U.L.%       v U.U.U.U.U.U.U.U.U.U.U.U.U.U.",
"U.U.U.U.U.U.U.U.U.D         G U U U T k.m.m.m.5.9 9 9 9 | g.g.g.g.X.z z z z m m m m C.U.U.U.U.U.U.U.U.U.C.m m m m z z z z B m m m m D.U.U.U.U.U.U.U.U.U.",
"U.U.U.U.U.U.U.U.U.S         G U U U R k.m.m.x.*.        x m.m.m.m.u.<.<.4.#.X       v U.U.U.U.U.U.U.U.U.v       + #.<.<.<.{         S U.U.U.U.U.U.U.U.U.",
"U.U.U.U.U.U.U.U.U.S         G U U U T k.m.m.m.*.        x m.m.m.m.i.<.<.<.;.X       v U.U.U.U.U.U.U.U.U.v       X ;.<.<.<.{         S U.U.U.U.U.U.U.U.U.",
"U.U.U.U.U.U.U.U.U.S         H U U U T k.x.x.x.*.        x m.m.m.m.i.<.<.<.#.X       v U.U.U.U.U.U.U.U.U.v       X ;.<.<.<.{         S U.U.U.U.U.U.U.U.U.",
"U.U.U.U.I.L.L.L.L.A @ @ @ @ J R R R E k.x.x.x.:.$ $ $ $ ^ m.m.z.x.i.5.5.5.:.* # # # b L.L.L.L.L.L.L.L.K.b + # # * ,.5.5.5.| # # # + A L.L.L.K.U.U.U.U.U.",
"U.U.U.U.F.        i %.%.%.%.t.h.h.j.j.j.j.j.j.j.j.h.h.h.j.j.j.j.j.z.m.m.m.z.4.<.<.<.[ .     .           ^ ,.<.<.<.j.l.l.l.g.<.<.<.<.s         F.U.U.U.U.",
"U.U.U.U.F.        i %.%.%.%.t.h.j.j.j.j.h.j.j.j.j.j.j.j.j.j.j.j.j.x.m.m.m.z.4.<.<.<.{                   [ <.<.<.5.l.z.l.l.g.<.<.4.4.s         D.U.U.U.U.",
"U.U.U.U.F.        i %.%.%.%.t.j.j.j.j.j.j.j.j.j.j.j.h.j.j.j.j.j.j.z.m.m.m.z.5.:.<.<.^                   { 3.<.<.4.j.z.l.z.g.4.<.<.<.s         F.U.U.U.U.",
"U.U.U.U.F.        i %.%.%.%.t.h.j.j.j.h.j.j.j.h.j.j.j.j.j.j.j.j.j.z.m.m.m.z.4.4.<.3.^                   ^ 4.<.<.4.l.z.l.z.g.<.<.<.<.s         F.U.U.U.U.",
"U.U.U.U.J.Z Z Z A V p p p p ( ) ) ) ) ) ) ) ) $.j.h.j.j.j.j.j.j.j.j.z.z.z.l.5.4.5.5.O.a a a a a a a a a ;.i.i.i.p.l.l.z.z.g.<.<.<.<.s         F.U.U.U.U.",
"U.U.U.U.U.U.U.U.U.S         G U U U U U U U U Q j.j.j.j.j.h.j.j.j.h.g.h.g.g.6.6.6.5.5.5.5.5.4.5.y.5.6.5.f.j.j.j.j.l.z.l.z.g.<.<.<.3.a         F.U.U.U.U.",
"U.U.U.U.U.U.U.U.U.S         G U U U U U U U U Q j.j.j.j.j.j.j.j.j.h.g.j.h.g.6.6.5.6.5.5.5.5.5.5.5.y.5.y.s.h.j.j.j.l.z.z.z.g.<.<.<.<.a         D.U.U.U.U.",
"U.U.U.U.U.U.U.U.U.S         G U U U U U U U U Q j.j.j.h.j.j.j.j.j.h.h.g.g.g.6.6.6.5.5.5.5.5.5.5.5.y.y.y.f.j.j.j.j.l.l.l.z.f.<.<.<.<.a         F.U.U.U.U.",
"U.U.U.U.U.U.U.U.U.S         G U U U U U U U U ~ j.h.j.j.j.j.j.j.j.h.j.g.j.g.6.6.6.6.5.5.5.5.5.5.y.y.y.y.f.j.j.h.j.l.l.z.z.g.<.<.<.<.a         F.U.U.U.U.",
"U.U.U.U.U.U.U.U.U.S         G U U U Y $.7.7.7.8.g.g.g.g.g.g.g.f.g.i.i.6.i.i.j.z.j.l.l.l.l.j.j.j.j.j.j.l.i.6.6.6.y.y.y.6.y.>.] ]  .' 8         F.U.U.U.U.",
"U.U.U.U.U.U.U.U.U.S         G U U U Y a.f.s.s.s.s.s.s.s.f.g.g.g.g.i.6.6.6.i.x.m.m.m.m.m.m.m.m.m.m.m.m.m.u.<.<.4.<.<.<.<.<.#._ _ _ _ 6         F.U.U.U.U.",
"U.U.U.U.U.U.U.U.U.S         G U U U Y 9.f.s.s.s.s.s.s.s.s.g.g.f.g.i.6.6.6.u.x.m.m.m.m.m.m.m.m.m.m.m.m.m.i.<.<.<.<.<.<.<.<.#._ _ _ _ 6         D.U.U.U.U.",
"U.U.U.U.U.U.U.U.U.S         G U U U T 9.s.s.s.s.f.f.s.f.s.f.g.g.g.i.6.6.6.u.x.x.m.m.m.m.m.m.m.m.m.m.m.m.i.<.<.<.<.<.<.4.<.#._ _ B ` 6         F.U.U.U.U.",
"U.U.U.U.U.U.U.U.U.A.v v v v F G G G J 3.5.5.5.5.y.u.y.y.p.f.f.g.g.i.6.6.6.6.z.x.m.m.m.m.m.m.m.m.m.m.m.m.a.u.u.u.y.,.>.>.,.o.y e r e a v v v v H.U.U.U.U.",
"U.U.U.U.U.U.U.U.U.U.U.U.U.U.v       . N _ _ _ ` ........<.f.s.g.g.i.6.6.6.i.x.x.m.m.m.m.m.m.m.m.m.m.m.m.m.m.m.m.l.@.+.+.+.l         S U.U.U.U.U.U.U.U.U.",
"U.U.U.U.U.U.U.U.U.U.U.U.U.U.v       . N _ _ _ ' ........<.f.g.g.f.i.6.6.6.i.x.m.m.m.m.m.m.m.m.m.m.m.m.m.m.m.m.m.z.@.+.+.+.l         S U.U.U.U.U.U.U.U.U.",
"U.U.U.U.U.U.U.U.U.U.U.U.U.U.v       . N _ _ _ ' ......o.<.f.s.g.g.i.6.6.6.6.m.m.m.m.m.m.m.m.m.m.m.m.m.m.m.m.m.m.z.@.+.+.+.l         S U.U.U.U.U.U.U.U.U.",
"U.U.U.U.U.U.U.U.U.U.U.U.U.U.v       . N _ _ _ ' ......o.4.f.g.s.f.i.6.6.6.i.x.m.m.m.m.m.m.m.m.m.m.m.m.m.m.m.m.m.z.@.+.+.+.l         S U.U.U.U.U.U.U.U.U.",
"U.U.U.U.U.U.U.U.U.U.U.U.U.U.F.A.A.A.C.< - - - 6 g g g g } ,.,.>.>.+.o.o.o.+.i.p.p.p.g.m.m.m.m.m.m.m.m.m.f.i.i.p.u. .} ' ] g         S U.U.U.U.U.U.U.U.U.",
"U.U.U.U.U.U.U.U.U.U.U.U.U.U.U.U.U.U.P.%       + 7 7 7 7 j ......o.` _ _ _ ` 5.5.y.y.p.m.m.m.m.m.m.m.m.m.u.<.4.3.,.` _ _ ` r         S U.U.U.U.U.U.U.U.U.",
"U.U.U.U.U.U.U.U.U.U.U.U.U.U.U.U.U.U.P.%       + 7 7 7 7 j o.....o.` _ _ _ ` <.y.y.<.p.m.m.m.m.m.m.m.m.m.i.<.<.<.,.` ` _ _ r         S U.U.U.U.U.U.U.U.U.",
"U.U.U.U.U.U.U.U.U.U.U.U.U.U.U.U.U.U.P.%       # 7 7 7 7 j ......o.` _ _ _ ` <.6.y.y.p.m.m.m.m.m.m.m.m.m.u.<.4.<.,.` _ _ _ r         S U.U.U.U.U.U.U.U.U.",
"U.U.U.U.U.U.U.U.U.U.U.U.U.U.U.U.U.U.I.> % & % = 2 2 2 2 h  .}  . .` N _ _ ` >.<.,.4.i.z.z.z.z.z.z.z.z.z.6.:.,.,.,.N N N k r & % % % C.U.U.U.U.U.U.U.U.U.",
"U.U.U.U.U.U.U.U.U.U.U.U.U.U.U.U.U.U.U.I.I.I.I.D.  . .   & 2 2 1 3 e u y u u ` ` _ _ ..<.4.4.4.<.<.5.4.4. .` _ ` N +       v I.I.I.I.U.U.U.U.U.U.U.U.U.U.",
"U.U.U.U.U.U.U.U.U.U.U.U.U.U.U.U.U.U.U.U.U.U.U.D.        & 1 1 1 1 e y y u u _ _ _ _  .,.<.<.<.<.<.<.<.<. ._ _ _ N X       v U.U.U.U.U.U.U.U.U.U.U.U.U.U.",
"U.U.U.U.U.U.U.U.U.U.U.U.U.U.U.U.U.U.U.U.U.U.U.F.        & 1 1 1 1 e y y u u B _ _ _  .<.<.<.<.<.<.<.<.<. ._ _ _ N .       v U.U.U.U.U.U.U.U.U.U.U.U.U.U.",
"U.U.U.U.U.U.U.U.U.U.U.U.U.U.U.U.U.U.U.U.U.U.U.F.        & 1 1 1 1 e u u y u _ _ _ _  .<.<.<.,.<.<.<.<.<. ._ _ _ N .       v U.U.U.U.U.U.U.U.U.U.U.U.U.U.",
"U.U.U.U.U.U.U.U.U.U.U.U.U.U.U.U.U.U.U.P.P.I.I.G.n n n n 3 = & * & 7 w w w w e y g y N  .......} [ [ [ [ r 8 8 8 0 C C C C Z.U.U.U.U.U.U.U.U.U.U.U.U.U.U.",
"U.U.U.U.U.U.U.U.U.U.U.U.U.U.U.U.U.U.U.L.L.L.K.J.G.G.G.G.M         = 1 1 1 1 1 1 1 1 7 y y y y q 1 1 1 1 X       % P.U.U.U.U.U.U.U.U.U.U.U.U.U.U.U.U.U.U.",
"U.U.U.U.U.U.U.U.U.U.U.U.U.U.U.U.U.U.U.L.L.L.L.J.G.G.G.G.M         = 1 1 1 1 1 1 1 1 7 y y y y q 1 1 1 1 +       % P.U.U.U.U.U.U.U.U.U.U.U.U.U.U.U.U.U.U.",
"U.U.U.U.U.U.U.U.U.U.U.U.U.U.U.U.U.U.U.L.L.K.L.J.G.G.G.G.M         = 1 1 1 1 1 1 1 1 7 y y y y q 1 1 1 1 +       % P.U.U.U.U.U.U.U.U.U.U.U.U.U.U.U.U.U.U.",
"U.U.U.U.U.U.U.U.U.U.U.U.U.U.U.U.U.U.U.L.L.L.L.J.G.G.G.G.M         = 1 1 1 1 1 1 1 1 7 y y y y q 1 1 1 1 +       % P.U.U.U.U.U.U.U.U.U.U.U.U.U.U.U.U.U.U.",
"U.U.U.U.U.U.U.U.U.U.U.U.U.U.P.P.L.P.L.J.H.H.H.A., , , , c w.w.w.w.1.=.=.=.=.c.c.c.c.e.-.-.-.-.d o o o o Z Z.Z.Z.A.L.L.P.P.P.U.U.U.U.U.U.U.U.U.U.U.U.U.U.",
"U.U.U.U.U.U.U.U.U.U.U.U.U.U.P.L.K.L.K.G.G.G.G.C.        c V.V.V.V.v.0.0.0.q.B.V.B.B.B.0.0.0.0.f         C.G.G.G.G.K.L.K.L.P.U.U.U.U.U.U.U.U.U.U.U.U.U.U.",
"U.U.U.U.U.U.U.U.U.U.U.U.U.U.L.L.L.L.K.G.G.G.G.C.        / V.V.V.V.v.0.0.0.q.B.V.V.V.B.0.0.0.0.f         C.G.G.G.G.L.L.L.L.L.U.U.U.U.U.U.U.U.U.U.U.U.U.U.",
"U.U.U.U.U.U.U.U.U.U.U.U.U.U.P.L.L.K.L.G.G.G.G.C.        / V.V.V.V.v.0.0.0.q.B.V.V.V.b.0.0.e.0.f         C.G.G.G.H.L.L.K.L.P.U.U.U.U.U.U.U.U.U.U.U.U.U.U.",
"U.U.U.U.U.U.U.U.U.U.U.U.U.U.P.P.P.L.L.J.H.H.H.A., 3 , , &.N.N.N.M.d.r.r.r.r.M.M.N.N.n.r.r.r.r.| , , 3 , A.H.H.H.H.L.P.L.L.I.U.U.U.U.U.U.U.U.U.U.U.U.U.U.",
"U.U.U.U.U.U.U.U.U.U.U.U.U.U.U.U.U.U.U.L.L.L.L.K.G.G.G.G.F.D.D.D.D.D.D.D.D.D.D.D.D.S.D.D.D.D.D.F.H.G.G.G.K.L.L.L.L.U.U.U.U.U.U.U.U.U.U.U.U.U.U.U.U.U.U.U.",
"U.U.U.U.U.U.U.U.U.U.U.U.U.U.U.U.U.U.U.L.L.K.L.J.G.G.G.G.F.D.D.D.D.D.D.D.D.D.D.D.D.D.D.D.D.D.D.F.G.G.G.G.J.L.L.K.L.U.U.U.U.U.U.U.U.U.U.U.U.U.U.U.U.U.U.U.",
"U.U.U.U.U.U.U.U.U.U.U.U.U.U.U.U.U.U.U.L.L.L.L.J.G.G.G.G.F.F.D.D.D.D.D.D.D.D.D.D.D.D.D.D.D.D.D.F.G.G.G.G.K.L.L.L.L.U.U.U.U.U.U.U.U.U.U.U.U.U.U.U.U.U.U.U.",
"U.U.U.U.U.U.U.U.U.U.U.U.U.U.U.U.U.U.U.L.L.L.L.J.G.G.G.G.F.D.D.D.D.D.D.D.D.D.D.D.D.D.D.D.D.D.D.F.G.G.G.G.J.K.L.K.L.U.U.U.U.U.U.U.U.U.U.U.U.U.U.U.U.U.U.U.",
"U.U.U.U.U.U.U.U.U.U.U.U.U.U.U.U.U.U.U.P.I.P.I.P.L.P.P.L.L.L.K.L.K.K.L.K.K.K.K.L.K.L.K.K.K.K.K.L.P.L.L.L.I.I.I.I.I.U.U.U.U.U.U.U.U.U.U.U.U.U.U.U.U.U.U.U.",
"U.U.U.U.U.U.U.U.U.U.U.U.U.U.U.U.U.U.U.U.U.U.U.U.U.U.U.U.U.U.U.U.U.U.U.U.U.U.U.U.U.U.U.U.U.U.U.U.U.U.U.U.U.U.U.U.U.U.U.U.U.U.U.U.U.U.U.U.U.U.U.U.U.U.U.U.",
"U.U.U.U.U.U.U.U.U.U.U.U.U.U.U.U.U.U.U.U.U.U.U.U.U.U.U.U.U.U.U.U.U.U.U.U.U.U.U.U.U.U.U.U.U.U.U.U.U.U.U.U.U.U.U.U.U.U.U.U.U.U.U.U.U.U.U.U.U.U.U.U.U.U.U.U.",
"U.U.U.U.U.U.U.U.U.U.U.U.U.U.U.U.U.U.U.U.U.U.U.U.U.U.U.U.U.U.U.U.U.U.U.U.U.U.U.U.U.U.U.U.U.U.U.U.U.U.U.U.U.U.U.U.U.U.U.U.U.U.U.U.U.U.U.U.U.U.U.U.U.U.U.U.",
"U.U.U.U.U.U.U.U.U.U.U.U.U.U.U.U.U.U.U.U.U.U.U.U.U.U.U.U.U.U.U.U.U.U.U.U.U.U.U.U.U.U.U.U.U.U.U.U.U.U.U.U.U.U.U.U.U.U.U.U.U.U.U.U.U.U.U.U.U.U.U.U.U.U.U.U."
};
