/* XPM */
static char *ff9dbc30a9774aa8b0bf89a3bb1b4341vrpLhW8RjWVXejrD[] = {
/* columns rows colors chars-per-pixel */
"76 76 28 1 ",
"  c #0F0B0D",
". c #110E10",
"X c #120E10",
"o c #131013",
"O c #141113",
"+ c #141214",
"@ c #141215",
"# c #171316",
"$ c #171416",
"% c #161417",
"& c #181417",
"* c #1A1719",
"= c #1B171B",
"- c #1C1A1D",
"; c #1E1B1E",
": c #1F1D1F",
"> c #201E21",
", c #242225",
"< c #272528",
"1 c #29262A",
"2 c #312F33",
"3 c #3F3C3D",
"4 c #464345",
"5 c #5B585A",
"6 c #9F9D9E",
"7 c #B5B4B4",
"8 c #CFCECE",
"9 c #ffECECEC",
/* pixels */
"9999999999999999999999999999999999999999999999999999999999999999999999999999",
"9999999999999999999999999999999999999999999999999999999999999999999999999999",
"999999999999999999999999999999999          999999999999999999999999999999999",
"999999999999999999999999999999999          999999999999999999999999999999999",
"99999999999999999999999          ==========          99999999999999999999999",
"99999999999999999999999          ==========          99999999999999999999999",
"999999999999999999998  =======#  ==========  #=======  899999999999999999999",
"999999999999944444443  =======#  ...XXXXXXX  #=======  344444449999999999999",
"9999999999999          =======#              $-======          9999999999999",
"99999999999  ========         599  X%%%%X  995         ========  99999999999",
"99999999999  =======%         599  X$$##@  995         %=======  99999999999",
"99999999999  ========  #%@  99999  =,,,,#  99999  ###  ========  99999999999",
"99999999999  &&&%=###  %%@  99999  =,,,,#  99999  @#%  #%####=#  99999999999",
"99999999999            %%@  99999  %,,,,=  99999  @%$            99999999999",
"99999999   =====  998  ,,:  99999  -2222-  99999  :,,  899  =====   99999999",
"99999999   =====  998  ,,:  99999  -2222-  99999  :,,  899  =====   99999999",
"99999999   =====  998  ,,:  99999  -2222-  99999  :,,  899  -====   99999999",
"99999999   =====  998  ,,:  99999  -2222-  99999  :,,  899  =====   99999999",
"99999999   =====  998  221  99999  -2222:  99999  <22  899  =====   99999999",
"99999999777XXXXX  998  221  99999  -2222-  99999  <22  899  XXXXX77799999999",
"99999999999       998  221  99999  :2222;  99999  122  899       99999999999",
"99999999   =====  998  221  99999  -2222;  99999  122  899  =====   99999999",
"99999999   =====  998  221  99999  >2222;  99999  122  899  =====   99999999",
"99999999   =====  998  ,,:  99999  #,,,,-  99999  :,,  899  =====   99999999",
"99999999   =====  998  ,,:  99999  =,,,,@. 99999  :,,  899  =====   99999999",
"99999999   =====  998  ,,:  99999  #,,,,#  99999  :,,  899  =====   99999999",
"99999999999       998  $%@  99999  #%%##@  99999  @%#  899       99999999999",
"99999999999       998  $%@  99999  X%###X  99999  @$#  899       99999999999",
"99999999   =====                                            =====   99999999",
"99999999   =====                                            =====   99999999",
"99999999   =====  ,,,,,222222222222222222222222222222,,,,,  =====   99999999",
"99999999   =====  OOOOO$$$$$$$$$$$$$$$$$$$$$$$$$$$$$#@@.@@  =====   99999999",
"99999999   =====                                            =====   99999999",
"99999999999       998  %%%  99999   $%%%X  99999  @$%  899       99999999999",
"99999999999       998  %%#  99999  @%%%%X  99999  @$%  899       99999999999",
"99999999   =====  998  ,,-  99999  %,,,,#  99999  :,,  899  =====   99999999",
"99999999   =====  998  ,,>  99999 X%,,,,=  99999  :,,  899  =====   99999999",
"99999999   =====  998  ,,:  99999  %,,,,$  99999  :,,  899  =====   99999999",
"99999999   =====  998  221  99999  ;2222-X 99999  <22  899  =====   99999999",
"99999999   =====  998  22<  99999  -2222-  99999  122  899  =====   99999999",
"99999999999       998  221  99999  ;2222-  99999  122  899       99999999999",
"99999999999       998  221  99999  ;2222-X 99999  122  899       99999999999",
"99999999   =====  998  221  99999  ;2222-  99999  <22  899  =====   99999999",
"99999999   =====  998  1<>  99999  *<<<<-  99999  ,<<  899  =====   99999999",
"99999999   =====  998  ,,>  99999  $,,,,#  99999  :,,  899  =====   99999999",
"99999999   ====-  998  ,,;  99999 .$,,,,%  99999  :,,  899  =====   99999999",
"99999999   ===**  998  ,,-  99999  #,,,,=  99999  :,,  899  =====   99999999",
"99999999999       998  $%%  99999  @%%%%X  99999  @%%  899       99999999999",
"99999999777XXo .  776  @@X  77777  .o#@$   77777  @@@  677  XXXXX77799999999",
"99999999   ===-*                                            =====   99999999",
"99999999   ===-=  ,,,,,222222222222222222222222222222,,,,,  =====   99999999",
"99999999   =====  ,,,,,222222222222222222222222222222,,,,,  =====   99999999",
"99999999   =====                                            =====   99999999",
"99999999   =====                                            =====   99999999",
"99999999999       998  %%%  99999  o#@$$X  99999  @%%  899       99999999999",
"99999999444#=%$$  998 .:>-  99999  $,::;=  99999  =::X 899  ##=%&44499999999",
"99999999   =====  998  ,,:  99999  %,,,,#  99999  >,,  899  =====   99999999",
"99999999   =====  998  ,,:  99999  $,,,,=  99999 X-,,  899  =====   99999999",
"99999999   =====  998  ,,:  99999  $,,,,=  99999  -,,  899  =====   99999999",
"99999999   =====  998  221  99999  -2222;  99999  122  899  =====   99999999",
"99999999444&##&&  998  221  99999  ;2222-  99999  122  899  #%=#&44499999999",
"99999999999       998  221  99999  ;2222-  99999  122  899       99999999999",
"99999999   =====  998  221  99999  ;2222-X 99999  122  899  =====   99999999",
"99999999   =====  998  221  99999  ;2222-  99999  122  899  =====   99999999",
"99999999   =====  998  221  99999  ;2222;  99999  122  899  =====   99999999",
"99999999   =====  998  221  99999  ;2222;  99999  122  899  =====   99999999",
"99999999   =====  998  221  99999  ;2222;  99999  122  899  =-===   99999999",
"99999944   XXXXX  998  221  99999  ;2222;  99999  122  899   XXXX   44999999",
"999999            998  221  99999  -2222;  99999  122  899            999999",
"999O  ==========  998  ,,;  99999  #,,,,-  99999  :,,  899  ==========  o999",
"999O  ==========  998  ,,>  99999  #,,,,#  99999  :,,  899  ==========  @999",
"999O  ==========  998  ,,;  99999  -,,,,#  99999  ;,,  899  ==========  X999",
"999O  ==========  998  :,*  99999  #;>>>$  99999  -::  899  ==========  #999",
"999O  ==========  998  #$$  99999  @%%%%X  99999  %%&  899  =-========  #999",
"9999999999999999999999999999999999999999999999999999999999999999999999999999",
"9999999999999999999999999999999999999999999999999999999999999999999999999999"
};
