/* XPM */
static char *result[] = {
/* columns rows colors chars-per-pixel */
"76 76 33 1 ",
"  c #170E0E",
". c #20140D",
"X c #231A0D",
"o c #605A0A",
"O c #635D09",
"+ c #605A5A",
"@ c #CC7F02",
"# c #CF8102",
"$ c #D58402",
"% c #FF9F00",
"& c #DAA201",
"* c #FFA300",
"= c #FFA400",
"- c #FFEE00",
"; c #FFFA00",
": c yellow",
"> c #DAA248",
", c #DCA752",
"< c #DFAE5F",
"1 c #908C8C",
"2 c #A39F9B",
"3 c #A6A3A3",
"4 c #A9A6A6",
"5 c #E6C082",
"6 c #FFE1AE",
"7 c #FFE4B8",
"8 c #D6D5D5",
"9 c #FFEED3",
"0 c #E1E1E1",
"q c #E7E7E7",
"w c #ffECECEC",
"e c #FFFAF1",
"r c white",
/* pixels */
"wwwwwwwwwwwwwwwwwwwwwwwwwwwwwwwwwwwwwwwwwwwwwwwwwwwwwwwwwwwwwwwwwwwwwwwwwwww",
"wwwwwwwwwwwwwwwwwwwwwwwwwwwwwwwwwwwwwwwwwwwwwwwwwwwwwwwwwwwwwwwwwwwwwwwwwwww",
"wwwwwwwwwwwwwwwwwwwwwwwwwwwwwwwwwwwwwwwwwwwwwwwwwwwwwwwwwwwwwwwwwwwwwwwwwwww",
"wwwwwwwwwwwwwwwwwwwwwwwwwwwwwwwwwwwwwwwwwwwwwwwwwwwwwwwwwwwwwwwwwwwwwwwwwwww",
"wwwwwwwwwwwwwwwwwwwwwwwwwwwwwwwwwwwwwwwwwwwwwwwwwwwwwwwwwwwwwwwwwwwwwwwwwwww",
"wwwwwwwwwwwwwwwwwwwwwwwwwwwwwwwwwwwwwwwwwwwwwwwwwwwwwwwwwwwwwwwwwwwwwwwwwwww",
"wwwwwwwwwwwwwwwwwwwwwwwwwww                         wwwwwwwwwwwwwwwwwwwwwwww",
"wwwwwwwwwwwwwwwwwwwwwwwwwww                         wwwwwwwwwwwwwwwwwwwwwwww",
"wwwwwwwwwwwwwwwwwwwwwwwwwww                         wwwwwwwwwwwwwwwwwwwwwwww",
"wwwwwwwwwwwwwwwwwwwwwwwwwww                         wwwwwwwwwwwwwwwwwwwwwwww",
"wwwwwwwwwwwwwwwwwwwww      :::::::::::::::::::::::::      wwwwwwwwwwwwwwwwww",
"wwwwwwwwwwwwwwwwwwwww      :::::::::::::::::::::::::      wwwwwwwwwwwwwwwwww",
"wwwwwwwwwwwwwwwwwwwww      :::::::::::::::::::::::::      wwwwwwwwwwwwwwwwww",
"wwwwwwwwwwwwwwwwwwwww      :::::::::::::::::::::::::      wwwwwwwwwwwwwwwwww",
"wwwwwwwwwwwwww3      ::::::%%%%%%%%%%%%%%%%%%%%%%%%%@@@@@@      wwwwwwwwwwww",
"wwwwwwwwwwwwww3      ::::::%%%%%%%%%%%%%%%%%%%%%%%%%@@@@@@      wwwwwwwwwwww",
"wwwwwwwwwwwwww3      ::::::%%%%%%%%%%%%%%%%%%%%%%%%%@@@@@@      wwwwwwwwwwww",
"wwwwwwwwwwwwww3      ::::::%%%%%%%%%%%%%%%%%%%%%%%%%@@@@@@      wwwwwwwwwwww",
"wwwwwwwwwwwwww3      ::::::%%%%%%%%%%%%%%%%%%%%%%%%%@@@@@@      wwwwwwwwwwww",
"wwwwwwwwwwwwww3      ::::::%%%%%%%%%%%%%%%%%%%%%%%%%@@@@@@      wwwwwwwwwwww",
"wwwwwwwwwwwwww3      ::::::%%%%%%%%%%%%%%%%%%%%%%%%%@@@@@@      wwwwwwwwwwww",
"wwwwwwwwwwwwww3      ::::::%%%%%%%%%%%%%%%%%%%%%%%%%@@@@@@      wwwwwwwwwwww",
"wwwwwwwwq000002XXXXXX;;;;;;%%%%%%*============%%%%%%######......000000wwwwww",
"wwwwwwww1     O::::::%%%%%%%%%%%%-::::::::::::%%%%%%%%%%%%@@@@@@      wwwwww",
"wwwwwwww1     O::::::%%%%%%%%%%%%-::::::::::::%%%%%%%%%%%%@@@@@@      wwwwww",
"wwwwwwww1     O::::::%%%%%%%%%%%%-::::::::::::%%%%%%%%%%%%@@@@@@      wwwwww",
"wwwwwwww1     O::::::%%%%%%%%%%%%-::::::::::::%%%%%%%%%%%%@@@@@@      wwwwww",
"wwwwwwww1     O::::::%%%%%%%%%%%%-:::::&@@@@@@%%%%%%%%%%%%@@@@@@      wwwwww",
"wwwwwwww1     O::::::%%%%%%%%%%%%-:::::&@@@@@@%%%%%%%%%%%%@@@@@@      wwwwww",
"wwwwwwww1     O::::::%%%%%%%%%%%%-:::::&@@@@@@%%%%%%%%%%%%@@@@@@      wwwwww",
"wwwwwwww1     O::::::%%%%%%%%%%%%-:::::&@@@@@@%%%%%%%%%%%%@@@@@@      wwwwww",
"wwwwwwww1     O::::::%%%%%%::::::::::::&@@@@@@%%%%%%%%%%%%@@@@@@      wwwwww",
"wwwwwwww1     O::::::%%%%%%::::::::::::&@@@@@@%%%%%%%%%%%%@@@@@@      wwwwww",
"wwwwwwww1     O::::::%%%%%%::::::::::::&@@@@@@%%%%%%%%%%%%@@@@@@      wwwwww",
"wwwwwwww1     O::::::%%%%%%::::::::::::&@@@@@@%%%%%%%%%%%%@@@@@@      wwwwww",
"wwwwwwww1     O::::::%%%%%%%%%%%%-:::::&@@@@@@%%%%%%%%%%%%@@@@@@      wwwwww",
"wwwwwwww1     O::::::%%%%%%%%%%%%-:::::&@@@@@@%%%%%%%%%%%%@@@@@@      wwwwww",
"wwwwwwww1     O::::::%%%%%%%%%%%%-:::::&@@@@@@%%%%%%%%%%%%@@@@@@      wwwwww",
"wwwwwwww1     O::::::%%%%%%%%%%%%-:::::&@@@@@@%%%%%%%%%%%%@@@@@@      wwwwww",
"wwwwwwww1     O::::::%%%%%%%%%%%%-:::::&@@@@@@%%%%%%%%%%%%@@@@@@      wwwwww",
"wwwwwwww1     O::::::%%%%%%%%%%%%-:::::&@@@@@@%%%%%%%%%%%%@@@@@@      wwwwww",
"wwwwwwww1     O::::::%%%%%%%%%%%%-:::::&@@@@@@%%%%%%%%%%%%@@@@@@      wwwwww",
"wwwwwwww1     O::::::%%%%%%%%%%%%-:::::&@@@@@@%%%%%%%%%%%%@@@@@@      wwwwww",
"wwwwwwww1     O::::::%%%%%%%%%%%%-:::::&@@@@@@%%%%%%%%%%%%<<<<<<      wwwwww",
"wwwwwwww1     O::::::%%%%%%%%%%%%-:::::&@@@@@@%%%%%%%%%%%%rrrrrr      wwwwww",
"wwwwwwww1     O::::::%%%%%%%%%%%%-:::::&@@@@@@%%%%%%%%%%%%rrrrrr      wwwwww",
"wwwwwwww1     O::::::%%%%%%%%%%%%-:::::&@@@@@@%%%%%%%%%%%%rrrrrr      wwwwww",
"wwwwwwww1     O::::::%%%%%%%%%%%%-:::::&@@@@@@%%%%%%%%%%%%rrrrrr      wwwwww",
"wwwwwwww1     O::::::%%%%%%%%%%%%-:::::&@@@@@@%%%%%%rrrrrrrrrrrr      wwwwww",
"wwwwwwww1     O::::::%%%%%%%%%%%%-:::::&@@@@@@%%%%%%rrrrrrrrrrrr      wwwwww",
"wwwwwwww1     O::::::%%%%%%%%%%%%-:::::&@@@@@@%%%%%%rrrrrrrrrrrr      wwwwww",
"wwwwwwww1     O::::::%%%%%%%%%%%%-:::::&@@@@@@%%%%%%rrrrrrrrrrrr      wwwwww",
"wwwwwwww1     O::::::%%%%%%%%%%%%$@@@@@@@@@@@@rrrrrrrrrrrr@@@@@@      wwwwww",
"wwwwwwww1     O::::::%%%%%%%%%%%%$@@@@@@@@@@@@rrrrrrrrrrrr@@@@@@      wwwwww",
"wwwwwwww1     O::::::%%%%%%%%%%%%$@@@@@@@@@@@@rrrrrrrrrrrr@@@@@@      wwwwww",
"wwwwwwww1     O::::::%%%%%%%%%%%%$@@@@@@@@@@@@rrrrrrrrrrrr@@@@@@      wwwwww",
"wwwwwwww1     O::::::%%%%%%%%%%%%%%%%%%7rrrrrrrrrrrr%%%%%%rrrrrr      wwwwww",
"wwwwwwww1     O::::::%%%%%%%%%%%%%%%%%%7rrrrrrrrrrrr%%%%%%rrrrrr      wwwwww",
"wwwwwwww1     O::::::%%%%%%%%%%%%%%%%%%7rrrrrrrrrrrr%%%%%%rrrrrr      wwwwww",
"wwwwwwww1     O::::::%%%%%%%%%%%%%%%%%%7rrrrrrrrrrrr%%%%%%rrrrrr      wwwwww",
"wwwwwwwwwwwwww3      ::::::%%%%%%9rrrrrrrrrrrr%%%%%%rrrrrr      wwwwwwwwwwww",
"wwwwwwwwwwwwww3      ::::::%%%%%%9rrrrrrrrrrrr%%%%%%rrrrrr      wwwwwwwwwwww",
"wwwwwwwwwwwwww3      ::::::%%%%%%9rrrrrrrrrrrr%%%%%%rrrrrr      wwwwwwwwwwww",
"wwwwwwwwwwwwww3      ::::::%%%%%%9rrrrrrrrrrrr%%%%%%rrrrrr      wwwwwwwwwwww",
"wwwwwwwwwwwwww8444444oooooo666666errrrr5,,,,,,666666++++++444444wwwwwwwwwwww",
"wwwwwwwwwwwwwwwwwwwww      rrrrrrrrrrrr>@@@@@@rrrrrr      wwwwwwwwwwwwwwwwww",
"wwwwwwwwwwwwwwwwwwwww      rrrrrrrrrrrr>@@@@@@rrrrrr      wwwwwwwwwwwwwwwwww",
"wwwwwwwwwwwwwwwwwwwww      rrrrrrrrrrrr>@@@@@@rrrrrr      wwwwwwwwwwwwwwwwww",
"wwwwwwwwwwwwwwwwwwwww      rrrrrrrrrrrr>@@@@@@rrrrrr      wwwwwwwwwwwwwwwwww",
"wwwwwwwwwwwwwwwwwwwwwwwwwww                         wwwwwwwwwwwwwwwwwwwwwwww",
"wwwwwwwwwwwwwwwwwwwwwwwwwww                         wwwwwwwwwwwwwwwwwwwwwwww",
"wwwwwwwwwwwwwwwwwwwwwwwwwww                         wwwwwwwwwwwwwwwwwwwwwwww",
"wwwwwwwwwwwwwwwwwwwwwwwwwww                         wwwwwwwwwwwwwwwwwwwwwwww",
"wwwwwwwwwwwwwwwwwwwwwwwwwwwwwwwwwwwwwwwwwwwwwwwwwwwwwwwwwwwwwwwwwwwwwwwwwwww",
"wwwwwwwwwwwwwwwwwwwwwwwwwwwwwwwwwwwwwwwwwwwwwwwwwwwwwwwwwwwwwwwwwwwwwwwwwwww",
"wwwwwwwwwwwwwwwwwwwwwwwwwwwwwwwwwwwwwwwwwwwwwwwwwwwwwwwwwwwwwwwwwwwwwwwwwwww"
};
