/* XPM */
static char *_1c4bf910d134b499eaa54d5565adac7UdhHsMrKWddfhfs1[] = {
/* columns rows colors chars-per-pixel */
"76 76 26 1 ",
"  c #170E0E",
". c #36210C",
"X c #3F270C",
"o c #3F370C",
"O c #3C3434",
"+ c #6F4508",
"@ c #714608",
"# c #7A6244",
"$ c #7F7469",
"% c #AA6A05",
"& c #CC7F02",
"* c #817D7D",
"= c #888407",
"- c #8B8607",
"; c #9F9306",
": c #E58F01",
"> c #FF9F00",
", c #FFCF00",
"< c #F6E900",
"1 c #FFEE00",
"2 c yellow",
"3 c #848080",
"4 c #949090",
"5 c #C7C6C6",
"6 c #DAD9D9",
"7 c #ffECECEC",
/* pixels */
"7777777777777777777777777777777777777777777777777777777777777777777777777777",
"7777777777777777777777777777777777777777777777777777777777777777777777777777",
"7777777777777777777777777777777777777777777777777777777777777777777777777777",
"777777777777777777777777775              37777777777777777777777777777777777",
"777777777777777777777777775              37777777777777777777777777777777777",
"777777777777777777777777775              37777777777777777777777777777777777",
"777777777777777777777777775              37777777777777777777777777777777777",
"7777777777777777777       o22222222222222=       577777777777777777777777777",
"7777777777777777777       o22222222222222-       577777777777777777777777777",
"7777777777777777777       o22222222222222-       577777777777777777777777777",
"7777777777777777777       o22222222222222=       577777777777777777777777777",
"7777777777777777777       o22222222222222=       577777777777777777777777777",
"7777777777777777777       o2222222&&&&&&&+       577777777777777777777777777",
"7777777777777777777       o2222222&&&&&&&+       577777777777777777777777777",
"7777777777777777777       o2222222&&&&&&&+       577777777777777777777777777",
"7777777777777777777       o2222222&&&&&&&+       577777777777777777777777777",
"7777777777777777777       o2222222&&&&&&:@       577777777777777777777777777",
"7777777777777777777       o2222222&&&&&&%@       577777777777777777777777777",
"7777777777777777777       o2222222&&&&&&:+       577777777777777777777777777",
"7777777777777777777       o2222222&&&&&&&+       577777777777777777777777777",
"777777777774*******-------;,,,,,,,:::::::%+++++@+$$333***7777777777777777777",
"77777777777O       22222221>>>>>>>>>>>>>>:&&&&:%&.       7777777777777777777",
"77777777777O       22222221>>>>>>>>>>>>>>:&&&&&&&.       7777777777777777777",
"77777777777O       22222221>>>>>>>>>>>>>>:&&&&&&&.       7777777777777777777",
"77777777777O       22222221>>>>>>>>>>>>>>:&&&&&&&.       7777777777777777777",
"77777777777O       22222221>>>>>>>&&&&&&&&&&&&&&&.       7777777777777777777",
"77777777777O       22222221>>>>>>>&&&&&&&&&&&&&&&.       7777777777777777777",
"77777777777O       22222221>>>>>>>&&&&&&&&&&&&&&&.       7777777777777777777",
"77777777777O       22222221>>>>>>>&&&&&&&&&&&&&&&.       7777777777777777777",
"77777777777O       22222221>>>>>>>&&&&&&&&&&&&&&&.       7777777777777777777",
"77777777777O       22222221>>>>>>>&&&&&&&&&&&&&&&.       7777777777777777777",
"77777777777O       22222221>>>>>>>&&&&&&&&&&&&&&&.       7777777777777777777",
"77777777777O       22222221>>>>>>>&&&&&&&&&&&&&&&.       7777777777777777777",
"77777777777O       22222221>>>>>>>&&&&&&&&&&&&&&&.       7777777777777777777",
"77777777777O       22222221>>>>>>>&&&&&&&&&&&&&&&.       7777777777777777777",
"77777777777O       22222221>>>>>>>&&&&&&&&&&&&&&&.       7777777777777777777",
"77777777777O       22222221>>>>>>>&&&&&&&&&&&&&&&.       7777777777777777777",
"77777777777O       22222221>>>>>>>&&&&&&&&&&&&&&&.       7777777777777777777",
"77777777777O       22222221>>>>>>>&&&&&&&&&&&&&&&.       7777777777777777777",
"77777777777O       22222221>>>>>>>&&&&&&&&&&&&&&&.       7777777777777777777",
"77777777777O       22222221>>>>>>>&&&&&&&&&&&&&&&.       7777777777777777777",
"77777777777O       22222221>>>>>>>&&&&&&&&&&&&&&&.       7777777777777777777",
"77777777777O       22222221>>>>>>>&&&&&&&&&&&&&&&.       7777777777777777777",
"77777777777O       22222221>>>>>>>&&&&&&&&&&&&&&&.       7777777777777777777",
"77777777777O       22222221>>>>>>>&&&&&&&&&&&&&&&.       7777777777777777777",
"77777777777O       22222221>>>>>>>&&&&&&&&&&&&&&&.       7777777777777777777",
"77777777777O       22222221>>>>>>>&&&&&&&&&&&&&&&.       7777777777777777777",
"77777777777O       22222221>>>>>>>&&&&&&&&&&&&&&&.       7777777777777777777",
"77777777777O       22222221>>>>>>>&&&&&&&&&&&&&&&.       7777777777777777777",
"77777777777O       22222221>>>>>>>&&&&&&&&&&&&&&&.       7777777777777777777",
"77777777777O       22222221>>>>>>>&&&&&&&&&&&&&&&.       7777777777777777777",
"77777777777O       2222222<&&&&&&&&&&&&&&&&&&&&&&.       7777777777777777777",
"77777777777O       2222222<&&&&&&&&&&&&&&&&&&&&&&.       7777777777777777777",
"77777777777O       2222222<&&&&&&&&&&&&&&&&&&&&&&.       7777777777777777777",
"77777777777O       2222222<&&&&&&&&&&&&&&&&&&&&&&.       7777777777777777777",
"7777777777777777777       X>>>>>>>&&&&&&&+       577777777777777777777777777",
"7777777777777777777       X>>>>>>>&&&&&&&+       577777777777777777777777777",
"7777777777777777777       X>>>>>>>&&&&&&&+       577777777777777777777777777",
"7777777777777777777       X>>>>>>>&&&&&&&+       577777777777777777777777777",
"7777777777777777777       .>>>>>>>&&&&&&&+       577777777777777777777777777",
"7777777777777777777       X>>>>>>>&&&&&&&+       577777777777777777777777777",
"7777777777777777777       X>>>>>>>&&&&&&&+       577777777777777777777777777",
"7777777777777777777       X>>>>>>>&&&&&&&+       577777777777777777777777777",
"7777777777777777777       X>>>>>>>&&&&&&&+       577777777777777777777777777",
"7777777777777777777       .&&&&&&&&&&&&&&+       577777777777777777777777777",
"7777777777777777777       .&&&&&&&&&&&&&&+       577777777777777777777777777",
"7777777777777777777       .&&&&&&&:%&&&&&+       577777777777777777777777777",
"7777777777777777777       .&&&&&&&&:&&&&&+       577777777777777777777777777",
"77777777777777777773****$3$@++@@@@@@@@@@+#*******677777777777777777777777777",
"777777777777777777777777775              37777777777777777777777777777777777",
"777777777777777777777777775              37777777777777777777777777777777777",
"777777777777777777777777775              37777777777777777777777777777777777",
"777777777777777777777777775              37777777777777777777777777777777777",
"7777777777777777777777777777777777777777777777777777777777777777777777777777",
"7777777777777777777777777777777777777777777777777777777777777777777777777777",
"7777777777777777777777777777777777777777777777777777777777777777777777777777"
};
