/* XPM */
static char *result[] = {
/* columns rows colors chars-per-pixel */
"76 76 45 1 ",
"  c #170E0E",
". c #1D1414",
"X c #2A1A0D",
"o c #2F2727",
"O c #342C2C",
"+ c #6D4308",
"@ c #CC7F02",
"# c #858007",
"$ c #D18202",
"% c #D58502",
"& c #E48E01",
"* c #FF9F00",
"= c #FFA200",
"- c #FFA40F",
"; c #FFA91B",
": c #D59630",
"> c #FFB336",
", c #FFCA00",
"< c #FFD400",
"1 c #FFE300",
"2 c #F9F800",
"3 c yellow",
"4 c #FFFF1B",
"5 c #FFFF36",
"6 c #85805D",
"7 c #FFBB4A",
"8 c #FFCA73",
"9 c #FFFF73",
"0 c #858080",
"q c #878383",
"w c #8A8686",
"e c #FFD48C",
"r c #FFFF90",
"t c #F6DBAE",
"y c #FFF8AA",
"u c #FFE3B5",
"i c #FFFFB5",
"p c #D6D5D5",
"a c #F4E4CA",
"s c #FFEBC9",
"d c #FFEDD0",
"f c #ffECECEC",
"g c #FFF5E4",
"h c #F9F8F8",
"j c white",
/* pixels */
"ffffffffffffffffffffffffffffffffffffffffffffffffffffffffffffffffffffffffffff",
"ffffffffffffffffffffffffffffffffffffffffffffffffffffffffffffffffffffffffffff",
"ffffffffffffffffffffffffffffffffffffffffffffffffffffffffffffffffffffffffffff",
"ffffffffffffffffffffffffffffffffffffffffffffffffffffffffffffffffffffffffffff",
"ffffffffffffffffffffffffffffffffffffffffffffffffffffffffffffffffffffffffffff",
"fffffffffffffffffffffffffffff                      fffffffffffffffffffffffff",
"fffffffffffffffffffffffffffff                      fffffffffffffffffffffffff",
"fffffffffffffffffffffffffffff                      fffffffffffffffffffffffff",
"fffffffffffffffffffffffffffff                      fffffffffffffffffffffffff",
"ffffffffffffffffff           3333333333333333333333      fffffffffffffffffff",
"ffffffffffffffffff           3333333333333333333333      fffffffffffffffffff",
"ffffffffffffffffff           3333333333333333333333      fffffffffffffffffff",
"ffffffffffffffffff           3333333333333333333333      fffffffffffffffffff",
"ffffffffffff.     33333333333****************************     ffffffffffffff",
"ffffffffffff.     33333333333****************************     ffffffffffffff",
"ffffffffffff.     33333333333****************************     ffffffffffffff",
"ffffffffffff.     33333333333****************************     ffffffffffffff",
"fffffff     233333***************************************@@@@@      ffffffff",
"fffffff     233333***************************************@@@@@      ffffffff",
"fffffff     233333***************************************@@@@@      ffffffff",
"fffffff     233333***************************************@@@@@      ffffffff",
"fffffff     233333***************************************@@@@@      ffffffff",
"f      33333=*********************,33333*****************jjjjjjjjjjj     fff",
"f      33333=*********************,33333*****************jjjjjjjjjjj     fff",
"f      33333=*********************,33333*****************jjjjjjjjjjj     fff",
"f      33333=*********************,33333*****************jjjjjjjjjjj     fff",
"f      33333=****************33333<*****@@@@@%*****jjjjjjjjjjj@@@@@@     fff",
"f      33333=****************33333<*****@@@@@%*****jjjjjjjjjjj@@@@@@     fff",
"f      33333=****************33333<*****@@@@@%*****jjjjjjjjjjj@@@@@@     fff",
"f      33333=****************33333<*****@@@@@%*****jjjjjjjjjjj@@@@@@     fff",
"f      33333=**********133333***********@@@@@:jjjjjjjjjjj*****jjjjjj     fff",
"f      33333=**********133333***********@@@@@:jjjjjjjjjjj*****jjjjjj     fff",
"f      33333=**********133333***********@@@@@:jjjjjjjjjjj*****jjjjjj     fff",
"f      33333=**********133333***********@@@@@:jjjjjjjjjjj*****jjjjjj     fff",
"f      33333=****************33333<*****jjjjjjjjjjj******jjjjj@@@@@@     fff",
"f      33333=****************33333<*****jjjjjjjjjjj******jjjjj@@@@@@     fff",
"f      33333=****************33333<*****jjjjjjjjjjj******jjjjj@@@@@@     fff",
"f      33333=****************33333<*****jjjjjjjjjjj******jjjjj@@@@@@     fff",
"f      33333=****************333339jjjjjjjjjjd*****jjjjjj*****@@@@@@     fff",
"f      33333=****************333339jjjjjjjjjjd*****jjjjjj*****@@@@@@     fff",
"f      33333=****************333339jjjjjjjjjjd*****jjjjjj*****@@@@@@     fff",
"f      33333=****************333339jjjjjjjjjjd*****jjjjjj*****@@@@@@     fff",
"f      33333=****************55555rjjjjjaaaaat>>>>>ssssss*****@@@@@@     fff",
"f      33333=****************jjjjjjjjjjj@@@@@:jjjjj***********@@@@@@     fff",
"f      33333=****************jjjjjjjjjjj@@@@@:jjjjj***********@@@@@@     fff",
"f      33333=****************jjjjjjjjjjj@@@@@:jjjjj***********@@@@@@     fff",
"f      33333=****************jjjjjjjjjjj@@@@@:jjjjj***********@@@@@@     fff",
"f      33333=**********ujjjjjjjjjje*****jjjjjd****************@@@@@@     fff",
"f      33333=**********ujjjjjjjjjje*****jjjjjd****************@@@@@@     fff",
"f      33333=**********ujjjjjjjjjje*****jjjjjd****************@@@@@@     fff",
"f      33333=**********ujjjjjjjjjje*****jjjjjd****************@@@@@@     fff",
"f      33333=*****jjjjjjjjjjj*****8jjjjj**********************@@@@@@     fff",
"f      33333=*****jjjjjjjjjjj*****8jjjjj**********************@@@@@@     fff",
"f      33333=*****jjjjjjjjjjj*****8jjjjj**********************@@@@@@     fff",
"f      33333=*****jjjjjjjjjjj*****8jjjjj**********************@@@@@@     fff",
"fffffff     hjjjjjjjjjj7*****jjjjje**********************@@@@@      ffffffff",
"fffffff     hjjjjjjjjjj7*****jjjjje**********************@@@@@      ffffffff",
"fffffff     hjjjjjjjjjj7*****jjjjje**********************@@@@@      ffffffff",
"fffffff     hjjjjjjjjjj7*****jjjjje**********************@@@@@      ffffffff",
"fffffffpppppOooooo44444yggggg;;;;;-****************$$$$$$XXXXXppppppffffffff",
"ffffffffffff.     33333ijjjjj**********************@@@@@@     ffffffffffffff",
"ffffffffffff.     33333ijjjjj**********************@@@@@@     ffffffffffffff",
"ffffffffffff.     33333ijjjjj**********************@@@@@@     ffffffffffffff",
"ffffffffffffwqqqqq#####600000&&&&&&&&&&&&&&&&&&&&&&++++++qqqqqffffffffffffff",
"ffffffffffffffffff           @@@@@@@@@@@@@@@@@@@@@@      fffffffffffffffffff",
"ffffffffffffffffff           @@@@@@@@@@@@@@@@@@@@@@      fffffffffffffffffff",
"ffffffffffffffffff           @@@@@@@@@@@@@@@@@@@@@@      fffffffffffffffffff",
"ffffffffffffffffff           @@@@@@@@@@@@@@@@@@@@@@      fffffffffffffffffff",
"fffffffffffffffffffffffffffff                      fffffffffffffffffffffffff",
"fffffffffffffffffffffffffffff                      fffffffffffffffffffffffff",
"fffffffffffffffffffffffffffff                      fffffffffffffffffffffffff",
"fffffffffffffffffffffffffffff                      fffffffffffffffffffffffff",
"ffffffffffffffffffffffffffffffffffffffffffffffffffffffffffffffffffffffffffff",
"ffffffffffffffffffffffffffffffffffffffffffffffffffffffffffffffffffffffffffff",
"ffffffffffffffffffffffffffffffffffffffffffffffffffffffffffffffffffffffffffff",
"ffffffffffffffffffffffffffffffffffffffffffffffffffffffffffffffffffffffffffff"
};
