/* XPM */
static char *_7b93134e89a4866a5d5d19b2ef29b97IC6rmWyYHAIKyHt6[] = {
/* columns rows colors chars-per-pixel */
"76 76 62 1 ",
"  c #170E0E",
". c #311E0C",
"X c #2D2525",
"o c #393131",
"O c #3C3434",
"+ c #443D3D",
"@ c #5D560A",
"# c #5D5656",
"$ c #6E6868",
"% c #7B7676",
"& c #A66705",
"* c #AD6C04",
"= c #A16609",
"- c #B97303",
"; c #C27903",
": c #CC7F02",
"> c #96921A",
", c #A19D06",
"< c #D38402",
"1 c #D78602",
"2 c #D98701",
"3 c #E79001",
"4 c #F29701",
"5 c #F49800",
"6 c #FA9C00",
"7 c #FF9F00",
"8 c #FFA614",
"9 c #FFA91B",
"0 c #D79A37",
"q c #FFAE28",
"w c #E2A239",
"e c #FFB336",
"r c #CECC03",
"t c #D7D602",
"y c #FFE200",
"u c #FFF100",
"i c yellow",
"p c #DAA248",
"a c #FFB843",
"s c #FFBA47",
"d c #FFBC4D",
"f c #FFBD51",
"g c #FFFF51",
"h c #FFC76B",
"j c #FFCA72",
"k c #ACA9A9",
"l c #F5D39B",
"z c #EED3A9",
"x c #F2DDBD",
"c c #ffFFE1AE",
"v c #FFE2B2",
"b c #FFE4B8",
"n c #FFFFB8",
"m c #CDCCCC",
"M c #FFEBC9",
"N c #FFF0D7",
"B c #E1E1E1",
"V c #E6E5E5",
"C c #ffECECEC",
"Z c #FFF5E4",
"A c #FFFAF3",
"S c white",
/* pixels */
"CCCCCCCCCCCCCCCCCCCCCCCCCCCCCCCCCCCCCCCCCCCCCCCCCCCCCCCCCCCCCCCCCCCCCCCCCCCC",
"CCCCCCCCCCCCCCCCCCCCCCCCCCCCCCCCCCCCCCCCCCCCCCCCCCCCCCCCCCCCCCCCCCCCCCCCCCCC",
"CCCCCCCCCCCCCCCCCCCCCCCCCCCCCCCCCCCCCCCCCCCCCCCCCCCCCCCCCCCCCCCCCCCCCCCCCCCC",
"CCCCCCCCCCCCCCCCCCCCCCCCCCC                   +CCCCCCCCCCCCCCCCCCCCCCCCCCCCC",
"CCCCCCCCCCCCCCCCCCCCCCCCCCC                   +CCCCCCCCCCCCCCCCCCCCCCCCCCCCC",
"CCCCCCCCCCCCCCCCCCCCCCCCCCC                   +CCCCCCCCCCCCCCCCCCCCCCCCCCCCC",
"CCCCCCCCCCCCCCCCCCCCCCCCCCC                   +CCCCCCCCCCCCCCCCCCCCCCCCCCCCC",
"CCCCCCCCCCCCCCCCC$$$$$$$$$$,,,,,,,,,,,,,,,,,,,>$$$$$$$$$%CCCCCCCCCCCCCCCCCCC",
"CCCCCCCCCCCCCCCCC          iiiiiiiiiiiiiiiiiiir         XCCCCCCCCCCCCCCCCCCC",
"CCCCCCCCCCCCCCCCC          iiiiiiiiiiiiiiiiiiir         XCCCCCCCCCCCCCCCCCCC",
"CCCCCCCCCCCCCCCCC          iiiiiiiiiiiiiiiiiiir         XCCCCCCCCCCCCCCCCCCC",
"CCCCCCCCCCCCCCCCC          iiiiiiiiiiiiiiiiiiir         XCCCCCCCCCCCCCCCCCCC",
"CCCCCCCCCCCC     iiiiiiiiii7777777777777777777eSSSSSSSSSV    CCCCCCCCCCCCCCC",
"CCCCCCCCCCCC     iiiiiiiiii7777777777777777777eSSSSSSSSSV    CCCCCCCCCCCCCCC",
"CCCCCCCCCCCC     iiiiiiiiii7777777777777777777eSSSSSSSSSV    CCCCCCCCCCCCCCC",
"CCCCCCCCCCCC     iiiiiiiiii7777777777777777777eSSSSSSSSSV    CCCCCCCCCCCCCCC",
"CCCCCCCkkkkk@@@@@yyyyyyyyyy777777777777778ddddjSSSSAvvvvz####kkkkkCCCCCCCCCC",
"CCCCCCC     iiiii777777777777777777777777aSSSSSSSSSN77779SSSS     CCCCCCCCCC",
"CCCCCCC     iiiii777777777777777777777777aSSSSSSSSSN77779SSSS     CCCCCCCCCC",
"CCCCCCC     iiiii777777777777777777777777aSSSSSSSSSN77779SSSS     CCCCCCCCCC",
"CCCCCCC     iiiii777777777777777777777777aSSSSSSSSSN77779SSSS     CCCCCCCCCC",
"CC     iiiii77777777777777777777iiiigSSSSSSSSSM7777qSSSSZ7777:::::     BCCCC",
"CC     iiiii77777777777777777777iiiigSSSSSSSSSM7777qSSSSZ7777:::::     BCCCC",
"CC     iiiii77777777777777777777iiiigSSSSSSSSSM7777qSSSSZ7777:::::     BCCCC",
"CC     iiiii77777777777777777777iiiigSSSSSSSSSM7777qSSSSZ7777:::::     BCCCC",
"CC     iiiii777777777777777iiiiiSSSSSSSSSx::::0SSSSN777777777:::::     BCCCC",
"CC     iiiii777777777777777iiiiiSSSSSSSSSx::::0SSSSN777777777:::::     BCCCC",
"CC     iiiii777777777777777iiiiiSSSSSSSSSx::::0SSSSN777777777:::::     BCCCC",
"CC     iiiii777777777777777iiiiiSSSSSSSSSx::::0SSSSN777777777:::::     BCCCC",
"CC     iiiii777777777777777iiiiiSSSSSSSSSx::::0SSSSN777777777:::::     BCCCC",
"CC     iiiii7777777777iiiiiSSSSSSSSSc7777aSSSSM77777777777777:::::     BCCCC",
"CC     iiiii7777777777iiiiiSSSSSSSSSc7777aSSSSM77777777777777:::::     BCCCC",
"CC     iiiii7777777777iiiiiSSSSSSSSSc7777aSSSSM77777777777777:::::     BCCCC",
"CC     iiiii7777777777iiiiiSSSSSSSSSc7777aSSSSM77777777777777:::::     BCCCC",
"CC     iiiii7777777777nnnnnSSSSSsssshbbbblppppw77777777777777:::::     BCCCC",
"CC     iiiii7777777777SSSSSSSSSS7777fSSSSx::::177777777777777:::::     BCCCC",
"CC     iiiii7777777777SSSSSSSSSS7777fSSSSx::::177777777777777:::::     BCCCC",
"CC     iiiii7777777777SSSSSSSSSS7777fSSSSx::::177777777777777:::::     BCCCC",
"CC     iiiii7777777777SSSSSSSSSS7777fSSSSx::::177777777777777:::::     BCCCC",
"CC     iiiii77777SSSSSSSSSSiiiiiSSSSc77774::::177777777777777:::::     BCCCC",
"CC     iiiii77777SSSSSSSSSSiiiiiSSSSc77774::::177777777777777:::::     BCCCC",
"CC     iiiii77777SSSSSSSSSSiiiiiSSSSc77774::::177777777777777:::::     BCCCC",
"CC     iiiii77777SSSSSSSSSSiiiiiSSSSc77774::::177777777777777:::::     BCCCC",
"CC     iiiiiSSSSSSSSSS77777SSSSS7777777774::::177777777777777:::::     BCCCC",
"CC     iiiiiSSSSSSSSSS77777SSSSS7777777774::::177777777777777:::::     BCCCC",
"CC     iiiiiSSSSSSSSSS77777SSSSS7777777774::::177777777777777:::::     BCCCC",
"CC     iiiiiSSSSSSSSSS77777SSSSS7777777774::::177777777777777:::::     BCCCC",
"CC     iiiiiSSSSSSSSSS77777SSSSS7777777774::::177777777777777:::::     BCCCC",
"CC     SSSSSSSSSS77777SSSSSiiiii7777777774::::177777777777777:::::     BCCCC",
"CC     SSSSSSSSSS77777SSSSSiiiii7777777774::::177777777777777:::::     BCCCC",
"CC     SSSSSSSSSS77777SSSSSiiiii7777777774::::177777777777777:::::     BCCCC",
"CC     SSSSSSSSSS77777SSSSSiiiii7777777774::::177777777777777:::::     BCCCC",
"CC     SSSSS77777SSSSS7777777777:::::::::17777777777777777777:::::     BCCCC",
"CC     SSSSS77777SSSSS7777777777:::::::::17777777777777777777:::::     BCCCC",
"CC     SSSSS77777SSSSS7777777777:::::::::27777777777777777777:::::     BCCCC",
"CC     SSSSS77777SSSSS7777777777:::::::::27777777777777777777:::::     BCCCC",
"CC     SSSSS77777SSSSS7777777777::::::::<17777777777777777777:::::     BCCCC",
"CCCCCCC     SSSSS7777777777777777777777777777777777777776::::     CCCCCCCCCC",
"CCCCCCC     SSSSS7777777777777777777777777777777777777776::::     CCCCCCCCCC",
"CCCCCCC     SSSSS7777777777777777777777777777777777777776::::     CCCCCCCCCC",
"CCCCCCC     SSSSS7777777777777777777777777777777777777776::::     CCCCCCCCCC",
"CCCCCCCmmmmmooooouuuuuuuuuu77777777777777777775<<<<<<<<<;....mmmmmCCCCCCCCCC",
"CCCCCCCCCCCC     iiiiiiiiii77777777777777777775:::::::::-    CCCCCCCCCCCCCCC",
"CCCCCCCCCCCC     iiiiiiiiii77777777777777777775:::::::::-    CCCCCCCCCCCCCCC",
"CCCCCCCCCCCC     iiiiiiiiii77777777777777777775:::::::::-    CCCCCCCCCCCCCCC",
"CCCCCCCCCCCCOOOOOtttttttttt55555555555555565553*********=OOOOCCCCCCCCCCCCCCC",
"CCCCCCCCCCCCCCCCC          :::<:::::<:::::<:::&         XCCCCCCCCCCCCCCCCCCC",
"CCCCCCCCCCCCCCCCC          :::::::::::::::::::&         XCCCCCCCCCCCCCCCCCCC",
"CCCCCCCCCCCCCCCCC          :::::::::::::::::::&         XCCCCCCCCCCCCCCCCCCC",
"CCCCCCCCCCCCCCCCC          :::::::::::::::::::=         XCCCCCCCCCCCCCCCCCCC",
"CCCCCCCCCCCCCCCCCCCCCCCCCCC                   +CCCCCCCCCCCCCCCCCCCCCCCCCCCCC",
"CCCCCCCCCCCCCCCCCCCCCCCCCCC                   +CCCCCCCCCCCCCCCCCCCCCCCCCCCCC",
"CCCCCCCCCCCCCCCCCCCCCCCCCCC                   +CCCCCCCCCCCCCCCCCCCCCCCCCCCCC",
"CCCCCCCCCCCCCCCCCCCCCCCCCCC                   +CCCCCCCCCCCCCCCCCCCCCCCCCCCCC",
"CCCCCCCCCCCCCCCCCCCCCCCCCCC                   +CCCCCCCCCCCCCCCCCCCCCCCCCCCCC",
"CCCCCCCCCCCCCCCCCCCCCCCCCCCCCCCCCCCCCCCCCCCCCCCCCCCCCCCCCCCCCCCCCCCCCCCCCCCC"
};
