/* XPM */
static char *_02a3a5f046847a0d7cf800f9f6a5aebNukSSB8yhnwBTXbi[] = {
/* columns rows colors chars-per-pixel */
"76 76 23 1 ",
"  c #231F1E",
". c #24201E",
"X c #25201F",
"o c #252120",
"O c #262120",
"+ c #282322",
"@ c #292423",
"# c #2A2423",
"$ c #2A2523",
"% c #2B2624",
"& c #2C2625",
"* c #2D2725",
"= c #2E2825",
"- c #2F2826",
"; c #302927",
": c #302A28",
"> c #322B29",
", c #332C29",
"< c #332C2A",
"1 c #332D2A",
"2 c #342D2B",
"3 c #342E2B",
"4 c #362F2C",
/* pixels */
"*******************       **;44*********************************************",
"*******************       **;44*********************************************",
"****************       X**34444*****************************************    ",
"****************       $**44444*****************************************    ",
"***********O       ***==**44444**********    *************************     *",
"***********O       ****=**44444**********    $************************     *",
"***********O       ***=#**44434**********    #************************     *",
"*********          ***;#**443*********     **********    #**44434**        *",
"*********          ***#;**443*********     **********    O**44444**        *",
"*********       ******-;44443*******     *******     **4444444,**       ****",
"*********       *******;44443*******     *******     **4444444,**       ****",
"*********       *******;44433*******     *******     **44444443**       ****",
"******X       *******44444*******        **       #**4444>****#    *****4444",
"******X       *******44444*******        **       #**4444>****#    *****4444",
"******X    $*******4444444*****                 **,4444**O       *****44444*",
"******X    $*******4444444*****                 **,4444**#       *****44444*",
"******X    $*******4444434;=***                 **,4444**XX      *****44444*",
"****       $****44444431**#=$              *****444444444444444444444444*** ",
"****       $****44444443****$              *****444444444444444444444444*** ",
"**       *****4444444331****$         *******14444>****444444444444*****    ",
"**       *****4444444443****#         *******44444>****444444444444*****    ",
"      %****1444444444*****            *****44444*******************        *",
"      %****1444444443*****            *****44444*******************        *",
"      %****1444444444*****            *****44444*******************        *",
"  ****3444444444*******#           X*****4444444*********O                 *",
"  ****3444444444*******#            ****=4444444********%%                 *",
"****4444444;*********            *****4444444**********                 ****",
"****4444444;*********            *****4444444>*********                 ****",
"****4444444;*********            *****4444444>*********                 ****",
"444444444       ***            *******4444444********                 ******",
"444444444       ***            *******4444444********                 ******",
"****       $**               -******444444444********              *********",
"****       %**              O******=444444444>*******              *********",
"**       *****            *******44444444**44*****X                *********",
"**       *****            *******44444444**44***=%OX               *********",
"**       *****            *******44444444**44>****X.               *********",
"**    %****O         **********4444444444**44444 X     *****       *********",
"**    %****O         **********4444444444**44444 .     *****       *********",
"    *****       *************444444444****%  144  $%*****O       **********4",
"    *****       ************>444444444*****  >44  %%*****$       **********4",
"    *****       *************444444444*****  >44 X$******O       **********4",
"  ****X    %*%************4444444444*****    >4444*****  o    O*********4444",
"  ****X    %**************4444444444*****    >4444:****       O*********4444",
"****  %**************444444444444**%**     **44444:****     ***=********444*",
"****  %**************444444444444*****     **14444:****     ************444*",
"****  %**************444444444444*****     **44444=****     ************444*",
"*********44444444444444444441*******       **34444>=*    O************44444*",
"*********44444444444444444441******%       **>4444=**    %************44444*",
"****4444444444444444444444*******        ***=>4444>=*       *****4444444****",
"****4444444444444444444444*******        ****14444:%*       *****4444444****",
"**4444*************************       **********44==***     *=:444444444****",
"**4444=************************       **********44:=***     *==444444444****",
"**4444*************************       **********44>=%=*     **:444444444****",
"4444***************                O************44=*********4444444444**   *",
"4444***************                 ************44:*********4444444444**   *",
"44************ X                 ***************=******444444444444***  ***4",
"44************                   **********************444444444444***  ***4",
"44************                   **********************444444444444***  ***4",
"*********            *******%  **********  44444444444444444441****     ***4",
"*********            *******%  %*********  4444444444444444444>****     ***4",
"******             44*******%            4444444444444444444*****     *****4",
"******X            44*******%            4444444444444444444*****     *****4",
"****       %****44444*****       **=4444444******************=%    *****4444",
"****       %****44444*****       **=4444444******************=O    *****4444",
"****       %****44444*****       ***4444444**********$=*******%    *****4444",
"**    ********44444****%       **44444************O  X.X         %****44444*",
"**    %*******44444****O       **44444************O              *****44444*",
"    *****4444444444****@    O**34444*********O                O=*4444444****",
"    *****4444444444****@    O**44441*********O                O**4444444****",
"    *****4444444444****@    O**44444********%O               OO**4444444****",
"  ****1444444444*****       O**44**********          *%*****4444444444******",
"  ****4444444444*****       O**44**********          *******4444444444******",
"  **4444444>*******       **>4444********    %*********4444444444***********",
"  **4444444********       ***3444********    %*********4444444444***********",
"**4444********         O%***>44**********  **********4444>******************",
"**4444******** X       O****;44**********  **********4444>******************"
};
