/* XPM */
static char *c2bb61c2af0e4f5f94c5e680be9fb9bb2TZm91xYyk2iKXVa[] = {
/* columns rows colors chars-per-pixel */
"76 76 19 1 ",
"  c #231F1E",
". c #24201F",
"X c #25211F",
"o c #252120",
"O c #262220",
"+ c #282321",
"@ c #292423",
"# c #2A2423",
"$ c #2B2524",
"% c #2C2624",
"& c #2D2725",
"* c #2F2926",
"= c #2F2927",
"- c #302A27",
"; c #312B28",
": c #332C2A",
"> c #342D2B",
", c #362F2C",
"< c #EAEAEA",
/* pixels */
"<&&&&&&&&&&&&&&&&&&&       &&>,,&&&&&&&&&&&&&&&&&&&&&&&&&&&&&&&&*$*$*$*$*$*$",
"<&&&&&&&&&&&&&&&&&&&       &&>,,&&&&&&&&&&&&&&&&&&&&&&&&&&&&&&&&$*$*$*$*$*$*",
"<&&&&&&&&&&&&&&&&       $&&,,,,,&&&&&&&&&&&&&&&&&&&&&&&&&&&&&&&&*$*$*$*$  ..",
"<&&&&&&&&&&&&&&&&       +&&,,,,,&&&&&&&&&&&&&&&&&&&&&&&&&&&&&&&&$*$*$*$*.   ",
"<&&&&&&&&&&&#       &&&&&&&,,,,,&&&&&&&&&     &&&&&&&&&&&&&&&&&&*$*$%*  . .#",
"<&&&&&&&&&&&#       &&&&&&&,,,,,&&&&&&&&&     &&&&&&&&&&&&&&&&&&$*$**#    .$",
"<&&&&&&&&&&&#       &&&&&&&,,,,,&&&&&&&&&     &&&&&&&&&&&&&&&&&&*$*%$*     *",
"<&&&&&&&&&          &&&&&&&,,=&&&&&&&&&     &&&&&&&&&     &&:,,,>*$X       $",
"<&&&&&&&&&          &&&&&&&,,*&&&&&&&&&     &&&&&&&&&     *&:,,,:**..      *",
"<&&&&&&&&&       &&&&&&&:,,,,&&&&&&&     &&&&&&&#    &&:,>,,>,>*$ .     #*$$",
"<&&&&&&&&&       &&&&&&&:,,,,=&&&&&&     &&&&&&&#.   &&=,,,,,,,**  .    #*%*",
"<&&&&&&&&&       &&&&&&&:,,,,=&&&&&&     &&&&&&&#.   &&:,,,,,,>&$  .    #**#",
"<&&&&&&$       &&&&&&&,,,,,&&&&&&&       &&&    .  #&>,,,,&&*&&    #*$*$,,,,",
"<&&&&&&$       &&&&&&&,,,,,&&&&&&&       &&&      .&*,,,,>&&&&& .. #$*$*:,,,",
"<&&&&&&$    O&&&&&&&,,,,,,,&&&&&                X&&,,,,=*&       $*$*$,,,,,*",
"<&&&&&&$    O&&&&&&&,,,,,,,&&&&&                X&&,,,,:&&       *$*$*,,,,,$",
"<&&&&&&$    O&&&&&&&,,,,,,,&&&&&                X**:,,,:*$O. X. .*#*%*,,,,,*",
"<&&&&       O&&&&,,,,,,,-&&&&O              $*$**,,,,,,,,>,,:,,:,,,,,>,,*$$ ",
"<&&&&       O&&&&,,,,,,,-&&&&O        .   .O*$*$*,,,:,,>,,,,,,,,,,,,,,,,*$* ",
"<&&       &&&&&,,,,,,,,,-&&&&O        .$*$$*$*,,,,>*$**:,,,,,,,,,,,**$*$.   ",
"<&&       &&&&&,,,,,,,,,-&&&&X         *$*$***>,,,>**$**,:,:,:,,,,,*%#*#... ",
"<      X&&&&-,,,,,,,,,&&&&&            $*$$*,,,,:*$*$*$*******$*%**X...  ..%",
"<      X&&&&-,,,,,,,,,&&&&&            *$**$,,,,:$*$*$*$$**$*$*$*%%...     *",
"<      X&&&&-,,,,,,,,,&&&&&            $*$**,,,,>*$*$*$**$$*$*$*%%%.       #",
"<  &&&&*,,,,,,,,,&&&&&&&O           $*$**:,,,,,,:$*$*$*$$*                .$",
"<  &&&&*,,,,,,,,,&&&&&&&+           *$*$*,,,,,,>>*$*$*$**$                .*",
"<&&&&,,,,,,,:&&&&&&&&&            $*$*$,,,,,,,*$*$*$*$*O                #**$",
"<&&&&,,,,,,,:&&&&&&&&&            *$*$*,,,,,,,$*$*$*$*$$                #$$*",
"<&&&&,,,,,,,:&&&&&&&&&            *$$*$,,,,,,,*$*$*$*$*O            ....#*$*",
"<,,,,,,,,,       &&&            $*$**$*,,,,,,>$*$*$*$                .#$***$",
"<,,,,,,,,,       &&&            *$*$$*$,,,,,,,*$*$*$*             ..  $*$*$*",
"<&&&&       O&&              #&&$*$*,,,,,,,,,,$*$*$*$              #*#*$*$*$",
"<*%%#    ...o*$            oo$%=*$*$,,,,,,,,,,*$*$*$$..            #*#$*$*$*",
"<%%..    .$$*$*            %$=%%$*,,,,,,,$*$,,$*$**.               ##**$*$*$",
"<%%...    $*$**           o$%%=%*$,,,,,,,*$*,,*$#*$.   .          .#**$*$*$*",
"<*#   ..  *$*$$        o  o%%*%%$*,,,,,,,$**,,$***#.   X         ..$*$*$*$*$",
"<*%..  .$*$*$         $*$%%*%%==,,,,,,,,,*$*,,,,:     .X$*$*X.     #*$*$$**$",
"<%%... .*$*$+        o%%%*%%*%%%,,,,,,,,,$*$,,,,*     .X*$*$X.  .. #$*$**$%*",
"< ...#$*$*      o%$%%=%==%=%%>,,,,,,,,,*#**%..,,:  *$*$*$*       $*$*$*$$*$,",
"<   .$*$*$      o%*%%=%%%%=%=>,,,,,,,,,$**##  ,,*. $*$*$*$       *$*$*$**$*:",
"< .  *%*$%o   .. $%%==%%=%%%%>,,,,,,,,,*$$*#  >,:..*$*$*$*       $*$*$*$*$*,",
"< .*#%%#  . o$%*%%=%%%%=%%=,,,,,,,,,$**$*  .  ,,,,>$*$*X      .$*$$*$*$*,,,,",
"<..%*#*#o. o.%%%*=%%%%%=%=%,,,,,,,,,*$*$$   ..,,,,,*$*$#    ...#$*$**$*$,,,,",
"<#%%%...%%$=***%%%%=*=,>,,,,,,,,,,$*$*$ . .X$*,,,,,$*$*+    X#***$*$$*$*:,,$",
"<*$**...=%%%%%%*%=*%%%>,,,,,,,,,,,*$*$* .  .#*,,,,,$$*$#    ##**$*$*$*$*,,,%",
"<$*$#...%%=%==%=%%%=%=,,,,,,,,,,,,$*$*$    .#*,,,,>**$*O    #**#*$*$*$*$:,,*",
"<$%*%*%%%*,,>,,,>,,,,,,,,,,,,=%=*$*$.      .*$,,,,,**     $*$*$*$*$*$*,,,,,$",
"<**#*%*%%=,,,,,,,,,,,,,,,,,,,=%=$*$*.       $*,,,,,$$     *$*$*$*$*$*$,,,,,*",
"<*$*$,,,,,,,,,,,,,,,,,,,,,,==%%%$*     . *$*%*,,,,,*%o.     O*$**,,,,,,,$$*$",
"<$*$*,,,,,,,,,,,,,,,,,,,,,,%%%=%*$     . $*$**,:,,,$$.      $%*$$,,,,,,,**$*",
"<*$,,,,:*$*$*$*$%=%*%%%%%%%=%=%*       $$*$*$**$*,,*%*%$    O*$,,,,,,,,,*$*$",
"<$*,,,,,$*$*$*$*%=%%%==%==%%%=%%       **$*$*$$*=,,$%*%+    $$*,,,,,,,,,**$*",
"<$*>,,>:*$*$*$*$%*%%%$%$%%$%%*$%       $$*$**$*$=,,*$*$O    $*$,,,,,,,,,$*%*",
"<,,,>**$$*$*$*$*%*%*o o oo   o      *$$**$*$$*$*=,,$*$*$$*$*::,,,,,,,,*$ o.$",
"<,,>,*$**$*$*$*$$%%$.               $*$*$*$**$*$=,,*$*$$*$*$:,,,,,,,,,$*o. *",
"<,,**$*$$*$*$*%....               *$*$*$*$*$$*$**$*$*$*:,,,,,,,,,,,**$  $$$,",
"<,,$*$*$*$%*$*$.                  $*$*$*$*$*$**$*$*$*$**,,,,,,,,,,,***  $**,",
"<,,*$*$*$**#*$#.       o   .      *$*$*$*$*$*$%*$*$*$*$:,,,,,,,,,:,**%  $$*,",
"<**$*$*$*$.   ..      $*$%%*$X  $*$*$*$** X.:,,,,,,,,,,,,,,,,,,**$*.    $*%>",
"<$$*$*$*$*.    .      %%%*%*#+  *$*$*$*$$..O,,,,,,,,,,,,,,,,,,,$%*#.    #**,",
"<$*$%*$#            ,,=%%%*%*..    .    .:,,,,,,,,,,,,,,,,,,=*$**..   $**$*:",
"<*$**#*#         o  ,,%%*%*%%.     .    o,,,,,,,,,,,,,,,,,,::$*$#     *$$**,",
"<$*$*.    . X*#*=,,,,,%=%*%o      *$,,:,,,,,*$*$*$*$*$*$*$$*#*$o  .#$*$*>,>,",
"<*$*#     ..X#*%%,,,,,%=%%$       %*,,,,,,,>$*$*$*$*$*$*$**$**#.  .#*$**>,,,",
"<**$*   .. .X%$*$,,,>,*$*$#..   ..$*:,,,,>,>$*$*$**$*$*$$*$$*$$.. .#*%*$>,,>",
"<$$   .X$*#*$**,,,,,*$$*X.  .   $*:,,,:**%***$*$*$$   ..  .... ..#$*#*,:,,,*",
"<%* .. .*$$***$,,,,,$*$*X..  .  *%,,,:,%*$*$$**$$$*            ..*****,,:,>$",
"<.   $*%$*,,>,,,,,,,*$*$+.   #*#,,,,****$*$**$  ..             $%::,:,,,****",
"< .. *$**$,,,,,,,,,,*$%*.    #%*,,,,$*$**$*$*$                 **,,,,,,,*$*$",
"<  . $*$$*,,,,,,,,,,$**#.    #*%,,,,*$*$$*%*$*                 *%,,,,,,,*$$*",
"< .#$*$*,,,,,,,,,$*$*$. X.  .##*,,$*$*$**$*%.        *$*$*%$:>,,>,,,,,**$*$*",
"< .$*$**,,,,,,,>,*$*$*.  .  .#*%,:*$*$*$$*$$.        $*$*$**:,,,,,,,,:*$*$*$",
"<  #*>,,,,,,:*$*$*$*       #*:,,,,**$*$*#    .$*$*$*%*$=,,,,,,,,,*$*$*$*$*$*",
"< .*%,,,,,,,:$*$*$*#       *%:,,,:*$*$*$%  . .*$*$*$****,,,,,>,,,**$*$*$*$*$",
"<*#,,,,:*$*$$*#...      #%*%*>,,#*%*$*$**...##**$*$*%:,,,,***$*%$*$*$*$*$*$*",
"<%*,,,,:$*$**%*.      .O##%*%:,,*%*%*$*$#..X%*##*$*$*,,:,:*$$*$**$*$*$*$*$*$"
};
