/* XPM */
static char *_a4a393742bb42cda23e178e16f3bd58sGHlAOufLDgjP8HV[] = {
/* columns rows colors chars-per-pixel */
"76 76 20 1 ",
"  c #5A3335",
". c #5F3536",
"X c #643635",
"o c #6E3D38",
"O c #733F39",
"+ c #744039",
"@ c #794038",
"# c #7A433A",
"$ c #874035",
"% c #8B4236",
"& c #914335",
"* c #934636",
"= c #94513C",
"- c #99523C",
"; c #9B553D",
": c #9D583F",
"> c #A65B3E",
", c #A86447",
"< c #CE7344",
"1 c #D77643",
/* pixels */
"OOOOOOO&&&OOOOOOOOOOOO#;;;;;;;;;;;;;;;OOOOOOOOOOOOOOOOOOO&&&*;;;;;;;;;&&&OOO",
"OOOOOOO&&&OOOOOOOOOOOO#;;;;;;;;;;;;;;;OOOOOOOOOOOOOOOOOOO&&&*;;;;;;;;;&&&OOO",
"OOOOOOO&&&OOOOOOOOOOOO$;;;;;;;;;;;;;;;OOOOOOOOOOOOOOOOOOO&&&*;;;;;;;;;&&&OOO",
"OOOOOOO%%%OOOOOOOOOOOO#---;;;;;;;;;---OOOOOOOOOOOOOOOOOOO$$$%---------$$$OOO",
"OOOOOOOOOOOOOOOOOOOOOOO&*&;;;;;;;;;&&&OOOOOOOOOOOOOOOOOOO   X&&&&&&&&&   OOO",
"OOOOOOOOOOOOOOOOOOOOOOO&&&;;;;;;;;;&&&OOOOOOOOOOOOOOOOOOO   X&&&&&&&&&   OOO",
"OOOOOOOOOOOOOOOOOOOOOO#%&&;;;;;;;;;&&&OOOOOOOOOOOOOOOOOOO   X&&&&&&&&&   OOO",
"OOO#;;;;;;;;;;;;OOOOOOo   &&&&&&&&&   OOOOOOOOOOOOOOOOOOOOOOo         OOOOOO",
"OOO#;;;;;;;;;;;;OOOOOOo   &&&&&&&&&   OOOOOOOOOOOOOOOOOOOOOOo         OOOOOO",
"OOO#;;;;;;;;;;;;OOOOOOo   &&&&&&&&&   OOOOOOOOOOOOOOOOOOOOOOo         OOOOOO",
";;;;;;;,,,,,,111;;;OOOOOOO         OOOOOO#;;;;;;;;;OOOOOOOOOOOOOOOOOOOOOOOOO",
";;;;;;;,,,,,,111;;;OOOOOOO         OOOOOO#;;;;;;;;;OOOOOOOOOOOOOOOOOOOOOOOOO",
";;;;;;;,,,,,,111;;;OOOOOOO         OOOOOO#;;;;;;;;;OOOOOOOOOOOOOOOOOOOOOOOOO",
";;;;;;;;;;;;;,,,;;;OOOOOOOOOOOOOOOOOOO;;;>111,,,;;;;;;OOOOOOOOOOOOOOOOOOOOOO",
";;;;;;;;;;;;;,,,;;;OOOOOOOOOOOOOOOOOOO;;;>111,,,;;;;;;OOOOOOOOOOOOOOOOOOOOOO",
";;;;;;;;;;;;;,,,;;;OOOOOOOOOOOOOOOOOOO;;;>111,,,;;;;;;OOOOOOOOOOOOOOOOOOOOOO",
"&&&*;;;;;;;;;;;;&&&OOOOOOOOOOOOOOOOOOO&&&*;;;;;;;;;&&&OOOOOOOOOOOOOOOOOOOOOO",
"&&&*;;;;;;;;;;;;&&&OOOOOOOOOOOOOOOOOOO&&&*;;;;;;;;;&&&OOOOOOOOOOOOOOOOOOOOOO",
"&&&*;;;;;;;;;;;;&&&OOOOOOOOOOOOOOOOOOO&&&*;;;;;;;;;&&&OOOOOOOOOOOOOOOOOOOOOO",
"   X&&&&&&&&&&&&   OOOOOOOOOOOOOOOOOOO   X&&&&&&&&&   OOOOOOOOOOOOO;;;;;;OOO",
"   X&&&&&&&&&&&*   OOOOOOOOOOOOOOOOOOO   X&&&&&&&&&   OOOOOOOOOOOOO;;;;;;OOO",
"   X&&&&&&&&&&&%   OOOOOOOOOOOOOOOOOOO   X&&&&&&&&&   OOOOOOOOOOOOO;;;;;;OOO",
"X..X$$$$$$$$$$$$..XOOOOOOO#########OOO..XX$$$$$$$$$...OOOOOOOOOOOOO======OOO",
"OOOo            OOOOOOOOOO;;;;;;;;;OOOOOOo         OOOOOOOOOOOOOOOOOOOOOOOOO",
"OOOo            OOOOOOOOOO;;;;;;;;;OOOOOOo        .OOOOOOOOOOOOOOOOOOOOOOOOO",
"OOOo            OOOOOOOOOO;;;;;;;;;OOOOOOo        .OOOOOOOOOOOOOOOOOOOOOOOOO",
"OOOOOOOOOOOOOOOOOOOOOO#;;;111,,,;;;;;;OOOOOOOOOOOOOOOOOOO&&&%OOOOOOOOOOOOOOO",
"OOOOOOOOOOOOOOOOOOOOOO#;;;111,,,;;;;;;OOOOOOOOOOOOOOOOOOO&&&%OOOOOOOOOOOOOOO",
"OOOOOOOOOOOOOOOOOOOOOO#;;;111,,,;;;;;;OOOOOOOOOOOOOOOOOOO&&&%OOOOOOOOOOOOOOO",
"OOOOOOOOOO;;;OOOOOOOOO#;;;,,,;;;;;;;;;OOOOOOO;;;OOOOOOOOOOOO#&&&&&&&&&OOOOOO",
"OOOOOOOOOO;;;OOOOOOOOO#;;;,,,;;;;;;;;;OOOOOOO;;;OOOOOOOOOOOOO&&&&&&&&&OOOOOO",
"OOOOOOOOOO;;;OOOOOOOOO#-;;,,,;;;;;;;;;OOOOOOO;;-OOOOOOOOOOOOO&&&&&&&&&OOOOOO",
"OOOOOOOOOO;;;OOOOOOOOOO&&&;;;;;;;;;&&&OOOOOOOOOOOOOOOOOOOOOOOOOOOOOOOOOOOOOO",
"OOOOOOOOOO;;;OOOOOOOOO$&&&;;;;;;;;;&&&OOOOOOOOOOOOOOOOOOOOOOOOOOOOOOOOOOOOOO",
"OOOOOOOOOO;;;OOOOOOOOOO&&&;;;;;;;;;&&&OOOOOOOOOOOOOOOOOOOOOOOOOOOOOOOOOOOOOO",
";;;;;;;OOOOOO;;;OOOOOOo   &&&&&&&&&   OOOOOOO;;;;;;;;;OOOOOOOOOO;;;OOOOOO;;;",
";;;;;;;OOOOOO;;;OOOOOOo   &&&&&&&&&   OOOOOOO;;;;;;;;;OOOOOOOOOO;;;OOOOOO;;;",
";;;;;;;OOOOOO;;;OOOOOOo   &&&%&&&&&   OOOOOOO;;;;;;;;;OOOOOOOOOO;;;OOOOOO;;;",
";;;;;;;;;;OOOOOOOOOOOOOOOO         OOOOOO#;;;111,,,;;;;;;OOOOOOOOOOOOO;;;;;;",
";;;;;;;;;;OOOOOOOOOOOOOOOO         OOOOOO#;;;111,,,;;;;;;OOOOOOOOOOOOO;;;;;;",
";;;;;;;;;;OOOOOOOOOOOOOOOO         OOOOOO#;;;111,,,;;;;;;OOOOOOOOOOOOO;;;;;;",
";;;;;;;---OOOOOOOOOOOOOOOOX........OOOOOO#;;;<<<,,,;;;;;;####OOOOOOOOO---;;;",
";;;;;;;&&&OOOOOOOOOOOOOOOOOOOOOOOOOOOOOOO#;;;,,,,,,;;;;;;;;;=OOOOOOOOO&&&;;;",
";;;;;;;&&&OOOOOOOOOOOOOOOOOOOOOOOOOOOOOOO#;;;,,,,,,;;;;;;;;;=OOOOOOOOO&&&;;;",
";;;;;;;&&&OOOOOOOOOOOOOOOOOOOOOOOOOOOOOOO#;;;,,,,,,;;;;;;;;;=OOOOOOOOO&&&;;;",
"&&&&&&&   OOOOOOOOOOOOOOOOOOOOOOOOOOOOOOO#;;;;;;;;;;;;;;;;;;-;;;OOOOOO   &&&",
"&&&&&&&   OOOOOOOOOOOOOOOOOOOOOOOOOOOOOOO#;;;;;;;;;;;;;;;;;;;;;;OOOOOO   &&&",
"&&&&&&&   OOOOOOOOOOOOOOOOOOOOOOOOOOOOOOO#;;;;;;;;;;;;;;;;;;;;;;OOOOOO   &&&",
"       OOOOOOOOO&&&;;;=OOOOOOOOOOOOOOOOOOO&&&;;;;;;;;;;;;;;;-&&&OOOOOOOOO   ",
"       OOOOOOOOO&&&;;;=OOOOOOOOOOOOOOOOOO#&&&;;;;;;;;;;;;;;;-&&&OOOOOOOOO   ",
"       OOOOOOOOO&&&;;;=OOOOOOOOOOOOOOOOOOO&&&;;;;;;;;;;;;;;;-&&&OOOOOOOOO   ",
"OOOOOOOOOOOOOOOOOOOOOOOOOOOOOOOO;;;OOOOOOO   &&&&&&&&&&&&&&&$   OOOOOOOOOOOO",
"OOOOOOOOOOOOOOOOOOOOOOOOOOOOOOOO;;;OOOOOOo   &&&&&&&&&&&&&&&$   OOOOOOOOOOOO",
"OOOOOOOOOOOOOOOOOOOOOOOOOOOOOOOO;;;OOOOOOo   &&&&&&&&&&&&&&&$   OOOOOOOOOOOO",
";;;=OOOOOOOOOOOOOOOOOOOOOOOOOOOO;;;OOOOOOOOOO               .OOOOOOOOO&&&&&&",
";;;=OOOOOOOOOOOOOOOOOOOOOOOOOOOO;;;OOOOOOOOOO               .OOOOOOOOO&&&&&&",
";;;=OOOOOOOOOOOOOOOOOOOOOOOOOOOO;;;OOOOOOOOOO               .OOOOOOOOO&&&&&&",
"OOOOOOO;;;;;;;;;OOOOOOOOOOOOOOOOOOO;;;OOOOOOOOOOOOOOOOOOOOOOOOOOOOOOOOOOOOOO",
"OOOOOOO;;;;;;;;;OOOOOOOOOOOOOOOOOOO;;;OOOOOOOOOOOOOOOOOOOOOOOOOOOOOOOOOOOOOO",
"OOOOOOO;;;;;;;;;OOOOOOOOOOOOOOOOOOO;;;OOOOOOOOOOOOOOOOOOOOOOOOOOOOOOOOOOOOOO",
"OOO+###>>>:::;;;###OOOOOOOOOOOOOOOo---oOOOOOOOOOOOOOOOOOOOOOOOOOOOOOOOOOOOOO",
"OOO#;;;111,,,;;;;;;OOOOOOOOOOOOOOOOOOOOOOOOOOOOOOOOOOOOOOOOOOOOOOOOOOOOOOOOO",
"OOO#;;;111,,,;;;;;;OOOOOOOOOOOOOOOOOOOOOOOOOOOOOOOOOOOOOOOOOOOOOOOOOOOOOOOOO",
"OOO#;;;111,,,;;;;;;OOOOOOOOOOOOOOOOOOOOOOOOOOOOOOOOOOOOOOOOOOOOOOOOOOOOOOOOO",
"OOO#;;;;;;;;;;;;;;;OOOOOOOOOOOOOOOOOOOOOOOOOOOOOOOOOOOOOOOOO#;;;;;;;;;OOOOOO",
"OOO#;;;;;;;;;;;;;;;OOOOOOOOOOOOOOOOOOOOOOOOOOOOOOOOOOOOOOOOO#;;;;;;;;;OOOOOO",
"OOO#;;;;;;;;;;;;;;;OOOOOOOOOOOOOOOOOOOOOOOOOOOOOOOOOOOOOOOOO#;;;;;;;;;OOOOOO",
"OOO@&&&;;;;;;;;;&&&OOOOOOO;;;;;;;;;OOOOOOOOOOOOO&&&OOOOOO;;;>111,,,;;;;;;OOO",
"OOO@&&&;;;;;;;;;&&&OOOOOOO;;;;;;;;;OOOOOOOOOOOOO&&&OOOOOO;;;>111,,,;;;;;;OOO",
"OOO@&&&;;;;;;;;;&&&OOOOOOO;;;;;;;;;OOOOOOOOOOOOO&&&OOOOOO;;;>111,,,;;;;;;OOO",
"OOOo   &&&&&&&&&   OOO#;;;;;;,,,;;;;;;OOOOOOOOOOOOOOOOOOO;;;;;;;;;;;;;;;;OOO",
"OOOo   &&&&&&&&&   OOO#;;;;;;,,,;;;;;;OOOOOOOOOOOOOOOOOOO;;;;;;;;;;;;;;;;OOO",
"OOOo   &&&&&&&&&   OOO#;;;;;;,,,;;;;;;OOOOOOOOOOOOOOOOOOO;;;;;;;;;;;;;;;;OOO",
"OOOOOOO         OOOOOO#;;;;;;;;;;;;;;;OOOOOOOOOOOOOOOOOOO;;;;;;;;;;;;;;;;OOO",
"OOOOOOO         OOOOOO#;;;;;;;;;;;;;;;OOOOOOOOOOOOOOOOOOO;;;;;;;;;;;;;;;;OOO",
"OOOOOOO         OOOOOO#;;;;;;;;;;;;;;;OOOOOOOOOOOOOOOOOOO;;;;;;;;;;;;;;;;OOO"
};
